<svg width="277" height="270" viewBox="0 0 277 270" fill="none" xmlns="http://www.w3.org/2000/svg">
<path d="M275.527 124.012C274.769 120.374 273.405 116.889 273.064 113.175C272.458 106.279 270.905 99.5728 268.216 93.1694C267.534 91.5022 266.095 89.873 266.133 88.2437C266.171 85.9703 265.11 86.5765 263.974 86.7281C263.216 89.6456 263.671 92.601 264.353 95.367C266.322 103.286 268.443 111.129 268.254 119.465C268.102 125.793 268.254 132.12 268.557 138.448C269.012 147.087 268.405 155.688 267.421 164.251C267.231 165.842 266.701 167.282 265.299 168.04C264.087 168.684 263.595 169.783 263.027 170.768C261.284 174.027 259.618 177.323 258.178 180.695C253.444 191.683 246.55 201.308 239.164 210.628C232.649 218.851 225.452 226.58 216.853 232.491C207.611 238.857 197.535 243.934 187.157 248.291C182.649 250.186 178.369 252.649 173.672 254.126C166.854 256.286 159.733 255.414 152.764 256.096C141.135 257.233 129.431 257.233 117.764 257.612C115.605 257.688 113.37 257.271 111.211 256.892C105.643 255.869 100.302 253.293 94.4313 254.126C93.5979 254.24 92.8782 253.785 92.1207 253.52C87.9162 252.156 84.0905 249.92 80.0754 248.215C74.621 245.904 69.2044 243.555 64.7727 239.539C60.8333 235.977 55.985 233.476 53.1441 228.74C52.538 227.717 51.4396 227.073 50.379 226.429C48.9396 225.557 47.2351 224.761 46.2502 223.473C43.0306 219.229 40.1519 214.758 37.008 210.439C33.902 206.157 31.705 201.232 28.0687 197.291C26.0991 195.169 23.6749 193.426 22.3492 190.736C18.7129 183.499 15.872 175.997 13.7887 168.116C11.6297 159.932 9.84939 151.709 8.86456 143.298C8.4479 139.812 7.50093 136.25 8.18273 132.802C9.2812 127.308 9.84936 121.776 11.4402 116.358C13.6751 108.78 14.3569 100.823 17.5387 93.4725C19.622 88.6226 21.8568 83.7727 22.8795 78.468C23.637 74.5275 24.6597 70.5869 27.1218 67.2526C29.9248 63.4636 33.0308 59.902 35.4171 55.8477C37.8792 51.6798 40.7579 47.8908 43.9018 44.2913C55.3789 31.1434 69.6968 21.7846 85.1511 14.0171C87.9541 12.6152 90.4162 10.3418 93.8631 10.266C97.9918 10.1902 101.969 8.90196 105.719 7.46214C110.416 5.64342 114.772 2.83956 120.075 2.91534C120.908 2.91534 121.931 2.53645 121.666 1.55131C121.438 0.679837 120.416 0.869287 119.582 0.982957C114.658 1.70287 109.81 3.06693 104.772 2.99115C100.454 2.91537 96.363 4.08995 92.954 6.81803C91.4389 8.03051 89.6965 8.78831 88.0298 8.71253C84.5451 8.56097 81.7799 9.96287 79.0148 11.6679C78.5982 11.9332 78.1815 12.2742 77.6891 12.3878C72.0453 13.4867 67.765 16.9725 63.4091 20.3447C58.3334 24.2853 53.2577 28.3017 48.182 32.2422C39.5837 38.9488 31.5535 46.1478 24.887 54.8625C19.7734 61.4933 15.6447 68.6924 11.213 75.74C10.3797 77.0661 9.12969 78.0513 8.75091 79.7942C6.62973 88.9636 4.6601 98.1709 2.00863 107.189C-0.264061 114.994 0.0768238 122.951 0.00106759 130.832C-0.0368105 134.545 0.948011 138.372 0.607108 142.199C0.37984 144.851 0.493483 147.352 1.3268 149.967C2.42527 153.377 3.52373 156.9 3.78888 160.462C4.43281 169.063 7.38728 176.793 11.0615 184.446C12.9175 188.311 15.6826 191.683 17.0841 195.851C20.1143 204.869 25.8339 212.22 32.2732 219.116C36.0231 223.132 41.1746 225.557 44.5836 229.99C49.2805 236.128 55.7198 240.031 62.4242 243.593C66.4393 245.715 70.9468 246.965 74.3559 250.148C75.7952 251.474 77.3861 252.345 79.0906 253.255C84.1663 255.907 89.8859 257.309 94.2797 261.212C98.2191 264.698 103.257 264.735 107.992 265.304C111.476 265.721 114.961 266.327 118.332 266.971C123.56 267.956 128.825 268.259 134.09 268.827C143.143 269.775 152.157 267.274 161.248 267.804C162.006 267.842 162.801 267.501 163.597 267.274C166.816 266.289 169.96 265.001 173.218 264.357C179.809 263.068 186.21 261.022 192.422 258.673C199.392 256.059 205.755 251.891 211.74 247.495C220.793 240.865 229.315 233.476 237.838 226.125C246.095 219.002 252.648 210.325 258.406 201.08C259.353 199.565 260.83 198.238 260.906 196.382C261.095 193.237 262.307 190.585 263.709 187.894C265.224 184.939 267.193 181.718 266.852 178.611C266.398 174.254 267.913 170.541 269.352 166.941C271.928 160.576 271.89 153.642 274.39 147.314C275.527 144.472 274.352 141.138 275.299 138.448C277.155 133.447 276.549 128.862 275.527 124.012Z" fill="#708236"/>
</svg>
