<svg width="125" height="177" viewBox="0 0 125 177" fill="none" xmlns="http://www.w3.org/2000/svg">
<path d="M112.368 78.8627C107.778 107.488 80.594 127.011 51.6543 122.469C38.4107 120.392 27.0927 113.628 19.1538 104.163C26.7899 112.102 37.0239 117.722 48.8142 119.569C77.3422 124.044 104.138 104.799 108.662 76.5858C112.325 53.7622 100.293 32.0589 80.4608 22.2246C102.521 31.3383 116.28 54.4707 112.368 78.8627Z" fill="url(#paint0_linear)"/>
<path d="M37.8114 24.4521C37.6479 24.549 37.4904 24.6459 37.333 24.7428C24.6283 31.6704 15.1755 44.1208 12.729 59.387C8.51434 85.6623 26.6327 110.339 53.1926 114.505C66.2849 116.558 78.9774 113.246 88.9994 106.215C78.4566 115.056 64.2259 119.465 49.5048 117.157C22.6905 112.949 4.40258 88.036 8.65967 61.5125C11.3908 44.4175 22.8359 30.8227 37.8114 24.4521Z" fill="url(#paint1_linear)"/>
<path d="M12.723 59.3873C15.1755 44.1211 24.6284 31.6708 37.327 24.7432C25.7789 31.695 17.2768 43.4247 14.9939 57.6675C10.864 83.4099 28.6129 107.59 54.64 111.671C71.5896 114.33 87.8731 107.808 98.3069 95.8239C95.7091 99.7358 92.5602 103.23 88.9934 106.221C78.9775 113.252 66.2788 116.564 53.1866 114.512C26.6267 110.339 8.50832 85.6566 12.723 59.3873Z" fill="url(#paint2_linear)"/>
<path d="M92.4696 10.3313C92.4696 10.3313 80.7218 46.2592 30.9991 30.9022C30.8538 31.0051 45.1935 19.4026 65.5222 15.6723C65.5222 15.6723 49.6928 15.9569 32.7734 25.3916C32.7129 25.7549 47.5552 -8.80448 92.4696 10.3313Z" fill="url(#paint3_linear)"/>
<path d="M32.8096 25.3306C33.615 23.7622 48.8751 -8.2417 92.4694 10.3309C51.2126 -4.12388 33.6513 23.9318 32.8096 25.3306Z" fill="url(#paint4_linear)"/>
<path d="M65.5221 15.6719C65.5221 15.6719 43.5644 21.0977 34.7353 31.9736C33.5121 31.6466 32.2768 31.2953 31.0051 30.9017C30.8537 31.0047 45.1934 19.4021 65.5221 15.6719Z" fill="url(#paint5_linear)"/>
<path d="M38.5864 31.2108C38.5864 31.2108 74.1813 41.8323 89.0539 11.8086C88.9085 11.9115 38.5864 31.2108 38.5864 31.2108Z" fill="url(#paint6_linear)"/>
<path d="M28.4554 0C28.4554 0 10.7367 8.45969 22.0607 31.792C22.0183 31.8707 27.0142 23.9499 27.5471 13.6675C27.5471 13.6675 28.4857 21.4793 24.7796 30.5082C24.598 30.5627 41.3962 20.686 28.4554 0Z" fill="url(#paint7_linear)"/>
<path d="M24.8101 30.4839C25.561 29.9692 41.0149 20.0743 28.4555 0C38.7319 19.2326 25.4701 29.9692 24.8101 30.4839Z" fill="url(#paint8_linear)"/>
<path d="M27.5473 13.668C27.5473 13.668 26.2575 24.883 21.2495 30.0363C21.5038 30.6116 21.7703 31.199 22.0549 31.7924C22.0186 31.8711 27.0144 23.9504 27.5473 13.668Z" fill="url(#paint9_linear)"/>
<path d="M21.3827 28.0804C21.3827 28.0804 13.468 11.3487 27.9288 1.79297C27.8864 1.87169 21.3827 28.0804 21.3827 28.0804Z" fill="url(#paint10_linear)"/>
<path d="M28.4554 0C28.4554 0 10.7367 8.45969 22.0607 31.792C22.0183 31.8707 27.0142 23.9499 27.5471 13.6675C27.5471 13.6675 28.4857 21.4793 24.7796 30.5082C24.598 30.5627 41.3962 20.686 28.4554 0Z" fill="url(#paint11_linear)"/>
<path opacity="0.35" d="M24.8101 30.4839C25.561 29.9692 41.0149 20.0743 28.4555 0C38.7319 19.2326 25.4701 29.9692 24.8101 30.4839Z" fill="url(#paint12_linear)"/>
<path opacity="0.35" d="M27.5473 13.668C27.5473 13.668 26.2575 24.883 21.2495 30.0363C21.5038 30.6116 21.7703 31.199 22.0549 31.7924C22.0186 31.8711 27.0144 23.9504 27.5473 13.668Z" fill="url(#paint13_linear)"/>
<path opacity="0.8" d="M21.3827 28.0804C21.3827 28.0804 13.468 11.3487 27.9288 1.79297C27.8864 1.87169 21.3827 28.0804 21.3827 28.0804Z" fill="url(#paint14_linear)"/>
<path d="M8.39333 19.7959C8.39333 19.7959 1.75033 30.7626 16.3625 39.404C16.3686 39.4645 16.2475 33.3544 12.826 27.5652C12.826 27.5652 16.1566 31.4832 17.3859 37.7326C17.3072 37.8234 22.9328 26.4147 8.39333 19.7959Z" fill="url(#paint15_linear)"/>
<path d="M17.3917 37.7023C17.6158 37.1513 22.5026 26.2148 8.39307 19.7959C20.9524 26.5782 17.5673 37.1815 17.3917 37.7023Z" fill="url(#paint16_linear)"/>
<path d="M12.8262 27.5586C12.8262 27.5586 16.1628 34.1289 15.2847 38.7312C15.6299 38.9553 15.9872 39.1793 16.3626 39.3973C16.3687 39.4579 16.2415 33.3538 12.8262 27.5586Z" fill="url(#paint17_linear)"/>
<path d="M14.6487 37.6231C14.6487 37.6231 4.28752 31.3555 8.75051 20.958C8.75656 21.0186 14.6487 37.6231 14.6487 37.6231Z" fill="url(#paint18_linear)"/>
<path d="M8.39333 19.7959C8.39333 19.7959 1.75033 30.7626 16.3625 39.404C16.3686 39.4645 16.2475 33.3544 12.826 27.5652C12.826 27.5652 16.1566 31.4832 17.3859 37.7326C17.3072 37.8234 22.9328 26.4147 8.39333 19.7959Z" fill="url(#paint19_linear)"/>
<path opacity="0.35" d="M17.3917 37.7023C17.6158 37.1513 22.5026 26.2148 8.39307 19.7959C20.9524 26.5782 17.5673 37.1815 17.3917 37.7023Z" fill="url(#paint20_linear)"/>
<path opacity="0.35" d="M12.8262 27.5586C12.8262 27.5586 16.1628 34.1289 15.2847 38.7312C15.6299 38.9553 15.9872 39.1793 16.3626 39.3973C16.3687 39.4579 16.2415 33.3538 12.8262 27.5586Z" fill="url(#paint21_linear)"/>
<path opacity="0.8" d="M14.6487 37.6231C14.6487 37.6231 4.28752 31.3555 8.75051 20.958C8.75656 21.0186 14.6487 37.6231 14.6487 37.6231Z" fill="url(#paint22_linear)"/>
<path d="M92.4696 10.3313C92.4696 10.3313 80.7218 46.2592 30.9991 30.9022C30.8538 31.0051 45.1935 19.4026 65.5222 15.6723C65.5222 15.6723 49.6928 15.9569 32.7734 25.3916C32.7129 25.7549 47.5552 -8.80448 92.4696 10.3313Z" fill="url(#paint23_linear)"/>
<path opacity="0.35" d="M32.8096 25.3306C33.615 23.7622 48.8751 -8.2417 92.4694 10.3309C51.2126 -4.12388 33.6513 23.9318 32.8096 25.3306Z" fill="url(#paint24_linear)"/>
<path opacity="0.35" d="M65.5221 15.6719C65.5221 15.6719 43.5644 21.0977 34.7353 31.9736C33.5121 31.6466 32.2768 31.2953 31.0051 30.9017C30.8537 31.0047 45.1934 19.4021 65.5221 15.6719Z" fill="url(#paint25_linear)"/>
<path opacity="0.8" d="M38.5864 31.2108C38.5864 31.2108 74.1813 41.8323 89.0539 11.8086C88.9085 11.9115 38.5864 31.2108 38.5864 31.2108Z" fill="url(#paint26_linear)"/>
<path d="M32.01 103.49C31.9252 103.442 31.8465 103.387 31.7617 103.339C31.7738 103.357 31.792 103.369 31.8041 103.387C31.8707 103.418 31.9373 103.454 32.01 103.49Z" fill="url(#paint27_linear)"/>
<path d="M42.6743 46.0351C42.6743 46.0351 30.7751 48.8025 27.9471 34.7717C27.8987 34.7535 33.2639 36.334 37.2606 40.5306C37.2606 40.5306 34.8929 36.8609 29.7698 34.3417C29.6548 34.3841 41.6146 32.5493 42.6743 46.0351Z" fill="url(#paint28_linear)"/>
<path d="M29.7876 34.3358C30.3508 34.2873 41.6445 32.943 42.6739 46.0352C40.8149 34.1299 30.3084 34.3237 29.7876 34.3358Z" fill="url(#paint29_linear)"/>
<path d="M37.2602 40.5305C37.2602 40.5305 32.5429 36.2129 28.1829 35.8132C28.0981 35.4741 28.0194 35.1289 27.9467 34.7716C27.8922 34.7535 33.2635 36.334 37.2602 40.5305Z" fill="url(#paint30_linear)"/>
<path d="M28.7583 36.4551C28.7583 36.4551 30.8838 46.4408 41.5659 45.3144C41.5114 45.2963 28.7583 36.4551 28.7583 36.4551Z" fill="url(#paint31_linear)"/>
<path d="M42.6743 46.0351C42.6743 46.0351 30.7751 48.8025 27.9471 34.7717C27.8987 34.7535 33.2639 36.334 37.2606 40.5306C37.2606 40.5306 34.8929 36.8609 29.7698 34.3417C29.6548 34.3841 41.6146 32.5493 42.6743 46.0351Z" fill="url(#paint32_linear)"/>
<path opacity="0.35" d="M29.7876 34.3358C30.3508 34.2873 41.6445 32.943 42.6739 46.0352C40.8149 34.1299 30.3084 34.3237 29.7876 34.3358Z" fill="url(#paint33_linear)"/>
<path opacity="0.35" d="M37.2602 40.5305C37.2602 40.5305 32.5429 36.2129 28.1829 35.8132C28.0981 35.4741 28.0194 35.1289 27.9467 34.7716C27.8922 34.7535 33.2635 36.334 37.2602 40.5305Z" fill="url(#paint34_linear)"/>
<path opacity="0.8" d="M28.7583 36.4551C28.7583 36.4551 30.8838 46.4408 41.5659 45.3144C41.5114 45.2963 28.7583 36.4551 28.7583 36.4551Z" fill="url(#paint35_linear)"/>
<path d="M66.0245 111.482H48.2755C48.2755 111.482 61.9672 76.5349 18.6938 51.2891C18.8573 51.4586 72.2799 70.1826 66.0245 111.482Z" fill="url(#paint36_linear)"/>
<path d="M71.2624 110.484C71.2624 110.484 82.4169 107.644 89.0115 102.793C89.181 102.963 85.9715 79.7212 34.4141 57.3154C34.4141 57.3094 72.7824 75.8698 71.2624 110.484Z" fill="url(#paint37_linear)"/>
<path d="M93.0688 97.6087C93.0688 97.6087 98.3069 94.4295 102.364 86.7389C102.534 86.9084 88.6724 73.0289 48.439 62.4922C48.6085 62.6617 80.2249 75.3664 93.0688 97.6087Z" fill="url(#paint38_linear)"/>
<path d="M106.761 71.691C106.761 71.691 106.761 77.8798 103.212 83.8991C103.212 83.8991 91.3795 72.5267 59.5996 64.503C59.5996 64.4969 88.503 65.1691 106.761 71.691Z" fill="url(#paint39_linear)"/>
<path d="M107.439 69.3477V59.9858C107.439 59.9858 80.7276 59.6527 67.375 62.9954C67.5446 63.165 96.7871 64.9998 107.439 69.3477Z" fill="url(#paint40_linear)"/>
<path d="M106.591 57.3086C106.591 57.3086 91.5489 56.3034 72.9521 60.9844C73.1217 60.9844 82.4171 55.8008 105.58 50.6172C105.41 50.7867 106.591 57.3086 106.591 57.3086Z" fill="url(#paint41_linear)"/>
<path d="M104.06 48.28C104.06 48.28 91.5488 51.2896 81.5752 56.4732C81.5752 56.4732 90.701 48.28 102.201 43.7686C102.195 43.7686 103.551 45.773 104.06 48.28Z" fill="url(#paint42_linear)"/>
<path d="M18.8755 53.8271C18.8755 53.8271 55.2697 73.1506 46.1742 109.151C46.1742 108.885 32.2584 102.006 32.2584 102.006C32.2584 102.006 43.2251 71.2976 18.8755 53.8271Z" fill="url(#paint43_linear)"/>
<path d="M30.381 98.2993C30.381 98.2993 38.1443 71.2973 18.0699 55.4134C17.8035 55.147 11.9174 78.1765 30.381 98.2993Z" fill="url(#paint44_linear)"/>
<path d="M61.2527 74.6901C69.6037 74.6901 76.3736 67.9935 76.3736 59.7327C76.3736 51.472 69.6037 44.7754 61.2527 44.7754C52.9017 44.7754 46.1318 51.472 46.1318 59.7327C46.1318 67.9935 52.9017 74.6901 61.2527 74.6901Z" fill="url(#paint45_linear)"/>
<path d="M19.5475 147.338C18.2214 147.338 17.3251 146.957 16.8649 146.194C16.8649 148.222 16.3683 149.906 15.3692 151.244C14.267 152.728 12.7229 153.466 10.7366 153.466H7.00636C5.34712 153.466 3.94828 152.831 2.81588 151.565C1.71981 150.342 1.1748 148.894 1.1748 147.217V141.87H3.54255V147.496C3.54255 148.537 3.93617 149.403 4.72945 150.087C5.48641 150.735 6.39475 151.056 7.45448 151.056H10.5852C11.6389 151.056 12.5412 150.723 13.2921 150.057C14.043 149.391 14.4184 148.537 14.4184 147.496V140.289H16.8407V143.226C16.8407 144.341 17.743 144.91 19.5475 144.928V147.338ZM10.0644 139.175C10.0644 139.635 9.90095 140.023 9.57394 140.344C9.24694 140.665 8.84727 140.828 8.38099 140.828C7.15775 140.828 6.55219 140.277 6.55219 139.169C6.55219 138.2 7.13959 137.716 8.31437 137.716C9.48311 137.716 10.0644 138.206 10.0644 139.175Z" fill="#1780df"/>
<path d="M25.2883 147.339H19.3538C18.724 147.339 18.2153 146.831 18.2153 146.201V144.917H25.2883V147.339Z" fill="#1780df"/>
<path d="M31.6042 147.339H24.5312V144.917H31.6042V147.339Z" fill="#1780df"/>
<path d="M37.0905 147.339H30.8472V144.917H37.9201V146.51C37.9201 146.964 37.5507 147.339 37.0905 147.339Z" fill="#1780df"/>
<path d="M47.9663 142.785C47.9663 144.178 47.6212 145.317 46.9308 146.207C46.1739 147.188 45.1202 147.672 43.7637 147.672C42.7282 147.672 41.8199 147.369 41.0266 146.758C40.2454 147.097 38.8769 147.291 36.9209 147.339V144.929C38.2955 144.929 39.1009 144.796 39.331 144.523C39.4037 144.432 39.4521 143.815 39.4764 142.664C39.5551 139.328 41.0084 137.656 43.8243 137.656C45.1686 137.656 46.2223 138.195 46.9732 139.273C47.6393 140.212 47.9663 141.38 47.9663 142.785ZM45.8529 142.652C45.8529 140.902 45.1565 140.024 43.7637 140.024C42.3467 140.024 41.6382 140.932 41.6382 142.743C41.6382 144.42 42.3467 145.262 43.7637 145.262C45.1565 145.262 45.8529 144.39 45.8529 142.652Z" fill="#1780df"/>
<path d="M67.2416 147.338C66.1818 147.338 65.4067 147.199 64.9223 146.921C64.6801 146.775 63.8383 146.036 62.391 144.698C61.4766 146.636 59.9991 147.605 57.9583 147.605C56.62 147.605 55.5179 147.169 54.6459 146.297C53.7739 145.425 53.3379 144.323 53.3379 142.984C53.3379 141.586 54.2765 139.944 56.1537 138.067L57.8372 136.384L64.3591 143.36C64.9949 144.032 65.4067 144.426 65.5823 144.535C65.9214 144.741 66.4786 144.868 67.2416 144.91V147.338ZM60.3018 143.148C60.3018 142.554 60.1504 142.112 59.8416 141.816L57.8917 139.878C57.1348 140.586 56.6685 141.065 56.4747 141.307C55.9963 141.919 55.7601 142.53 55.7601 143.154C55.7601 143.784 55.9721 144.292 56.396 144.68C56.8199 145.074 57.3467 145.267 57.9825 145.267C58.6002 145.267 59.1452 145.068 59.6054 144.668C60.0717 144.262 60.3018 143.76 60.3018 143.148Z" fill="#000"/>
<path d="M73.5451 147.339H66.4722V144.917H73.5451V147.339Z" fill="#000"/>
<path d="M79.861 147.339H72.7881V144.917H79.861V147.339Z" fill="#000"/>
<path d="M90.4769 147.338H78.8501V144.928H82.2957C81.7931 143.765 81.5388 142.73 81.5388 141.809C81.5388 140.277 82.5622 138.769 83.9428 138.091C86.0744 137.05 88.5936 137.819 90.2044 139.448C90.2468 139.49 89.1204 141.155 89.0053 141.331C89.0356 141.283 87.7639 140.489 87.6368 140.423C86.8738 140.005 85.814 139.696 84.9602 140.108C84.1851 140.483 83.846 141.398 83.846 142.215C83.846 143.354 84.3123 144.522 85.5113 144.813C85.8625 144.898 90.4769 144.995 90.4769 144.928C90.4769 144.922 90.4769 147.338 90.4769 147.338Z" fill="#000"/>
<path d="M125 142.785C125 144.178 124.655 145.317 123.965 146.207C123.208 147.188 122.154 147.672 120.797 147.672C119.762 147.672 118.854 147.369 118.06 146.758C117.279 147.097 115.911 147.291 113.955 147.339V144.929C115.329 144.929 116.135 144.796 116.365 144.523C116.437 144.432 116.486 143.815 116.51 142.664C116.589 139.328 118.042 137.656 120.858 137.656C122.202 137.656 123.256 138.195 124.007 139.273C124.673 140.212 125 141.38 125 142.785ZM122.887 142.652C122.887 140.902 122.19 140.024 120.797 140.024C119.38 140.024 118.672 140.932 118.672 142.743C118.672 144.42 119.38 145.262 120.797 145.262C122.19 145.262 122.887 144.39 122.887 142.652Z" fill="#000"/>
<path d="M113.954 144.922H112.913V147.332H113.954V144.922Z" fill="#000"/>
<path d="M97.1137 141.132V147.484C97.1137 148.604 96.6292 149.489 95.6603 150.137C94.8247 150.694 93.8255 150.972 92.6568 150.972H90.5918L92.354 153.461H93.5409C95.3091 153.461 96.7746 152.807 97.9312 151.493C99.0454 150.227 99.6025 148.701 99.6025 146.915V141.132H97.1137Z" fill="#000"/>
<path d="M108.51 134.955C108.989 134.955 109.389 134.791 109.709 134.464C110.03 134.137 110.194 133.738 110.194 133.259C110.194 132.308 109.607 131.83 108.432 131.83C107.245 131.83 106.651 132.308 106.651 133.259C106.651 134.392 107.275 134.955 108.51 134.955Z" fill="#000"/>
<path d="M110.279 143.22V141.131H107.856V147.489C107.856 148.488 107.457 149.336 106.657 150.039C105.894 150.711 105.01 151.05 104.005 151.05C104.005 151.05 101.147 151.05 101.141 151.05L102.848 153.46H104.193C106.167 153.46 107.711 152.721 108.813 151.238C109.818 149.899 110.321 148.216 110.321 146.187C110.781 146.932 111.647 147.314 112.919 147.332V144.922C111.157 144.922 110.279 144.359 110.279 143.22Z" fill="#000"/>
<path d="M30.4354 173.534L30.7745 174.721C30.8472 174.982 30.9078 175.224 30.9623 175.46H30.9744C31.0289 175.23 31.1137 174.982 31.2045 174.721L31.6223 173.528H31.9978L32.3914 174.703C32.4822 174.982 32.5549 175.23 32.6154 175.454H32.6276C32.676 175.224 32.7426 174.976 32.8274 174.703L33.1968 173.528H33.6267L32.8213 175.842H32.4095L32.0281 174.746C31.9372 174.473 31.8585 174.237 31.7979 173.958H31.7858C31.7192 174.237 31.6405 174.485 31.5497 174.746L31.1439 175.842H30.7321L29.9873 173.528H30.4354V173.534Z" fill="#007A48"/>
<path d="M35.3104 173.534L35.6495 174.721C35.7222 174.982 35.7828 175.224 35.8373 175.46H35.8494C35.9039 175.23 35.9886 174.982 36.0795 174.721L36.4973 173.528H36.8728L37.2664 174.703C37.3572 174.982 37.4299 175.23 37.4904 175.454H37.5025C37.551 175.224 37.6176 174.976 37.7024 174.703L38.0718 173.528H38.5017L37.6963 175.842H37.2845L36.903 174.746C36.8122 174.473 36.7335 174.237 36.6729 173.958H36.6608C36.5942 174.237 36.5155 174.485 36.4247 174.746L36.0189 175.842H35.6071L34.8623 173.528H35.3104V173.534Z" fill="#007A48"/>
<path d="M40.1786 173.534L40.5177 174.721C40.5904 174.982 40.6509 175.224 40.7054 175.46H40.7175C40.772 175.23 40.8568 174.982 40.9476 174.721L41.3655 173.528H41.7409L42.1345 174.703C42.2254 174.982 42.298 175.23 42.3586 175.454H42.3707C42.4192 175.224 42.4858 174.976 42.5706 174.703L42.9399 173.528H43.3699L42.5645 175.842H42.1527L41.7712 174.746C41.6804 174.473 41.6016 174.237 41.5411 173.958H41.529C41.4624 174.237 41.3836 174.485 41.2928 174.746L40.8871 175.842H40.4753L39.7305 173.528H40.1786V173.534Z" fill="#007A48"/>
<path d="M44.769 175.6C44.769 175.418 44.8902 175.291 45.0658 175.291C45.2414 175.291 45.3625 175.418 45.3625 175.6C45.3625 175.769 45.2414 175.909 45.0658 175.909C44.8902 175.909 44.769 175.769 44.769 175.6Z" fill="#007A48"/>
<path d="M46.9796 174.17C46.9796 173.94 46.9735 173.728 46.9614 173.534H47.3429L47.3671 173.934H47.3793C47.5185 173.704 47.7486 173.474 48.1786 173.474C48.5238 173.474 48.7842 173.692 48.8871 173.976H48.8992C48.9779 173.837 49.0748 173.734 49.1717 173.661C49.3292 173.54 49.4927 173.474 49.747 173.474C50.0558 173.474 50.5827 173.661 50.5827 174.539V175.847H50.1588V174.588C50.1588 174.091 49.9529 173.837 49.5956 173.837C49.3231 173.837 49.1233 174.031 49.0385 174.225C49.0143 174.285 48.9961 174.364 48.9961 174.436V175.853H48.5722V174.509C48.5722 174.103 48.3724 173.837 48.0393 173.837C47.7426 173.837 47.5307 174.073 47.4519 174.273C47.4277 174.334 47.4156 174.412 47.4156 174.485V175.853H46.9917V174.17H46.9796Z" fill="#007A48"/>
<path d="M52.5328 173.534L53.102 174.915C53.1626 175.06 53.2292 175.248 53.2716 175.387H53.2837C53.3321 175.248 53.3866 175.072 53.4472 174.903L53.968 173.534H54.4403L53.7197 175.236C53.3685 176.102 53.1444 176.459 52.8537 176.677C52.6297 176.847 52.4117 176.907 52.3027 176.919L52.2118 176.556C52.3148 176.532 52.4601 176.477 52.5933 176.38C52.7145 176.302 52.878 176.132 52.993 175.884C53.0172 175.841 53.0293 175.811 53.0293 175.787C53.0293 175.763 53.0233 175.732 52.993 175.672L52.0483 173.54H52.5328V173.534Z" fill="#007A48"/>
<path d="M55.9234 174.17C55.9234 173.94 55.9174 173.728 55.9053 173.534H56.2928L56.3171 173.946H56.3292C56.4503 173.716 56.747 173.474 57.1709 173.474C57.4858 173.474 58.0732 173.649 58.0732 174.521V175.841H57.6372V174.558C57.6372 174.152 57.4676 173.825 57.0316 173.825C56.7167 173.825 56.4745 174.043 56.3897 174.273C56.3715 174.321 56.3594 174.4 56.3594 174.467V175.841H55.9234V174.17Z" fill="#007A48"/>
<path d="M60.12 174.782C60.1321 175.303 60.5197 175.57 60.992 175.57C61.3432 175.57 61.5431 175.509 61.7187 175.442L61.7974 175.751C61.646 175.818 61.3674 175.909 60.9375 175.909C60.1745 175.909 59.7021 175.43 59.7021 174.74C59.7021 174.056 60.1442 173.48 60.8951 173.48C61.7429 173.48 61.9427 174.195 61.9427 174.595C61.9427 174.679 61.9367 174.746 61.9246 174.788H60.12V174.782ZM61.5249 174.474C61.5309 174.274 61.4341 173.789 60.8648 173.789C60.3743 173.789 60.1684 174.189 60.1321 174.474H61.5249Z" fill="#007A48"/>
<path d="M63.7474 173.534L64.0866 174.721C64.1592 174.982 64.2198 175.224 64.2743 175.46H64.2864C64.3409 175.23 64.4257 174.982 64.5165 174.721L64.9343 173.528H65.3098L65.7034 174.703C65.7942 174.982 65.8669 175.23 65.9274 175.454H65.9396C65.988 175.224 66.0546 174.976 66.1394 174.703L66.5088 173.528H66.9387L66.1334 175.842H65.7216L65.3401 174.746C65.2492 174.473 65.1705 174.237 65.11 173.958H65.0978C65.0312 174.237 64.9525 174.485 64.8617 174.746L64.4559 175.842H64.0442L63.2993 173.528H63.7474V173.534Z" fill="#007A48"/>
<path d="M68.4893 175.854V173.874H68.1562V173.541H68.4893V173.438C68.4893 173.087 68.5741 172.778 68.78 172.59C68.9435 172.439 69.1675 172.372 69.3734 172.372C69.5369 172.372 69.6701 172.408 69.7549 172.445L69.7004 172.778C69.6278 172.748 69.543 172.723 69.4097 172.723C69.0222 172.723 68.9192 173.05 68.9192 173.426V173.547H69.5248V173.88H68.9253V175.86H68.4893V175.854Z" fill="#007A48"/>
<path d="M72.4429 175.854L72.4005 175.545H72.3884C72.2552 175.727 71.9766 175.909 71.6012 175.909C71.0804 175.909 70.8442 175.551 70.8442 175.243C70.8442 174.686 71.3529 174.365 72.3702 174.371V174.328C72.3702 174.183 72.3279 173.789 71.7889 173.795C71.5467 173.795 71.2923 173.868 71.1107 173.983L71.0077 173.698C71.2318 173.559 71.5346 173.48 71.8434 173.48C72.6306 173.48 72.7941 174.025 72.7941 174.468V175.285C72.7941 175.491 72.8063 175.685 72.8305 175.848H72.4429V175.854ZM72.3763 174.673C71.8313 174.661 71.2863 174.758 71.2863 175.188C71.2863 175.455 71.4801 175.588 71.7162 175.588C72.0675 175.588 72.2794 175.37 72.3521 175.188C72.3702 175.146 72.3763 175.097 72.3763 175.055V174.673Z" fill="#007A48"/>
<path d="M74.611 174.297C74.611 174 74.6049 173.764 74.5928 173.534H74.9743L74.9924 174.019H75.0106C75.1317 173.68 75.4042 173.474 75.707 173.474C75.7555 173.474 75.7918 173.48 75.8402 173.486V173.885C75.7918 173.873 75.7433 173.867 75.6767 173.867C75.3618 173.867 75.1378 174.091 75.0772 174.424C75.0651 174.485 75.0591 174.552 75.0591 174.618V175.841H74.6231V174.297H74.611Z" fill="#007A48"/>
<path d="M77.3785 174.17C77.3785 173.94 77.3725 173.728 77.3604 173.534H77.7419L77.7661 173.934H77.7782C77.9175 173.704 78.1476 173.474 78.5775 173.474C78.9227 173.474 79.1831 173.692 79.286 173.976H79.2982C79.3769 173.837 79.4738 173.734 79.5706 173.661C79.7281 173.54 79.8916 173.474 80.1459 173.474C80.4548 173.474 80.9816 173.661 80.9816 174.539V175.847H80.5577V174.588C80.5577 174.091 80.3518 173.837 79.9945 173.837C79.722 173.837 79.5222 174.031 79.4374 174.225C79.4132 174.285 79.395 174.364 79.395 174.436V175.853H78.9711V174.509C78.9711 174.103 78.7713 173.837 78.4382 173.837C78.1415 173.837 77.9296 174.073 77.8509 174.273C77.8266 174.334 77.8145 174.412 77.8145 174.485V175.853H77.3906V174.17H77.3785Z" fill="#007A48"/>
<path d="M82.665 175.6C82.665 175.418 82.7862 175.291 82.9678 175.291C83.1434 175.291 83.2645 175.418 83.2645 175.6C83.2645 175.769 83.1434 175.909 82.9678 175.909C82.7862 175.909 82.665 175.769 82.665 175.6Z" fill="#007A48"/>
<path d="M86.6982 175.757C86.5771 175.812 86.2985 175.909 85.9412 175.909C85.1782 175.909 84.6816 175.412 84.6816 174.722C84.6816 173.989 85.2206 173.48 86.032 173.48C86.3227 173.48 86.577 173.553 86.7042 173.62L86.6013 173.953C86.4802 173.886 86.2985 173.826 86.032 173.826C85.4507 173.826 85.1177 174.207 85.1237 174.698C85.1237 175.231 85.5113 175.564 86.0199 175.564C86.2985 175.564 86.4862 175.491 86.6194 175.436L86.6982 175.757Z" fill="#007A48"/>
<path d="M90.6464 174.667C90.6464 175.509 89.9924 175.909 89.3687 175.909C88.6723 175.909 88.1333 175.424 88.1333 174.716C88.1333 173.965 88.6844 173.48 89.405 173.48C90.1559 173.48 90.6464 173.995 90.6464 174.667ZM88.5814 174.698C88.5814 175.249 88.9448 175.582 89.3868 175.582C89.8168 175.582 90.1983 175.261 90.1983 174.679C90.1983 174.274 89.956 173.795 89.3989 173.795C88.8479 173.801 88.5814 174.231 88.5814 174.698Z" fill="#007A48"/>
<path d="M92.2936 174.17C92.2936 173.94 92.2875 173.728 92.2754 173.534H92.6569L92.6811 173.934H92.6932C92.8325 173.704 93.0626 173.474 93.4926 173.474C93.8377 173.474 94.0981 173.692 94.2011 173.976H94.2071C94.2859 173.837 94.3828 173.734 94.4796 173.661C94.6371 173.54 94.8006 173.474 95.0549 173.474C95.3637 173.474 95.8906 173.661 95.8906 174.539V175.847H95.4667V174.588C95.4667 174.091 95.2608 173.837 94.9035 173.837C94.631 173.837 94.4312 174.031 94.3464 174.225C94.3222 174.285 94.304 174.364 94.304 174.436V175.853H93.8801V174.509C93.8801 174.103 93.6803 173.837 93.3472 173.837C93.0505 173.837 92.8386 174.073 92.7598 174.273C92.7356 174.334 92.7235 174.412 92.7235 174.485V175.853H92.2996V174.17H92.2936Z" fill="#007A48"/>
<path d="M0 157.046H124.812V156.768H0" fill="#5E667C"/>
<path d="M15.375 169.424H109.437V169.146H15.375" fill="#5E667C"/>
<path d="M34.4441 164.518H34.1171C33.8446 164.518 33.5479 164.354 33.2088 164.027C32.9969 164.354 32.6759 164.518 32.2581 164.518H30.0417L29.9448 163.809H32.2157C32.4761 163.809 32.6093 163.719 32.6093 163.537C32.6093 163.434 32.573 163.349 32.5003 163.27L30.8956 161.557L31.38 161.072L33.5297 163.349C33.7175 163.549 33.8446 163.67 33.9173 163.706C34.0384 163.773 34.214 163.803 34.4502 163.803V164.518H34.4441Z" fill="#5D6680"/>
<path d="M35.7945 164.518H33.7114V163.804H35.7945V164.518Z" fill="#5D6680"/>
<path d="M39.0163 164.518H38.7801C38.332 164.518 37.9989 164.428 37.787 164.24C37.5508 164.428 37.3207 164.518 37.0967 164.518H35.9219V163.81C36.6607 163.81 37.0785 163.792 37.1693 163.755C37.3268 163.701 37.4055 163.489 37.4055 163.119C37.4055 163.029 37.4055 162.883 37.4055 162.696C37.4055 162.508 37.4055 162.369 37.4055 162.272H38.1201V163.253C38.1201 163.604 38.4168 163.792 39.0102 163.804V164.518H39.0163ZM37.46 161.151C37.46 161.291 37.4115 161.412 37.3147 161.509C37.2178 161.606 37.1027 161.654 36.9634 161.654C36.6001 161.654 36.4184 161.484 36.4184 161.151C36.4184 160.867 36.588 160.728 36.9332 160.728C37.2844 160.728 37.46 160.867 37.46 161.151Z" fill="#5D6680"/>
<path d="M42.5825 164.518C42.3464 164.518 42.1768 164.5 42.0678 164.458C41.9285 164.397 41.8074 164.282 41.6984 164.107C41.4925 164.446 41.1655 164.621 40.7114 164.621C40.5418 164.621 40.3722 164.573 40.1906 164.47C40.0089 164.367 39.8696 164.246 39.7788 164.107C39.7243 164.379 39.3609 164.512 38.6948 164.518V163.81C39.0945 163.81 39.3246 163.767 39.3973 163.689C39.4336 163.646 39.4518 163.465 39.4518 163.138C39.4518 162.702 39.5547 162.357 39.7606 162.096C39.9847 161.806 40.3117 161.66 40.7356 161.66C41.1231 161.66 41.4259 161.812 41.65 162.12C41.8498 162.393 41.9528 162.732 41.9588 163.138C41.9588 163.289 41.9649 163.386 41.9649 163.428C41.983 163.598 42.0436 163.707 42.1526 163.755C42.2071 163.78 42.3464 163.798 42.5765 163.81V164.518H42.5825ZM41.3109 163.12C41.3109 162.617 41.111 162.363 40.7053 162.363C40.2875 162.363 40.0755 162.629 40.0755 163.168C40.0755 163.665 40.2875 163.913 40.7053 163.913C41.111 163.907 41.3109 163.646 41.3109 163.12Z" fill="#5D6680"/>
<path d="M44.0426 164.518H41.9595V163.804H44.0426V164.518Z" fill="#5D6680"/>
<path d="M49.8678 163.373C49.8678 163.718 49.7891 163.997 49.6317 164.221C49.4561 164.469 49.2017 164.596 48.8687 164.596C48.4872 164.596 48.1602 164.433 47.8816 164.112C47.6091 164.433 47.3184 164.596 47.0096 164.596C46.6644 164.596 46.3435 164.408 46.0347 164.027C45.7137 164.36 45.3988 164.529 45.09 164.529H44.1816V163.821H45.0415C45.3746 163.821 45.5381 163.645 45.5381 163.3V162.289H46.2345V163.343C46.2345 163.512 46.295 163.657 46.4101 163.76C46.5252 163.869 46.6705 163.924 46.8461 163.924C47.1852 163.924 47.3487 163.779 47.3487 163.482V162.295H48.0451V163.349C48.0451 163.518 48.1057 163.657 48.2207 163.766C48.3418 163.875 48.4872 163.93 48.6567 163.93C48.9898 163.93 49.1593 163.785 49.1593 163.488V162.301H49.8557V163.373H49.8678ZM48.7476 161.344C48.7476 161.471 48.7052 161.574 48.6143 161.659C48.5235 161.744 48.4145 161.786 48.2873 161.786C48.1541 161.786 48.0391 161.744 47.9361 161.665C47.8332 161.58 47.7847 161.477 47.7847 161.35C47.7847 161.096 47.9361 160.969 48.2328 160.969C48.578 160.963 48.7476 161.09 48.7476 161.344ZM48.0512 160.333C48.0512 160.46 48.0088 160.563 47.9179 160.648C47.8271 160.733 47.7181 160.769 47.597 160.769C47.4638 160.769 47.3487 160.727 47.2518 160.648C47.1489 160.563 47.0944 160.46 47.0944 160.333C47.0944 160.079 47.2458 159.945 47.5486 159.945C47.8816 159.945 48.0512 160.079 48.0512 160.333ZM47.3669 161.344C47.3669 161.465 47.3245 161.568 47.2337 161.653C47.1428 161.738 47.0399 161.78 46.9188 161.78C46.7855 161.78 46.6644 161.738 46.5675 161.659C46.4706 161.574 46.4222 161.471 46.4222 161.344C46.4222 161.09 46.5736 160.963 46.8764 160.963C47.2034 160.963 47.3669 161.09 47.3669 161.344Z" fill="#5D6680"/>
<path d="M53.7673 164.517H53.295C53.295 165.044 53.1194 165.474 52.7681 165.813C52.4169 166.152 51.9809 166.322 51.448 166.322H50.5276L50.4307 165.613H51.333C51.6721 165.613 51.9567 165.516 52.1807 165.317C52.4048 165.123 52.5259 164.856 52.538 164.517C51.9446 164.517 51.5146 164.439 51.2361 164.275C50.8727 164.063 50.6911 163.682 50.6911 163.137C50.6911 162.537 50.8364 162.119 51.1271 161.877C51.2966 161.732 51.5752 161.665 51.9749 161.665C52.5441 161.665 52.9256 161.901 53.1194 162.374C53.2284 162.652 53.2889 163.13 53.301 163.809H53.7734V164.517H53.7673ZM52.5623 163.809V163.13C52.5623 162.931 52.5138 162.761 52.4169 162.616C52.3079 162.452 52.1565 162.374 51.9688 162.374C51.7387 162.374 51.5873 162.452 51.5086 162.604C51.4541 162.713 51.4238 162.9 51.4238 163.155C51.4238 163.458 51.551 163.651 51.7992 163.736C51.9385 163.784 52.1929 163.809 52.5623 163.809Z" fill="#5D6680"/>
<path d="M58.0123 163.573C58.0123 163.888 57.8972 164.173 57.6611 164.421C57.4249 164.675 57.1524 164.796 56.8436 164.796C56.4621 164.796 55.9776 164.621 55.3721 164.27C55.0632 164.427 54.7241 164.506 54.3426 164.506L53.5493 164.518V163.803H54.5424C54.2821 163.458 54.1488 163.131 54.1488 162.816C54.1488 162.477 54.2578 162.199 54.4758 161.981C54.6938 161.763 54.9724 161.654 55.3115 161.654C55.6203 161.654 55.905 161.781 56.1714 162.041L55.6991 161.557L56.238 161.072C57.4189 162.205 58.0123 163.034 58.0123 163.573ZM57.2614 163.616C57.2614 163.331 56.9465 162.871 56.3167 162.235C56.4621 162.398 56.5347 162.629 56.5347 162.913C56.5347 163.367 56.3894 163.67 56.0927 163.821C56.3652 163.985 56.5953 164.064 56.7891 164.064C57.104 164.064 57.2614 163.912 57.2614 163.616ZM55.8444 162.871C55.8444 162.707 55.7838 162.574 55.6688 162.471C55.5477 162.368 55.4084 162.314 55.2449 162.314C55.1177 162.314 55.0087 162.368 54.93 162.477C54.8573 162.574 54.821 162.689 54.821 162.822C54.821 163.131 55.0148 163.361 55.3902 163.507C55.693 163.373 55.8444 163.161 55.8444 162.871Z" fill="#5D6680"/>
<path d="M64.1591 164.481C64.1591 165.183 63.9048 165.698 63.4021 166.031C63.1054 166.225 62.7724 166.328 62.409 166.328H61.3008C60.8103 166.328 60.4046 166.14 60.0776 165.771C59.7627 165.413 59.6113 164.983 59.6113 164.487V163.009H60.2835V164.566C60.2835 164.881 60.3986 165.141 60.6347 165.347C60.8588 165.535 61.1252 165.631 61.4462 165.631H62.3666C62.6452 165.631 62.8995 165.541 63.1236 165.359C63.3598 165.171 63.4809 164.935 63.4809 164.663C63.4809 164.426 63.3174 164.269 62.9904 164.196C62.9056 164.178 62.845 164.166 62.8148 164.166H61.8216V162.937C61.8216 162.567 61.9367 162.265 62.1729 162.022C62.409 161.78 62.7118 161.665 63.0812 161.665H63.9411L63.9714 162.337H63.1115C62.8571 162.337 62.6755 162.452 62.5786 162.676C62.5362 162.785 62.5059 163.058 62.4938 163.488C63.057 163.488 63.4324 163.524 63.6201 163.591C63.9774 163.73 64.1591 164.027 64.1591 164.481Z" fill="#5D6680"/>
<path d="M67.4533 164.397C67.4533 164.924 67.2898 165.372 66.9628 165.747C66.6237 166.135 66.1876 166.329 65.6669 166.329H64.7161L64.6011 165.596H65.4065C65.7517 165.596 66.0484 165.511 66.2906 165.348C66.5752 165.16 66.7205 164.893 66.7205 164.566V162.277H67.4533V164.397Z" fill="#5D6680"/>
<path d="M69.3605 164.518H68.6641V159.934H69.3605V164.518Z" fill="#5D6680"/>
<path d="M73.9026 163.585C73.9026 163.87 73.7936 164.1 73.5816 164.276C73.3818 164.439 73.1396 164.518 72.8489 164.518H70.6325L70.5356 163.809H72.8065C73.0729 163.809 73.2062 163.719 73.2062 163.531C73.2062 163.434 73.1698 163.349 73.0972 163.27L71.4864 161.557L71.9648 161.072L73.5756 162.774C73.7936 163.01 73.9026 163.283 73.9026 163.585Z" fill="#5D6680"/>
<path d="M79.7339 164.518C79.419 164.518 79.195 164.475 79.0497 164.397C78.977 164.354 78.7287 164.136 78.3048 163.743C78.0323 164.312 77.5963 164.602 76.9968 164.602C76.6032 164.602 76.2762 164.475 76.0218 164.215C75.7675 163.961 75.6343 163.634 75.6343 163.24C75.6343 162.828 75.9129 162.344 76.4639 161.793L76.2641 161.563L76.7425 161.078L78.8862 163.355C79.0739 163.555 79.195 163.67 79.2495 163.7C79.3524 163.761 79.5159 163.797 79.74 163.809V164.518H79.7339ZM77.6871 163.282C77.6871 163.107 77.6447 162.98 77.5539 162.889L76.9786 162.32C76.7546 162.532 76.6153 162.671 76.5608 162.743C76.4215 162.925 76.3489 163.107 76.3489 163.288C76.3489 163.476 76.4094 163.621 76.5366 163.737C76.6637 163.852 76.8151 163.906 77.0029 163.906C77.1845 163.906 77.348 163.846 77.4812 163.73C77.6205 163.615 77.6871 163.464 77.6871 163.282Z" fill="#5D6680"/>
<path d="M81.5929 164.518H79.5098V163.804H81.5929V164.518Z" fill="#5D6680"/>
<path d="M84.8934 164.517H81.2964V163.809H82.3137C82.1623 163.464 82.0897 163.161 82.0897 162.888C82.0897 162.616 82.1684 162.374 82.3258 162.162C82.4833 161.95 82.6892 161.81 82.9496 161.738C83.1252 161.689 83.325 161.665 83.543 161.665C83.9245 161.665 84.2939 161.841 84.6451 162.192L84.2939 162.749C83.9185 162.464 83.5975 162.319 83.3371 162.319C82.9617 162.319 82.774 162.549 82.774 163.009C82.774 163.209 82.8224 163.385 82.9132 163.536C83.0222 163.718 83.1676 163.809 83.3614 163.809H84.7844L84.8934 164.517Z" fill="#5D6680"/>
<path d="M88.0787 164.397C88.0787 164.924 87.9153 165.372 87.5882 165.747C87.2491 166.135 86.8131 166.329 86.2923 166.329H85.3416L85.2266 165.596H86.032C86.3771 165.596 86.6738 165.511 86.9161 165.348C87.2007 165.16 87.346 164.893 87.346 164.566V162.277H88.0787V164.397Z" fill="#5D6680"/>
<path d="M92.2573 164.517C91.8818 164.511 91.6275 164.402 91.4882 164.178C91.4882 164.778 91.3429 165.274 91.0462 165.668C90.7192 166.104 90.265 166.322 89.6837 166.322H88.7571L88.6421 165.613H89.6292C89.9259 165.613 90.1863 165.516 90.4103 165.317C90.6465 165.111 90.7616 164.856 90.7616 164.566V162.277H91.4761V163.306C91.4761 163.639 91.7365 163.809 92.2573 163.809V164.517ZM91.4519 160.369C91.4519 160.508 91.4034 160.63 91.3066 160.727C91.2097 160.823 91.0946 160.872 90.9553 160.872C90.592 160.872 90.4043 160.702 90.4043 160.369C90.4043 160.091 90.5799 159.945 90.9311 159.945C91.2763 159.945 91.4519 160.091 91.4519 160.369Z" fill="#5D6680"/>
<path d="M95.2364 163.179C95.2364 163.591 95.1335 163.924 94.9276 164.19C94.7035 164.481 94.3947 164.626 93.995 164.626C93.6922 164.626 93.4198 164.535 93.1896 164.354C92.9595 164.457 92.5538 164.511 91.9785 164.523V163.815C92.3842 163.815 92.6204 163.772 92.687 163.694C92.7052 163.669 92.7233 163.482 92.7294 163.143C92.7536 162.156 93.1836 161.665 94.0132 161.665C94.4129 161.665 94.7217 161.822 94.9458 162.143C95.1395 162.416 95.2364 162.761 95.2364 163.179ZM94.6127 163.137C94.6127 162.622 94.4068 162.361 93.995 162.361C93.5772 162.361 93.3652 162.628 93.3652 163.167C93.3652 163.663 93.5772 163.912 93.995 163.912C94.4068 163.906 94.6127 163.651 94.6127 163.137Z" fill="#5D6680"/>
<defs>
<linearGradient id="paint0_linear" x1="15.946" y1="72.6748" x2="129.229" y2="72.673" gradientUnits="userSpaceOnUse">
<stop stop-color="#04914E"/>
<stop offset="0.0152" stop-color="#13924E"/>
<stop offset="0.3468" stop-color="#68A847"/>
<stop offset="0.6332" stop-color="#90BB3F"/>
<stop offset="0.8604" stop-color="#A9C938"/>
<stop offset="1" stop-color="#B2CE35"/>
</linearGradient>
<linearGradient id="paint1_linear" x1="0.974756" y1="71.1067" x2="89.0001" y2="71.1053" gradientUnits="userSpaceOnUse">
<stop stop-color="#04914E"/>
<stop offset="0.064" stop-color="#3E994C"/>
<stop offset="0.1733" stop-color="#67A747"/>
<stop offset="0.2915" stop-color="#83B442"/>
<stop offset="0.4197" stop-color="#97BF3D"/>
<stop offset="0.5628" stop-color="#A6C739"/>
<stop offset="0.7331" stop-color="#AFCD36"/>
<stop offset="1" stop-color="#B2CE35"/>
</linearGradient>
<linearGradient id="paint2_linear" x1="12.1276" y1="69.9229" x2="101.832" y2="69.9215" gradientUnits="userSpaceOnUse">
<stop stop-color="#B2CE35"/>
<stop offset="0.3244" stop-color="#7DB143"/>
<stop offset="0.6242" stop-color="#4F9E4A"/>
<stop offset="0.8591" stop-color="#26944D"/>
<stop offset="1" stop-color="#04914E"/>
</linearGradient>
<linearGradient id="paint3_linear" x1="90.2435" y1="24.4261" x2="33.4661" y2="15.4174" gradientUnits="userSpaceOnUse">
<stop stop-color="#B2CE35"/>
<stop offset="0.209" stop-color="#9EC53C"/>
<stop offset="0.6372" stop-color="#68B149"/>
<stop offset="1" stop-color="#00A151"/>
</linearGradient>
<linearGradient id="paint4_linear" x1="91.6856" y1="18.6927" x2="33.9014" y2="13.3483" gradientUnits="userSpaceOnUse">
<stop stop-color="#B2CE35"/>
<stop offset="0.1335" stop-color="#A9C737"/>
<stop offset="0.3355" stop-color="#92B73D"/>
<stop offset="0.5808" stop-color="#6FA143"/>
<stop offset="0.8577" stop-color="#3B8747"/>
<stop offset="1" stop-color="#007A48"/>
</linearGradient>
<linearGradient id="paint5_linear" x1="64.6277" y1="25.1668" x2="31.7927" y2="22.1299" gradientUnits="userSpaceOnUse">
<stop stop-color="#B2CE35"/>
<stop offset="0.1335" stop-color="#A9C737"/>
<stop offset="0.3355" stop-color="#92B73D"/>
<stop offset="0.5808" stop-color="#6FA143"/>
<stop offset="0.8577" stop-color="#3B8747"/>
<stop offset="1" stop-color="#007A48"/>
</linearGradient>
<linearGradient id="paint6_linear" x1="86.9178" y1="25.3119" x2="40.6969" y2="17.9781" gradientUnits="userSpaceOnUse">
<stop stop-color="#B2CE35"/>
<stop offset="0.1335" stop-color="#A9C737"/>
<stop offset="0.3355" stop-color="#92B73D"/>
<stop offset="0.5808" stop-color="#6FA143"/>
<stop offset="0.8577" stop-color="#3B8747"/>
<stop offset="1" stop-color="#007A48"/>
</linearGradient>
<linearGradient id="paint7_linear" x1="21.5597" y1="2.09004" x2="29.9387" y2="29.3391" gradientUnits="userSpaceOnUse">
<stop stop-color="#B2CE35"/>
<stop offset="0.209" stop-color="#9EC53C"/>
<stop offset="0.6372" stop-color="#68B149"/>
<stop offset="1" stop-color="#00A151"/>
</linearGradient>
<linearGradient id="paint8_linear" x1="33.3228" y1="15.8653" x2="26.2057" y2="15.207" gradientUnits="userSpaceOnUse">
<stop stop-color="#007A48"/>
<stop offset="0.1423" stop-color="#3B8747"/>
<stop offset="0.4192" stop-color="#6FA143"/>
<stop offset="0.6645" stop-color="#92B73D"/>
<stop offset="0.8665" stop-color="#A9C737"/>
<stop offset="1" stop-color="#B2CE35"/>
</linearGradient>
<linearGradient id="paint9_linear" x1="26.707" y1="22.9085" x2="21.9371" y2="22.4673" gradientUnits="userSpaceOnUse">
<stop stop-color="#B2CE35"/>
<stop offset="0.1335" stop-color="#A9C737"/>
<stop offset="0.3355" stop-color="#92B73D"/>
<stop offset="0.5808" stop-color="#6FA143"/>
<stop offset="0.8577" stop-color="#3B8747"/>
<stop offset="1" stop-color="#007A48"/>
</linearGradient>
<linearGradient id="paint10_linear" x1="21.3065" y1="3.79956" x2="28.1256" y2="25.976" gradientUnits="userSpaceOnUse">
<stop stop-color="#1780df"/>
<stop offset="0.2228" stop-color="#4DAD53"/>
<stop offset="0.5132" stop-color="#3C9D50"/>
<stop offset="0.8395" stop-color="#1F864B"/>
<stop offset="1" stop-color="#007A48"/>
</linearGradient>
<linearGradient id="paint11_linear" x1="21.5597" y1="2.09004" x2="29.9387" y2="29.3391" gradientUnits="userSpaceOnUse">
<stop stop-color="#B2CE35"/>
<stop offset="0.209" stop-color="#9EC53C"/>
<stop offset="0.6372" stop-color="#68B149"/>
<stop offset="1" stop-color="#00A151"/>
</linearGradient>
<linearGradient id="paint12_linear" x1="33.3228" y1="15.8653" x2="26.2057" y2="15.207" gradientUnits="userSpaceOnUse">
<stop stop-color="#007A48"/>
<stop offset="0.1423" stop-color="#3B8747"/>
<stop offset="0.4192" stop-color="#6FA143"/>
<stop offset="0.6645" stop-color="#92B73D"/>
<stop offset="0.8665" stop-color="#A9C737"/>
<stop offset="1" stop-color="#B2CE35"/>
</linearGradient>
<linearGradient id="paint13_linear" x1="26.707" y1="22.9085" x2="21.9371" y2="22.4673" gradientUnits="userSpaceOnUse">
<stop stop-color="#B2CE35"/>
<stop offset="0.1335" stop-color="#A9C737"/>
<stop offset="0.3355" stop-color="#92B73D"/>
<stop offset="0.5808" stop-color="#6FA143"/>
<stop offset="0.8577" stop-color="#3B8747"/>
<stop offset="1" stop-color="#007A48"/>
</linearGradient>
<linearGradient id="paint14_linear" x1="21.3065" y1="3.79956" x2="28.1256" y2="25.976" gradientUnits="userSpaceOnUse">
<stop stop-color="#1780df"/>
<stop offset="0.2228" stop-color="#4DAD53"/>
<stop offset="0.5132" stop-color="#3C9D50"/>
<stop offset="0.8395" stop-color="#1F864B"/>
<stop offset="1" stop-color="#007A48"/>
</linearGradient>
<linearGradient id="paint15_linear" x1="5.25661" y1="23.5525" x2="19.6235" y2="35.4006" gradientUnits="userSpaceOnUse">
<stop stop-color="#B2CE35"/>
<stop offset="0.209" stop-color="#9EC53C"/>
<stop offset="0.6372" stop-color="#68B149"/>
<stop offset="1" stop-color="#00A151"/>
</linearGradient>
<linearGradient id="paint16_linear" x1="18.7433" y1="29.2938" x2="7.5931" y2="28.2626" gradientUnits="userSpaceOnUse">
<stop stop-color="#007A48"/>
<stop offset="0.1423" stop-color="#3B8747"/>
<stop offset="0.4192" stop-color="#6FA143"/>
<stop offset="0.6645" stop-color="#92B73D"/>
<stop offset="0.8665" stop-color="#A9C737"/>
<stop offset="1" stop-color="#B2CE35"/>
</linearGradient>
<linearGradient id="paint17_linear" x1="16.8729" y1="33.6955" x2="12.281" y2="33.2708" gradientUnits="userSpaceOnUse">
<stop stop-color="#007A48"/>
<stop offset="0.1423" stop-color="#3B8747"/>
<stop offset="0.4192" stop-color="#6FA143"/>
<stop offset="0.6645" stop-color="#92B73D"/>
<stop offset="0.8665" stop-color="#A9C737"/>
<stop offset="1" stop-color="#B2CE35"/>
</linearGradient>
<linearGradient id="paint18_linear" x1="5.72872" y1="24.5794" x2="17.4195" y2="34.2205" gradientUnits="userSpaceOnUse">
<stop stop-color="#1780df"/>
<stop offset="0.2228" stop-color="#4DAD53"/>
<stop offset="0.5132" stop-color="#3C9D50"/>
<stop offset="0.8395" stop-color="#1F864B"/>
<stop offset="1" stop-color="#007A48"/>
</linearGradient>
<linearGradient id="paint19_linear" x1="5.25661" y1="23.5525" x2="19.6235" y2="35.4006" gradientUnits="userSpaceOnUse">
<stop stop-color="#B2CE35"/>
<stop offset="0.209" stop-color="#9EC53C"/>
<stop offset="0.6372" stop-color="#68B149"/>
<stop offset="1" stop-color="#00A151"/>
</linearGradient>
<linearGradient id="paint20_linear" x1="18.7433" y1="29.2938" x2="7.5931" y2="28.2626" gradientUnits="userSpaceOnUse">
<stop stop-color="#007A48"/>
<stop offset="0.1423" stop-color="#3B8747"/>
<stop offset="0.4192" stop-color="#6FA143"/>
<stop offset="0.6645" stop-color="#92B73D"/>
<stop offset="0.8665" stop-color="#A9C737"/>
<stop offset="1" stop-color="#B2CE35"/>
</linearGradient>
<linearGradient id="paint21_linear" x1="16.8729" y1="33.6955" x2="12.281" y2="33.2708" gradientUnits="userSpaceOnUse">
<stop stop-color="#007A48"/>
<stop offset="0.1423" stop-color="#3B8747"/>
<stop offset="0.4192" stop-color="#6FA143"/>
<stop offset="0.6645" stop-color="#92B73D"/>
<stop offset="0.8665" stop-color="#A9C737"/>
<stop offset="1" stop-color="#B2CE35"/>
</linearGradient>
<linearGradient id="paint22_linear" x1="5.72872" y1="24.5794" x2="17.4195" y2="34.2205" gradientUnits="userSpaceOnUse">
<stop stop-color="#1780df"/>
<stop offset="0.2228" stop-color="#4DAD53"/>
<stop offset="0.5132" stop-color="#3C9D50"/>
<stop offset="0.8395" stop-color="#1F864B"/>
<stop offset="1" stop-color="#007A48"/>
</linearGradient>
<linearGradient id="paint23_linear" x1="90.2435" y1="24.4261" x2="33.4661" y2="15.4174" gradientUnits="userSpaceOnUse">
<stop stop-color="#B2CE35"/>
<stop offset="0.209" stop-color="#9EC53C"/>
<stop offset="0.6372" stop-color="#68B149"/>
<stop offset="1" stop-color="#00A151"/>
</linearGradient>
<linearGradient id="paint24_linear" x1="91.6856" y1="18.6927" x2="33.9014" y2="13.3483" gradientUnits="userSpaceOnUse">
<stop stop-color="#B2CE35"/>
<stop offset="0.1335" stop-color="#A9C737"/>
<stop offset="0.3355" stop-color="#92B73D"/>
<stop offset="0.5808" stop-color="#6FA143"/>
<stop offset="0.8577" stop-color="#3B8747"/>
<stop offset="1" stop-color="#007A48"/>
</linearGradient>
<linearGradient id="paint25_linear" x1="64.6277" y1="25.1668" x2="31.7927" y2="22.1299" gradientUnits="userSpaceOnUse">
<stop stop-color="#B2CE35"/>
<stop offset="0.1335" stop-color="#A9C737"/>
<stop offset="0.3355" stop-color="#92B73D"/>
<stop offset="0.5808" stop-color="#6FA143"/>
<stop offset="0.8577" stop-color="#3B8747"/>
<stop offset="1" stop-color="#007A48"/>
</linearGradient>
<linearGradient id="paint26_linear" x1="86.9178" y1="25.3119" x2="40.6969" y2="17.9781" gradientUnits="userSpaceOnUse">
<stop stop-color="#B2CE35"/>
<stop offset="0.1335" stop-color="#A9C737"/>
<stop offset="0.3355" stop-color="#92B73D"/>
<stop offset="0.5808" stop-color="#6FA143"/>
<stop offset="0.8577" stop-color="#3B8747"/>
<stop offset="1" stop-color="#007A48"/>
</linearGradient>
<linearGradient id="paint27_linear" x1="31.8835" y1="103.335" x2="31.8835" y2="103.489" gradientUnits="userSpaceOnUse">
<stop stop-color="#B2CE35"/>
<stop offset="0.209" stop-color="#9EC53C"/>
<stop offset="0.6372" stop-color="#68B149"/>
<stop offset="1" stop-color="#00A151"/>
</linearGradient>
<linearGradient id="paint28_linear" x1="38.3569" y1="47.6645" x2="32.7244" y2="32.9233" gradientUnits="userSpaceOnUse">
<stop stop-color="#B2CE35"/>
<stop offset="0.209" stop-color="#9EC53C"/>
<stop offset="0.6372" stop-color="#68B149"/>
<stop offset="1" stop-color="#00A151"/>
</linearGradient>
<linearGradient id="paint29_linear" x1="44.0503" y1="44.5039" x2="31.1174" y2="32.8603" gradientUnits="userSpaceOnUse">
<stop stop-color="#B2CE35"/>
<stop offset="0.1335" stop-color="#A9C737"/>
<stop offset="0.3355" stop-color="#92B73D"/>
<stop offset="0.5808" stop-color="#6FA143"/>
<stop offset="0.8577" stop-color="#3B8747"/>
<stop offset="1" stop-color="#007A48"/>
</linearGradient>
<linearGradient id="paint30_linear" x1="36.4151" y1="41.4677" x2="28.4047" y2="34.256" gradientUnits="userSpaceOnUse">
<stop stop-color="#B2CE35"/>
<stop offset="0.1335" stop-color="#A9C737"/>
<stop offset="0.3355" stop-color="#92B73D"/>
<stop offset="0.5808" stop-color="#6FA143"/>
<stop offset="0.8577" stop-color="#3B8747"/>
<stop offset="1" stop-color="#007A48"/>
</linearGradient>
<linearGradient id="paint31_linear" x1="37.4303" y1="46.8717" x2="32.8444" y2="34.8696" gradientUnits="userSpaceOnUse">
<stop stop-color="#1780df"/>
<stop offset="0.2228" stop-color="#4DAD53"/>
<stop offset="0.5132" stop-color="#3C9D50"/>
<stop offset="0.8395" stop-color="#1F864B"/>
<stop offset="1" stop-color="#007A48"/>
</linearGradient>
<linearGradient id="paint32_linear" x1="38.3569" y1="47.6645" x2="32.7244" y2="32.9233" gradientUnits="userSpaceOnUse">
<stop stop-color="#B2CE35"/>
<stop offset="0.209" stop-color="#9EC53C"/>
<stop offset="0.6372" stop-color="#68B149"/>
<stop offset="1" stop-color="#00A151"/>
</linearGradient>
<linearGradient id="paint33_linear" x1="44.0503" y1="44.5039" x2="31.1174" y2="32.8603" gradientUnits="userSpaceOnUse">
<stop stop-color="#B2CE35"/>
<stop offset="0.1335" stop-color="#A9C737"/>
<stop offset="0.3355" stop-color="#92B73D"/>
<stop offset="0.5808" stop-color="#6FA143"/>
<stop offset="0.8577" stop-color="#3B8747"/>
<stop offset="1" stop-color="#007A48"/>
</linearGradient>
<linearGradient id="paint34_linear" x1="36.4151" y1="41.4677" x2="28.4047" y2="34.256" gradientUnits="userSpaceOnUse">
<stop stop-color="#B2CE35"/>
<stop offset="0.1335" stop-color="#A9C737"/>
<stop offset="0.3355" stop-color="#92B73D"/>
<stop offset="0.5808" stop-color="#6FA143"/>
<stop offset="0.8577" stop-color="#3B8747"/>
<stop offset="1" stop-color="#007A48"/>
</linearGradient>
<linearGradient id="paint35_linear" x1="37.4303" y1="46.8717" x2="32.8444" y2="34.8696" gradientUnits="userSpaceOnUse">
<stop stop-color="#1780df"/>
<stop offset="0.2228" stop-color="#4DAD53"/>
<stop offset="0.5132" stop-color="#3C9D50"/>
<stop offset="0.8395" stop-color="#1F864B"/>
<stop offset="1" stop-color="#007A48"/>
</linearGradient>
<linearGradient id="paint36_linear" x1="42.6115" y1="111.484" x2="42.6115" y2="51.2898" gradientUnits="userSpaceOnUse">
<stop stop-color="#00A151"/>
<stop offset="0.2748" stop-color="#5FAF4A"/>
<stop offset="0.5992" stop-color="#8EBF41"/>
<stop offset="0.8519" stop-color="#A8CA39"/>
<stop offset="1" stop-color="#B2CE35"/>
</linearGradient>
<linearGradient id="paint37_linear" x1="61.7149" y1="110.482" x2="61.7149" y2="57.3102" gradientUnits="userSpaceOnUse">
<stop stop-color="#00A151"/>
<stop offset="0.2748" stop-color="#5FAF4A"/>
<stop offset="0.5992" stop-color="#8EBF41"/>
<stop offset="0.8519" stop-color="#A8CA39"/>
<stop offset="1" stop-color="#B2CE35"/>
</linearGradient>
<linearGradient id="paint38_linear" x1="75.4051" y1="97.606" x2="75.4051" y2="62.4928" gradientUnits="userSpaceOnUse">
<stop stop-color="#00A151"/>
<stop offset="0.2748" stop-color="#5FAF4A"/>
<stop offset="0.5992" stop-color="#8EBF41"/>
<stop offset="0.8519" stop-color="#A8CA39"/>
<stop offset="1" stop-color="#B2CE35"/>
</linearGradient>
<linearGradient id="paint39_linear" x1="83.1805" y1="83.8954" x2="83.1805" y2="64.4996" gradientUnits="userSpaceOnUse">
<stop stop-color="#00A151"/>
<stop offset="0.2748" stop-color="#5FAF4A"/>
<stop offset="0.5992" stop-color="#8EBF41"/>
<stop offset="0.8519" stop-color="#A8CA39"/>
<stop offset="1" stop-color="#B2CE35"/>
</linearGradient>
<linearGradient id="paint40_linear" x1="87.4065" y1="69.3488" x2="87.4065" y2="59.976" gradientUnits="userSpaceOnUse">
<stop stop-color="#00A151"/>
<stop offset="0.2748" stop-color="#5FAF4A"/>
<stop offset="0.5992" stop-color="#8EBF41"/>
<stop offset="0.8519" stop-color="#A8CA39"/>
<stop offset="1" stop-color="#B2CE35"/>
</linearGradient>
<linearGradient id="paint41_linear" x1="89.773" y1="60.988" x2="89.773" y2="50.6212" gradientUnits="userSpaceOnUse">
<stop stop-color="#00A151"/>
<stop offset="0.2748" stop-color="#5FAF4A"/>
<stop offset="0.5992" stop-color="#8EBF41"/>
<stop offset="0.8519" stop-color="#A8CA39"/>
<stop offset="1" stop-color="#B2CE35"/>
</linearGradient>
<linearGradient id="paint42_linear" x1="92.8156" y1="56.4737" x2="92.8156" y2="43.7661" gradientUnits="userSpaceOnUse">
<stop stop-color="#00A151"/>
<stop offset="0.2748" stop-color="#5FAF4A"/>
<stop offset="0.5992" stop-color="#8EBF41"/>
<stop offset="0.8519" stop-color="#A8CA39"/>
<stop offset="1" stop-color="#B2CE35"/>
</linearGradient>
<linearGradient id="paint43_linear" x1="33.2531" y1="109.152" x2="33.2531" y2="53.8256" gradientUnits="userSpaceOnUse">
<stop stop-color="#00A151"/>
<stop offset="0.2748" stop-color="#5FAF4A"/>
<stop offset="0.5992" stop-color="#8EBF41"/>
<stop offset="0.8519" stop-color="#A8CA39"/>
<stop offset="1" stop-color="#B2CE35"/>
</linearGradient>
<linearGradient id="paint44_linear" x1="24.4141" y1="98.2981" x2="24.4141" y2="55.4114" gradientUnits="userSpaceOnUse">
<stop stop-color="#00A151"/>
<stop offset="0.2748" stop-color="#5FAF4A"/>
<stop offset="0.5992" stop-color="#8EBF41"/>
<stop offset="0.8519" stop-color="#A8CA39"/>
<stop offset="1" stop-color="#B2CE35"/>
</linearGradient>
<linearGradient id="paint45_linear" x1="76.3709" y1="59.7334" x2="46.1294" y2="59.7334" gradientUnits="userSpaceOnUse">
<stop offset="0.1508" stop-color="#FDEC0A"/>
<stop offset="0.4066" stop-color="#F9D026"/>
<stop offset="0.7171" stop-color="#F4B332"/>
<stop offset="0.8771" stop-color="#000"/>
</linearGradient>
</defs>
</svg>
