<svg width="44" height="50" viewBox="0 0 44 50" fill="none" xmlns="http://www.w3.org/2000/svg">
<path d="M42.8349 32.0257C40.9709 43.65 29.9318 51.5783 18.1796 49.7339C12.8015 48.8904 8.20537 46.1436 4.98145 42.2999C8.08241 45.5239 12.2384 47.8059 17.0263 48.556C28.6113 50.3733 39.4929 42.5582 41.3299 31.101C42.8177 21.8326 37.9314 13.019 29.8777 9.02539C38.8363 12.7264 44.4235 22.1203 42.8349 32.0257Z" fill="url(#paint0_linear)"/>
<path d="M12.5583 9.92969C12.4919 9.96903 12.428 10.0084 12.3641 10.0477C7.20479 12.861 3.36609 17.917 2.3726 24.1164C0.661039 34.7866 8.01877 44.8076 18.8045 46.4995C24.1212 47.3331 29.2755 45.988 33.3454 43.1329C29.064 46.7233 23.2851 48.5135 17.3069 47.5766C6.41787 45.8675 -1.00871 35.7506 0.720058 24.9796C1.82913 18.0375 6.47689 12.5167 12.5583 9.92969Z" fill="url(#paint1_linear)"/>
<path d="M2.36977 24.1175C3.36572 17.9181 7.20443 12.8621 12.3612 10.0488C7.67167 12.8719 4.21904 17.6353 3.29195 23.4191C1.61482 33.8729 8.82254 43.6923 19.3919 45.3497C26.275 46.4293 32.8876 43.7808 37.1247 38.9142C36.0697 40.5028 34.791 41.9217 33.3426 43.1365C29.2752 45.9915 24.1184 47.3367 18.8017 46.503C8.01595 44.8087 0.658216 34.7853 2.36977 24.1175Z" fill="url(#paint2_linear)"/>
<path d="M34.7546 4.19582C34.7546 4.19582 29.9839 18.7859 9.79195 12.5495C9.73293 12.5913 15.5562 7.87961 23.8115 6.36478C23.8115 6.36478 17.3833 6.48036 10.5125 10.3117C10.4879 10.4592 16.5152 -3.57504 34.7546 4.19582Z" fill="url(#paint3_linear)"/>
<path d="M10.5269 10.2873C10.8539 9.65042 17.0509 -3.34611 34.7543 4.19606C18.0002 -1.6739 10.8687 9.71927 10.5269 10.2873Z" fill="url(#paint4_linear)"/>
<path d="M23.8115 6.36328C23.8115 6.36328 14.8947 8.56666 11.3093 12.9833C10.8125 12.8505 10.3108 12.7078 9.79443 12.548C9.73295 12.5898 15.5562 7.87811 23.8115 6.36328Z" fill="url(#paint5_linear)"/>
<path d="M12.873 12.674C12.873 12.674 27.3278 16.9873 33.3675 4.79492C33.3085 4.83673 12.873 12.674 12.873 12.674Z" fill="url(#paint6_linear)"/>
<path d="M8.75938 0C8.75938 0 1.56396 3.43541 6.16254 12.9105C6.14532 12.9424 8.17411 9.72588 8.39051 5.55027C8.39051 5.55027 8.77168 8.72255 7.26669 12.3891C7.19292 12.4113 14.0146 8.4004 8.75938 0Z" fill="url(#paint7_linear)"/>
<path d="M7.27881 12.3793C7.58374 12.1703 13.8595 8.15203 8.75921 0C12.9324 7.81021 7.54685 12.1703 7.27881 12.3793Z" fill="url(#paint8_linear)"/>
<path d="M8.39002 5.55078C8.39002 5.55078 7.86622 10.1051 5.83252 12.1978C5.9358 12.4314 6.04401 12.67 6.15958 12.911C6.14483 12.9429 8.17361 9.72639 8.39002 5.55078Z" fill="url(#paint9_linear)"/>
<path d="M5.88705 11.4036C5.88705 11.4036 2.67296 4.60903 8.54537 0.728516C8.52816 0.760484 5.88705 11.4036 5.88705 11.4036Z" fill="url(#paint10_linear)"/>
<path d="M8.75938 0C8.75938 0 1.56396 3.43541 6.16254 12.9105C6.14532 12.9424 8.17411 9.72588 8.39051 5.55027C8.39051 5.55027 8.77168 8.72255 7.26669 12.3891C7.19292 12.4113 14.0146 8.4004 8.75938 0Z" fill="url(#paint11_linear)"/>
<path opacity="0.35" d="M7.27881 12.3793C7.58374 12.1703 13.8595 8.15203 8.75921 0C12.9324 7.81021 7.54685 12.1703 7.27881 12.3793Z" fill="url(#paint12_linear)"/>
<path opacity="0.35" d="M8.39002 5.55078C8.39002 5.55078 7.86622 10.1051 5.83252 12.1978C5.9358 12.4314 6.04401 12.67 6.15958 12.911C6.14483 12.9429 8.17361 9.72639 8.39002 5.55078Z" fill="url(#paint13_linear)"/>
<path opacity="0.8" d="M5.88705 11.4036C5.88705 11.4036 2.67296 4.60903 8.54537 0.728516C8.52816 0.760484 5.88705 11.4036 5.88705 11.4036Z" fill="url(#paint14_linear)"/>
<path d="M0.611823 8.03906C0.611823 8.03906 -2.08585 12.4926 3.84804 16.0017C3.8505 16.0263 3.80132 13.5451 2.41191 11.1941C2.41191 11.1941 3.76444 12.7852 4.26364 15.323C4.23167 15.3599 6.51621 10.7269 0.611823 8.03906Z" fill="url(#paint15_linear)"/>
<path d="M4.26609 15.3107C4.35708 15.0869 6.3416 10.6457 0.611816 8.03906C5.71206 10.7933 4.33741 15.0992 4.26609 15.3107Z" fill="url(#paint16_linear)"/>
<path d="M2.41162 11.1914C2.41162 11.1914 3.7666 13.8596 3.41003 15.7285C3.5502 15.8195 3.69529 15.9105 3.84775 15.999C3.85021 16.0236 3.79857 13.5448 2.41162 11.1914Z" fill="url(#paint17_linear)"/>
<path d="M3.1522 15.2793C3.1522 15.2793 -1.05538 12.7341 0.757003 8.51172C0.759462 8.53631 3.1522 15.2793 3.1522 15.2793Z" fill="url(#paint18_linear)"/>
<path d="M0.611823 8.03906C0.611823 8.03906 -2.08585 12.4926 3.84804 16.0017C3.8505 16.0263 3.80132 13.5451 2.41191 11.1941C2.41191 11.1941 3.76444 12.7852 4.26364 15.323C4.23167 15.3599 6.51621 10.7269 0.611823 8.03906Z" fill="url(#paint19_linear)"/>
<path opacity="0.35" d="M4.26609 15.3107C4.35708 15.0869 6.3416 10.6457 0.611816 8.03906C5.71206 10.7933 4.33741 15.0992 4.26609 15.3107Z" fill="url(#paint20_linear)"/>
<path opacity="0.35" d="M2.41162 11.1914C2.41162 11.1914 3.7666 13.8596 3.41003 15.7285C3.5502 15.8195 3.69529 15.9105 3.84775 15.999C3.85021 16.0236 3.79857 13.5448 2.41162 11.1914Z" fill="url(#paint21_linear)"/>
<path opacity="0.8" d="M3.1522 15.2793C3.1522 15.2793 -1.05538 12.7341 0.757003 8.51172C0.759462 8.53631 3.1522 15.2793 3.1522 15.2793Z" fill="url(#paint22_linear)"/>
<path d="M34.7546 4.19582C34.7546 4.19582 29.9839 18.7859 9.79195 12.5495C9.73293 12.5913 15.5562 7.87961 23.8115 6.36478C23.8115 6.36478 17.3833 6.48036 10.5125 10.3117C10.4879 10.4592 16.5152 -3.57504 34.7546 4.19582Z" fill="url(#paint23_linear)"/>
<path opacity="0.35" d="M10.5269 10.2873C10.8539 9.65042 17.0509 -3.34611 34.7543 4.19606C18.0002 -1.6739 10.8687 9.71927 10.5269 10.2873Z" fill="url(#paint24_linear)"/>
<path opacity="0.35" d="M23.8115 6.36328C23.8115 6.36328 14.8947 8.56666 11.3093 12.9833C10.8125 12.8505 10.3108 12.7078 9.79443 12.548C9.73295 12.5898 15.5562 7.87811 23.8115 6.36328Z" fill="url(#paint25_linear)"/>
<path opacity="0.8" d="M12.873 12.674C12.873 12.674 27.3278 16.9873 33.3675 4.79492C33.3085 4.83673 12.873 12.674 12.873 12.674Z" fill="url(#paint26_linear)"/>
<path d="M10.2026 42.0264C10.1681 42.0067 10.1361 41.9846 10.1016 41.9648C10.1065 41.9722 10.1139 41.9772 10.1188 41.9846C10.1459 41.9969 10.173 42.0117 10.2026 42.0264Z" fill="url(#paint27_linear)"/>
<path d="M14.533 18.6939C14.533 18.6939 9.70079 19.8177 8.55238 14.1199C8.53271 14.1125 10.7115 14.7543 12.3345 16.4585C12.3345 16.4585 11.373 14.9683 9.29258 13.9453C9.24585 13.9625 14.1026 13.2174 14.533 18.6939Z" fill="url(#paint28_linear)"/>
<path d="M9.2998 13.9425C9.5285 13.9228 14.1148 13.3769 14.5328 18.6935C13.7779 13.8589 9.51129 13.9376 9.2998 13.9425Z" fill="url(#paint29_linear)"/>
<path d="M12.3346 16.4578C12.3346 16.4578 10.4189 14.7045 8.64832 14.5422C8.61389 14.4045 8.58192 14.2643 8.55241 14.1192C8.53028 14.1118 10.7115 14.7537 12.3346 16.4578Z" fill="url(#paint30_linear)"/>
<path d="M8.88184 14.8047C8.88184 14.8047 9.74499 18.8598 14.0829 18.4024C14.0608 18.395 8.88184 14.8047 8.88184 14.8047Z" fill="url(#paint31_linear)"/>
<path d="M14.533 18.6939C14.533 18.6939 9.70079 19.8177 8.55238 14.1199C8.53271 14.1125 10.7115 14.7543 12.3345 16.4585C12.3345 16.4585 11.373 14.9683 9.29258 13.9453C9.24585 13.9625 14.1026 13.2174 14.533 18.6939Z" fill="url(#paint32_linear)"/>
<path opacity="0.35" d="M9.2998 13.9425C9.5285 13.9228 14.1148 13.3769 14.5328 18.6935C13.7779 13.8589 9.51129 13.9376 9.2998 13.9425Z" fill="url(#paint33_linear)"/>
<path opacity="0.35" d="M12.3346 16.4578C12.3346 16.4578 10.4189 14.7045 8.64832 14.5422C8.61389 14.4045 8.58192 14.2643 8.55241 14.1192C8.53028 14.1118 10.7115 14.7537 12.3346 16.4578Z" fill="url(#paint34_linear)"/>
<path opacity="0.8" d="M8.88184 14.8047C8.88184 14.8047 9.74499 18.8598 14.0829 18.4024C14.0608 18.395 8.88184 14.8047 8.88184 14.8047Z" fill="url(#paint35_linear)"/>
<path d="M24.015 45.2739H16.8073C16.8073 45.2739 22.3674 31.0822 4.79443 20.8301C4.86083 20.8989 26.5553 28.5026 24.015 45.2739Z" fill="url(#paint36_linear)"/>
<path d="M26.1421 44.8685C26.1421 44.8685 30.6718 43.7152 33.3498 41.7454C33.4186 41.8143 32.1153 32.3761 11.1782 23.2773C11.1782 23.2749 26.7593 30.8121 26.1421 44.8685Z" fill="url(#paint37_linear)"/>
<path d="M34.9978 39.6394C34.9978 39.6394 37.125 38.3484 38.7726 35.2253C38.8415 35.2941 33.2125 29.6578 16.874 25.3789C16.9429 25.4478 29.782 30.607 34.9978 39.6394Z" fill="url(#paint38_linear)"/>
<path d="M40.5575 29.1143C40.5575 29.1143 40.5575 31.6276 39.1164 34.0719C39.1164 34.0719 34.3113 29.4537 21.4058 26.1953C21.4058 26.1929 33.1432 26.4658 40.5575 29.1143Z" fill="url(#paint39_linear)"/>
<path d="M40.8331 28.163V24.3612C40.8331 24.3612 29.9859 24.2259 24.5635 25.5833C24.6323 25.6522 36.5075 26.3973 40.8331 28.163Z" fill="url(#paint40_linear)"/>
<path d="M40.4886 23.274C40.4886 23.274 34.3801 22.8658 26.8281 24.7667C26.897 24.7667 30.6718 22.6617 40.0779 20.5566C40.0091 20.6255 40.4886 23.274 40.4886 23.274Z" fill="url(#paint41_linear)"/>
<path d="M39.4608 19.6074C39.4608 19.6074 34.3803 20.8296 30.3301 22.9347C30.3301 22.9347 34.036 19.6074 38.7059 17.7754C38.7034 17.7754 39.2543 18.5894 39.4608 19.6074Z" fill="url(#paint42_linear)"/>
<path d="M4.86768 21.8594C4.86768 21.8594 19.6471 29.7065 15.9535 44.326C15.9535 44.2178 10.3024 41.4242 10.3024 41.4242C10.3024 41.4242 14.7559 28.954 4.86768 21.8594Z" fill="url(#paint43_linear)"/>
<path d="M9.54054 39.9204C9.54054 39.9204 12.6932 28.9551 4.54112 22.5048C4.43292 22.3966 2.04264 31.7487 9.54054 39.9204Z" fill="url(#paint44_linear)"/>
<path d="M22.077 30.3298C25.4683 30.3298 28.2174 27.6103 28.2174 24.2557C28.2174 20.9011 25.4683 18.1816 22.077 18.1816C18.6857 18.1816 15.9365 20.9011 15.9365 24.2557C15.9365 27.6103 18.6857 30.3298 22.077 30.3298Z" fill="url(#paint45_linear)"/>
<defs>
<linearGradient id="paint0_linear" x1="3.6788" y1="29.5128" x2="49.6822" y2="29.5121" gradientUnits="userSpaceOnUse">
<stop stop-color="#04914E"/>
<stop offset="0.0152" stop-color="#13924E"/>
<stop offset="0.3468" stop-color="#68A847"/>
<stop offset="0.6332" stop-color="#90BB3F"/>
<stop offset="0.8604" stop-color="#A9C938"/>
<stop offset="1" stop-color="#B2CE35"/>
</linearGradient>
<linearGradient id="paint1_linear" x1="-2.40072" y1="28.8757" x2="33.3457" y2="28.8751" gradientUnits="userSpaceOnUse">
<stop stop-color="#04914E"/>
<stop offset="0.064" stop-color="#3E994C"/>
<stop offset="0.1733" stop-color="#67A747"/>
<stop offset="0.2915" stop-color="#83B442"/>
<stop offset="0.4197" stop-color="#97BF3D"/>
<stop offset="0.5628" stop-color="#A6C739"/>
<stop offset="0.7331" stop-color="#AFCD36"/>
<stop offset="1" stop-color="#B2CE35"/>
</linearGradient>
<linearGradient id="paint2_linear" x1="2.12799" y1="28.396" x2="38.5562" y2="28.3954" gradientUnits="userSpaceOnUse">
<stop stop-color="#B2CE35"/>
<stop offset="0.3244" stop-color="#7DB143"/>
<stop offset="0.6242" stop-color="#4F9E4A"/>
<stop offset="0.8591" stop-color="#26944D"/>
<stop offset="1" stop-color="#04914E"/>
</linearGradient>
<linearGradient id="paint3_linear" x1="33.8506" y1="9.91962" x2="10.7937" y2="6.26125" gradientUnits="userSpaceOnUse">
<stop stop-color="#B2CE35"/>
<stop offset="0.209" stop-color="#9EC53C"/>
<stop offset="0.6372" stop-color="#68B149"/>
<stop offset="1" stop-color="#00A151"/>
</linearGradient>
<linearGradient id="paint4_linear" x1="34.436" y1="7.59174" x2="10.9702" y2="5.42143" gradientUnits="userSpaceOnUse">
<stop stop-color="#B2CE35"/>
<stop offset="0.1335" stop-color="#A9C737"/>
<stop offset="0.3355" stop-color="#92B73D"/>
<stop offset="0.5808" stop-color="#6FA143"/>
<stop offset="0.8577" stop-color="#3B8747"/>
<stop offset="1" stop-color="#007A48"/>
</linearGradient>
<linearGradient id="paint5_linear" x1="23.4483" y1="10.2191" x2="10.1143" y2="8.98585" gradientUnits="userSpaceOnUse">
<stop stop-color="#B2CE35"/>
<stop offset="0.1335" stop-color="#A9C737"/>
<stop offset="0.3355" stop-color="#92B73D"/>
<stop offset="0.5808" stop-color="#6FA143"/>
<stop offset="0.8577" stop-color="#3B8747"/>
<stop offset="1" stop-color="#007A48"/>
</linearGradient>
<linearGradient id="paint6_linear" x1="32.5" y1="10.2785" x2="13.7301" y2="7.30033" gradientUnits="userSpaceOnUse">
<stop stop-color="#B2CE35"/>
<stop offset="0.1335" stop-color="#A9C737"/>
<stop offset="0.3355" stop-color="#92B73D"/>
<stop offset="0.5808" stop-color="#6FA143"/>
<stop offset="0.8577" stop-color="#3B8747"/>
<stop offset="1" stop-color="#007A48"/>
</linearGradient>
<linearGradient id="paint7_linear" x1="5.9591" y1="0.848748" x2="9.36175" y2="11.9144" gradientUnits="userSpaceOnUse">
<stop stop-color="#B2CE35"/>
<stop offset="0.209" stop-color="#9EC53C"/>
<stop offset="0.6372" stop-color="#68B149"/>
<stop offset="1" stop-color="#00A151"/>
</linearGradient>
<linearGradient id="paint8_linear" x1="10.7358" y1="6.44277" x2="7.84555" y2="6.17545" gradientUnits="userSpaceOnUse">
<stop stop-color="#007A48"/>
<stop offset="0.1423" stop-color="#3B8747"/>
<stop offset="0.4192" stop-color="#6FA143"/>
<stop offset="0.6645" stop-color="#92B73D"/>
<stop offset="0.8665" stop-color="#A9C737"/>
<stop offset="1" stop-color="#B2CE35"/>
</linearGradient>
<linearGradient id="paint9_linear" x1="8.04878" y1="9.30328" x2="6.11175" y2="9.12412" gradientUnits="userSpaceOnUse">
<stop stop-color="#B2CE35"/>
<stop offset="0.1335" stop-color="#A9C737"/>
<stop offset="0.3355" stop-color="#92B73D"/>
<stop offset="0.5808" stop-color="#6FA143"/>
<stop offset="0.8577" stop-color="#3B8747"/>
<stop offset="1" stop-color="#007A48"/>
</linearGradient>
<linearGradient id="paint10_linear" x1="5.85609" y1="1.54338" x2="8.6253" y2="10.5491" gradientUnits="userSpaceOnUse">
<stop stop-color="#1780df"/>
<stop offset="0.2228" stop-color="#4DAD53"/>
<stop offset="0.5132" stop-color="#3C9D50"/>
<stop offset="0.8395" stop-color="#1F864B"/>
<stop offset="1" stop-color="#007A48"/>
</linearGradient>
<linearGradient id="paint11_linear" x1="5.9591" y1="0.848748" x2="9.36175" y2="11.9144" gradientUnits="userSpaceOnUse">
<stop stop-color="#B2CE35"/>
<stop offset="0.209" stop-color="#9EC53C"/>
<stop offset="0.6372" stop-color="#68B149"/>
<stop offset="1" stop-color="#00A151"/>
</linearGradient>
<linearGradient id="paint12_linear" x1="10.7358" y1="6.44277" x2="7.84555" y2="6.17545" gradientUnits="userSpaceOnUse">
<stop stop-color="#007A48"/>
<stop offset="0.1423" stop-color="#3B8747"/>
<stop offset="0.4192" stop-color="#6FA143"/>
<stop offset="0.6645" stop-color="#92B73D"/>
<stop offset="0.8665" stop-color="#A9C737"/>
<stop offset="1" stop-color="#B2CE35"/>
</linearGradient>
<linearGradient id="paint13_linear" x1="8.04878" y1="9.30328" x2="6.11175" y2="9.12412" gradientUnits="userSpaceOnUse">
<stop stop-color="#B2CE35"/>
<stop offset="0.1335" stop-color="#A9C737"/>
<stop offset="0.3355" stop-color="#92B73D"/>
<stop offset="0.5808" stop-color="#6FA143"/>
<stop offset="0.8577" stop-color="#3B8747"/>
<stop offset="1" stop-color="#007A48"/>
</linearGradient>
<linearGradient id="paint14_linear" x1="5.85609" y1="1.54338" x2="8.6253" y2="10.5491" gradientUnits="userSpaceOnUse">
<stop stop-color="#1780df"/>
<stop offset="0.2228" stop-color="#4DAD53"/>
<stop offset="0.5132" stop-color="#3C9D50"/>
<stop offset="0.8395" stop-color="#1F864B"/>
<stop offset="1" stop-color="#007A48"/>
</linearGradient>
<linearGradient id="paint15_linear" x1="-0.661974" y1="9.56458" x2="5.17229" y2="14.376" gradientUnits="userSpaceOnUse">
<stop stop-color="#B2CE35"/>
<stop offset="0.209" stop-color="#9EC53C"/>
<stop offset="0.6372" stop-color="#68B149"/>
<stop offset="1" stop-color="#00A151"/>
</linearGradient>
<linearGradient id="paint16_linear" x1="4.81495" y1="11.8961" x2="0.286958" y2="11.4773" gradientUnits="userSpaceOnUse">
<stop stop-color="#007A48"/>
<stop offset="0.1423" stop-color="#3B8747"/>
<stop offset="0.4192" stop-color="#6FA143"/>
<stop offset="0.6645" stop-color="#92B73D"/>
<stop offset="0.8665" stop-color="#A9C737"/>
<stop offset="1" stop-color="#B2CE35"/>
</linearGradient>
<linearGradient id="paint17_linear" x1="4.05495" y1="13.6835" x2="2.19021" y2="13.5111" gradientUnits="userSpaceOnUse">
<stop stop-color="#007A48"/>
<stop offset="0.1423" stop-color="#3B8747"/>
<stop offset="0.4192" stop-color="#6FA143"/>
<stop offset="0.6645" stop-color="#92B73D"/>
<stop offset="0.8665" stop-color="#A9C737"/>
<stop offset="1" stop-color="#B2CE35"/>
</linearGradient>
<linearGradient id="paint18_linear" x1="-0.470119" y1="9.98232" x2="4.2774" y2="13.8975" gradientUnits="userSpaceOnUse">
<stop stop-color="#1780df"/>
<stop offset="0.2228" stop-color="#4DAD53"/>
<stop offset="0.5132" stop-color="#3C9D50"/>
<stop offset="0.8395" stop-color="#1F864B"/>
<stop offset="1" stop-color="#007A48"/>
</linearGradient>
<linearGradient id="paint19_linear" x1="-0.661974" y1="9.56458" x2="5.17229" y2="14.376" gradientUnits="userSpaceOnUse">
<stop stop-color="#B2CE35"/>
<stop offset="0.209" stop-color="#9EC53C"/>
<stop offset="0.6372" stop-color="#68B149"/>
<stop offset="1" stop-color="#00A151"/>
</linearGradient>
<linearGradient id="paint20_linear" x1="4.81495" y1="11.8961" x2="0.286958" y2="11.4773" gradientUnits="userSpaceOnUse">
<stop stop-color="#007A48"/>
<stop offset="0.1423" stop-color="#3B8747"/>
<stop offset="0.4192" stop-color="#6FA143"/>
<stop offset="0.6645" stop-color="#92B73D"/>
<stop offset="0.8665" stop-color="#A9C737"/>
<stop offset="1" stop-color="#B2CE35"/>
</linearGradient>
<linearGradient id="paint21_linear" x1="4.05495" y1="13.6835" x2="2.19021" y2="13.5111" gradientUnits="userSpaceOnUse">
<stop stop-color="#007A48"/>
<stop offset="0.1423" stop-color="#3B8747"/>
<stop offset="0.4192" stop-color="#6FA143"/>
<stop offset="0.6645" stop-color="#92B73D"/>
<stop offset="0.8665" stop-color="#A9C737"/>
<stop offset="1" stop-color="#B2CE35"/>
</linearGradient>
<linearGradient id="paint22_linear" x1="-0.470119" y1="9.98232" x2="4.2774" y2="13.8975" gradientUnits="userSpaceOnUse">
<stop stop-color="#1780df"/>
<stop offset="0.2228" stop-color="#4DAD53"/>
<stop offset="0.5132" stop-color="#3C9D50"/>
<stop offset="0.8395" stop-color="#1F864B"/>
<stop offset="1" stop-color="#007A48"/>
</linearGradient>
<linearGradient id="paint23_linear" x1="33.8506" y1="9.91962" x2="10.7937" y2="6.26125" gradientUnits="userSpaceOnUse">
<stop stop-color="#B2CE35"/>
<stop offset="0.209" stop-color="#9EC53C"/>
<stop offset="0.6372" stop-color="#68B149"/>
<stop offset="1" stop-color="#00A151"/>
</linearGradient>
<linearGradient id="paint24_linear" x1="34.436" y1="7.59174" x2="10.9702" y2="5.42143" gradientUnits="userSpaceOnUse">
<stop stop-color="#B2CE35"/>
<stop offset="0.1335" stop-color="#A9C737"/>
<stop offset="0.3355" stop-color="#92B73D"/>
<stop offset="0.5808" stop-color="#6FA143"/>
<stop offset="0.8577" stop-color="#3B8747"/>
<stop offset="1" stop-color="#007A48"/>
</linearGradient>
<linearGradient id="paint25_linear" x1="23.4483" y1="10.2191" x2="10.1143" y2="8.98585" gradientUnits="userSpaceOnUse">
<stop stop-color="#B2CE35"/>
<stop offset="0.1335" stop-color="#A9C737"/>
<stop offset="0.3355" stop-color="#92B73D"/>
<stop offset="0.5808" stop-color="#6FA143"/>
<stop offset="0.8577" stop-color="#3B8747"/>
<stop offset="1" stop-color="#007A48"/>
</linearGradient>
<linearGradient id="paint26_linear" x1="32.5" y1="10.2785" x2="13.7301" y2="7.30033" gradientUnits="userSpaceOnUse">
<stop stop-color="#B2CE35"/>
<stop offset="0.1335" stop-color="#A9C737"/>
<stop offset="0.3355" stop-color="#92B73D"/>
<stop offset="0.5808" stop-color="#6FA143"/>
<stop offset="0.8577" stop-color="#3B8747"/>
<stop offset="1" stop-color="#007A48"/>
</linearGradient>
<linearGradient id="paint27_linear" x1="10.1511" y1="41.9633" x2="10.1511" y2="42.0258" gradientUnits="userSpaceOnUse">
<stop stop-color="#B2CE35"/>
<stop offset="0.209" stop-color="#9EC53C"/>
<stop offset="0.6372" stop-color="#68B149"/>
<stop offset="1" stop-color="#00A151"/>
</linearGradient>
<linearGradient id="paint28_linear" x1="12.7797" y1="19.3555" x2="10.4924" y2="13.3692" gradientUnits="userSpaceOnUse">
<stop stop-color="#B2CE35"/>
<stop offset="0.209" stop-color="#9EC53C"/>
<stop offset="0.6372" stop-color="#68B149"/>
<stop offset="1" stop-color="#00A151"/>
</linearGradient>
<linearGradient id="paint29_linear" x1="15.0918" y1="18.0717" x2="9.83981" y2="13.3433" gradientUnits="userSpaceOnUse">
<stop stop-color="#B2CE35"/>
<stop offset="0.1335" stop-color="#A9C737"/>
<stop offset="0.3355" stop-color="#92B73D"/>
<stop offset="0.5808" stop-color="#6FA143"/>
<stop offset="0.8577" stop-color="#3B8747"/>
<stop offset="1" stop-color="#007A48"/>
</linearGradient>
<linearGradient id="paint30_linear" x1="11.9914" y1="16.8384" x2="8.73841" y2="13.9098" gradientUnits="userSpaceOnUse">
<stop stop-color="#B2CE35"/>
<stop offset="0.1335" stop-color="#A9C737"/>
<stop offset="0.3355" stop-color="#92B73D"/>
<stop offset="0.5808" stop-color="#6FA143"/>
<stop offset="0.8577" stop-color="#3B8747"/>
<stop offset="1" stop-color="#007A48"/>
</linearGradient>
<linearGradient id="paint31_linear" x1="12.4035" y1="19.0348" x2="10.5412" y2="14.1608" gradientUnits="userSpaceOnUse">
<stop stop-color="#1780df"/>
<stop offset="0.2228" stop-color="#4DAD53"/>
<stop offset="0.5132" stop-color="#3C9D50"/>
<stop offset="0.8395" stop-color="#1F864B"/>
<stop offset="1" stop-color="#007A48"/>
</linearGradient>
<linearGradient id="paint32_linear" x1="12.7797" y1="19.3555" x2="10.4924" y2="13.3692" gradientUnits="userSpaceOnUse">
<stop stop-color="#B2CE35"/>
<stop offset="0.209" stop-color="#9EC53C"/>
<stop offset="0.6372" stop-color="#68B149"/>
<stop offset="1" stop-color="#00A151"/>
</linearGradient>
<linearGradient id="paint33_linear" x1="15.0918" y1="18.0717" x2="9.83981" y2="13.3433" gradientUnits="userSpaceOnUse">
<stop stop-color="#B2CE35"/>
<stop offset="0.1335" stop-color="#A9C737"/>
<stop offset="0.3355" stop-color="#92B73D"/>
<stop offset="0.5808" stop-color="#6FA143"/>
<stop offset="0.8577" stop-color="#3B8747"/>
<stop offset="1" stop-color="#007A48"/>
</linearGradient>
<linearGradient id="paint34_linear" x1="11.9914" y1="16.8384" x2="8.73841" y2="13.9098" gradientUnits="userSpaceOnUse">
<stop stop-color="#B2CE35"/>
<stop offset="0.1335" stop-color="#A9C737"/>
<stop offset="0.3355" stop-color="#92B73D"/>
<stop offset="0.5808" stop-color="#6FA143"/>
<stop offset="0.8577" stop-color="#3B8747"/>
<stop offset="1" stop-color="#007A48"/>
</linearGradient>
<linearGradient id="paint35_linear" x1="12.4035" y1="19.0348" x2="10.5412" y2="14.1608" gradientUnits="userSpaceOnUse">
<stop stop-color="#1780df"/>
<stop offset="0.2228" stop-color="#4DAD53"/>
<stop offset="0.5132" stop-color="#3C9D50"/>
<stop offset="0.8395" stop-color="#1F864B"/>
<stop offset="1" stop-color="#007A48"/>
</linearGradient>
<linearGradient id="paint36_linear" x1="14.5072" y1="45.2747" x2="14.5072" y2="20.8304" gradientUnits="userSpaceOnUse">
<stop stop-color="#00A151"/>
<stop offset="0.2748" stop-color="#5FAF4A"/>
<stop offset="0.5992" stop-color="#8EBF41"/>
<stop offset="0.8519" stop-color="#A8CA39"/>
<stop offset="1" stop-color="#B2CE35"/>
</linearGradient>
<linearGradient id="paint37_linear" x1="22.2649" y1="44.8677" x2="22.2649" y2="23.2752" gradientUnits="userSpaceOnUse">
<stop stop-color="#00A151"/>
<stop offset="0.2748" stop-color="#5FAF4A"/>
<stop offset="0.5992" stop-color="#8EBF41"/>
<stop offset="0.8519" stop-color="#A8CA39"/>
<stop offset="1" stop-color="#B2CE35"/>
</linearGradient>
<linearGradient id="paint38_linear" x1="27.8248" y1="39.6383" x2="27.8248" y2="25.3791" gradientUnits="userSpaceOnUse">
<stop stop-color="#00A151"/>
<stop offset="0.2748" stop-color="#5FAF4A"/>
<stop offset="0.5992" stop-color="#8EBF41"/>
<stop offset="0.8519" stop-color="#A8CA39"/>
<stop offset="1" stop-color="#B2CE35"/>
</linearGradient>
<linearGradient id="paint39_linear" x1="30.9818" y1="34.0705" x2="30.9818" y2="26.194" gradientUnits="userSpaceOnUse">
<stop stop-color="#00A151"/>
<stop offset="0.2748" stop-color="#5FAF4A"/>
<stop offset="0.5992" stop-color="#8EBF41"/>
<stop offset="0.8519" stop-color="#A8CA39"/>
<stop offset="1" stop-color="#B2CE35"/>
</linearGradient>
<linearGradient id="paint40_linear" x1="32.6981" y1="28.1634" x2="32.6981" y2="24.3572" gradientUnits="userSpaceOnUse">
<stop stop-color="#00A151"/>
<stop offset="0.2748" stop-color="#5FAF4A"/>
<stop offset="0.5992" stop-color="#8EBF41"/>
<stop offset="0.8519" stop-color="#A8CA39"/>
<stop offset="1" stop-color="#B2CE35"/>
</linearGradient>
<linearGradient id="paint41_linear" x1="33.6589" y1="24.7681" x2="33.6589" y2="20.5583" gradientUnits="userSpaceOnUse">
<stop stop-color="#00A151"/>
<stop offset="0.2748" stop-color="#5FAF4A"/>
<stop offset="0.5992" stop-color="#8EBF41"/>
<stop offset="0.8519" stop-color="#A8CA39"/>
<stop offset="1" stop-color="#B2CE35"/>
</linearGradient>
<linearGradient id="paint42_linear" x1="34.8947" y1="22.9348" x2="34.8947" y2="17.7744" gradientUnits="userSpaceOnUse">
<stop stop-color="#00A151"/>
<stop offset="0.2748" stop-color="#5FAF4A"/>
<stop offset="0.5992" stop-color="#8EBF41"/>
<stop offset="0.8519" stop-color="#A8CA39"/>
<stop offset="1" stop-color="#B2CE35"/>
</linearGradient>
<linearGradient id="paint43_linear" x1="10.7063" y1="44.3263" x2="10.7063" y2="21.8587" gradientUnits="userSpaceOnUse">
<stop stop-color="#00A151"/>
<stop offset="0.2748" stop-color="#5FAF4A"/>
<stop offset="0.5992" stop-color="#8EBF41"/>
<stop offset="0.8519" stop-color="#A8CA39"/>
<stop offset="1" stop-color="#B2CE35"/>
</linearGradient>
<linearGradient id="paint44_linear" x1="7.11743" y1="39.92" x2="7.11743" y2="22.504" gradientUnits="userSpaceOnUse">
<stop stop-color="#00A151"/>
<stop offset="0.2748" stop-color="#5FAF4A"/>
<stop offset="0.5992" stop-color="#8EBF41"/>
<stop offset="0.8519" stop-color="#A8CA39"/>
<stop offset="1" stop-color="#B2CE35"/>
</linearGradient>
<linearGradient id="paint45_linear" x1="28.2164" y1="24.256" x2="15.9355" y2="24.256" gradientUnits="userSpaceOnUse">
<stop offset="0.1508" stop-color="#FDEC0A"/>
<stop offset="0.4066" stop-color="#F9D026"/>
<stop offset="0.7171" stop-color="#F4B332"/>
<stop offset="0.8771" stop-color="#000"/>
</linearGradient>
</defs>
</svg>
