<svg width="20" height="21" viewBox="0 0 20 21" fill="none" xmlns="http://www.w3.org/2000/svg">
<path d="M16.7222 9.80386C17.0278 10.1092 17.5556 10.1092 17.8611 9.80386C20 8.3049 20.4722 4.11334 18.5833 2.22575C16.6944 0.338161 13.6111 0.338161 11.7222 2.22575L1.41667 12.5242C-0.472222 14.4118 -0.472222 17.493 1.41667 19.3806C2.36111 20.3244 3.61111 20.7963 4.86111 20.7963C6.11111 20.7963 7.33333 20.3244 8.30556 19.3806L15.2778 12.4132C16.2778 11.3028 16.25 9.5818 15.1944 8.49921C14.0833 7.38886 12.3056 7.38886 11.1944 8.49921L5.41667 14.2453C5.11111 14.5506 5.11111 15.078 5.41667 15.3834C5.72222 15.6887 6.25 15.6887 6.55556 15.3834L12.2778 9.66507C12.75 9.19317 13.5278 9.19317 14 9.66507C14.4722 10.137 14.4722 10.9142 14 11.3861L7.13889 18.2425C5.88889 19.4916 3.83333 19.4916 2.55556 18.2425C1.30556 16.9934 1.30556 14.9392 2.55556 13.6623L12.8611 3.36386C14.1111 2.11472 16.1667 2.11472 17.4444 3.36386C18.7222 4.613 18.5 7.30559 16.7222 8.66576C16.3889 8.97111 16.3889 9.49852 16.7222 9.80386Z" fill="#393939"/>
</svg>
