<svg width="25" height="26" viewBox="0 0 25 26" fill="none" xmlns="http://www.w3.org/2000/svg">
<path d="M14.137 1.20927C14.1737 1.09474 14.1108 0.971527 13.995 0.939155C13.3647 0.762959 12.6285 0.694897 11.1719 1.00953C10.727 1.10564 10.4661 1.50371 10.5777 1.94498C10.7068 2.45477 10.9083 3.13193 11.1569 3.69734C11.3826 4.21057 11.3478 4.88735 10.9935 5.32188C10.166 6.33685 8.8937 8.29386 8.95173 10.6792C8.95882 10.9705 8.8538 11.2494 8.64754 11.4553C8.48431 11.6183 8.29579 11.8274 8.14384 12.0721C7.94319 12.3952 8.09495 12.7839 8.45783 12.8977C10.1495 13.4283 14.6984 13.7231 17.2663 12.9861C17.7848 12.8373 18.0412 12.2117 17.6913 11.801C17.656 11.7596 17.618 11.7185 17.5768 11.6781C17.3107 11.4169 17.0887 11.0927 17.076 10.7201C17.0259 9.25094 16.7359 7.13797 15.253 5.60339C14.7859 5.12002 14.7016 4.2865 15.0739 3.72681C15.3427 3.32253 15.5625 2.90898 15.7208 2.58173C15.8948 2.22187 15.7352 1.79994 15.353 1.68272C15.0732 1.5969 14.733 1.52353 14.3943 1.52688C14.2274 1.52852 14.0862 1.36818 14.137 1.20927Z" fill="#55A354" fill-opacity="0.42"/>
<path d="M21.6959 10.7778C22.0908 10.3829 20.9803 7.12443 22.0907 5.64385C23.2755 4.45911 24.8551 12.7525 24.0652 14.7271C23.3527 16.5083 19.7479 20.5392 19.0488 21.3115C18.9757 21.3923 18.9526 21.5049 18.9871 21.6082L19.6213 23.5109C19.6756 23.6737 19.5824 23.8488 19.417 23.8948L12.6979 25.7612C12.6422 25.7767 12.5833 25.7757 12.5281 25.7585L6.63022 23.9155C6.45379 23.8603 6.36871 23.6603 6.45138 23.495L7.36482 21.6681C7.4304 21.5369 7.39297 21.3782 7.27617 21.2895C6.40623 20.629 2.9809 17.9233 1.94972 15.5169C1.15997 13.9372 1.55479 4.854 3.92433 5.64383C5.1091 6.03877 3.92433 9.98803 4.31925 10.7778C6.68879 11.9626 7.08372 14.7271 7.47864 15.5169C11.8228 16.3068 11.8228 22.5103 11.8228 22.5103H14.1923C14.1923 22.5103 14.1923 16.3068 18.5365 15.5169C19.3263 15.122 19.7213 11.9626 21.6959 10.7778Z" fill="#55A354" fill-opacity="0.42"/>
<path d="M20.3814 16.1348C20.2036 16.7352 19.2855 16.4662 19.4632 15.8664C20.2484 13.1838 20.8543 11.7339 21.1676 10.983C21.5009 10.1866 20.1747 10.9906 19.9536 11.3153C19.1357 12.5145 18.0763 14.6524 18.0734 14.6587C17.9933 14.819 17.8731 14.8809 17.7109 14.9205C17.4132 14.9932 15.3104 15.58 13.9788 17.9037C12.8371 19.8965 13.7323 22.5124 14.1203 23.4479L17.6486 22.5551C16.9969 20.709 17.085 20.4434 18.2763 19.1605C20.4297 16.8408 22.7071 14.4835 22.7393 11.125C22.7564 9.3722 22.2069 7.56914 21.3574 5.68136C21.0607 5.02217 20.7417 5.59821 20.7834 6.0892L21.0925 9.7361C22.447 9.70574 22.4403 10.4181 22.0514 11.3482C21.7448 12.082 21.1523 13.4993 20.3814 16.1348ZM3.3143 16.1348C3.49208 16.7352 4.41023 16.4662 4.23213 15.8664C3.44724 13.1838 2.84139 11.7339 2.52781 10.983C2.19483 10.1866 3.52102 10.9906 3.74205 11.3153C4.55971 12.5145 5.61875 14.6524 5.62224 14.6587C5.70175 14.819 5.82197 14.8809 5.98448 14.9205C6.28247 14.9932 8.38465 15.58 9.71656 17.9037C10.8586 19.8965 9.96336 22.5124 9.57536 23.4479L6.04713 22.5551C6.69878 20.709 6.61068 20.4434 5.41934 19.1605C3.26596 16.8408 0.988546 14.4835 0.956107 11.125C0.939251 9.3722 1.48881 7.56914 2.33795 5.68136C2.63467 5.02217 2.95397 5.59821 2.91231 6.0892L2.60318 9.7361C1.24838 9.70574 1.25537 10.4181 1.64432 11.3482C1.9509 12.082 2.54339 13.4993 3.3143 16.1348ZM3.54805 9.94697L3.86799 6.16951C4.01619 4.42558 2.15921 3.74394 1.46241 5.29248C0.563657 7.29092 -0.0180195 9.21918 0.000426253 11.1354C0.0360456 14.8244 2.35449 17.2619 4.71586 19.8058C5.80734 20.9815 5.67726 21.0457 4.97315 22.6837C4.84784 22.9528 4.99795 23.2724 5.2899 23.3455L9.70416 24.4631C9.9271 24.5339 10.1752 24.4334 10.2804 24.2178C10.2862 24.2064 12.2147 20.342 10.5466 17.4317C9.18577 15.0564 7.07819 14.2518 6.38361 14.0428C6.09929 13.4807 5.23806 11.8104 4.53649 10.7813C4.28811 10.4171 3.95163 10.1281 3.54805 9.94697ZM20.1476 9.94697L19.8274 6.16951C19.6792 4.42558 21.5365 3.74394 22.233 5.29248C23.132 7.29092 23.7137 9.21918 23.6949 11.1354C23.6593 14.8244 21.3412 17.2619 18.9798 19.8058C17.8883 20.9815 18.0181 21.0457 18.7225 22.6837C18.8478 22.9528 18.6977 23.2724 18.4055 23.3455L13.9915 24.4631C13.7686 24.5339 13.5205 24.4334 13.4146 24.2178C13.4095 24.2064 11.4807 20.342 13.1484 17.4317C14.5099 15.0564 16.6175 14.2518 17.3114 14.0428C17.5964 13.4807 18.4576 11.8104 19.1589 10.7813C19.4073 10.4171 19.7441 10.1281 20.1476 9.94697Z" fill="#393939"/>
<path d="M17.3672 12.6789C17.18 11.9974 16.566 11.4245 16.3231 11.2183C16.4096 6.93383 14.2038 4.81821 13.4708 4.23447C13.8759 3.76797 14.8283 2.58878 15.1739 1.45891C15.2018 1.36806 15.1749 1.26889 15.1048 1.2049C15.0789 1.18097 14.4971 0.665618 13.2135 0.7936C13.2231 0.743775 13.2307 0.696392 13.237 0.649498C13.2504 0.541543 13.1919 0.437496 13.0935 0.394998C13.0047 0.35592 10.8949 -0.546797 9.09283 0.515165C9.01362 0.561082 8.96706 0.649986 8.9733 0.74231C8.97762 0.807278 9.08707 2.30594 10.2579 4.20858C9.56038 4.75324 7.28405 6.86642 7.37141 11.2183C7.12851 11.4245 6.51455 11.9979 6.32733 12.6789C6.31869 12.7101 6.31629 12.7429 6.32013 12.7751C6.36142 13.1073 6.9821 13.8791 11.8473 13.8791C16.7125 13.8791 17.3331 13.1073 17.3744 12.7751C17.3783 12.7429 17.3759 12.7101 17.3672 12.6789ZM11.8473 13.3906C7.89897 13.3906 6.99986 12.8601 6.82273 12.7067C7.05315 12.0741 7.75112 11.5344 7.75832 11.5285C7.82025 11.4806 7.85625 11.4054 7.85385 11.3253C7.72376 6.9861 10.1081 4.93496 10.6126 4.5515C10.8142 4.63161 11.2175 4.76594 11.6821 4.76594C11.843 4.76594 12.0105 4.74982 12.1785 4.70977C12.3076 4.67899 12.3878 4.54759 12.3571 4.4157C12.3268 4.28479 12.1991 4.20028 12.0686 4.23447C11.5031 4.36783 10.9242 4.15339 10.747 4.07914C9.78696 2.56679 9.53062 1.28843 9.46966 0.861988C10.7514 0.196186 12.2232 0.60358 12.7253 0.776992C12.5616 1.47845 11.9971 2.4818 11.9908 2.49352C11.9246 2.60978 11.9644 2.75974 12.0796 2.82667C12.1929 2.89359 12.3408 2.85451 12.4075 2.73679C12.4296 2.69771 12.828 1.98892 13.0685 1.30358C13.9282 1.17657 14.4385 1.36854 14.6574 1.48773C14.1985 2.74997 12.9518 4.08939 12.9389 4.10356C12.8894 4.15583 12.8664 4.22861 12.8746 4.30091C12.8827 4.3732 12.923 4.43817 12.9835 4.47725C13.0138 4.49728 15.9857 6.50006 15.8407 11.3248C15.8383 11.4049 15.8738 11.4801 15.9367 11.528C15.9444 11.5339 16.6409 12.0707 16.8718 12.7062C16.6947 12.8601 15.7956 13.3906 11.8473 13.3906Z" fill="#393939"/>
<path d="M13.0368 7.61278C13.1439 7.69387 13.2941 7.67287 13.3729 7.56491C13.453 7.45696 13.4319 7.30455 13.3263 7.22346C13.0368 7.00023 12.5755 6.74475 12.0869 6.64608V6.11363C12.0869 5.9793 11.9793 5.86939 11.8468 5.86939C11.7143 5.86939 11.6068 5.9793 11.6068 6.11363V6.60895C11.2343 6.62996 10.8733 6.77797 10.5867 7.14042C10.2987 7.50678 10.3035 7.83504 10.3573 8.04607C10.5167 8.66547 11.2833 9.09533 11.8982 9.34836C12.4656 9.58137 12.7623 9.79093 12.8602 10.0288C12.9192 10.1719 12.9068 10.3419 12.8218 10.5486C12.7824 10.6448 12.6394 10.783 12.3667 10.8558C12.0989 10.9271 11.3721 11.0102 10.4163 10.2482C10.3112 10.1651 10.1609 10.1822 10.0793 10.2892C9.99773 10.3952 10.016 10.5486 10.1201 10.6326C10.6861 11.0839 11.1959 11.2793 11.6068 11.3511V11.8758C11.6068 12.0111 11.7143 12.12 11.8468 12.12C11.9793 12.12 12.0869 12.0111 12.0869 11.8758V11.3824C12.2553 11.3746 12.3965 11.3526 12.4877 11.3282C12.8636 11.229 13.1545 11.0077 13.2653 10.7366C13.3998 10.4074 13.4127 10.106 13.3033 9.83978C13.1103 9.37132 12.5751 9.09924 12.0777 8.89505C11.3735 8.60587 10.9045 8.24244 10.822 7.92297C10.7831 7.77105 10.8287 7.61474 10.9616 7.44572C11.651 6.56694 13.0234 7.60204 13.0368 7.61278Z" fill="#393939"/>
</svg>
