<svg width="16" height="17" viewBox="0 0 16 17" fill="none" xmlns="http://www.w3.org/2000/svg">
<path fill-rule="evenodd" clip-rule="evenodd" d="M14.248 4.94366H1.096V14.8077C1.096 15.0983 1.21147 15.3771 1.41701 15.5827C1.62255 15.7882 1.90132 15.9037 2.192 15.9037H13.152C13.4427 15.9037 13.7215 15.7882 13.927 15.5827C14.1325 15.3771 14.248 15.0983 14.248 14.8077V4.94366ZM0 3.84766V14.8077C0 15.389 0.230942 15.9466 0.642022 16.3576C1.0531 16.7687 1.61065 16.9997 2.192 16.9997H13.152C13.7334 16.9997 14.2909 16.7687 14.702 16.3576C15.1131 15.9466 15.344 15.389 15.344 14.8077V3.84766H0Z" fill="#162C17"/>
<path d="M7.5152 1.721C6.78851 1.721 6.09158 2.00968 5.57773 2.52353C5.06388 3.03738 4.7752 3.73431 4.7752 4.461H3.6792C3.6792 3.44363 4.08335 2.46793 4.80274 1.74854C5.52213 1.02915 6.49783 0.625 7.5152 0.625C8.53257 0.625 9.50827 1.02915 10.2277 1.74854C10.9471 2.46793 11.3512 3.44363 11.3512 4.461H10.2552C10.2552 3.73431 9.96652 3.03738 9.45267 2.52353C8.93882 2.00968 8.24189 1.721 7.5152 1.721Z" fill="#162C17"/>
</svg>
