<svg width="14" height="14" viewBox="0 0 14 14" fill="none" xmlns="http://www.w3.org/2000/svg">
<path fill-rule="evenodd" clip-rule="evenodd" d="M12.25 4.375H1.75V12.25C1.75 12.4821 1.84219 12.7046 2.00628 12.8687C2.17038 13.0328 2.39294 13.125 2.625 13.125H11.375C11.6071 13.125 11.8296 13.0328 11.9937 12.8687C12.1578 12.7046 12.25 12.4821 12.25 12.25V4.375ZM0.875 3.5V12.25C0.875 12.7141 1.05937 13.1592 1.38756 13.4874C1.71575 13.8156 2.16087 14 2.625 14H11.375C11.8391 14 12.2842 13.8156 12.6124 13.4874C12.9406 13.1592 13.125 12.7141 13.125 12.25V3.5H0.875Z" fill="#FBFBFB"/>
<path d="M7 1.3125C6.41984 1.3125 5.86344 1.54297 5.4532 1.9532C5.04297 2.36344 4.8125 2.91984 4.8125 3.5H3.9375C3.9375 2.68777 4.26016 1.90882 4.83449 1.33449C5.40882 0.760155 6.18777 0.4375 7 0.4375C7.81223 0.4375 8.59118 0.760155 9.16551 1.33449C9.73984 1.90882 10.0625 2.68777 10.0625 3.5H9.1875C9.1875 2.91984 8.95703 2.36344 8.5468 1.9532C8.13656 1.54297 7.58016 1.3125 7 1.3125Z" fill="#FBFBFB"/>
</svg>
