<svg width="26" height="27" viewBox="0 0 26 27" fill="none" xmlns="http://www.w3.org/2000/svg">
<path d="M0 23.5399C0.000799397 24.2185 0.270086 24.8691 0.74879 25.349C1.22749 25.8289 1.87653 26.0988 2.55351 26.0996H23.4465C24.1235 26.0988 24.7725 25.8289 25.2512 25.349C25.7299 24.8691 25.9992 24.2185 26 23.5399V8.61739C26 8.48006 25.9456 8.34836 25.8487 8.25126C25.7519 8.15416 25.6205 8.09961 25.4835 8.09961C25.3465 8.09961 25.2151 8.15416 25.1183 8.25126C25.0214 8.34836 24.967 8.48006 24.967 8.61739V23.5399C24.9666 23.944 24.8062 24.3314 24.5212 24.6172C24.2361 24.9029 23.8496 25.0636 23.4465 25.0641H2.55351C2.15038 25.0636 1.76388 24.9029 1.47882 24.6172C1.19377 24.3314 1.03344 23.944 1.03303 23.5399V8.61739C1.03303 8.48006 0.978608 8.34836 0.881743 8.25126C0.784878 8.15416 0.653501 8.09961 0.516514 8.09961C0.379526 8.09961 0.248148 8.15416 0.151283 8.25126C0.0544178 8.34836 5.77361e-09 8.48006 0 8.61739V23.5399Z" fill="#393939"/>
<path d="M6.86277 1.46239e-09C6.79494 -5.3326e-06 6.72777 0.0145814 6.66511 0.0429267C6.60244 0.071272 6.5455 0.112821 6.49753 0.165201C6.44957 0.21758 6.41152 0.279766 6.38557 0.348204C6.35961 0.416643 6.34626 0.489994 6.34626 0.56407V2.96621H2.03176C1.49315 2.96682 0.976747 3.20073 0.595851 3.61661C0.214956 4.03249 0.000668312 4.59639 1.33909e-09 5.18459V8.43593C-4.88301e-06 8.51001 0.013352 8.58336 0.0393075 8.6518C0.065263 8.72024 0.103309 8.78242 0.151273 8.8348C0.199236 8.88718 0.256179 8.92873 0.318847 8.95707C0.381516 8.98542 0.448683 9.00001 0.516513 9H25.4835C25.5513 9.00001 25.6185 8.98542 25.6812 8.95707C25.7438 8.92873 25.8008 8.88718 25.8487 8.8348C25.8967 8.78242 25.9347 8.72024 25.9607 8.6518C25.9866 8.58336 26 8.51001 26 8.43593V5.1846C25.9993 4.5964 25.785 4.0325 25.4042 3.61662C25.0233 3.20074 24.5069 2.96683 23.9682 2.96622H19.6537V0.56407C19.6537 0.414469 19.5993 0.270996 19.5025 0.165213C19.4056 0.0594291 19.2742 1.46239e-09 19.1372 1.46239e-09C19.0002 1.46239e-09 18.8689 0.0594291 18.772 0.165213C18.6751 0.270996 18.6207 0.414469 18.6207 0.56407V2.96621H7.37929V0.56407C7.37929 0.489994 7.36594 0.416643 7.33998 0.348204C7.31402 0.279766 7.27598 0.21758 7.22801 0.165201C7.18005 0.112821 7.12311 0.071272 7.06044 0.0429267C6.99777 0.0145814 6.9306 -5.3326e-06 6.86277 1.46239e-09ZM18.6207 4.09435V5.98311C18.6207 6.13271 18.6751 6.27618 18.772 6.38197C18.8689 6.48775 19.0002 6.54718 19.1372 6.54718C19.2742 6.54718 19.4056 6.48775 19.5025 6.38197C19.5993 6.27618 19.6537 6.13271 19.6537 5.98311V4.09435H23.9682C24.233 4.09461 24.4868 4.20955 24.674 4.41394C24.8613 4.61833 24.9666 4.89548 24.967 5.18459V7.87186H1.03303V5.1846C1.03338 4.89549 1.13873 4.61833 1.32596 4.41394C1.5132 4.20956 1.76703 4.09462 2.03176 4.09436H6.34626V5.98312C6.34626 6.13272 6.40068 6.27619 6.49754 6.38198C6.59441 6.48776 6.72579 6.54719 6.86277 6.54719C6.99976 6.54719 7.13114 6.48776 7.228 6.38198C7.32487 6.27619 7.37929 6.13272 7.37929 5.98312V4.09435H18.6207Z" fill="#393939"/>
<path d="M3.1319 10.7998C2.99086 10.7998 2.85559 10.8472 2.75586 10.9316C2.65613 11.016 2.6001 11.1305 2.6001 11.2498C2.6001 11.3692 2.65613 11.4836 2.75586 11.568C2.85559 11.6524 2.99086 11.6998 3.1319 11.6998H22.8683C23.0093 11.6998 23.1446 11.6524 23.2443 11.568C23.3441 11.4836 23.4001 11.3692 23.4001 11.2498C23.4001 11.1305 23.3441 11.016 23.2443 10.9316C23.1446 10.8472 23.0093 10.7998 22.8683 10.7998H3.1319Z" fill="#393939"/>
</svg>
