<svg width="30" height="25" viewBox="0 0 30 25" fill="none" xmlns="http://www.w3.org/2000/svg">
<path d="M4.71181 24.2195C2.55364 24.2195 0.793945 22.4598 0.793945 20.3017V7.47956C0.793945 5.32139 2.55364 3.56169 4.71181 3.56169H8.50722L9.75381 0.456342C9.80505 0.3233 9.89502 0.208701 10.0121 0.127346C10.1292 0.0459913 10.268 0.00162321 10.4105 0H20.3833C20.5258 0.00162321 20.6646 0.0459913 20.7817 0.127346C20.8988 0.208701 20.9887 0.3233 21.04 0.456342L22.2866 3.56169H26.082C28.2401 3.56169 29.9998 5.32139 29.9998 7.47956V20.3017C29.9998 22.4598 28.2401 24.2195 26.082 24.2195H4.71181ZM4.71181 22.7949H26.082C27.4755 22.7949 28.5751 21.6952 28.5751 20.3017V7.47956C28.5751 6.08604 27.4755 4.98637 26.082 4.98637H21.8079C21.6667 4.98564 21.5288 4.94293 21.4119 4.86365C21.2949 4.78438 21.2042 4.67212 21.1512 4.54116L19.9046 1.42468H10.8891L9.64254 4.54116C9.58956 4.67212 9.49884 4.78438 9.3819 4.86365C9.26497 4.94293 9.12711 4.98564 8.98584 4.98637H4.71181C3.31826 4.98637 2.21862 6.08604 2.21862 7.47956V20.3017C2.21862 21.6952 3.31826 22.7949 4.71181 22.7949ZM15.3969 20.6578C11.6679 20.6578 8.62967 17.6196 8.62967 13.8906C8.62967 10.1616 11.6679 7.12339 15.3969 7.12339C19.1259 7.12339 22.1641 10.1616 22.1641 13.8906C22.1641 17.6196 19.1259 20.6578 15.3969 20.6578ZM15.3969 19.2332C18.3559 19.2332 20.7394 16.8496 20.7394 13.8906C20.7394 10.9316 18.3559 8.54806 15.3969 8.54806C12.4379 8.54806 10.0543 10.9316 10.0543 13.8906C10.0543 16.8496 12.4379 19.2332 15.3969 19.2332Z" fill="#393939"/>
</svg>
