<svg width="63" height="52" viewBox="0 0 63 52" fill="none" xmlns="http://www.w3.org/2000/svg">
<path d="M9.16115 51.2998C4.63165 51.2998 0.938477 47.6067 0.938477 43.0772V16.1666C0.938477 11.6371 4.63165 7.9439 9.16115 7.9439H17.1268L19.7431 1.4265C19.8507 1.14728 20.0395 0.906764 20.2852 0.73602C20.5309 0.565275 20.8222 0.472157 21.1214 0.46875H42.0518C42.351 0.472157 42.6423 0.565275 42.888 0.73602C43.1337 0.906764 43.3226 1.14728 43.4301 1.4265L46.0464 7.9439H54.0121C58.5416 7.9439 62.2347 11.6371 62.2347 16.1666V43.0772C62.2347 47.6067 58.5416 51.2998 54.0121 51.2998H9.16115ZM9.16115 48.3098H54.0121C56.9368 48.3098 59.2447 46.0019 59.2447 43.0772V16.1666C59.2447 13.2419 56.9368 10.934 54.0121 10.934H45.0419C44.7454 10.9324 44.4561 10.8428 44.2106 10.6764C43.9652 10.51 43.7748 10.2744 43.6636 9.99957L41.0473 3.45881H22.1259L19.5096 9.99957C19.3984 10.2744 19.208 10.51 18.9626 10.6764C18.7172 10.8428 18.4278 10.9324 18.1313 10.934H9.16115C6.23642 10.934 3.92854 13.2419 3.92854 16.1666V43.0772C3.92854 46.0019 6.23642 48.3098 9.16115 48.3098ZM31.5866 43.8247C23.7604 43.8247 17.3838 37.4482 17.3838 29.6219C17.3838 21.7956 23.7604 15.4191 31.5866 15.4191C39.413 15.4191 45.7894 21.7956 45.7894 29.6219C45.7894 37.4481 39.413 43.8247 31.5866 43.8247ZM31.5866 40.8346C37.797 40.8346 42.7993 35.8321 42.7993 29.6219C42.7993 23.4116 37.797 18.4091 31.5866 18.4091C25.3764 18.4091 20.3739 23.4116 20.3739 29.6219C20.3739 35.8321 25.3764 40.8346 31.5866 40.8346Z" fill="#393939"/>
</svg>
