<svg width="83" height="82" viewBox="0 0 83 82" fill="none" xmlns="http://www.w3.org/2000/svg">
<path d="M79.8487 57.2315L59.5674 48.6436C58.7732 48.3059 57.906 48.1699 57.045 48.248C56.1839 48.3262 55.3564 48.616 54.6378 49.0911L43.7969 56.2334C43.5532 56.3973 43.2707 56.4959 42.977 56.5198C42.6832 56.5436 42.3881 56.4918 42.1207 56.3695C35.1115 53.014 29.441 47.4371 26.0129 40.5276C25.8881 40.265 25.8341 39.975 25.8561 39.6857C25.8781 39.3964 25.9754 39.1176 26.1385 38.8763L33.3423 28.0018C33.8126 27.2937 34.0979 26.4816 34.1727 25.638C34.2475 24.7943 34.1095 23.9455 33.771 23.1675L25.0715 3.11347C24.6281 2.09298 23.8622 1.24175 22.8884 0.687124C21.9145 0.132498 20.7851 -0.0957044 19.669 0.0366549C14.2364 0.727097 9.24394 3.34782 5.6243 7.40928C2.00467 11.4707 0.00541507 16.6951 0 22.1065C0 55.1318 27.1959 82 60.624 82C66.1014 81.9947 71.3895 80.0195 75.5005 76.4435C79.6115 72.8675 82.2642 67.9352 82.963 62.568C83.0967 61.4655 82.8656 60.3499 82.3043 59.388C81.7429 58.4261 80.8814 57.6695 79.8487 57.2315ZM79.5257 62.1389C78.9341 66.6798 76.6894 70.8526 73.2109 73.8778C69.7325 76.903 65.2582 78.5736 60.624 78.5775C29.106 78.5775 3.46423 53.2447 3.46423 22.1065C3.46817 17.5282 5.15908 13.1079 8.22107 9.67139C11.2831 6.23485 15.5067 4.01717 20.1029 3.43261C20.1711 3.42399 20.2398 3.41971 20.3086 3.41978C20.6457 3.42291 20.9746 3.52319 21.2549 3.70831C21.5352 3.89343 21.7547 4.15534 21.8866 4.46193L30.5861 24.5155C30.6989 24.775 30.7449 25.058 30.72 25.3393C30.695 25.6206 30.5999 25.8914 30.4432 26.1275L23.2398 37.0025C22.7492 37.7404 22.4601 38.5912 22.4005 39.4721C22.341 40.3531 22.513 41.2342 22.8998 42.0301C26.6703 49.6283 32.9058 55.7613 40.6137 59.4518C41.4242 59.8319 42.3207 59.9975 43.2154 59.9324C44.1101 59.8674 44.9724 59.574 45.7178 59.0809L56.5587 51.9386C56.7984 51.7803 57.0743 51.6837 57.3614 51.6577C57.6485 51.6317 57.9377 51.6771 58.2025 51.7897L78.4838 60.3772C78.8268 60.5203 79.1136 60.7692 79.3014 61.0868C79.4892 61.4044 79.5679 61.7735 79.5257 62.1389Z" fill="#393939"/>
</svg>
