<svg width="70" height="99" viewBox="0 0 70 99" fill="none" xmlns="http://www.w3.org/2000/svg">
<path d="M35.3152 1.87109C17.095 1.87109 2.3125 15.9408 2.3125 33.2695C2.3125 53.2087 24.3143 84.8065 32.3931 95.7203C32.7284 96.181 33.168 96.5559 33.6758 96.8143C34.1836 97.0728 34.7454 97.2075 35.3152 97.2075C35.885 97.2075 36.4468 97.0728 36.9546 96.8143C37.4625 96.5559 37.902 96.181 38.2373 95.7203C46.3161 84.811 68.3179 53.2247 68.3179 33.2695C68.3179 15.9408 53.5355 1.87109 35.3152 1.87109Z" stroke="#393939" stroke-width="3" strokeLinecap="round" stroke-linejoin="round"/>
<path d="M35.3154 45.8749C41.391 45.8749 46.3163 40.9496 46.3163 34.874C46.3163 28.7983 41.391 23.873 35.3154 23.873C29.2397 23.873 24.3145 28.7983 24.3145 34.874C24.3145 40.9496 29.2397 45.8749 35.3154 45.8749Z" stroke="#393939" stroke-width="3" strokeLinecap="round" stroke-linejoin="round"/>
</svg>
