<svg width="81" height="75" viewBox="0 0 81 75" fill="none" xmlns="http://www.w3.org/2000/svg">
<path d="M74.9052 37.4772C74.9052 47.2528 71.1378 56.1666 65.0065 62.8396C64.8834 62.9627 64.7849 63.0859 64.6618 63.209C63.6768 64.2432 62.6673 65.2035 61.5592 66.1146C55.0339 71.6057 46.6373 74.9052 37.4526 74.9052C28.268 74.9052 19.8713 71.6057 13.346 66.1146C12.5827 65.4744 11.8194 64.7849 11.1053 64.0708C10.2681 63.2336 9.4555 62.3718 8.69217 61.4607C3.25034 54.96 0 46.588 0 37.4526C0 16.7687 16.7687 0 37.4526 0C58.1365 0 74.9052 16.7934 74.9052 37.4772Z" fill="#CBE3FF"/>
<path d="M22.925 65.0566C19.5023 61.0183 16.055 57.0047 12.6815 52.9418C11.2041 51.1443 9.72669 49.199 9.18497 46.8844C8.6925 44.816 8.98799 42.3536 10.6132 40.8516C12.3368 39.2264 15.5133 38.7832 17.8033 38.7586C19.0837 38.7339 20.438 39.0787 21.1767 40.1867C21.8908 41.2209 21.5953 42.4275 20.5857 43.0677C18.6405 44.2743 16.5967 42.9938 15.661 41.1963C14.6514 39.3003 14.159 36.5424 14.7992 34.474C15.4394 32.3564 17.4585 31.076 17.754 28.786C18.0003 26.8653 17.3108 24.9693 16.4243 23.2949C15.3901 21.3496 13.9373 19.6752 12.8539 17.7792C12.3122 16.8435 11.869 15.8339 11.6473 14.7751C11.5242 14.2087 11.475 13.6178 11.5242 13.0514C11.6227 11.8941 12.3122 11.5248 13.3218 11.2539C15.5379 10.6629 18.0987 10.1458 20.3149 11.0077C22.3832 11.8202 23.5406 13.8148 23.9592 15.9324C24.8949 20.5124 22.3094 24.8215 22.334 29.3769C22.334 31.4207 22.9742 33.4645 24.6979 34.671C26.5447 35.9761 28.8839 36.0499 31.0262 36.5424C33.3162 37.0595 35.4584 37.9952 37.6746 38.7339C39.8907 39.4726 42.1315 39.8666 44.4707 39.7435C44.8401 39.7189 44.8401 39.1525 44.4707 39.1771C39.3736 39.4726 35.1137 36.7148 30.2382 35.8037C27.8005 35.3605 24.9195 35.065 23.6144 32.6026C22.2848 30.0664 23.0973 26.8899 23.7129 24.2798C24.6733 20.2662 25.8552 15.0459 22.4571 11.771C20.832 10.1951 18.5666 9.87497 16.3997 10.1212C15.2178 10.2443 14.0358 10.4906 12.9031 10.8107C11.8936 11.1062 11.1795 11.5986 11.0071 12.6821C10.2192 17.6068 15.3655 21.2757 16.7937 25.5603C17.2123 26.8407 17.4093 28.2196 17.0153 29.5247C16.6213 30.8297 15.6364 31.7408 14.9223 32.8489C13.6419 34.868 13.8389 37.4535 14.4544 39.6696C14.9223 41.3933 15.9072 43.2893 17.6801 43.9295C19.0344 44.422 20.8812 44.0034 21.7184 42.7968C22.7526 41.2948 21.743 39.4726 20.2902 38.7093C18.2465 37.6505 15.2424 38.3399 13.1494 38.9309C10.8348 39.5957 9.08648 41.0978 8.56938 43.5109C8.05228 45.924 8.79098 48.3125 10.0714 50.3809C11.6473 52.9418 13.7896 55.1333 15.7102 57.4233C18.0002 60.1073 20.2656 62.8159 22.5556 65.4999C22.7773 65.7461 23.1712 65.3521 22.925 65.0566Z" fill="#708236"/>
<path d="M42.6238 53.1875C43.2148 53.5568 43.3379 54.3694 42.8454 54.8865C41.9836 55.7483 40.8263 57.1273 40.2107 58.7032C39.9398 59.3927 40.3585 59.9344 40.9248 60.1067C41.3926 60.2545 41.959 60.1067 42.2298 59.5404C43.9042 56.1177 46.5636 52.1287 48.7305 55.773C51.7838 60.8947 55.5759 64.6621 66.3857 60.6731C67.4445 60.2791 67.3214 58.7524 66.2133 58.5554C64.2927 58.2353 62.175 57.5705 60.7222 56.3147C59.8112 55.5267 60.673 54.0493 61.8057 54.4679C65.7454 55.9207 72.8125 57.3981 76.2844 51.39C76.7522 50.602 76.0628 49.617 75.1763 49.7648C71.2612 50.3804 63.1353 51.1437 63.6524 46.5391C64.3173 40.4817 69.5621 49.7402 73.9205 47.9919C77.7372 46.4406 80.5443 44.4214 80.9875 41.6144C81.086 40.9741 80.5935 40.4078 79.9287 40.3832C77.7372 40.3339 72.8863 39.9892 70.2516 38.167C69.439 37.6007 69.8083 36.2956 70.7933 36.1971C73.0833 35.9755 76.6291 35.6308 78.2297 35.5816C80.4212 35.5077 79.19 25.215 78.9191 23.2205C78.9191 23.2205 78.8945 23.1466 78.8699 23.0235C78.8206 22.8511 78.7468 22.728 78.6236 22.6049C77.6141 21.5461 73.5758 17.951 70.3255 23.7376C69.8822 24.5502 68.7003 24.5009 68.3556 23.6391C68.0847 22.9989 68.0355 22.2355 68.7742 21.5707C69.439 20.9551 69.1435 19.847 68.2325 19.6747C66.3364 19.3299 63.9972 19.847 63.7263 24.3778C63.6524 25.4366 62.2489 25.7813 61.7072 24.8703C60.7469 23.2697 59.9589 21.3244 60.476 19.7485C60.7222 19.0344 60.1066 18.3203 59.3679 18.3696C55.1327 18.5912 46.5636 20.1425 53.409 29.8196C54.4924 31.9619 48.1642 32.9222 47.3516 24.624C47.2531 23.6883 46.0712 23.319 45.4556 24.0084C40.5801 29.3764 28.9084 44.6677 42.6238 53.1875ZM69.9315 33.3162C67.2721 31.1985 76.7522 29.5734 76.7522 29.5734C76.7522 29.5734 72.5908 35.4338 69.9315 33.3162ZM63.6032 39.2012C66.2872 38.9796 73.6004 42.8209 73.6004 42.8209C66.8289 45.1355 60.9192 39.3982 63.6032 39.2012ZM51.4391 51.7839C51.71 51.3899 53.1135 51.8578 54.5663 52.8674C56.0191 53.8769 56.9548 55.0096 56.6839 55.4036C56.4131 55.7976 55.0095 55.3297 53.5567 54.3202C52.1039 53.3106 51.1682 52.1779 51.4391 51.7839ZM57.4227 25.3381C56.3638 26.8648 55.1326 27.8251 54.6648 27.505C54.1969 27.1849 54.6648 25.6828 55.7236 24.1562C56.7824 22.6295 58.0136 21.6692 58.4815 21.9893C58.9493 22.334 58.4815 23.8114 57.4227 25.3381ZM39.1765 39.2751C39.5951 39.0289 40.8263 40.2847 41.959 42.1068C43.067 43.929 43.658 45.6034 43.2394 45.8496C42.8208 46.0959 41.5896 44.8401 40.4569 43.0179C39.3489 41.1958 38.7579 39.5213 39.1765 39.2751ZM45.8495 28.7362C46.6129 28.8347 46.9083 31.8634 46.4897 35.5323C46.0711 39.2012 45.1108 42.1068 44.3475 42.0083C43.5842 41.9098 43.2887 38.8811 43.7073 35.2122C44.1259 31.5433 45.0862 28.6623 45.8495 28.7362Z" fill="#ABBD43"/>
<path d="M42.6233 53.1867C43.2143 53.5561 43.3374 54.3686 42.8449 54.8857C41.9831 55.7476 40.8258 57.1265 40.2102 58.7024C39.9393 59.3919 40.3579 59.9336 40.9243 60.106C54.2211 33.6109 78.9432 23.1951 78.9432 23.1951C78.9432 23.1951 78.9186 23.1212 78.894 22.9981C78.8447 22.8257 78.7708 22.7026 78.6477 22.5795C77.6382 21.5207 73.5999 17.9256 70.3496 23.7122C69.9063 24.5247 68.7244 24.4755 68.3797 23.6137C68.1088 22.9735 68.0595 22.2101 68.7983 21.5453C69.4631 20.9297 69.1676 19.8216 68.2565 19.6493C66.3605 19.3045 64.0213 19.8216 63.7504 24.3524C63.6765 25.4112 62.273 25.7559 61.7313 24.8449C60.7709 23.2443 59.983 21.299 60.5001 19.7231C60.7463 19.009 60.1307 18.295 59.392 18.3442C55.1567 18.5658 46.5877 20.1171 53.4331 29.7942C54.5165 31.9365 48.1882 32.8968 47.3757 24.5986C47.2772 23.6629 46.0952 23.2936 45.4796 23.983C40.5795 29.3756 28.9079 44.6669 42.6233 53.1867ZM57.4221 25.3373C56.3633 26.864 55.1321 27.8243 54.6643 27.5042C54.1964 27.1841 54.6643 25.6821 55.7231 24.1554C56.7819 22.6287 58.0131 21.6684 58.4809 21.9885C58.9488 22.3332 58.4809 23.8107 57.4221 25.3373ZM39.176 39.2743C39.5946 39.0281 40.8258 40.2839 41.9584 42.1061C43.0665 43.9282 43.6575 45.6026 43.2389 45.8489C42.8203 46.0951 41.5891 44.8393 40.4564 43.0171C39.3483 41.195 38.7574 39.5206 39.176 39.2743ZM45.849 28.7354C46.6123 28.8339 46.9078 31.8626 46.4892 35.5315C46.0706 39.2005 45.1103 42.106 44.347 42.0076C43.5836 41.9091 43.2881 38.8804 43.7067 35.2114C44.1253 31.5425 45.0857 28.6615 45.849 28.7354Z" fill="#6F8136"/>
<path d="M61.5593 66.1389C55.0341 71.6299 46.6374 74.9295 37.4528 74.9295C28.2681 74.9295 19.8715 71.6299 13.3462 66.1389L16.3257 52.5958L29.5732 47.3018H45.357L46.0218 47.5726L58.6045 52.5958L61.5593 66.1389Z" fill="#F23A7D"/>
<path d="M58.5804 52.5714L41.2207 54.6398L44.471 47.2773H45.3329L58.5804 52.5714Z" fill="#BF2E63"/>
<path d="M38.0929 55.2801C42.4719 55.2801 46.0217 51.7413 46.0217 47.3759C46.0217 43.0105 42.4719 39.4717 38.0929 39.4717C33.7139 39.4717 30.1641 43.0105 30.1641 47.3759C30.1641 51.7413 33.7139 55.2801 38.0929 55.2801Z" fill="#FFC7BB"/>
<path d="M45.0368 36.8623H38.0929H31.149L30.1641 47.2781H38.0929H46.0217L45.0368 36.8623Z" fill="#FFC7BB"/>
<path d="M31.1489 36.8623C31.1489 36.8623 33.907 43.979 38.1179 45.0133C38.1179 45.0133 42.6982 43.7328 45.013 36.8623H31.1489Z" fill="#D99282"/>
<path d="M47.4253 15.9072C47.4253 15.9072 58.2358 17.9265 47.4253 29.2542V15.9072Z" fill="#2E353D"/>
<path d="M33.1681 16.4981C29.7455 18.0494 27.7509 21.0781 28.0464 24.2299C28.6128 30.5089 30.6565 42.0082 38.1175 42.0082C45.677 42.0082 47.6715 30.2381 48.2132 24.0083C48.5087 20.5364 46.0956 17.2368 42.1065 15.8825C38.7331 14.7252 35.6305 15.39 33.1681 16.4981Z" fill="#FFC7BB"/>
<path d="M28.7363 29.2779C28.7363 29.2779 28.4654 18.9852 32.0605 19.9455C35.6556 20.9058 53.6801 29.2779 51.4393 16.2274C49.2232 3.20143 43.806 11.0317 43.806 11.0317C43.806 11.0317 44.5447 3.52154 38.7089 4.77734C32.8731 6.05777 32.4791 11.0318 30.5585 11.5489C28.6871 12.0906 15.6858 11.2534 28.7363 29.2779Z" fill="#2E353D"/>
<path d="M47.1547 28.1945C47.1547 28.1945 49.765 24.2298 49.568 27.0864C49.3463 29.9429 48.1889 33.3412 46.8838 31.1742L47.1547 28.1945Z" fill="#FFC7BB"/>
<path d="M33.4639 19.502C33.4639 19.502 33.5131 19.5266 33.587 19.6004C33.6609 19.6743 33.8086 19.7728 33.9564 19.896C34.1288 20.0191 34.3258 20.1668 34.5474 20.3146C34.769 20.487 35.0399 20.6347 35.3354 20.8317C35.4831 20.9302 35.6309 21.0041 35.8033 21.1026C35.9757 21.2011 36.1234 21.2996 36.2958 21.3735C36.4682 21.472 36.6406 21.5705 36.8376 21.669C37.0346 21.7675 37.2069 21.8414 37.4039 21.9399C37.7733 22.1369 38.1919 22.2846 38.6106 22.4816C38.8076 22.5801 39.0292 22.654 39.2508 22.7279C39.4724 22.8017 39.6694 22.9002 39.8911 22.9741C40.3343 23.1219 40.753 23.2696 41.1962 23.3928C41.6395 23.5159 42.0581 23.639 42.4767 23.7375C42.8954 23.836 43.2894 23.9345 43.6834 24.0084C43.8804 24.0576 44.0774 24.0823 44.2498 24.1315C44.4221 24.1561 44.6191 24.2054 44.7669 24.23C45.1117 24.3039 45.4072 24.3531 45.7027 24.4024C45.9736 24.4516 46.2198 24.4763 46.4168 24.5009C46.8108 24.5748 47.0571 24.5994 47.0571 24.5994C47.0571 24.5994 46.8354 24.5994 46.4168 24.624C46.2198 24.624 45.9735 24.624 45.678 24.624C45.3825 24.624 45.0624 24.5994 44.7177 24.5748C44.3729 24.5501 43.9789 24.5255 43.5849 24.4763C43.1909 24.427 42.7722 24.3531 42.329 24.2793C41.9104 24.1808 41.4671 24.0823 40.9992 23.9591C40.556 23.836 40.1127 23.6883 39.6695 23.5405C39.4478 23.442 39.2262 23.3681 39.0046 23.2696C38.7829 23.1711 38.5613 23.0973 38.3643 22.9988C37.9457 22.8018 37.527 22.6047 37.1577 22.3831C36.9607 22.2846 36.7637 22.1861 36.5913 22.063C36.4189 21.9399 36.2465 21.8414 36.0741 21.7182C35.9018 21.6197 35.754 21.4966 35.5816 21.3981C35.4339 21.275 35.2862 21.1765 35.1384 21.078C34.8675 20.8563 34.6213 20.6593 34.3996 20.4623C34.178 20.2653 34.0056 20.093 33.8825 19.9452C33.6116 19.699 33.4639 19.502 33.4639 19.502Z" fill="#2E353D"/>
<path d="M37.404 27.8986C37.3793 27.8001 37.3547 27.677 37.3301 27.5785C36.9607 26.2487 35.7295 25.2637 34.3012 25.2637C32.9222 25.2637 31.7648 26.1502 31.3215 27.3815C31.2969 27.48 31.2476 27.5785 31.223 27.7016C31.1738 27.9478 31.1245 28.1941 31.1245 28.4403C31.1245 30.1887 32.5282 31.5924 34.2766 31.5924C36.025 31.5924 37.4286 30.1887 37.4286 28.4403C37.4532 28.2433 37.4286 28.071 37.404 27.8986ZM34.3012 31.2723C32.7498 31.2723 31.4693 29.9917 31.4693 28.4403C31.4693 26.8889 32.7498 25.6084 34.3012 25.6084C35.8772 25.6084 37.1331 26.8889 37.1331 28.4403C37.1331 29.9917 35.8526 31.2723 34.3012 31.2723Z" fill="#2E353D"/>
<path d="M44.9881 27.5792C44.9635 27.4807 44.9388 27.3822 44.8896 27.2837C44.4217 26.1263 43.2889 25.2891 41.9592 25.2891C40.5063 25.2891 39.2996 26.2741 38.9303 27.6038C38.9056 27.7023 38.881 27.8255 38.8564 27.924C38.8317 28.0964 38.8071 28.2687 38.8071 28.4411C38.8071 30.1895 40.2108 31.5931 41.9592 31.5931C43.7076 31.5931 45.1112 30.1895 45.1112 28.4411C45.1112 28.1456 45.062 27.8501 44.9881 27.5792ZM41.9592 31.273C40.3831 31.273 39.1272 29.9925 39.1272 28.4411C39.1272 26.8897 40.4078 25.6092 41.9592 25.6092C43.5105 25.6092 44.7911 26.8897 44.7911 28.4411C44.7911 29.9925 43.5105 31.273 41.9592 31.273Z" fill="#2E353D"/>
<path d="M31.4799 27.4446L27.1509 25.5439L27.0222 25.8371L31.3512 27.7377L31.4799 27.4446Z" fill="#2E353D"/>
<path d="M48.8515 26.2116L48.7437 25.9102L44.7559 27.3375L44.8638 27.639L48.8515 26.2116Z" fill="#2E353D"/>
<path d="M38.9549 27.6035H37.2065V27.9237H38.9549V27.6035Z" fill="#2E353D"/>
<path d="M28.7603 27.6779C28.7603 27.6779 26.15 23.7132 26.347 26.5698C26.5687 29.4263 27.7261 32.8246 29.0312 30.6576L28.7603 27.6779Z" fill="#FFC7BB"/>
</svg>
