<svg width="15" height="17" viewBox="0 0 15 17" fill="none" xmlns="http://www.w3.org/2000/svg">
<path d="M7.87482 4.43478V14.0435C7.87482 14.5391 7.12504 14.5394 7.12504 14.0435V4.43478C7.12504 3.93883 7.87482 3.93957 7.87482 4.43478ZM10.8739 14.0435V4.43478C10.8739 3.93883 10.1242 3.9392 10.1242 4.43478V14.0435C10.1242 14.5391 10.8739 14.5394 10.8739 14.0435ZM4.12593 4.43478V14.0435C4.12593 14.5391 4.87571 14.5394 4.87571 14.0435V4.43478C4.87571 3.93883 4.12593 3.93957 4.12593 4.43478ZM14.6228 2.21739H13.873L13.1982 15.2261C13.1604 16.2239 12.336 17 11.3238 17H3.67606C2.66387 17 1.83911 16.2239 1.80162 15.2261L1.12682 2.21739H0.377044C-0.126056 2.21739 -0.125307 1.47826 0.377044 1.47826H1.50171H4.50082V0.73913C4.50082 0.332609 4.83822 0 5.2506 0H9.74926C10.1616 0 10.499 0.332609 10.499 0.73913V1.47826H13.4981H14.6228C15.1255 1.47826 15.1259 2.21739 14.6228 2.21739ZM5.2506 1.47826H9.74926V0.73913H5.2506V1.47826ZM13.0858 2.21739H9.74926H5.2506H1.91409L2.58889 15.1891C2.62638 15.7808 3.11373 16.2609 3.71355 16.2609H11.3613C11.9615 16.2609 12.4485 15.7804 12.4859 15.1891L13.0858 2.21739Z" fill="#5C5C5C"/>
</svg>
