<svg width="50" height="78" viewBox="0 0 50 78" fill="none" xmlns="http://www.w3.org/2000/svg">
<path d="M30.7692 78H15.3846C14.3646 78 13.3863 77.5892 12.665 76.858C11.9437 76.1268 11.5385 75.135 11.5385 74.1009V49.9268H3.84615C2.82609 49.9268 1.84781 49.516 1.12651 48.7848C0.405219 48.0536 0 47.0618 0 46.0277V31.9911C0 30.957 0.405219 29.9653 1.12651 29.2341C1.84781 28.5029 2.82609 28.0921 3.84615 28.0921H11.5385V21.4637C11.8081 15.5229 14.387 9.93199 18.7114 5.91341C23.0359 1.89483 28.7539 -0.224481 34.6154 0.018861H46.1538C47.1739 0.018861 48.1522 0.429653 48.8735 1.16087C49.5948 1.89208 50 2.88382 50 3.91792V17.9545C50 18.9886 49.5948 19.9804 48.8735 20.7116C48.1522 21.4428 47.1739 21.8536 46.1538 21.8536H34.6154V28.0921H46.1538C46.7477 28.0875 47.3345 28.2224 47.8684 28.4862C48.4022 28.7501 48.8685 29.1356 49.2308 29.6127C49.589 30.097 49.8311 30.6591 49.938 31.2547C50.0448 31.8502 50.0133 32.4628 49.8461 33.0439L46 47.0805C45.7673 47.9238 45.2614 48.6633 44.5637 49.1796C43.866 49.696 43.0171 49.9591 42.1538 49.9268H34.6154V74.1009C34.6154 75.135 34.2102 76.1268 33.4889 76.858C32.7676 77.5892 31.7893 78 30.7692 78ZM19.2308 70.2019H26.9231V46.0277C26.9231 44.9936 27.3283 44.0019 28.0496 43.2707C28.7709 42.5395 29.7492 42.1287 30.7692 42.1287H39.3846L41.0769 35.8902H30.7692C29.7492 35.8902 28.7709 35.4794 28.0496 34.7482C27.3283 34.017 26.9231 33.0252 26.9231 31.9911V21.4637C27.0218 19.4638 27.8757 17.5791 29.3077 16.1999C30.7397 14.8208 32.6402 14.053 34.6154 14.0555H42.3077V7.81697H34.6154C30.7954 7.58104 27.0378 8.88154 24.1576 11.4363C21.2775 13.9911 19.5072 17.5941 19.2308 21.4637V31.9911C19.2308 33.0252 18.8256 34.017 18.1043 34.7482C17.383 35.4794 16.4047 35.8902 15.3846 35.8902H7.69231V42.1287H15.3846C16.4047 42.1287 17.383 42.5395 18.1043 43.2707C18.8256 44.0019 19.2308 44.9936 19.2308 46.0277V70.2019Z" fill="#708236"/>
</svg>
