<svg width="15" height="23" viewBox="0 0 15 23" fill="none" xmlns="http://www.w3.org/2000/svg">
<path d="M9.23077 23H4.61538C4.30937 23 4.01588 22.8789 3.79949 22.6633C3.5831 22.4476 3.46154 22.1552 3.46154 21.8503V14.722H1.15385C0.847827 14.722 0.554342 14.6009 0.337954 14.3853C0.121566 14.1696 0 13.8772 0 13.5723V9.43328C0 9.12836 0.121566 8.83592 0.337954 8.62031C0.554342 8.40469 0.847827 8.28356 1.15385 8.28356H3.46154V6.32903C3.54242 4.57726 4.3161 2.92866 5.61343 1.7437C6.91076 0.558732 8.62618 -0.066193 10.3846 0.00556158H13.8462C14.1522 0.00556158 14.4457 0.126693 14.662 0.342307C14.8784 0.557922 15 0.850358 15 1.15528V5.29428C15 5.59921 14.8784 5.89164 14.662 6.10726C14.4457 6.32287 14.1522 6.444 13.8462 6.444H10.3846V8.28356H13.8462C14.0243 8.28222 14.2004 8.322 14.3605 8.39979C14.5207 8.47758 14.6606 8.59127 14.7692 8.73195C14.8767 8.87474 14.9493 9.04051 14.9814 9.21611C15.0134 9.39172 15.004 9.57236 14.9538 9.74371L13.8 13.8827C13.7302 14.1314 13.5784 14.3494 13.3691 14.5017C13.1598 14.6539 12.9051 14.7315 12.6462 14.722H10.3846V21.8503C10.3846 22.1552 10.263 22.4476 10.0467 22.6633C9.83027 22.8789 9.53679 23 9.23077 23ZM5.76923 20.7006H8.07692V13.5723C8.07692 13.2674 8.19849 12.9749 8.41488 12.7593C8.63126 12.5437 8.92475 12.4226 9.23077 12.4226H11.8154L12.3231 10.583H9.23077C8.92475 10.583 8.63126 10.4619 8.41488 10.2463C8.19849 10.0306 8.07692 9.73821 8.07692 9.43328V6.32903C8.10655 5.73933 8.3627 5.18358 8.79231 4.77691C9.22191 4.37024 9.79205 4.14382 10.3846 4.14456H12.6923V2.30501H10.3846C9.23863 2.23544 8.11133 2.61892 7.24729 3.37225C6.38324 4.12559 5.85215 5.18801 5.76923 6.32903V9.43328C5.76923 9.73821 5.64767 10.0306 5.43128 10.2463C5.21489 10.4619 4.9214 10.583 4.61538 10.583H2.30769V12.4226H4.61538C4.9214 12.4226 5.21489 12.5437 5.43128 12.7593C5.64767 12.9749 5.76923 13.2674 5.76923 13.5723V20.7006Z" fill="#FBFBFB"/>
</svg>
