<svg width="115" height="108" viewBox="0 0 115 108" fill="none" xmlns="http://www.w3.org/2000/svg">
<circle cx="67.7831" cy="60.8202" r="46.8983" fill="#000"/>
<circle cx="52.7606" cy="52.7606" r="51.6606" stroke="#FBFBFB" stroke-width="2.2"/>
<path d="M87.6612 83.6129C86.4938 79.6232 82.665 76.2685 81.1503 75.0616C81.6891 49.9769 67.9338 37.5904 63.3626 34.1728C65.8892 31.4415 71.8284 24.5376 73.9837 17.9225C74.1574 17.3905 73.9897 16.81 73.5527 16.4353C73.391 16.2952 69.7628 13.2779 61.7581 14.0272C61.818 13.7355 61.8659 13.4581 61.9048 13.1835C61.9886 12.5515 61.6234 11.9423 61.0097 11.6935C60.4559 11.4647 47.2993 6.17948 36.0615 12.397C35.5676 12.6659 35.2772 13.1864 35.3161 13.7269C35.3431 14.1073 36.0256 22.8816 43.3269 34.0212C38.9772 37.21 24.7819 49.5822 25.3267 75.0616C23.8119 76.2685 19.9832 79.6261 18.8157 83.6129C18.7618 83.7959 18.7469 83.9875 18.7708 84.1763C19.0283 86.1211 22.8989 90.6398 53.2385 90.6398C83.5781 90.6398 87.4487 86.1211 87.7061 84.1763C87.7301 83.9875 87.7151 83.7959 87.6612 83.6129ZM53.2385 87.7798C28.6166 87.7798 23.0097 84.6739 21.9051 83.7759C23.342 80.0723 27.6946 76.912 27.7395 76.8777C28.1256 76.5974 28.3502 76.157 28.3352 75.6879C27.5239 50.2829 42.3929 38.2739 45.5391 36.0289C46.7964 36.4979 49.311 37.2844 52.2087 37.2844C53.2115 37.2844 54.2563 37.19 55.304 36.9555C56.1093 36.7753 56.6092 36.006 56.4176 35.2338C56.229 34.4673 55.4328 33.9726 54.6185 34.1728C51.0921 34.9535 47.4819 33.698 46.3773 33.2633C40.3902 24.4089 38.7916 16.9244 38.4115 14.4276C46.4042 10.5295 55.5824 12.9147 58.7137 13.93C57.6929 18.0369 54.1725 23.9112 54.1336 23.9799C53.7204 24.6605 53.9689 25.5385 54.6874 25.9304C55.3938 26.3222 56.3158 26.0934 56.7319 25.4041C56.8697 25.1753 59.3543 21.0255 60.8541 17.013C66.2155 16.2694 69.3976 17.3934 70.7627 18.0912C67.9009 25.4814 60.1266 33.3234 60.0458 33.4063C59.7375 33.7123 59.5938 34.1384 59.6447 34.5617C59.6956 34.985 59.947 35.3654 60.3242 35.5942C60.5128 35.7114 79.0458 47.4373 78.1418 75.6851C78.1268 76.1541 78.3483 76.5945 78.7405 76.8748C78.7884 76.9091 83.132 80.0522 84.5719 83.773C83.4673 84.6739 77.8604 87.7798 53.2385 87.7798Z" fill="#FBFBFB"/>
<path d="M60.6608 53.9494C61.3283 54.4241 62.2653 54.3012 62.7563 53.6691C63.2562 53.0371 63.1245 52.1447 62.4659 51.67C60.6608 50.363 57.784 48.8672 54.7366 48.2895V45.1722C54.7366 44.3857 54.066 43.7422 53.2398 43.7422C52.4136 43.7422 51.743 44.3857 51.743 45.1722V48.0722C49.42 48.1951 47.1689 49.0617 45.3817 51.1838C43.5856 53.3288 43.6155 55.2507 43.9508 56.4862C44.9447 60.1126 49.7254 62.6294 53.5601 64.1108C57.0985 65.475 58.9485 66.7019 59.5592 68.0947C59.9274 68.9327 59.8495 69.928 59.3197 71.1377C59.0742 71.7012 58.1821 72.5105 56.4818 72.9367C54.8114 73.3542 50.2792 73.8404 44.319 69.3789C43.6634 68.8927 42.7265 68.9928 42.2176 69.6191C41.7087 70.2397 41.8224 71.1377 42.472 71.6296C46.0014 74.2723 49.1805 75.4162 51.743 75.8367V78.9082C51.743 79.7005 52.4136 80.3382 53.2398 80.3382C54.066 80.3382 54.7366 79.7005 54.7366 78.9082V76.0197C55.7873 75.9739 56.6674 75.8452 57.2362 75.7022C59.5801 75.1217 61.3942 73.8261 62.0857 72.2388C62.9239 70.3112 63.0047 68.5466 62.3222 66.9879C61.1188 64.2452 57.781 62.6522 54.6797 61.4568C50.2882 59.7637 47.3635 57.6359 46.8486 55.7655C46.6061 54.876 46.8905 53.9608 47.7197 52.9713C52.0184 47.8262 60.577 53.8865 60.6608 53.9494Z" fill="#FBFBFB"/>
</svg>
