<svg width="113" height="113" viewBox="0 0 113 113" fill="none" xmlns="http://www.w3.org/2000/svg">
<path d="M70.9239 17.325C71.1014 16.7924 70.8064 16.2164 70.2662 16.0638C65.2106 14.6361 59.3547 14.1063 45.8511 17.4105C45.4054 17.5196 45.1096 17.9171 45.1911 18.3687C45.7949 21.7158 48.9494 34.1106 53.1004 39.2338C53.4636 39.682 53.4557 40.339 53.0408 40.7397C49.2934 44.3588 33.1488 61.3166 35.0754 83.1499C35.1017 83.4488 34.9992 83.7472 34.7777 83.9495C33.2177 85.3743 29.1843 88.6684 27.8205 92.9745C27.7024 93.3473 27.8253 93.7441 28.1601 93.9461C35.9798 98.6642 80.0983 101.99 97.7652 94.0137C98.2685 93.7865 98.4571 93.1903 98.2215 92.6909C97.1238 90.3641 95.7188 87.3475 91.7286 85.1589C91.3965 84.9768 91.1803 84.6392 91.1787 84.2604C91.1309 73.1569 89.6672 53.1927 72.4469 42.018C71.8694 41.6433 71.7984 40.8079 72.3005 40.337C78.0525 34.9427 82.1528 26.1718 83.3473 23.4293C83.555 22.9524 83.3497 22.4081 82.8725 22.2012C80.9938 21.3865 76.2359 19.5727 71.7095 19.8697C70.9433 19.9199 70.3039 19.1851 70.5467 18.4567L70.9239 17.325Z" fill="#55A354" fill-opacity="0.42"/>
<circle cx="56.2991" cy="56.0598" r="54.9598" stroke="#393939" stroke-width="2.2"/>
<path d="M93.3809 88.8407C92.1404 84.6015 88.0723 81.037 86.4628 79.7547C87.0353 53.1014 72.4199 39.9403 67.5629 36.309C70.2474 33.4069 76.558 26.0713 78.8481 19.0425C79.0326 18.4773 78.8545 17.8604 78.3901 17.4624C78.2183 17.3135 74.3633 14.1075 65.858 14.9037C65.9216 14.5937 65.9725 14.299 66.0139 14.0072C66.1029 13.3357 65.7149 12.6884 65.0628 12.424C64.4744 12.1809 50.4951 6.56524 38.5546 13.1716C38.0297 13.4572 37.7212 14.0103 37.7626 14.5846C37.7912 14.9888 38.5164 24.3118 46.2742 36.1479C41.6526 39.5362 26.5696 52.682 27.1485 79.7547C25.539 81.037 21.4708 84.6046 20.2304 88.8407C20.1731 89.0351 20.1572 89.2387 20.1826 89.4393C20.4562 91.5057 24.5689 96.307 56.8056 96.307C89.0424 96.307 93.1551 91.5057 93.4286 89.4393C93.4541 89.2387 93.4382 89.0351 93.3809 88.8407ZM56.8056 93.2682C30.6441 93.2682 24.6866 89.968 23.5129 89.0139C25.0396 85.0786 29.6644 81.7208 29.7121 81.6843C30.1224 81.3865 30.361 80.9185 30.3451 80.4202C29.4831 53.4265 45.2818 40.6666 48.6248 38.2812C49.9607 38.7795 52.6325 39.6152 55.7115 39.6152C56.777 39.6152 57.8871 39.5149 59.0003 39.2657C59.856 39.0743 60.3871 38.2568 60.1836 37.4364C59.9832 36.622 59.1371 36.0963 58.2719 36.309C54.525 37.1386 50.6891 35.8045 49.5154 35.3426C43.1539 25.9345 41.4554 17.982 41.0514 15.3291C49.544 11.1872 59.2961 13.7216 62.6232 14.8004C61.5386 19.1641 57.798 25.4058 57.7567 25.4787C57.3177 26.2019 57.5817 27.1348 58.3451 27.5512C59.0958 27.9675 60.0754 27.7244 60.5175 26.992C60.6639 26.7489 63.3039 22.3396 64.8974 18.0762C70.5941 17.2861 73.9752 18.4804 75.4257 19.2218C72.3849 27.0741 64.1245 35.4065 64.0386 35.4946C63.711 35.8197 63.5583 36.2725 63.6124 36.7223C63.6665 37.172 63.9337 37.5762 64.3344 37.8193C64.5348 37.9438 84.2268 50.4029 83.2662 80.4171C83.2503 80.9155 83.4856 81.3835 83.9023 81.6813C83.9532 81.7177 88.5685 85.0574 90.0984 89.0108C88.9247 89.9681 82.9672 93.2682 56.8056 93.2682Z" fill="#393939"/>
<path d="M64.6924 57.324C65.4017 57.8284 66.3972 57.6978 66.9189 57.0262C67.4501 56.3546 67.3101 55.4065 66.6103 54.9021C64.6924 53.5133 61.6357 51.924 58.3977 51.3102V47.9979C58.3977 47.1622 57.6852 46.4785 56.8073 46.4785C55.9294 46.4785 55.2169 47.1622 55.2169 47.9979V51.0793C52.7487 51.2099 50.3568 52.1307 48.4579 54.3855C46.5494 56.6646 46.5813 58.7066 46.9375 60.0194C47.9935 63.8726 53.0731 66.5467 57.1476 68.1208C60.9073 69.5703 62.873 70.874 63.5218 72.3539C63.9131 73.2442 63.8304 74.3017 63.2674 75.5872C63.0066 76.1858 62.0587 77.0458 60.252 77.4986C58.4772 77.9422 53.6616 78.4588 47.3287 73.7183C46.6321 73.2017 45.6366 73.3081 45.0958 73.9736C44.5551 74.633 44.676 75.5872 45.3662 76.1098C49.1163 78.9177 52.4942 80.1332 55.2169 80.5799V83.8436C55.2169 84.6853 55.9294 85.363 56.8073 85.363C57.6852 85.363 58.3977 84.6853 58.3977 83.8436V80.7744C59.5141 80.7258 60.4492 80.589 61.0536 80.4371C63.5441 79.8202 65.4716 78.4436 66.2064 76.7571C67.097 74.7089 67.1829 72.834 66.4577 71.1779C65.179 68.2637 61.6325 66.571 58.3372 65.3008C53.6711 63.5019 50.5635 61.241 50.0164 59.2536C49.7588 58.3086 50.061 57.3361 50.942 56.2847C55.5096 50.8179 64.6033 57.2571 64.6924 57.324Z" fill="#393939"/>
</svg>
