<svg width="24" height="24" viewBox="0 0 24 24" fill="none" xmlns="http://www.w3.org/2000/svg">
<g clip-path="url(#clip0)">
<path d="M23.094 9.91453L13.3046 9.91406C12.8724 9.91406 12.522 10.2644 12.522 10.6967V13.824C12.522 14.2561 12.8724 14.6066 13.3046 14.6066H18.8174C18.2137 16.1732 17.087 17.4852 15.6496 18.3188L18.0002 22.388C21.7709 20.2072 24.0002 16.3808 24.0002 12.0975C24.0002 11.4876 23.9553 11.0516 23.8653 10.5607C23.797 10.1877 23.4732 9.91453 23.094 9.91453Z" fill="#167EE6"/>
<path d="M12.0003 19.3037C9.30242 19.3037 6.94723 17.8297 5.68231 15.6484L1.61328 17.9938C3.68398 21.5826 7.56308 23.9994 12.0003 23.9994C14.177 23.9994 16.2309 23.4133 18.0003 22.3919V22.3863L15.6496 18.3171C14.5744 18.9408 13.3302 19.3037 12.0003 19.3037Z" fill="#12B347"/>
<path d="M18 22.3931V22.3876L15.6494 18.3184C14.5741 18.9419 13.33 19.3049 12 19.3049V24.0006C14.1767 24.0006 16.2308 23.4145 18 22.3931Z" fill="#0F993E"/>
<path d="M4.69566 12.0003C4.69566 10.6705 5.05856 9.42637 5.68205 8.3512L1.61302 6.00586C0.586031 7.76962 0 9.81797 0 12.0003C0 14.1826 0.586031 16.2309 1.61302 17.9947L5.68205 15.6494C5.05856 14.5742 4.69566 13.3301 4.69566 12.0003Z" fill="#FFD500"/>
<path d="M12.0003 4.69566C13.7595 4.69566 15.3755 5.32078 16.6377 6.36061C16.9491 6.61711 17.4017 6.59859 17.6869 6.31336L19.9027 4.09758C20.2263 3.77395 20.2033 3.24422 19.8575 2.94431C17.7428 1.10967 14.9912 0 12.0003 0C7.56308 0 3.68398 2.41673 1.61328 6.00558L5.68231 8.35092C6.94723 6.16969 9.30242 4.69566 12.0003 4.69566Z" fill="#FF4B26"/>
<path d="M16.6374 6.36061C16.9488 6.61711 17.4015 6.59859 17.6866 6.31336L19.9024 4.09758C20.226 3.77395 20.2029 3.24422 19.8573 2.94431C17.7425 1.10963 14.991 0 12 0V4.69566C13.7592 4.69566 15.3752 5.32078 16.6374 6.36061Z" fill="#D93F21"/>
</g>
<defs>
<clipPath id="clip0">
<rect width="24" height="24" fill="white"/>
</clipPath>
</defs>
</svg>
