<svg width="18" height="16" viewBox="0 0 18 16" fill="none" xmlns="http://www.w3.org/2000/svg">
<path d="M9 16C8.93458 16.0003 8.87004 15.9844 8.81182 15.9537C8.45182 15.76 0 11.1321 0 5.26202C0.000337611 4.18614 0.320947 3.13621 0.918653 2.25362C1.51636 1.37102 2.36245 0.69815 3.343 0.325619C4.32354 -0.0469116 5.39143 -0.10121 6.40287 0.170035C7.4143 0.44128 8.3207 1.02504 9 1.84271C9.6793 1.02504 10.5857 0.44128 11.5971 0.170035C12.6086 -0.10121 13.6765 -0.0469116 14.657 0.325619C15.6375 0.69815 16.4836 1.37102 17.0813 2.25362C17.6791 3.13621 17.9997 4.18614 18 5.26202C18 11.1321 9.54818 15.76 9.18818 15.9537C9.12996 15.9844 9.06542 16.0003 9 16ZM5.11364 0.840495C3.97474 0.84161 2.88281 1.30781 2.07749 2.13676C1.27217 2.96571 0.819265 4.0897 0.818182 5.26202C0.818182 10.1678 7.77273 14.383 9 15.0988C10.2477 14.383 17.1818 10.1678 17.1818 5.26202C17.1835 4.31636 16.8904 3.3951 16.3455 2.63374C15.8006 1.87238 15.0327 1.31113 14.1547 1.03253C13.2768 0.753924 12.3352 0.772685 11.4684 1.08605C10.6016 1.39941 9.85542 1.99084 9.33955 2.77333C9.2994 2.82666 9.24793 2.86983 9.18907 2.89953C9.13022 2.92923 9.06555 2.94467 9 2.94467C8.93445 2.94467 8.86978 2.92923 8.81093 2.89953C8.75207 2.86983 8.7006 2.82666 8.66045 2.77333C8.26756 2.1775 7.73886 1.6898 7.12057 1.35286C6.50228 1.01592 5.81323 0.84001 5.11364 0.840495Z" fill="#393939"/>
</svg>
