<svg width="78" height="79" viewBox="0 0 78 79" fill="none" xmlns="http://www.w3.org/2000/svg">
<path d="M29.6263 22.2445L20.911 1.82235C20.4393 0.717097 19.3574 0.00304678 18.1654 0.155059C14.2049 0.660112 5.31786 2.8102 1.41192 11.9635C-2.66592 21.5196 2.15448 47.8697 15.0274 61.5309C29.1379 76.5053 54.1726 80.332 64.3843 78.6228C73.6687 75.9588 76.7514 64.9907 77.6598 60.2793C77.9074 58.9955 77.1841 57.7613 75.9832 57.2445L55.8305 48.5709C54.8104 48.1318 53.6318 48.2917 52.7479 48.9639C50.3166 50.8129 45.2641 54.4817 41.495 56.0491C40.8933 56.2993 40.2209 56.2954 39.6091 56.071C30.3297 52.6666 25.4473 46.35 22.1537 39.941C21.9416 39.5282 21.8236 39.0717 21.8826 38.6114C22.3997 34.5782 27.0238 28.1885 29.2097 25.3585C29.897 24.4688 30.0676 23.2786 29.6263 22.2445Z" fill="#55A354" fill-opacity="0.42"/>
</svg>
