<svg width="20" height="20" viewBox="0 0 20 20" fill="none" xmlns="http://www.w3.org/2000/svg">
<circle cx="10" cy="10" r="9.45" stroke="#393939" stroke-width="1.1"/>
<path d="M16.154 9.48685H10.5131V3.84583C10.5131 3.70982 10.4591 3.57938 10.3629 3.48321C10.2668 3.38704 10.1363 3.33301 10.0003 3.33301C9.86433 3.33301 9.73389 3.38704 9.63772 3.48321C9.54155 3.57938 9.48752 3.70982 9.48752 3.84583V9.48685H3.84664C3.71063 9.48685 3.5802 9.54088 3.48403 9.63705C3.38786 9.73323 3.33383 9.86367 3.33383 9.99967C3.3313 10.0663 3.34309 10.1327 3.36839 10.1944C3.3937 10.2562 3.43194 10.3117 3.48053 10.3574C3.52913 10.4031 3.58695 10.4378 3.65011 10.4593C3.71326 10.4807 3.78028 10.4884 3.84664 10.4817H9.48752V16.1535C9.48752 16.2895 9.54155 16.42 9.63772 16.5161C9.73389 16.6123 9.86433 16.6663 10.0003 16.6663C10.1363 16.6663 10.2668 16.6123 10.3629 16.5161C10.4591 16.42 10.5131 16.2895 10.5131 16.1535V10.5125H16.154C16.29 10.5125 16.4205 10.4585 16.5166 10.3623C16.6128 10.2661 16.6668 10.1357 16.6668 9.99967C16.6668 9.86367 16.6128 9.73323 16.5166 9.63705C16.4205 9.54088 16.29 9.48685 16.154 9.48685Z" fill="#393939"/>
</svg>
