<svg width="36" height="23" viewBox="0 0 36 23" fill="none" xmlns="http://www.w3.org/2000/svg">
<path d="M7.64759 23C4.89383 23 2.43398 22.5866 0.128146 21.7366C0.0513367 21.7084 0 21.6351 0 21.5528V1.44722C0 1.38295 0.0313507 1.323 0.083863 1.28655C0.136767 1.24971 0.204563 1.24149 0.263737 1.26343C2.52529 2.09736 4.94125 2.50256 7.64955 2.50256C11.0252 2.50256 14.4668 1.86811 17.7954 1.25442C21.1413 0.637594 24.6008 0 28.0122 0C30.7675 0 33.2278 0.413045 35.5332 1.26343C35.61 1.29204 35.6613 1.36532 35.6613 1.44722V21.5528C35.6613 21.617 35.63 21.677 35.5775 21.7134C35.5246 21.7503 35.4568 21.7585 35.3976 21.7366C33.1361 20.9026 30.7197 20.4974 28.0118 20.4974C24.6357 20.4974 21.1938 21.1319 17.8648 21.7456C14.5197 22.3624 11.0601 23 7.64877 23C7.64877 23 7.64838 23 7.64759 23ZM0.391883 21.4156C2.6166 22.2178 4.9918 22.6081 7.64759 22.6081C7.64838 22.6081 7.64877 22.6081 7.64916 22.6081C11.0248 22.6081 14.4664 21.9737 17.7946 21.36C21.1405 20.7431 24.6005 20.1056 28.0122 20.1056C30.6629 20.1056 33.04 20.488 35.2699 21.2738V1.58438C33.0451 0.782198 30.6695 0.391883 28.0122 0.391883C24.6365 0.391883 21.195 1.02634 17.8663 1.64003C14.5204 2.25685 11.0609 2.89445 7.64955 2.89445C4.99886 2.89445 2.6217 2.51197 0.391883 1.72624V21.4156Z" fill="black"/>
<path d="M8.11643 20.0451C7.48746 20.0451 6.89219 20.0071 6.34747 19.9318C6.29339 19.9244 6.24519 19.895 6.21384 19.8503C6.18249 19.8061 6.17151 19.7504 6.18249 19.6971C6.22324 19.5031 6.24401 19.3072 6.24401 19.1136C6.24401 17.5664 4.98528 16.3077 3.43813 16.3077C3.32997 16.3077 3.24219 16.2199 3.24219 16.1118V9.47563C3.24219 9.36747 3.32997 9.27969 3.43813 9.27969C4.16546 9.27969 5.03388 8.81609 5.59976 8.12638C6.06962 7.55344 6.26243 6.90958 6.14369 6.31392C6.13115 6.25161 6.14996 6.18734 6.19307 6.1411C6.23657 6.09525 6.29731 6.07213 6.36314 6.08153C6.95606 6.16422 7.61207 6.20615 8.31276 6.20615C8.31315 6.20615 8.31315 6.20615 8.31355 6.20615C11.0728 6.20615 14.3333 5.56229 17.4867 4.94037C20.659 4.31414 23.9391 3.66675 26.7367 3.66675C27.4562 3.66675 28.1307 3.70985 28.7416 3.79529C28.7965 3.80312 28.8459 3.83369 28.8768 3.87954C28.9078 3.92539 28.918 3.98261 28.9046 4.03629C28.8482 4.26515 28.8196 4.49205 28.8196 4.71033C28.8196 6.25749 30.0783 7.51621 31.6251 7.51621C31.7333 7.51621 31.821 7.604 31.821 7.71216V14.7566C31.821 14.8648 31.7333 14.9526 31.6251 14.9526C30.3769 14.9526 29.2679 15.792 28.9278 16.9935C28.9015 17.0876 28.8169 17.1487 28.7114 17.1342C28.1734 17.0582 27.5824 17.0198 26.9562 17.0198C24.1491 17.0198 20.806 17.7871 17.5726 18.5289C14.3219 19.2739 10.9611 20.0451 8.11643 20.0451ZM6.60337 19.5694C7.07441 19.625 7.58229 19.6528 8.11643 19.6528C10.9168 19.6528 14.2557 18.8867 17.4844 18.1456C20.739 17.3987 24.1045 16.6267 26.9558 16.6267C27.5374 16.6267 28.0903 16.6592 28.6009 16.7231C29.0183 15.5028 30.1438 14.6453 31.4288 14.5658V7.90144C29.7562 7.79994 28.4273 6.40719 28.4273 4.70955C28.4273 4.5285 28.4446 4.34275 28.4783 4.15543C27.941 4.09077 27.3563 4.05785 26.7364 4.05785C23.9771 4.05785 20.7162 4.70132 17.5624 5.32363C14.3905 5.94986 11.1108 6.59725 8.31315 6.59725C8.31276 6.59725 8.31237 6.59725 8.31237 6.59725C7.69241 6.59725 7.10576 6.56511 6.56418 6.50163C6.61081 7.1353 6.38117 7.79092 5.90268 8.37444C5.31564 9.09041 4.42646 9.58927 3.63407 9.66177V15.9217C5.30663 16.0232 6.63589 17.416 6.63589 19.1136C6.63629 19.2653 6.62492 19.4177 6.60337 19.5694Z" fill="black"/>
<path d="M17.9712 17.8705C16.8037 17.8705 14.0884 17.3352 14.0884 12.3779C14.0884 8.48495 15.8299 5.31775 17.9712 5.31775C20.1124 5.31775 21.8539 8.48495 21.8539 12.3779C21.8543 17.3356 19.139 17.8705 17.9712 17.8705ZM17.9712 5.71002C16.0462 5.71002 14.4803 8.70127 14.4803 12.3783C14.4803 15.6196 15.7527 17.4791 17.9712 17.4791C20.1896 17.4791 21.462 15.62 21.462 12.3783C21.4624 8.70127 19.8961 5.71002 17.9712 5.71002Z" fill="black"/>
</svg>
