<svg width="113" height="113" viewBox="0 0 113 113" fill="none" xmlns="http://www.w3.org/2000/svg">
<path d="M42.6671 23.4887C42.7553 23.1975 42.5972 22.8869 42.3052 22.8011C40.6298 22.3089 38.6409 22.1512 34.3845 23.2503C33.9487 23.3628 33.6783 23.7553 33.7658 24.1968C34.0784 25.7739 34.9758 29.3619 36.1433 31.3239C36.4191 31.7874 36.404 32.4078 36.047 32.8121C34.2825 34.8103 29.6157 40.8634 30.1147 48.5048C30.1329 48.7843 30.0398 49.0606 29.8401 49.2571C29.2547 49.8328 28.1932 50.8858 27.6966 52.2251C27.5693 52.5685 27.6939 52.9465 28.0214 53.1103C31.3727 54.7856 45.333 55.8733 51.6125 53.1949C52.0931 52.9899 52.2887 52.4206 52.0702 51.9459C51.736 51.2197 51.2631 50.4033 50.321 49.7392C50.023 49.5292 49.82 49.2023 49.8162 48.8377C49.772 44.6473 49.1717 37.6067 43.8611 33.343C43.3538 32.9358 43.2877 32.1582 43.7059 31.6598C45.2279 29.8459 46.3595 27.4066 46.8798 26.1668C47.0705 25.7123 46.8768 25.1987 46.4216 25.0094C45.6832 24.7024 44.5135 24.3116 43.3436 24.3114C42.9128 24.3114 42.5423 23.901 42.6671 23.4887Z" fill="#55A354" fill-opacity="0.42"/>
<path d="M73.9624 24.831C73.8116 24.8687 73.7595 25.0565 73.8695 25.1665L77.2696 28.5666C77.3232 28.6202 77.3437 28.6943 77.3192 28.766C71.294 46.4355 27.8581 80.5815 22.9869 84.3699C22.8361 84.4871 22.94 84.7138 23.131 84.7138H26.0803C26.1907 84.7138 26.2803 84.8034 26.2803 84.9138V94.48C26.2803 94.5904 26.3698 94.68 26.4803 94.68H33.5549C33.6654 94.68 33.7549 94.5904 33.7549 94.48V81.1119C33.7549 81.0301 33.8047 80.9566 33.8807 80.9262L39.7095 78.5947C39.8409 78.5421 39.9838 78.6389 39.9838 78.7803V94.48C39.9838 94.5904 40.0733 94.68 40.1838 94.68H47.2584C47.3689 94.68 47.4584 94.5904 47.4584 94.48V74.8547C47.4584 74.7878 47.4919 74.7253 47.5475 74.6882L50.8848 72.4634C51.0177 72.3748 51.1958 72.47 51.1958 72.6298V94.48C51.1958 94.5904 51.2853 94.68 51.3958 94.68H59.7162C59.8266 94.68 59.9162 94.5904 59.9162 94.48V66.1272C59.9162 66.0643 59.9458 66.005 59.9962 65.9672L64.5793 62.5299C64.7111 62.431 64.8993 62.5251 64.8993 62.6899V94.48C64.8993 94.5904 64.9888 94.68 65.0993 94.68H73.4197C73.5301 94.68 73.6197 94.5904 73.6197 94.48V54.8981C73.6197 54.845 73.6408 54.7942 73.6783 54.7567L78.2614 50.1736C78.3873 50.0476 78.6028 50.1368 78.6028 50.315V94.48C78.6028 94.5904 78.6923 94.68 78.8028 94.68H87.1232C87.2336 94.68 87.3232 94.5904 87.3232 94.48V40.466C87.3232 40.2738 87.5736 40.1878 87.6973 40.3349C88.7104 41.5391 90.1667 42.8345 90.7758 43.3606C90.897 43.4653 91.082 43.394 91.0984 43.2347C91.3467 40.8178 92.7567 27.1194 93.521 20.2136C93.5363 20.0751 93.4082 19.9696 93.273 20.0034L73.9624 24.831Z" fill="#55A354" fill-opacity="0.42"/>
<path d="M51.1437 53.7459C50.659 51.9286 49.0698 50.4006 48.441 49.8508C48.6647 38.4249 42.9549 32.7829 41.0574 31.2262C42.1062 29.9821 44.5715 26.8374 45.4662 23.8243C45.5383 23.582 45.4687 23.3175 45.2873 23.1469C45.2202 23.083 43.7141 21.7087 40.3914 22.05C40.4162 21.9171 40.4361 21.7907 40.4523 21.6657C40.4871 21.3778 40.3355 21.1003 40.0807 20.987C39.8509 20.8828 34.3896 18.4754 29.7249 21.3074C29.5198 21.4299 29.3993 21.667 29.4154 21.9132C29.4266 22.0865 29.7099 26.0831 32.7407 31.1571C30.9352 32.6096 25.0427 38.2451 25.2689 49.8508C24.6401 50.4006 23.0508 51.93 22.5662 53.7459C22.5438 53.8293 22.5376 53.9166 22.5476 54.0025C22.6544 54.8884 24.2611 56.9466 36.8549 56.9466C49.4488 56.9466 51.0554 54.8884 51.1623 54.0025C51.1722 53.9166 51.166 53.8293 51.1437 53.7459ZM36.8549 55.6439C26.6345 55.6439 24.3071 54.2292 23.8486 53.8202C24.445 52.1332 26.2518 50.6937 26.2704 50.6781C26.4307 50.5504 26.5239 50.3498 26.5177 50.1361C26.1809 38.5643 32.353 33.0943 33.6589 32.0716C34.1808 32.2853 35.2246 32.6435 36.4275 32.6435C36.8437 32.6435 37.2774 32.6005 37.7123 32.4937C38.0466 32.4116 38.2541 32.0612 38.1746 31.7095C38.0963 31.3604 37.7658 31.135 37.4278 31.2262C35.964 31.5818 34.4654 31.0099 34.0069 30.8119C31.5217 26.7788 30.8581 23.3696 30.7003 22.2324C34.0181 20.4568 37.8279 21.5432 39.1277 22.0057C38.7039 23.8764 37.2426 26.5521 37.2265 26.5834C37.055 26.8934 37.1581 27.2933 37.4564 27.4718C37.7496 27.6503 38.1323 27.5461 38.3051 27.2321C38.3622 27.1279 39.3936 25.2377 40.0161 23.41C42.2416 23.0713 43.5625 23.5833 44.1292 23.9011C42.9412 27.2673 39.7142 30.8393 39.6806 30.8771C39.5526 31.0164 39.493 31.2106 39.5141 31.4033C39.5352 31.5961 39.6396 31.7694 39.7962 31.8736C39.8745 31.927 47.5674 37.2681 47.1922 50.1348C47.186 50.3485 47.2779 50.5491 47.4407 50.6768C47.4606 50.6924 49.2636 52.1241 49.8613 53.8189C49.4028 54.2292 47.0754 55.6439 36.8549 55.6439Z" fill="#393939"/>
<path d="M39.9352 40.2353C40.2123 40.4515 40.6013 40.3955 40.805 40.1076C41.0126 39.8197 40.9579 39.4133 40.6845 39.197C39.9352 38.6017 38.7411 37.9204 37.4761 37.6572V36.2373C37.4761 35.879 37.1978 35.5859 36.8548 35.5859C36.5118 35.5859 36.2335 35.879 36.2335 36.2373V37.5582C35.2692 37.6142 34.3348 38.009 33.593 38.9756C32.8474 39.9526 32.8598 40.828 32.999 41.3908C33.4115 43.0426 35.396 44.189 36.9878 44.8637C38.4565 45.4851 39.2244 46.044 39.4779 46.6784C39.6308 47.0601 39.5985 47.5134 39.3785 48.0645C39.2766 48.3211 38.9063 48.6898 38.2005 48.8839C37.5072 49.0741 35.6259 49.2955 33.1518 47.2633C32.8797 47.0419 32.4908 47.0875 32.2795 47.3727C32.0683 47.6554 32.1155 48.0645 32.3851 48.2885C33.8502 49.4922 35.1698 50.0133 36.2335 50.2048V51.6039C36.2335 51.9648 36.5118 52.2553 36.8548 52.2553C37.1978 52.2553 37.4761 51.9648 37.4761 51.6039V50.2882C37.9123 50.2673 38.2776 50.2087 38.5137 50.1436C39.4866 49.8791 40.2397 49.289 40.5267 48.566C40.8746 47.688 40.9082 46.8842 40.6249 46.1743C40.1253 44.925 38.7398 44.1994 37.4525 43.6548C35.6296 42.8836 34.4156 41.9144 34.2018 41.0625C34.1012 40.6573 34.2192 40.2405 34.5634 39.7897C36.3478 37.4462 39.9004 40.2066 39.9352 40.2353Z" fill="#393939"/>
<path d="M89.1641 17.6944C89.0015 17.4829 88.7576 17.3771 88.5137 17.4829L69.8156 22.1358C69.4904 22.2416 69.2465 22.4531 69.2465 22.8761C69.1652 23.2991 69.2465 23.6163 69.4904 23.9336L73.1487 27.952C67.2954 37.1521 51.0361 59.2536 17.9485 82.624C17.6234 82.8355 17.4608 83.3643 17.6234 83.893C17.7047 84.316 18.0298 84.5275 18.355 84.5275C18.4363 84.5275 18.4363 84.5275 18.5176 84.5275C18.5989 84.5275 19.8184 84.2103 21.8508 83.5758V93.6219C21.8508 94.1506 22.1759 94.6794 22.6637 94.6794H31.1185C31.525 94.6794 31.9315 94.2564 31.9315 93.6219V79.6631C32.8258 79.2401 33.8013 78.8171 34.8582 78.3941V93.6219C34.8582 94.1506 35.1833 94.6794 35.6711 94.6794H44.1259C44.5324 94.6794 44.9389 94.2564 44.9389 93.6219V73.0009C45.9145 72.4722 46.89 71.8377 47.8656 71.2032V93.6219C47.8656 94.1506 48.1907 94.6794 48.6785 94.6794H57.1333C57.5398 94.6794 57.9463 94.2564 57.9463 93.6219V64.4353V64.3295C58.9219 63.5893 59.8974 62.849 60.873 62.003V93.6219C60.873 94.1506 61.1981 94.6794 61.6859 94.6794H70.1407C70.5472 94.6794 70.9537 94.2564 70.9537 93.6219V53.4374C70.9537 53.3317 70.9537 53.2259 70.8724 53.0144C71.848 52.0627 72.8235 51.0052 73.7991 49.9477V93.6219C73.7991 94.1506 74.1243 94.6794 74.612 94.6794H83.0668C83.4733 94.6794 83.8798 94.2564 83.8798 93.6219V39.4786L86.6439 42.5453C86.8878 42.7568 87.1317 42.8626 87.4568 42.7568C87.7007 42.6511 87.9446 42.3338 87.9446 41.9108L89.8144 18.6461C89.4893 18.2231 89.408 17.9059 89.1641 17.6944ZM30.3056 92.6701H23.3954V82.9413C25.2652 82.3068 27.6228 81.4608 30.3056 80.2976V92.6701ZM43.2317 92.6701H36.2402V77.5481C38.4352 76.4906 40.7115 75.2216 43.1504 73.8469V92.6701H43.2317ZM56.1578 92.6701H49.2476V70.2514C51.5239 68.771 53.8002 67.1847 56.1578 65.4928V92.6701ZM69.0839 92.6701H62.1737V60.9456C62.1737 60.8398 62.1737 60.8398 62.1737 60.7341C64.45 58.8306 66.8076 56.7156 69.0839 54.4949V92.6701ZM75.0998 92.6701V48.8902C75.0998 48.6787 75.0998 48.573 75.0185 48.4672C77.3761 45.8235 79.7337 42.9683 82.01 40.0073V92.7759H75.0998V92.6701ZM86.1561 39.6901L83.392 36.5176C83.0668 36.2004 82.5791 36.2004 82.3352 36.6234C61.6046 64.964 34.9395 76.8078 23.6393 80.7206C54.5319 57.8789 69.653 36.7291 74.8559 28.375C75.0998 27.952 75.0998 27.3175 74.7746 27.0003L71.7667 23.6163L87.8633 19.7036L86.1561 39.6901Z" fill="#393939"/>
<circle cx="56.1789" cy="56.0598" r="54.9598" stroke="#393939" stroke-width="2.2"/>
</svg>
