<svg width="100" height="70" viewBox="0 0 100 70" fill="none" xmlns="http://www.w3.org/2000/svg">
<path d="M77.3143 34.9115C77.3143 44.0179 73.8048 52.3214 68.0932 58.5376C67.9785 58.6523 67.8868 58.767 67.7721 58.8817C61.4183 65.6025 52.4267 69.7772 42.4487 69.7772C32.8835 69.7772 24.213 65.9236 17.9051 59.6845C17.1252 58.9046 16.3682 58.1018 15.6571 57.2531C10.5878 51.1975 7.56006 43.3986 7.56006 34.8886C7.56006 15.6207 23.1808 0 42.4487 0C61.7165 0 77.3143 15.6437 77.3143 34.9115Z" fill="#CBE3FF"/>
<path d="M80.503 26.3552C80.503 26.3552 87.7973 40.8749 59.1707 59.8675C59.1707 59.8675 39.9717 25.3229 75.9154 25.0018C75.9154 25.0018 78.1175 23.1668 81.9481 22.3181C86.2375 21.3547 92.5454 21.6299 100 27.1121C99.7709 27.0204 92.3849 24.1531 80.503 26.3552Z" fill="#ABBD43"/>
<path d="M100 27.112C99.771 27.0202 92.3849 24.13 80.5031 26.355C80.5031 26.355 79.0809 24.1988 81.9482 22.3179C86.2376 21.3775 92.5455 21.6298 100 27.112Z" fill="#708236"/>
<path d="M59.3543 59.8211L58.9644 59.89C56.7165 48.5127 57.9093 39.5211 62.4969 33.1902C67.7726 25.8959 75.8008 24.8179 75.8926 24.7949L75.9385 25.1849C75.8697 25.1849 68.0019 26.2629 62.818 33.4196C58.2992 39.6816 57.1523 48.5586 59.3543 59.8211Z" fill="#708236"/>
<path d="M37.2188 45.372C37.2188 45.372 36.2325 46.8171 38.7557 52.6204C38.7786 52.6663 38.7786 52.6892 38.7786 52.6892C38.7786 52.6892 34.4663 47.2529 32.4936 48.4686C30.498 49.6843 25.1306 57.3915 21.5752 51.0836C18.0198 44.7756 30.6815 47.8493 31.599 46.5648C32.5395 45.2803 31.8284 40.555 27.0803 41.9772C22.3321 43.3994 16.3683 46.3354 15.8636 42.8947C15.359 39.477 20.6118 37.7107 24.4883 39.3852C28.3648 41.0367 24.6259 33.6966 21.9192 34.9123C19.2126 36.128 14.3956 39.7752 12.3541 38.5595C10.3356 37.3437 11.5742 32.5726 18.685 33.1461C20.9329 31.6322 18.0198 25.2096 14.3497 28.6044C10.6567 31.9992 11.276 35.1188 7.49128 32.6644C3.70652 30.21 6.84901 27.5722 10.175 27.8474C13.501 28.1227 16.5747 24.2462 11.6889 24.3379C6.80315 24.4297 10.0144 25.9206 6.482 25.783C2.94956 25.6454 3.50007 21.5624 7.88121 21.9294C10.175 21.8377 11.0008 20.8972 5.54155 19.0393C1.61917 17.6859 0.265831 16.2867 0.0364513 15.071C-0.0553004 14.6122 0.0364401 14.1764 0.197006 13.8094C0.793392 12.4331 3.01838 12.0891 12.5606 22.09C12.5606 22.09 15.4966 23.948 10.4044 17.0437C7.46833 12.7084 15.9324 9.93291 15.5425 23.4434C17.4922 26.6317 19.8319 28.5126 18.6162 25.3013C17.3775 22.09 16.8729 18.1676 19.4419 18.0529C22.011 17.9153 18.4327 26.5629 23.479 30.0265C23.479 30.0265 20.5659 21.6771 25.9104 22.09C31.255 22.5029 24.8553 28.9714 29.3282 37.1832C30.131 38.6283 29.3053 28.375 31.8743 29.6137C34.4434 30.8523 37.8382 27.9162 32.3789 39.8669C32.0349 42.1607 33.3423 47.1153 34.7416 44.1104C36.1408 41.1056 36.8518 35.6463 39.2603 36.5409C41.6917 37.4125 45.8664 38.8347 37.2188 45.372Z" fill="#ABBD43"/>
<path d="M37.2203 45.372C37.2203 45.372 36.234 46.8171 38.7572 52.6204C38.5278 52.1387 36.5322 48.5604 23.1135 33.1232C11.9656 20.2779 3.45567 16.2638 0.0608602 15.071C-0.0308915 14.6122 0.060877 14.1764 0.221443 13.8094C0.817829 12.4331 3.04279 12.0891 12.585 22.09C12.585 22.09 15.521 23.948 10.4288 17.0437C7.49277 12.7084 15.9568 9.93291 15.5669 23.4434C17.5166 26.6317 19.8563 28.5126 18.6406 25.3013C17.4019 22.09 16.8973 18.1676 19.4663 18.0529C22.0354 17.9153 18.4571 26.5629 23.5034 30.0265C23.5034 30.0265 20.5903 21.6771 25.9349 22.09C31.2794 22.5029 24.8797 28.9714 29.3526 37.1832C30.1554 38.6283 29.3297 28.375 31.8987 29.6137C34.4678 30.8523 37.8626 27.9162 32.4033 39.8669C32.0593 42.1607 33.3667 47.1153 34.766 44.1104C36.1652 41.1056 36.8762 35.6463 39.2847 36.5409C41.6932 37.4125 45.8679 38.8347 37.2203 45.372Z" fill="#6F8232"/>
<path d="M52.289 45.8302H47.6096L44.5818 54.8677L42.8615 60.0058L41.9669 62.7354L39.7648 48.835L39.3061 45.8302H33.2505L34.6268 40.6003L34.6497 40.5315L34.6726 40.4627L35.3608 37.8936L35.8425 36.1045L36.8517 32.2738L37.1499 31.127L39.6272 31.2646L46.8297 31.6775L48.8024 31.7922L49.5594 34.797L51.1421 41.2426L52.289 45.8302Z" fill="#FFC7BB"/>
<path d="M51.1423 41.2429C46.8988 44.2019 43.4581 46.1058 43.4581 46.1058C40.7743 45.9223 36.9666 42.7339 34.6499 40.5548L34.6728 40.486L35.361 37.9169L49.5596 34.8203L51.1423 41.2429Z" fill="#D99282"/>
<path d="M33.4342 24.1543L32.6084 30.7604H52.9314L51.7845 24.1543H33.4342Z" fill="#2C373B"/>
<path d="M34.4432 27.2972C34.4432 27.2972 29.8327 14.2914 32.2871 11.493C32.9981 10.1167 33.5716 11.5618 35.3378 10.4149C37.127 9.29092 42.1045 3.51056 47.5179 7.43295C47.5179 7.43295 53.9864 8.6716 53.2523 12.961C52.5183 17.2504 51.2109 22.8243 52.0366 25.6686C52.0366 26.7926 49.7887 30.3021 49.7887 30.3021L34.3286 30.7149L34.4432 27.2972Z" fill="#2C373B"/>
<path d="M38.3201 9.88696C35.2235 11.6302 33.4343 15.0251 33.6867 18.5575C34.1913 25.6224 36.0263 38.4906 42.7701 38.4906C49.5827 38.4906 51.3947 25.2783 51.8764 18.2822C52.1517 14.3828 49.9726 10.6669 46.3713 9.17588C43.3435 7.9143 40.5222 8.64831 38.3201 9.88696Z" fill="#FFC7BB"/>
<path d="M51.0963 27.2969C51.0963 27.2969 49.353 31.2651 46.2793 31.0816C44.4443 30.9669 43.5497 30.7834 43.1139 30.6229C42.8845 30.5541 42.6321 30.5541 42.4028 30.6229C41.9669 30.7605 41.0724 30.9669 39.2374 31.0816C36.1637 31.2651 34.4204 27.2969 34.4204 27.2969C34.4204 27.2969 30.8879 30.9899 32.8606 36.5179C34.8333 42.046 42.7468 42.5277 42.7468 42.5277C42.7468 42.5277 50.6834 42.046 52.6331 36.5179C54.6287 30.9899 51.0963 27.2969 51.0963 27.2969Z" fill="#2C373B"/>
<path d="M32.9523 18.4424C32.9523 18.4424 37.2417 18.58 37.7005 14.1301C37.7005 14.1301 46.371 21.2638 50.1329 18.4424C53.9406 15.5752 51.8761 11.9739 51.8761 11.9739C51.8761 11.9739 46.5545 5.25311 41.8064 7.56984C37.0582 9.88657 32.1954 11.6987 32.9523 18.4424Z" fill="#2C373B"/>
<path d="M34.0536 22.2728C34.0536 22.2728 31.3698 20.002 32.2873 22.9839C33.2048 25.9658 34.4664 25.1171 34.4664 25.1171L34.0536 22.2728Z" fill="#FFC7BB"/>
<path d="M51.532 21.6771C51.532 21.6771 54.2158 19.4063 53.2982 22.3882C52.3807 25.3701 51.1191 24.5214 51.1191 24.5214L51.532 21.6771Z" fill="#FFC7BB"/>
<path d="M67.7723 58.9047C61.4185 65.6255 52.4269 69.8002 42.4489 69.8002C32.8837 69.8002 24.2132 65.9466 17.9053 59.7075L18.5934 56.9779L32.9526 45.8301H52.9086L67.2677 56.9779L67.7723 58.9047Z" fill="#FEFFFF"/>
<path d="M39.811 50.3711C39.811 50.3711 42.6094 55.2798 42.77 60.0968C42.77 60.0968 44.0545 51.6097 45.9813 50.3711L48.1833 56.7478L42.77 67.3222L37.6777 56.5414L39.811 50.3711Z" fill="#FEFFFF"/>
<path d="M39.8109 50.3716L38.1135 59.1797L32.6084 46.3574L39.8109 50.3716Z" fill="#FCEDED"/>
<path d="M32.6084 42.5508L41.0725 46.7025L37.6777 56.52L32.6084 46.3585V42.5508Z" fill="#FEFFFF"/>
<path d="M45.9814 50.3726L47.7247 59.1808L53.2528 46.5879L45.9814 50.3726Z" fill="#FCEDED"/>
<path d="M53.2527 42.7559L44.8115 46.9306L48.1834 56.748L53.2527 46.5865V42.7559Z" fill="#FEFFFF"/>
</svg>
