<svg width="114" height="108" viewBox="0 0 114 108" fill="none" xmlns="http://www.w3.org/2000/svg">
<circle cx="68.0324" cy="62.3634" r="45.3556" fill="#1780df"/>
<path d="M43.3454 45.6421C43.6939 33.6933 36.5412 28.6927 36.3956 28.5933L36.3957 28.5933L36.3909 28.5901C36.375 28.5796 36.3577 28.5562 36.3541 28.5239C36.3496 28.4824 36.3641 28.4514 36.377 28.4375L36.377 28.4375L36.3824 28.4314C36.3798 28.4344 36.3815 28.4325 36.3855 28.428C36.3935 28.4191 36.4104 28.4001 36.4214 28.3877C36.4459 28.3601 36.4806 28.3207 36.5244 28.2703C36.612 28.1695 36.736 28.0248 36.887 27.8428C37.1888 27.479 37.5993 26.9652 38.0434 26.3548C38.926 25.142 39.9643 23.5168 40.5292 21.9163L40.6692 21.5196L40.3023 21.3138C39.6909 20.9708 38.3763 20.4833 36.2388 20.8086L35.9386 20.8542L35.8407 21.1416C35.2898 22.7592 34.3709 24.4452 34.3184 24.5409C34.3052 24.5648 34.2889 24.574 34.2771 24.5773C34.2651 24.5806 34.2548 24.5792 34.2441 24.5728L34.2441 24.5727L34.2409 24.5708C34.2268 24.5624 34.211 24.545 34.2033 24.5153C34.1956 24.4855 34.1998 24.4562 34.2125 24.4332L34.2159 24.427L34.2191 24.4208C34.2188 24.4214 35.5896 21.9161 35.993 20.1351L36.091 19.7024L35.673 19.5536C34.4726 19.1265 30.8206 18.066 27.5989 19.7901L27.2917 19.9546L27.3396 20.2997C27.4903 21.3854 28.1119 24.5586 30.4188 28.3023L30.5015 28.4365L30.6463 28.499C31.0781 28.6855 32.5742 29.2678 34.0762 28.9029L34.0762 28.9031L34.0884 28.8998C34.0944 28.8982 34.0975 28.8985 34.0991 28.8988C34.1013 28.8992 34.1058 28.9004 34.1119 28.9045C34.1245 28.9128 34.1423 28.9321 34.15 28.9664L34.1502 28.9672C34.1576 28.9998 34.1513 29.0295 34.1382 29.0517C34.1252 29.0737 34.1098 29.0823 34.0979 29.0852L34.0979 29.0852C33.7465 29.1715 33.3924 29.2071 33.0477 29.2071C32.0449 29.2071 31.1637 28.9066 30.7172 28.7239L30.4483 28.6138L30.2195 28.7929C28.9539 29.784 23.2155 34.8994 23.5281 45.6432C23.5293 45.6839 23.5114 45.7148 23.4913 45.7308L23.4912 45.7307L23.4815 45.7389C23.4838 45.737 23.3666 45.8308 23.1927 45.9876C23.019 46.1443 22.7835 46.3682 22.5305 46.6423C22.0322 47.1822 21.432 47.9529 21.1271 48.8152L21.0152 49.1316L21.2656 49.355C21.5677 49.6244 22.2994 50.0641 24.0824 50.4407C25.8731 50.8189 28.766 51.1419 33.4368 51.1419C38.1075 51.1419 41.0004 50.8189 42.7912 50.4405C44.574 50.0639 45.3061 49.6238 45.6085 49.3533L45.8579 49.1301L45.7465 48.8144C45.4412 47.9486 44.8416 47.1778 44.3435 46.6384C43.8395 46.0925 43.4031 45.7452 43.3809 45.7277L43.3804 45.7273C43.362 45.7129 43.3442 45.6842 43.3454 45.6421ZM43.3454 45.6421L42.8456 45.6275M43.3454 45.6421C43.3454 45.6421 43.3454 45.6421 43.3454 45.6421L42.8456 45.6275M42.8456 45.6275C42.84 45.822 42.9236 46.0046 43.0718 46.1208L33.9842 24.9999C34.2511 25.1623 34.5994 25.0675 34.7566 24.7817C34.8087 24.6869 35.7474 22.9664 36.314 21.3029C38.3397 20.9946 39.5419 21.4606 40.0577 21.7499C38.9906 24.7736 36.1158 27.9798 36.0114 28.0963C36.01 28.0978 36.0091 28.0989 36.0087 28.0993C35.8922 28.2262 35.8379 28.4028 35.8571 28.5783C35.8763 28.7538 35.9713 28.9115 36.1139 29.0064C36.1851 29.055 43.1872 33.9164 42.8456 45.6275ZM45.9591 49.0431L45.9593 49.0438C45.963 49.0576 45.9643 49.0732 45.9626 49.0894C45.9495 49.1925 45.8092 49.7633 44.0601 50.3131C42.3228 50.8592 39.1522 51.3276 33.4368 51.3276C27.7213 51.3276 24.5507 50.8592 22.8134 50.3131C21.0641 49.7632 20.9239 49.1923 20.9109 49.0893C20.9092 49.0732 20.9105 49.0576 20.9142 49.0438L20.9144 49.0432C21.3134 47.5481 22.6528 46.2417 23.2203 45.7455L23.3957 45.5922L23.3911 45.3593C23.1892 34.996 28.4424 30.0013 30.0054 28.7438L30.3443 28.4712L30.1212 28.0978C27.4149 23.567 27.1711 20.0128 27.1644 19.9083L27.1643 19.9078C27.1613 19.8617 27.1858 19.8289 27.2034 19.8184L27.2034 19.8184L27.2065 19.8165C29.1978 18.6076 31.3741 18.508 33.1083 18.7368C34.8415 18.9655 36.0869 19.5168 36.1664 19.5528L36.1664 19.5529L36.1696 19.5543C36.1892 19.563 36.221 19.5978 36.2148 19.6539C36.2014 19.7574 36.1849 19.8622 36.1641 19.9731L36.0411 20.6307L36.7067 20.5624C39.5321 20.2722 40.7674 21.426 40.7675 21.4259L40.7692 21.4275C40.7936 21.4505 40.8083 21.4939 40.7954 21.5374L40.7953 21.5376C40.0135 24.1707 37.8334 26.9633 36.8795 28.0948L36.5529 28.4822L36.9447 28.8036C38.5915 30.1547 43.6821 35.156 43.4824 45.3593L43.4778 45.5921L43.6532 45.7455C44.2208 46.2418 45.5601 47.5469 45.9591 49.0431Z" fill="#393939" stroke="#FBFBFB"/>
<path d="M36.6258 36.2099L36.6258 36.2099C36.6417 36.1878 36.6491 36.1594 36.6451 36.1294C36.6411 36.0993 36.6273 36.0781 36.6115 36.0656L36.6107 36.065C35.9733 35.5585 34.9563 34.9813 33.8996 34.7615L33.5014 34.6787V34.272V32.9796C33.5014 32.9474 33.4892 32.922 33.4737 32.9057C33.4587 32.8899 33.4453 32.8867 33.4359 32.8867C33.4266 32.8867 33.4132 32.8899 33.3982 32.9057C33.3827 32.922 33.3704 32.9474 33.3704 32.9796V34.1819V34.6537L32.8994 34.681C32.1536 34.7244 31.4429 35.0219 30.8641 35.7758C30.2911 36.527 30.3161 37.1626 30.4117 37.5496C30.5608 38.1458 31.0075 38.6956 31.6451 39.1887C32.2772 39.6776 33.0476 40.0723 33.7518 40.3708C34.4363 40.6604 34.9846 40.9464 35.3994 41.2485C35.8147 41.5511 36.1253 41.891 36.2877 42.2971L36.6258 36.2099ZM36.6258 36.2099L36.6233 36.2134M36.6258 36.2099L36.6233 36.2134M36.6233 36.2134C36.6105 36.2314 36.5977 36.2363 36.5884 36.2377C36.5788 36.2391 36.5648 36.2379 36.5473 36.2243L36.5473 36.2244C36.4398 36.1401 35.6024 35.5095 34.5612 35.1355C34.0142 34.939 33.3737 34.7996 32.7353 34.8764C32.0787 34.9554 31.4462 35.2618 30.9525 35.9101L31.3503 36.2129L30.953 35.9095C30.5824 36.3948 30.3959 36.9279 30.536 37.492L30.5363 37.4931C30.6732 38.0387 31.0999 38.5391 31.6395 38.9696C32.1926 39.4108 32.9263 39.8281 33.7851 40.1914L33.7852 40.1915C34.3616 40.4353 34.9294 40.7074 35.4026 41.0443C35.8748 41.3805 36.2236 41.7606 36.4032 42.2097C36.6029 42.7105 36.5946 43.3068 36.3132 44.0169C36.1265 44.4868 35.5975 44.9417 34.8147 45.1544L34.8129 45.1549C34.6424 45.202 34.3481 45.2514 33.9776 45.2691L33.5014 45.2919V45.7685V46.9661C33.5014 47.0001 33.4888 47.0251 33.4742 47.0403C33.4599 47.0553 33.4467 47.059 33.4359 47.059C33.4252 47.059 33.4119 47.0553 33.3977 47.0403C33.3831 47.0251 33.3704 47.0001 33.3704 46.9661V45.6927V45.2746L32.959 45.2006C32.0805 45.0424 30.9577 44.6073 29.6866 43.5634C29.6698 43.5491 29.6558 43.5258 29.6522 43.4944C29.6485 43.4627 29.6569 43.4345 29.6721 43.4143L29.6734 43.4125C29.6812 43.4019 29.6883 43.3966 29.6932 43.3938C29.6984 43.3907 29.7036 43.3891 29.7088 43.3885C29.7177 43.3873 29.732 43.3886 29.7499 43.4032L30.0655 43.0154L29.7482 43.4017C32.1316 45.3595 34.0133 45.1864 34.7931 44.9726L34.7934 44.9725M36.6233 36.2134L34.7934 44.9725M34.7934 44.9725C35.5278 44.7705 36.0271 44.3576 36.1974 43.9299M34.7934 44.9725L36.1974 43.9299M36.1974 43.9299C36.4242 43.3616 36.4919 42.8075 36.2878 42.2974L36.1974 43.9299Z" fill="#393939" stroke="#FBFBFB"/>
<path d="M80.6513 16.412L80.682 16.4519L80.7201 16.485C80.7603 16.5198 80.798 16.571 80.8828 16.7179C80.8906 16.7315 80.8988 16.7457 80.9072 16.7605C80.963 16.858 81.0331 16.9803 81.1265 17.1171L79.4394 38.1087L79.4378 38.1287V38.1488C79.4378 38.2438 79.4107 38.3204 79.3758 38.3758C79.3582 38.4038 79.3395 38.425 79.3231 38.4396C79.3174 38.4447 79.3123 38.4488 79.308 38.4519C79.2707 38.4601 79.2521 38.4556 79.2398 38.4519C79.216 38.4448 79.1732 38.4247 79.1028 38.3666L76.6094 35.6002L75.738 34.6334V35.935V85.2156C75.738 85.3973 75.6804 85.5233 75.6208 85.5956C75.5581 85.6717 75.5062 85.6781 75.4981 85.6781H67.8026C67.7801 85.6781 67.7328 85.6701 67.6724 85.5859C67.609 85.4975 67.5626 85.3609 67.5626 85.2156V45.4638V44.1845L66.6951 45.1248C65.8053 46.0893 64.9265 47.0418 64.0496 47.8972L63.814 48.1272L63.9321 48.4345C63.9588 48.5041 63.9665 48.5414 63.9694 48.5597C63.9722 48.5784 63.9728 48.5924 63.9728 48.6401V85.2156C63.9728 85.3973 63.9152 85.5233 63.8556 85.5956C63.7929 85.6717 63.741 85.6781 63.7329 85.6781H56.0374C56.0149 85.6781 55.9676 85.6701 55.9072 85.5859C55.8438 85.4975 55.7974 85.3609 55.7974 85.2156V56.4365V55.3411L54.9698 56.0587C54.0961 56.8164 53.221 57.4807 52.3314 58.1557L52.1336 58.3058V58.554V58.6503V85.2156C52.1336 85.3973 52.076 85.5233 52.0164 85.5956C51.9537 85.6717 51.9018 85.6781 51.8937 85.6781H44.1982C44.1757 85.6781 44.1284 85.6701 44.068 85.5859C44.0046 85.4975 43.9582 85.3609 43.9582 85.2156V64.8104V63.8887L43.1856 64.3912C42.2943 64.9709 41.4234 65.537 40.5562 66.007L40.2944 66.1489V66.4466V85.2156C40.2944 85.3973 40.2368 85.5233 40.1772 85.5956C40.1145 85.6717 40.0626 85.6781 40.0545 85.6781H32.359C32.3365 85.6781 32.2892 85.6701 32.2288 85.5859C32.1654 85.4975 32.119 85.3609 32.119 85.2156V71.3554V70.6168L31.4332 70.8912C30.4632 71.2795 29.5658 71.6685 28.7414 72.0585L28.4552 72.1938V72.5105V85.2156C28.4552 85.3973 28.3976 85.5233 28.338 85.5956C28.2753 85.6717 28.2234 85.6781 28.2153 85.6781H20.5198C20.4973 85.6781 20.45 85.6701 20.3896 85.5859C20.3262 85.4975 20.2798 85.3609 20.2798 85.2156V76.0717V75.3919L19.6308 75.5945C18.7102 75.8819 17.9752 76.097 17.4627 76.2398C17.2062 76.3113 17.007 76.3643 16.8691 76.399C16.7997 76.4165 16.7485 76.4287 16.7144 76.4361C16.7113 76.4368 16.7084 76.4375 16.7058 76.438H16.7057H16.7054H16.7051H16.7048H16.7046H16.7043H16.704H16.7037H16.7035H16.7032H16.7029H16.7026H16.7024H16.7021H16.7018H16.7016H16.7013H16.701H16.7007H16.7005H16.7002H16.6999H16.6997H16.6994H16.6992H16.6989H16.6986H16.6984H16.6981H16.6979H16.6976H16.6973H16.6971H16.6968H16.6966H16.6963H16.6961H16.6958H16.6956H16.6953H16.6951H16.6948H16.6946H16.6943H16.6941H16.6938H16.6936H16.6933H16.6931H16.6928H16.6926H16.6923H16.6921H16.6919H16.6916H16.6914H16.6911H16.6909H16.6907H16.6904H16.6902H16.6899H16.6897H16.6895H16.6892H16.689H16.6888H16.6885H16.6883H16.6881H16.6878H16.6876H16.6874H16.6871H16.6869H16.6867H16.6864H16.6862H16.686H16.6857H16.6855H16.6853H16.685H16.6848H16.6846H16.6844H16.6841H16.6839H16.6837H16.6835H16.6832H16.683H16.6828H16.6826H16.6823H16.6821H16.6819H16.6817H16.6814H16.6812H16.681H16.6808H16.6806H16.6803H16.6801H16.6799H16.6797H16.6794H16.6792H16.679H16.6788H16.6786H16.6783H16.6781H16.6779H16.6777H16.6775H16.6772H16.677H16.6768H16.6766H16.6764H16.6762H16.6759H16.6757H16.6755H16.6753H16.6751H16.6749H16.6746H16.6744H16.6742H16.674H16.6738H16.6735H16.6733H16.6731H16.6729H16.6727H16.6725H16.6722H16.672H16.6718H16.6716H16.6714H16.6712H16.6709H16.6707H16.6705H16.6703H16.6701H16.6699H16.6696H16.6694H16.6692H16.669H16.6688H16.6686H16.6683H16.6681H16.6679H16.6677H16.6675H16.6672H16.667H16.6668H16.6666H16.6664H16.6662H16.6659H16.6657H16.6655H16.6653H16.6651H16.6648H16.6646H16.6644H16.6642H16.664H16.6637H16.6635H16.6633H16.6631H16.6628H16.6626H16.6624H16.6622H16.662H16.6617H16.6615H16.6613H16.6611H16.6608H16.6606H16.6604H16.6602H16.6599H16.6597H16.6595H16.6592H16.659H16.6588H16.6586H16.6583H16.6581H16.6579H16.6576H16.6574H16.6572H16.6569H16.6567H16.6565H16.6562H16.656H16.6558H16.6555H16.6553H16.6551H16.6548H16.6546H16.6544H16.6541H16.6539H16.6536H16.6534H16.6532H16.6529H16.6527H16.6524H16.6522H16.652H16.6517H16.6515H16.6512H16.651H16.6507H16.6505H16.6502H16.65H16.6497H16.6495H16.6492H16.649H16.6487H16.6485H16.6482H16.648H16.6477H16.6475H16.6472H16.647H16.6467H16.6465H16.6462H16.6459H16.6457H16.6454H16.6452H16.6449H16.6446H16.6444H16.6441H16.6438H16.6436H16.6433H16.643H16.6428H16.6425H16.6422H16.642H16.6417H16.6414H16.6412H16.6409H16.6406H16.6403H16.6401H16.6398H16.6395H16.6392H16.6389H16.6387H16.6384H16.6381H16.6378H16.6375H16.6372H16.6369H16.6367H16.6364H16.6361H16.6358H16.6355H16.6352H16.6349H16.6346H16.6343H16.634H16.6337H16.6334H16.6331H16.6328H16.6325H16.6322H16.6319H16.6316H16.6313H16.631H16.6307H16.6304H16.6301H16.6298H16.6294H16.6291H16.6288H16.6285H16.6282H16.6279H16.6275H16.6272H16.6269H16.6266H16.6263H16.6259H16.6256H16.6253H16.6249H16.6246H16.6243H16.6239H16.6236H16.6233H16.6229H16.6226H16.6223H16.6219H16.6216H16.6212H16.6209H16.6205H16.6202H16.6199H16.6195H16.6192H16.6188H16.6184H16.6181H16.6177H16.6174H16.617H16.6167H16.6163H16.6159H16.6156H16.6152H16.6148H16.6145H16.6141H16.6137H16.6133H16.613H16.6126H16.6122H16.6118H16.6115H16.6111H16.6107H16.6103H16.6099H16.6095H16.6091H16.6088H16.6084H16.608H16.6076H16.6072H16.6068H16.6064H16.606H16.6056H16.6052H16.6048H16.6044H16.6039H16.6035H16.6031H16.6027H16.6023H16.6019H16.6015H16.601H16.6006H16.6002H16.5998H16.5993H16.5989H16.5985H16.598C16.5574 76.438 16.5211 76.4248 16.4943 76.4033C16.4712 76.3848 16.4387 76.3474 16.4231 76.2661L16.418 76.2395L16.41 76.2135C16.3631 76.0611 16.366 75.9168 16.3961 75.8056C16.4276 75.6899 16.479 75.6387 16.5007 75.6246L16.5087 75.6194L16.5165 75.6139C46.6919 54.3004 61.5343 34.1339 66.8925 25.712L67.0977 25.3896L66.8404 25.107L63.5259 21.4662C63.4564 21.3727 63.4221 21.296 63.4055 21.2258C63.3879 21.1515 63.3834 21.0559 63.4099 20.9179L63.4189 20.8711V20.8235C63.4189 20.7756 63.4257 20.7473 63.4309 20.7325C63.4357 20.7185 63.4411 20.7101 63.4471 20.7031C63.4596 20.6885 63.4936 20.6592 63.5769 20.6302L80.5765 16.3999L80.6166 16.3899L80.6271 16.3854C80.6339 16.3915 80.6423 16.4002 80.6513 16.412ZM16.6842 76.4424C16.6771 76.4437 16.6785 76.4432 16.6857 76.4421C16.6851 76.4422 16.6846 76.4423 16.6842 76.4424ZM27.4753 84.8494H27.9753V84.3494V73.088V72.3262L27.2764 72.6292C24.8515 73.6806 22.7196 74.4458 21.0251 75.0208L20.6857 75.1359V75.4942V84.3494V84.8494H21.1857H27.4753ZM32.3769 84.3494V84.8494H32.8769H38.6665H39.1665H39.2405V84.3494H39.6665V67.2166V66.3608L38.921 66.7811C36.6999 68.033 34.6413 69.1804 32.6599 70.135L32.3769 70.2713V70.5854V84.3494ZM51.0057 84.8494H51.5057V84.3494V59.6128V58.6385L50.7142 59.2066C48.5716 60.7442 46.5065 62.1832 44.4435 63.5249L44.2161 63.6728V63.9441V84.3494V84.8494H44.7161H51.0057ZM62.7709 84.8494H63.2709V84.3494V49.6027V48.4163L62.4218 49.2448C60.3596 51.2566 58.2233 53.1731 56.1606 54.8979L55.9813 55.0478V55.2815V55.282V55.2826V55.2832V55.2837V55.2843V55.2848V55.2854V55.2859V55.2865V55.287V55.2876V55.2881V55.2886V55.2892V55.2897V55.2902V55.2908V55.2913V55.2918V55.2923V55.2929V55.2934V55.2939V55.2944V55.2949V55.2954V55.2959V55.2964V55.2969V55.2974V55.2979V55.2984V55.2989V55.2994V55.2999V55.3004V55.3009V55.3014V55.3019V55.3024V55.3028V55.3033V55.3038V55.3043V55.3048V55.3052V55.3057V55.3062V55.3066V55.3071V55.3076V55.308V55.3085V55.3089V55.3094V55.3099V55.3103V55.3108V55.3112V55.3117V55.3121V55.3126V55.313V55.3134V55.3139V55.3143V55.3148V55.3152V55.3156V55.3161V55.3165V55.3169V55.3173V55.3178V55.3182V55.3186V55.319V55.3194V55.3199V55.3203V55.3207V55.3211V55.3215V55.3219V55.3223V55.3227V55.3232V55.3236V55.324V55.3244V55.3248V55.3252V55.3256V55.326V55.3263V55.3267V55.3271V55.3275V55.3279V55.3283V55.3287V55.3291V55.3294V55.3298V55.3302V55.3306V55.331V55.3313V55.3317V55.3321V55.3325V55.3328V55.3332V55.3336V55.334V55.3343V55.3347V55.335V55.3354V55.3358V55.3361V55.3365V55.3369V55.3372V55.3376V55.3379V55.3383V55.3386V55.339V55.3393V55.3397V55.34V55.3404V55.3407V55.3411V55.3414V55.3418V55.3421V55.3424V55.3428V55.3431V55.3435V55.3438V55.3441V55.3445V55.3448V55.3451V55.3455V55.3458V55.3461V55.3465V55.3468V55.3471V55.3474V55.3478V55.3481V55.3484V55.3487V55.3491V55.3494V55.3497V55.35V55.3504V55.3507V55.351V55.3513V55.3516V55.3519V55.3523V55.3526V55.3529V55.3532V55.3535V55.3538V55.3541V55.3544V55.3547V55.3551V55.3554V55.3557V55.356V55.3563V55.3566V55.3569V55.3572V55.3575V55.3578V55.3581V55.3584V55.3587V55.359V55.3593V55.3596V55.3599V55.3602V55.3605V55.3608V55.3611V55.3614V55.3617V55.362V55.3623V55.3626V55.3629V55.3632V55.3635V55.3637V55.364V55.3643V55.3646V55.3649V55.3652V55.3655V55.3658V55.3661V55.3664V55.3666V55.3669V55.3672V55.3675V55.3678V55.3681V55.3684V55.3687V55.3689V55.3692V55.3695V55.3698V55.3701V55.3704V55.3707V55.3709V55.3712V55.3715V55.3718V55.3721V55.3724V55.3726V55.3729V55.3732V55.3735V55.3738V55.3741V55.3743V55.3746V55.3749V55.3752V55.3755V55.3758V55.376V55.3763V55.3766V55.3769V55.3772V55.3774V55.3777V55.378V55.3783V55.3786V55.3789V55.3791V55.3794V55.3797V55.38V55.3803V55.3806V55.3808V55.3811V55.3814V55.3817V55.382V55.3822V55.3825V55.3828V55.3831V55.3834V55.3837V55.3839V55.3842V55.3845V55.3848V55.3851V55.3854V55.3857V55.3859V55.3862V55.3865V55.3868V55.3871V55.3874V55.3877V55.3879V55.3882V55.3885V55.3888V55.3891V55.3894V55.3897V55.39V55.3903V55.3905V55.3908V55.3911V55.3914V55.3917V55.392V55.3923V55.3926V55.3929V55.3932V55.3935V55.3938V55.3941V55.3944V55.3947V55.395V55.3953V55.3956V55.3959V55.3962V55.3965V55.3968V55.3971V55.3974V55.3977V55.398V55.3983V55.3986V55.3989V55.3992V55.3995V55.3998V55.4001V55.4004V55.4007V55.401V55.4013V55.4016V55.402V55.4023V55.4026V55.4029V55.4032V55.4035V55.4038V55.4042V55.4045V55.4048V55.4051V55.4054V55.4057V55.4061V55.4064V55.4067V55.407V55.4074V55.4077V55.408V55.4083V55.4087V55.409V55.4093V55.4097V55.41V55.4103V55.4107V55.411V55.4113V55.4117V55.412V55.4123V55.4127V55.413V55.4134V55.4137V55.414V55.4144V55.4147V55.4151V55.4154V55.4158V55.4161V55.4165V55.4168V55.4172V55.4175V55.4179V55.4183V55.4186V55.419V55.4193V55.4197V55.42V55.4204V55.4208V55.4211V55.4215V55.4219V55.4222V55.4226V55.423V55.4234V55.4237V55.4241V55.4245V55.4249V55.4252V55.4256V55.426V55.4264V55.4268V55.4272V55.4276V55.4279V55.4283V55.4287V55.4291V55.4295V55.4299V55.4303V55.4307V55.4311V55.4315V55.4319V55.4323V55.4327V55.4331V55.4335V55.4339V55.4343V55.4348V55.4352V55.4356V55.436V55.4364V55.4369V55.4373V55.4377V55.4381V55.4385V55.439V55.4394V55.4398V55.4403V55.4407V55.4411V55.4416V55.442V55.4425V55.4429V55.4434V55.4438V55.4442V55.4447V55.4451V55.4456V55.4461V55.4465V55.447V55.4474V55.4479V55.4484V55.4488V55.4493V55.4498V55.4502V55.4507V55.4512V55.4517V55.4521V55.4526V55.4531V55.4536V55.4541V55.4545V55.455V55.4555V55.456V55.4565V55.457V55.4575V55.458V55.4585V55.459V55.4595V55.46V55.4605V55.4611V55.4616V55.4621V55.4626V55.4631V55.4637V55.4642V55.4647V55.4652V55.4658V55.4663V55.4668V55.4674V55.4679V55.4684V55.469V55.4695V55.4701V55.4706V55.4712V55.4717V55.4723V55.4729V55.4734V55.474V84.3494V84.8494H56.4813H62.7709ZM67.7994 43.7835L67.5237 44.0927L67.7454 44.381C67.7455 44.3835 67.7455 44.3861 67.7456 44.3889C67.7465 44.4172 67.7466 44.451 67.7466 44.5013V84.3494V84.4456V84.9456H68.2466H74.5361H75.0361V84.4456V36.4162V34.9455L74.1397 36.1115C72.0747 38.7976 69.9366 41.387 67.7994 43.7835ZM77.9329 36.4559L78.7077 37.3452L78.8081 36.17L80.362 17.9785L80.4211 17.286L79.7457 17.4501L65.0947 21.0114L64.2865 21.2079L64.8391 21.8295L67.5769 24.9095L67.5887 24.9228L67.6014 24.9352C67.6307 24.9638 67.6764 25.0422 67.6822 25.1871C67.6878 25.3253 67.6533 25.4683 67.5949 25.5726C62.8835 33.1355 49.1615 52.3302 21.1104 73.0709L21.5713 73.9454C31.9124 70.3648 56.2858 59.5377 75.2357 33.6314L75.2517 33.6095L75.2653 33.5859C75.2841 33.5532 75.2995 33.5421 75.3042 33.5391C75.3088 33.5362 75.3129 33.5347 75.3195 33.5342C75.3331 33.5333 75.3779 33.5379 75.4334 33.5871L77.9329 36.4559Z" fill="#393939" stroke="#FBFBFB"/>
<circle cx="51.0251" cy="51.0251" r="49.9251" stroke="#FBFBFB" stroke-width="2.2"/>
</svg>
