<svg width="110" height="99" viewBox="0 0 110 99" fill="none" xmlns="http://www.w3.org/2000/svg">
<path d="M63.5664 14.1264L70.6295 4.70898C70.6295 4.70898 102.413 9.41768 109.476 52.9731C110.488 60.057 109.76 87.1499 109.536 94.6145C109.504 95.6927 108.62 96.5286 107.542 96.5286H65.5664C64.4618 96.5286 63.5664 95.6332 63.5664 94.5286V50.2644C63.5664 49.1599 64.4618 48.2644 65.5664 48.2644H89.4642C87.1099 30.6068 72.199 20.0123 63.5664 14.1264Z" fill="#55A354" fill-opacity="0.42"/>
<path d="M7.0625 16.4818L14.1255 7.06445C14.1255 7.06445 45.9093 11.7732 52.9723 55.3286C53.9843 62.4124 53.2563 89.5053 53.0321 96.97C52.9997 98.0481 52.1165 98.8841 51.0379 98.8841H9.0625C7.95793 98.8841 7.0625 97.9886 7.0625 96.8841V52.6199C7.0625 51.5153 7.95793 50.6199 9.0625 50.6199H32.9603C30.606 32.9623 15.6951 22.3677 7.0625 16.4818Z" fill="#55A354" fill-opacity="0.42"/>
<path d="M7.77675 -0.000480652L0 10.587L1.25685 11.3962C14.8204 20.2303 23.4874 31.2561 27.0485 44.2038H6.44135C3.27304 44.2038 0.706973 47.5756 0.706973 51.7229V86.6547C0.706973 90.802 3.27304 94.1738 6.44135 94.1738H43.0995C46.2678 94.1738 48.8339 90.802 48.8339 86.6547V51.7566C48.8339 50.9137 48.7291 50.1044 48.5196 49.2952C47.8388 45.0467 45.6394 34.2907 39.6955 23.9056C32.2591 10.9241 21.733 2.93297 8.379 0.134377L7.77675 -0.000480652ZM3.45633 9.81144L8.5361 2.89925C37.784 9.37311 44.9324 40.4611 46.4511 49.9021L46.5034 50.0707C46.6605 50.6102 46.7391 51.1834 46.7391 51.7229V86.6547C46.7391 89.3184 45.1157 91.4764 43.0995 91.4764H6.44135C4.42515 91.4764 2.80172 89.3184 2.80172 86.6547V51.7566C2.80172 49.0929 4.42515 46.9349 6.44135 46.9349H29.9287L29.5098 45.1816C26.1844 31.1549 17.4388 19.2525 3.45633 9.81144Z" fill="#708236"/>
<path d="M62.474 -0.000480652L54.6973 10.587L55.9541 11.3962C69.5176 20.2303 78.1847 31.2561 81.7457 44.2038H61.1124C57.9441 44.2038 55.3781 47.5756 55.3781 51.7229V86.6547C55.3781 90.802 57.9441 94.1738 61.1124 94.1738H97.7706C100.939 94.1738 103.505 90.802 103.505 86.6547V51.7566C103.505 50.9137 103.4 50.1044 103.191 49.2952C102.51 45.0467 100.31 34.2907 94.3666 23.9056C86.9302 10.9241 76.4041 2.93297 63.0501 0.134377L62.474 -0.000480652ZM58.1536 9.81144L63.2334 2.89925C92.4813 9.37311 99.6297 40.4611 101.148 49.9021L101.201 50.0707C101.358 50.6102 101.436 51.1834 101.436 51.7229V86.6547C101.436 89.3184 99.813 91.4764 97.7968 91.4764H61.1386C59.1224 91.4764 57.499 89.3184 57.499 86.6547V51.7566C57.499 49.0929 59.1224 46.9349 61.1386 46.9349H84.626L84.2071 45.1816C80.8816 31.1549 72.1361 19.2525 58.1536 9.81144Z" fill="#708236"/>
</svg>
