<svg width="110" height="100" viewBox="0 0 110 100" fill="none" xmlns="http://www.w3.org/2000/svg">
<path d="M46.4336 85.7564L39.3705 95.1738C39.3705 95.1738 7.58683 90.4651 0.523785 46.9097C-0.48819 39.8258 0.239754 12.733 0.463997 5.26828C0.496384 4.19013 1.3796 3.35421 2.45823 3.35421H44.4336C45.5382 3.35421 46.4336 4.24964 46.4336 5.35421V49.6184C46.4336 50.7229 45.5382 51.6184 44.4336 51.6184H20.5358C22.8901 69.276 37.801 79.8706 46.4336 85.7564Z" fill="#55A354" fill-opacity="0.42"/>
<path d="M102.938 83.401L95.8745 92.8184C95.8745 92.8184 64.0907 88.1097 57.0277 44.5542C56.0157 37.4704 56.7437 10.3775 56.9679 2.91281C57.0003 1.83466 57.8835 0.998741 58.9621 0.998741H100.938C102.042 0.998741 102.938 1.89417 102.938 2.99874V47.2629C102.938 48.3675 102.042 49.2629 100.937 49.2629H77.0397C79.394 66.9205 94.3049 77.5151 102.938 83.401Z" fill="#55A354" fill-opacity="0.42"/>
<path d="M102.223 99.8833L110 89.2959L108.743 88.4866C95.1796 79.6525 86.5126 68.6267 82.9515 55.679H103.559C106.727 55.679 109.293 52.3072 109.293 48.1599V13.2281C109.293 9.08079 106.727 5.70898 103.559 5.70898H66.9005C63.7322 5.70898 61.1661 9.08079 61.1661 13.2281V48.1262C61.1661 48.9692 61.2709 49.7784 61.4804 50.5876C62.1612 54.8361 64.3606 65.5921 70.3045 75.9773C77.7409 88.9587 88.267 96.9498 101.621 99.7484L102.223 99.8833ZM106.544 90.0714L101.464 96.9836C72.216 90.5097 65.0676 59.4217 63.5489 49.9807L63.4966 49.8121C63.3395 49.2726 63.2609 48.6994 63.2609 48.1599V13.2281C63.2609 10.5644 64.8843 8.40642 66.9005 8.40642H103.559C105.575 8.40642 107.198 10.5644 107.198 13.2281V48.1262C107.198 50.7899 105.575 52.9479 103.559 52.9479H80.0713L80.4902 54.7012C83.8156 68.7279 92.5612 80.6303 106.544 90.0714Z" fill="#708236"/>
<path d="M47.526 99.8833L55.3027 89.2959L54.0459 88.4866C40.4824 79.6525 31.8153 68.6267 28.2543 55.679H48.8876C52.0559 55.679 54.6219 52.3072 54.6219 48.1599V13.2281C54.6219 9.08079 52.0559 5.70898 48.8876 5.70898H12.2294C9.06112 5.70898 6.49505 9.08079 6.49505 13.2281V48.1262C6.49505 48.9692 6.59979 49.7784 6.80927 50.5876C7.49006 54.8361 9.68955 65.5921 15.6334 75.9773C23.0698 88.9587 33.5959 96.9498 46.9499 99.7484L47.526 99.8833ZM51.8464 90.0714L46.7666 96.9836C17.5187 90.5097 10.3703 59.4217 8.85164 49.9807L8.79927 49.8121C8.64217 49.2726 8.56362 48.6994 8.56362 48.1599V13.2281C8.56362 10.5644 10.187 8.40642 12.2032 8.40642H48.8614C50.8776 8.40642 52.501 10.5644 52.501 13.2281V48.1262C52.501 50.7899 50.8776 52.9479 48.8614 52.9479H25.374L25.7929 54.7012C29.1184 68.7279 37.8639 80.6303 51.8464 90.0714Z" fill="#708236"/>
</svg>
