<svg width="28" height="26" viewBox="0 0 28 26" fill="none" xmlns="http://www.w3.org/2000/svg">
<path d="M11.714 6.09455C11.7722 5.91385 11.6729 5.71919 11.49 5.66838C10.4276 5.37327 9.17611 5.2702 6.56736 5.87745C6.12342 5.98079 5.85578 6.37783 5.9587 6.82187C6.18114 7.78154 6.64446 9.42403 7.23765 10.5431C7.50151 11.0408 7.47909 11.7078 7.10555 12.1296C5.82406 13.5764 3.2768 17.0143 3.49247 21.2852C3.50724 21.5777 3.40391 21.8618 3.19058 22.0625C2.83895 22.3933 2.33665 22.9018 2.02633 23.5289C1.85686 23.8714 2.00003 24.2648 2.35655 24.4023C4.81301 25.3498 13.096 25.9235 17.2169 24.4913C17.7284 24.3135 17.9579 23.7067 17.6794 23.2422C17.5011 22.9447 17.2631 22.6401 16.909 22.3673C16.6129 22.1391 16.3968 21.8086 16.3893 21.4349C16.3391 18.9476 15.9037 15.046 12.9176 12.4878C12.4051 12.0487 12.3318 11.2241 12.7473 10.6922C13.4448 9.79911 13.9892 8.76694 14.3199 8.06686C14.5378 7.60537 14.3337 7.06983 13.8502 6.90634C13.3722 6.74471 12.7436 6.58771 12.1182 6.59461C11.8554 6.59751 11.6335 6.34468 11.714 6.09455Z" fill="#55A354" fill-opacity="0.42"/>
<path d="M17.7212 23.313C17.4209 22.2869 16.4362 21.4241 16.0466 21.1137C16.1852 14.662 12.6474 11.4762 11.4717 10.5972C12.1215 9.89475 13.649 8.11909 14.2034 6.41771C14.2481 6.2809 14.2049 6.13157 14.0925 6.03521C14.051 5.99917 13.1178 5.22315 11.059 5.41586C11.0744 5.34084 11.0867 5.26949 11.0967 5.19887C11.1183 5.03631 11.0244 4.87963 10.8665 4.81564C10.7241 4.75679 7.34026 3.39746 4.44995 4.99659C4.32291 5.06573 4.24823 5.19961 4.25823 5.33863C4.26516 5.43646 4.44071 7.69319 6.31856 10.5582C5.19986 11.3784 1.54886 14.5605 1.68899 21.1137C1.2994 21.4241 0.314664 22.2876 0.0143917 23.313C0.000532948 23.3601 -0.00331659 23.4094 0.00284283 23.4579C0.0690567 23.9581 1.06457 25.1203 8.86779 25.1203C16.671 25.1203 17.6665 23.9581 17.7327 23.4579C17.7389 23.4094 17.7351 23.3601 17.7212 23.313ZM8.86779 24.3848C2.53514 24.3848 1.09306 23.5859 0.808958 23.355C1.17852 22.4024 2.298 21.5896 2.30955 21.5808C2.40887 21.5087 2.46661 21.3954 2.46276 21.2748C2.25411 14.7407 6.07835 11.652 6.88754 11.0746C7.21091 11.1952 7.85765 11.3975 8.60294 11.3975C8.86087 11.3975 9.12957 11.3732 9.39905 11.3129C9.60616 11.2666 9.73473 11.0687 9.68546 10.8701C9.63695 10.673 9.43215 10.5457 9.22273 10.5972C8.31576 10.798 7.38722 10.4751 7.10312 10.3633C5.56326 8.08598 5.15212 6.161 5.05434 5.51884C7.11005 4.51626 9.47065 5.12973 10.276 5.39085C10.0134 6.44713 9.10801 7.958 9.098 7.97565C8.99175 8.15071 9.05566 8.37653 9.24044 8.47731C9.42214 8.57808 9.65928 8.51924 9.7663 8.34196C9.80172 8.28312 10.4408 7.21581 10.8265 6.1838C12.2054 5.99255 13.0239 6.28163 13.375 6.46111C12.6389 8.36182 10.6394 10.3788 10.6186 10.4001C10.5393 10.4788 10.5024 10.5884 10.5154 10.6973C10.5285 10.8061 10.5932 10.904 10.6902 10.9628C10.7387 10.993 15.5053 14.0088 15.2728 21.274C15.269 21.3947 15.326 21.5079 15.4268 21.58C15.4391 21.5889 16.5563 22.3972 16.9266 23.3542C16.6425 23.5859 15.2005 24.3848 8.86779 24.3848Z" fill="#393939"/>
<path d="M10.7765 15.6852C10.9482 15.8073 11.1892 15.7757 11.3155 15.6131C11.4441 15.4506 11.4102 15.2211 11.2408 15.099C10.7765 14.7628 10.0366 14.3781 9.25283 14.2295V13.4277C9.25283 13.2255 9.08037 13.06 8.86787 13.06C8.65537 13.06 8.48291 13.2255 8.48291 13.4277V14.1736C7.88544 14.2052 7.30646 14.4281 6.84681 14.9739C6.38485 15.5256 6.39255 16.0199 6.47878 16.3377C6.7344 17.2704 7.96398 17.9177 8.95025 18.2987C9.86031 18.6496 10.3361 18.9651 10.4932 19.3233C10.5879 19.5389 10.5679 19.7948 10.4316 20.106C10.3685 20.2509 10.139 20.4591 9.7017 20.5687C9.27208 20.6761 8.10641 20.8011 6.57349 19.6536C6.40487 19.5286 6.16388 19.5543 6.033 19.7154C5.90211 19.875 5.93137 20.106 6.09844 20.2325C7.00619 20.9122 7.82385 21.2064 8.48291 21.3145V22.1045C8.48291 22.3083 8.65537 22.4723 8.86787 22.4723C9.08037 22.4723 9.25283 22.3083 9.25283 22.1045V21.3616C9.52308 21.3498 9.74944 21.3167 9.89572 21.28C10.4986 21.1306 10.9652 20.7974 11.143 20.3892C11.3586 19.8934 11.3794 19.4396 11.2038 19.0387C10.8943 18.3333 10.0359 17.9236 9.23821 17.6161C8.10872 17.1806 7.3565 16.6334 7.22407 16.1523C7.16171 15.9235 7.23485 15.6882 7.44812 15.4336C8.55374 14.1104 10.755 15.669 10.7765 15.6852Z" fill="#393939"/>
<path d="M25.3051 9.46222C24.9504 9.53956 24.6543 9.7447 24.3829 10.0137C23.6087 10.6829 23.0844 11.9574 22.0295 12.3778C22.011 12.3845 21.9894 12.3946 21.9709 12.4013C21.8907 12.4316 21.8105 12.4551 21.7242 12.472C21.6286 12.4921 21.5391 12.5056 21.4527 12.5089C21.4281 12.5089 21.4034 12.5123 21.3787 12.5123C20.0309 12.5022 20.1172 10.4139 20.623 9.94647C20.623 9.94647 20.586 9.9162 20.5182 9.85231C20.4164 9.75478 20.2468 9.59001 20.0309 9.35461C19.963 9.28062 19.9075 9.19992 19.8643 9.11248C19.488 8.35248 20.071 7.1923 21.5268 7.32009C22.6217 7.41425 24.1269 8.10027 25.3051 9.46222Z" fill="#55A354" fill-opacity="0.42"/>
<path d="M18.0765 14.4883C18.0395 14.4883 18.0117 14.458 18.0117 14.4177C18.0117 11.6467 19.8963 9.07747 22.043 8.91941C22.08 8.91605 22.1108 8.94632 22.1108 8.98667C22.1139 9.02702 22.0862 9.06065 22.0491 9.06065C19.9672 9.21198 18.1382 11.7139 18.1382 14.4177C18.1413 14.4546 18.1135 14.4883 18.0765 14.4883Z" fill="#393939"/>
<path d="M21.0386 12.5137C20.5513 12.5137 20.1812 12.2716 19.9745 11.8042C19.6537 11.0812 19.8234 10.0152 20.1842 9.68223C20.212 9.65533 20.2521 9.66205 20.2768 9.68896C20.3014 9.71922 20.2953 9.76294 20.2706 9.78984C19.9467 10.0891 19.8018 11.0913 20.0948 11.7437C20.2552 12.1068 20.6099 12.5037 21.3841 12.3321C22.2384 12.1472 22.7782 11.4343 23.3025 10.7483C23.8392 10.0421 24.3481 9.37285 25.1501 9.29551C23.8423 7.77214 22.2045 7.12311 21.1836 7.03568C20.2027 6.94824 19.5735 7.46612 19.3854 8.01426C19.2466 8.41444 19.3484 8.81462 19.6476 9.05674C19.6753 9.08028 19.6815 9.124 19.6599 9.15427C19.6383 9.18453 19.5982 9.19126 19.5705 9.16772C19.2219 8.8886 19.1047 8.42789 19.262 7.96382C19.4656 7.36524 20.1441 6.80364 21.1928 6.89444C22.2631 6.9886 23.9934 7.67798 25.3382 9.31232C25.3567 9.3325 25.3598 9.36276 25.3505 9.38967C25.3413 9.41657 25.3166 9.43002 25.2919 9.43338C24.4653 9.44011 23.9502 10.1194 23.4012 10.8424C22.8645 11.5486 22.3094 12.2817 21.4087 12.4768C21.2761 12.5003 21.1527 12.5137 21.0386 12.5137Z" fill="#393939"/>
<path d="M16.7726 8.73637C16.7726 8.73637 16.97 8.53797 17.1334 8.18151C17.2969 7.82505 17.192 7.05832 16.2112 7.13903C15.363 7.20965 14.6413 7.77124 13.46 9.67124C14.3698 9.43584 15.2335 10.902 16.495 10.6095C17.7534 10.3169 17.4758 9.21053 16.7726 8.73637Z" fill="#55A354" fill-opacity="0.42"/>
<path d="M18.3858 12.5643C18.3519 12.5643 18.3211 12.5341 18.3211 12.4971C18.2902 11.3873 17.8769 9.91778 17.0225 9.14433C16.4797 8.65336 15.8104 8.4684 15.03 8.59619C14.9961 8.60291 14.9622 8.57601 14.956 8.53566C14.9499 8.49867 14.9745 8.46167 15.0115 8.45495C15.8289 8.32044 16.5352 8.51212 17.1058 9.03336C18.0496 9.89088 18.4198 11.4311 18.4506 12.4904C18.4506 12.5307 18.4228 12.5643 18.3858 12.5643Z" fill="#393939"/>
<path d="M15.7058 10.8258C15.1044 10.8258 14.5831 10.503 14.1143 10.2104C13.6424 9.91787 13.1951 9.63875 12.7572 9.75309C12.7325 9.75981 12.7047 9.74973 12.6893 9.72282C12.6739 9.69928 12.6739 9.66566 12.6893 9.64212C13.9107 7.67822 14.7435 6.91822 15.7582 6.83078C16.4337 6.77361 16.7113 7.07963 16.8162 7.26459C16.9796 7.55379 16.9426 7.87999 16.8316 8.0784C16.8131 8.11202 16.773 8.12211 16.7421 8.10194C16.7113 8.08176 16.702 8.03804 16.7206 8.00441C16.8069 7.84972 16.8378 7.57397 16.7051 7.33857C16.5509 7.06282 16.2178 6.93167 15.7675 6.96866C14.9625 7.03592 14.1945 7.49999 12.8805 9.58159C13.3123 9.54459 13.7349 9.80353 14.176 10.0793C14.7466 10.4357 15.3388 10.8023 16.0574 10.6342C16.5879 10.5097 16.8994 10.2508 16.958 9.87751C17.0228 9.47734 16.7699 8.99645 16.3443 8.70725C16.3134 8.68707 16.3042 8.64335 16.3227 8.60972C16.3412 8.5761 16.3813 8.56601 16.4121 8.58618C16.8809 8.90229 17.1585 9.44371 17.0845 9.90105C17.0167 10.3281 16.6619 10.6375 16.0821 10.772C15.9556 10.8124 15.8292 10.8258 15.7058 10.8258Z" fill="#393939"/>
<path d="M18.2754 4.54576C17.7141 5.05355 17.9238 5.62523 18.1922 5.7732L18.4975 6.06576C18.5191 6.59373 19.2809 7.15532 19.9965 6.59373C20.7121 6.03213 20.6596 4.61974 21.2919 4.34399C20.4129 4.01779 19.0805 3.81266 18.2754 4.54576Z" fill="#55A354" fill-opacity="0.42"/>
<path d="M17.6647 9.91435C17.6338 9.91435 17.6061 9.88745 17.5999 9.85382C17.4673 8.85506 17.2174 5.51576 19.5276 4.45983C19.5615 4.44638 19.5986 4.46319 19.6109 4.49682C19.6232 4.53381 19.6078 4.57417 19.577 4.58762C17.3531 5.60319 17.5999 8.85842 17.7294 9.83028C17.7356 9.86727 17.7109 9.90426 17.6739 9.91099C17.6708 9.91435 17.6678 9.91435 17.6647 9.91435Z" fill="#393939"/>
<path d="M19.0991 6.83061C18.9356 6.83061 18.7722 6.79025 18.6149 6.70954C18.2972 6.5414 18.0843 6.23538 18.072 5.92264C18.0689 5.88229 18.0967 5.85202 18.1337 5.84866C18.1707 5.84529 18.1985 5.87556 18.2015 5.91591C18.2139 6.17149 18.402 6.43715 18.6735 6.58176C19.0158 6.76335 19.4106 6.71291 19.753 6.44388C20.1293 6.14795 20.3051 5.63007 20.4747 5.12901C20.6289 4.67839 20.7739 4.25131 21.0546 4.03609C20.4223 3.82423 18.8801 3.4375 17.9332 4.29839C17.671 4.53715 17.5415 4.81627 17.5723 5.08866C17.5939 5.2837 17.6957 5.45857 17.8314 5.53255C17.8623 5.54937 17.8777 5.59308 17.8592 5.62671C17.8438 5.66034 17.8037 5.67715 17.7728 5.65698C17.597 5.56282 17.4675 5.34423 17.4428 5.10211C17.4243 4.91715 17.449 4.5506 17.8499 4.18742C18.9295 3.20547 20.7184 3.75697 21.2396 3.95202C21.2643 3.96211 21.2828 3.98901 21.2828 4.01591C21.2828 4.04618 21.2674 4.07308 21.2427 4.08317C20.9189 4.22441 20.7616 4.68512 20.595 5.17609C20.4254 5.67379 20.2341 6.23538 19.827 6.55485C19.5988 6.73981 19.3458 6.83061 19.0991 6.83061Z" fill="#393939"/>
<mask id="path-13-inside-1" fill="white">
<path d="M19.2008 20.4852C20.7807 20.0707 22.2387 19.2847 23.4534 18.1927C24.6681 17.1007 25.6043 15.7343 26.184 14.2073C26.7638 12.6803 26.9703 11.0368 26.7865 9.41383C26.6026 7.79083 26.0336 6.23526 25.1269 4.87665C24.2201 3.51805 23.002 2.39574 21.5737 1.60318C20.1455 0.810634 18.5486 0.370782 16.916 0.320259C15.2834 0.269737 13.6624 0.610007 12.1879 1.31273C10.7134 2.01546 9.42814 3.06029 8.43915 4.36023L9.10415 4.86616C10.0125 3.67216 11.193 2.71248 12.5474 2.06702C13.9017 1.42157 15.3906 1.10903 16.8902 1.15544C18.3897 1.20184 19.8565 1.60585 21.1683 2.33381C22.4801 3.06177 23.599 4.09261 24.4318 5.34049C25.2647 6.58837 25.7873 8.01717 25.9562 9.5079C26.1251 10.9986 25.9354 12.5081 25.4029 13.9107C24.8704 15.3133 24.0104 16.5683 22.8948 17.5713C21.7791 18.5743 20.4399 19.2963 18.9887 19.677L19.2008 20.4852Z"/>
</mask>
<path d="M19.2008 20.4852C20.7807 20.0707 22.2387 19.2847 23.4534 18.1927C24.6681 17.1007 25.6043 15.7343 26.184 14.2073C26.7638 12.6803 26.9703 11.0368 26.7865 9.41383C26.6026 7.79083 26.0336 6.23526 25.1269 4.87665C24.2201 3.51805 23.002 2.39574 21.5737 1.60318C20.1455 0.810634 18.5486 0.370782 16.916 0.320259C15.2834 0.269737 13.6624 0.610007 12.1879 1.31273C10.7134 2.01546 9.42814 3.06029 8.43915 4.36023L9.10415 4.86616C10.0125 3.67216 11.193 2.71248 12.5474 2.06702C13.9017 1.42157 15.3906 1.10903 16.8902 1.15544C18.3897 1.20184 19.8565 1.60585 21.1683 2.33381C22.4801 3.06177 23.599 4.09261 24.4318 5.34049C25.2647 6.58837 25.7873 8.01717 25.9562 9.5079C26.1251 10.9986 25.9354 12.5081 25.4029 13.9107C24.8704 15.3133 24.0104 16.5683 22.8948 17.5713C21.7791 18.5743 20.4399 19.2963 18.9887 19.677L19.2008 20.4852Z" stroke="#393939" stroke-width="2.6" strokeLinecap="round" stroke-linejoin="round" mask="url(#path-13-inside-1)"/>
<line x1="19.9774" y1="17.3373" x2="19.0874" y2="20.0073" stroke="#393939" strokeLinecap="round"/>
<line x1="21.5675" y1="21.6316" x2="18.967" y2="20.5553" stroke="#393939" strokeLinecap="round"/>
<line x1="15.3945" y1="14.3389" x2="20.8225" y2="14.3389" stroke="#393939" stroke-width="0.3"/>
</svg>
