<svg width="29" height="29" viewBox="0 0 29 29" fill="none" xmlns="http://www.w3.org/2000/svg">
<path d="M18.8294 0C13.2401 0 8.65877 4.58136 8.65877 10.1706C8.65877 12.5529 9.57504 14.8436 11.0411 16.5845L8.75039 18.7836C8.01738 18.5087 7.1011 18.6919 6.45971 19.3333L0.687204 25.1058C-0.229069 26.0221 -0.229069 27.4882 0.687204 28.3128C1.51185 29.2291 2.97788 29.2291 3.89416 28.3128L9.66667 22.5403C10.3081 21.8989 10.4913 20.9826 10.2164 20.2496L12.4155 17.9589C14.1564 19.425 16.4471 20.3412 18.8294 20.3412C24.4186 20.3412 29 15.7599 29 10.1706C29 4.58136 24.4186 0 18.8294 0ZM18.8294 2.0158C23.3191 2.0158 26.9842 5.68088 26.9842 10.1706C26.9842 14.6603 23.3191 18.3254 18.8294 18.3254C14.3397 18.3254 10.6746 14.6603 10.6746 10.1706C10.6746 5.68088 14.3397 2.0158 18.8294 2.0158Z" fill="#708236"/>
</svg>
