<svg width="32" height="29" viewBox="0 0 32 29" fill="none" xmlns="http://www.w3.org/2000/svg">
<path fill-rule="evenodd" clip-rule="evenodd" d="M14.5866 0.960938C22.1412 0.960938 27.9358 6.94594 28.6151 14.0578H31.207L27.5032 17.7178L23.4606 14.0578H26.0819C25.4339 8.00344 20.7043 2.88656 14.4594 2.88656C7.77987 2.88656 2.34348 8.30156 2.34348 14.9559C2.34348 21.6103 7.77987 27.0272 14.4594 27.0272C17.7776 27.0272 20.7865 25.6903 22.9751 23.5303L24.5824 25.0791C21.8988 27.5594 18.316 28.9472 14.5866 28.9509C6.57592 28.9509 0.0628223 22.6716 0.0628223 14.9559C0.0628223 7.24031 6.57592 0.960938 14.5866 0.960938Z" fill="#FBFBFB"/>
</svg>
