<svg width="31" height="29" viewBox="0 0 31 29" fill="none" xmlns="http://www.w3.org/2000/svg">
<path fill-rule="evenodd" clip-rule="evenodd" d="M14.1304 0.960938C21.4489 0.960938 27.0624 6.94594 27.7205 14.0578H30.2314L26.6433 17.7178L22.7271 14.0578H25.2665C24.6388 8.00344 20.0569 2.88656 14.0071 2.88656C7.53638 2.88656 2.26988 8.30156 2.26988 14.9559C2.26988 21.6103 7.53638 27.0272 14.0071 27.0272C17.2217 27.0272 20.1365 25.6903 22.2568 23.5303L23.8138 25.0791C21.2141 27.5594 17.7432 28.9472 14.1304 28.9509C6.37005 28.9509 0.0604935 22.6716 0.0604935 14.9559C0.0604935 7.24031 6.37005 0.960938 14.1304 0.960938Z" fill="#393939"/>
</svg>
