<svg width="75" height="12" viewBox="0 0 75 12" fill="none" xmlns="http://www.w3.org/2000/svg">
<path d="M43.6495 5.44248C43.7952 5.33746 43.9034 5.19094 43.9587 5.02348C44.014 4.85602 44.0138 4.67601 43.958 4.50869C43.9022 4.34138 43.7937 4.19514 43.6476 4.0905C43.5016 3.98585 43.3253 3.92804 43.1436 3.92517L39.6139 3.7962C39.5965 3.79504 39.5799 3.78905 39.566 3.77895C39.5521 3.76886 39.5415 3.75509 39.5354 3.7393L38.3157 0.55293C38.2545 0.39082 38.1432 0.250839 37.9969 0.151939C37.8506 0.0530403 37.6765 0 37.498 0C37.3196 0 37.1454 0.0530403 36.9992 0.151939C36.8529 0.250839 36.7416 0.39082 36.6803 0.55293L35.4646 3.75068C35.4585 3.76647 35.4479 3.78024 35.434 3.79033C35.4201 3.80043 35.4035 3.80642 35.3861 3.80758L31.8564 3.93655C31.6747 3.93942 31.4984 3.99723 31.3524 4.10188C31.2063 4.20652 31.0978 4.35276 31.042 4.52007C30.9862 4.68739 30.986 4.8674 31.0413 5.03486C31.0966 5.20232 31.2048 5.34884 31.3505 5.45386L34.1194 7.55914C34.1332 7.56969 34.1436 7.58393 34.1491 7.60011C34.1547 7.6163 34.1553 7.6337 34.1507 7.65018L33.1977 10.9162C33.1483 11.0825 33.1531 11.2595 33.2114 11.4231C33.2697 11.5867 33.3787 11.7289 33.5236 11.8305C33.6684 11.932 33.8421 11.988 34.021 11.9907C34.1999 11.9934 34.3753 11.9427 34.5233 11.8456L37.449 9.94892C37.4634 9.93929 37.4805 9.93414 37.498 9.93414C37.5156 9.93414 37.5327 9.93929 37.5471 9.94892L40.4728 11.8456C40.6188 11.946 40.7936 12 40.9728 12C41.152 12 41.3268 11.946 41.4728 11.8456C41.6177 11.745 41.7268 11.6034 41.7851 11.4404C41.8434 11.2773 41.848 11.1009 41.7984 10.9352L40.8375 7.65777C40.8324 7.64131 40.8327 7.62374 40.8383 7.60745C40.8439 7.59116 40.8546 7.57694 40.8689 7.56673L43.6495 5.44248ZM40.0806 7.84364L41.0414 11.121C41.0493 11.1386 41.0507 11.1581 41.0454 11.1765C41.0401 11.1949 41.0284 11.211 41.0124 11.2221C40.9963 11.2331 40.9768 11.2386 40.9572 11.2375C40.9375 11.2363 40.9188 11.2287 40.9042 11.2159L37.9785 9.31923C37.8349 9.22522 37.6655 9.17501 37.4922 9.17509V0.761561C37.5106 0.760111 37.529 0.765029 37.5441 0.775444C37.5592 0.785858 37.5699 0.801097 37.5745 0.818461L38.7942 4.00862C38.8533 4.16585 38.9595 4.30249 39.0992 4.40113C39.2389 4.49977 39.4058 4.55592 39.5786 4.56244L43.1083 4.69141C43.1267 4.69112 43.1448 4.69657 43.1598 4.70694C43.1748 4.71732 43.186 4.73208 43.1917 4.74906C43.1974 4.76604 43.1973 4.78434 43.1915 4.80127C43.1857 4.81821 43.1744 4.83288 43.1593 4.84314L40.3904 6.94842C40.2518 7.05028 40.1481 7.19016 40.0928 7.34984C40.0376 7.50951 40.0333 7.68158 40.0806 7.84364Z" fill="#E5BC28"/>
<path d="M74.9454 4.50597C74.8833 4.32042 74.769 4.15504 74.6152 4.02814C74.4614 3.90123 74.2741 3.81775 74.0741 3.78694L70.9349 3.29606L69.4796 0.57509C69.3869 0.401869 69.2464 0.256563 69.0736 0.155115C68.9007 0.053668 68.7021 0 68.4996 0C68.2971 0 68.0985 0.053668 67.9257 0.155115C67.7528 0.256563 67.6123 0.401869 67.5196 0.57509L66.0644 3.29606L62.9252 3.78694C62.7254 3.81824 62.5383 3.9019 62.3846 4.02875C62.2309 4.15559 62.1165 4.32073 62.054 4.50602C61.9914 4.69132 61.9831 4.88961 62.0299 5.07916C62.0768 5.2687 62.177 5.44217 62.3195 5.58053L64.5593 7.75305L64.0745 10.7774C64.0434 10.97 64.0681 11.1672 64.1459 11.3471C64.2237 11.5271 64.3516 11.683 64.5155 11.7976C64.6794 11.9122 64.873 11.981 65.075 11.9966C65.2769 12.0122 65.4794 11.9739 65.6602 11.8859L68.4996 10.5076L71.3391 11.8859C71.5199 11.9737 71.7224 12.0119 71.9242 11.9962C72.1261 11.9806 72.3196 11.9117 72.4834 11.7971C72.6473 11.6826 72.7752 11.5268 72.853 11.3469C72.9309 11.167 72.9557 10.97 72.9248 10.7774L72.44 7.75305L74.6798 5.58053C74.8228 5.44244 74.9233 5.26897 74.9702 5.07932C75.0171 4.88966 75.0085 4.69123 74.9454 4.50597ZM74.0644 4.99328L71.5167 7.46447L72.0682 10.9046C72.0751 10.9458 72.0699 10.988 72.0533 11.0265C72.0368 11.0651 72.0094 11.0985 71.9743 11.123C71.9393 11.1475 71.8978 11.1622 71.8546 11.1655C71.8114 11.1687 71.768 11.1604 71.7294 11.1414L68.4996 9.57361L65.2698 11.1414C65.2312 11.1604 65.1878 11.1688 65.1446 11.1655C65.1014 11.1623 65.0599 11.1476 65.0248 11.1231C64.9898 11.0985 64.9624 11.0651 64.9459 11.0266C64.9293 10.988 64.9241 10.9458 64.931 10.9046L65.4825 7.46447L62.9348 4.99325C62.9044 4.96368 62.883 4.92662 62.873 4.88613C62.863 4.84564 62.8648 4.80328 62.8782 4.76371C62.8916 4.72413 62.916 4.68886 62.9488 4.66175C62.9816 4.63464 63.0215 4.61674 63.0642 4.61002L66.6349 4.05167L68.2902 0.956678C68.31 0.919656 68.34 0.888598 68.377 0.866914C68.4139 0.84523 68.4563 0.833758 68.4996 0.833758C68.5429 0.833758 68.5853 0.84523 68.6222 0.866914C68.6592 0.888598 68.6892 0.919656 68.709 0.956678L70.3643 4.05167L73.935 4.61002C73.9777 4.61674 74.0176 4.63464 74.0504 4.66175C74.0832 4.68886 74.1077 4.72413 74.121 4.76371C74.1344 4.80328 74.1362 4.84564 74.1262 4.88613C74.1162 4.92662 74.0948 4.96368 74.0644 4.99325L74.0644 4.99328Z" fill="#E6BC28"/>
<path d="M58.9454 4.50597C58.8833 4.32042 58.769 4.15504 58.6152 4.02814C58.4614 3.90123 58.2741 3.81775 58.0741 3.78694L54.9349 3.29606L53.4796 0.57509C53.3869 0.401869 53.2464 0.256563 53.0736 0.155115C52.9007 0.053668 52.7021 0 52.4996 0C52.2971 0 52.0985 0.053668 51.9257 0.155115C51.7528 0.256563 51.6123 0.401869 51.5196 0.57509L50.0644 3.29606L46.9252 3.78694C46.7254 3.81824 46.5383 3.9019 46.3846 4.02875C46.2309 4.15559 46.1165 4.32073 46.054 4.50602C45.9914 4.69132 45.9831 4.88961 46.0299 5.07916C46.0768 5.2687 46.177 5.44217 46.3195 5.58053L48.5593 7.75305L48.0745 10.7774C48.0434 10.97 48.0681 11.1672 48.1459 11.3471C48.2237 11.5271 48.3516 11.683 48.5155 11.7976C48.6794 11.9122 48.873 11.981 49.075 11.9966C49.2769 12.0122 49.4794 11.9739 49.6602 11.8859L52.4996 10.5076L55.3391 11.8859C55.5199 11.9737 55.7224 12.0119 55.9242 11.9962C56.1261 11.9806 56.3196 11.9117 56.4834 11.7971C56.6473 11.6826 56.7752 11.5268 56.853 11.3469C56.9309 11.167 56.9557 10.97 56.9248 10.7774L56.44 7.75305L58.6798 5.58053C58.8228 5.44244 58.9233 5.26897 58.9702 5.07932C59.0171 4.88966 59.0085 4.69123 58.9454 4.50597ZM58.0644 4.99328L55.5167 7.46447L56.0682 10.9046C56.0751 10.9458 56.0699 10.988 56.0533 11.0265C56.0368 11.0651 56.0094 11.0985 55.9743 11.123C55.9393 11.1475 55.8978 11.1622 55.8546 11.1655C55.8114 11.1687 55.768 11.1604 55.7294 11.1414L52.4996 9.57361L49.2698 11.1414C49.2312 11.1604 49.1878 11.1688 49.1446 11.1655C49.1014 11.1623 49.0599 11.1476 49.0248 11.1231C48.9898 11.0985 48.9624 11.0651 48.9459 11.0266C48.9293 10.988 48.9241 10.9458 48.931 10.9046L49.4825 7.46447L46.9348 4.99325C46.9044 4.96368 46.883 4.92662 46.873 4.88613C46.863 4.84564 46.8648 4.80328 46.8782 4.76371C46.8916 4.72413 46.916 4.68886 46.9488 4.66175C46.9816 4.63464 47.0215 4.61674 47.0642 4.61002L50.6349 4.05167L52.2902 0.956678C52.31 0.919656 52.34 0.888598 52.377 0.866914C52.4139 0.84523 52.4563 0.833758 52.4996 0.833758C52.5429 0.833758 52.5853 0.84523 52.6222 0.866914C52.6592 0.888598 52.6892 0.919656 52.709 0.956678L54.3643 4.05167L57.935 4.61002C57.9777 4.61674 58.0176 4.63464 58.0504 4.66175C58.0832 4.68886 58.1077 4.72413 58.121 4.76371C58.1344 4.80328 58.1362 4.84564 58.1262 4.88613C58.1162 4.92662 58.0948 4.96368 58.0644 4.99325L58.0644 4.99328Z" fill="#E6BC28"/>
<path d="M27.6495 5.44249C27.7952 5.33746 27.9034 5.19094 27.9587 5.02348C28.014 4.85602 28.0138 4.67601 27.958 4.50869C27.9022 4.34138 27.7937 4.19514 27.6476 4.0905C27.5016 3.98585 27.3253 3.92804 27.1436 3.92517L23.6139 3.7962C23.5965 3.79504 23.5799 3.78905 23.566 3.77895C23.5521 3.76886 23.5415 3.75509 23.5354 3.7393L22.3157 0.55293C22.2545 0.39082 22.1432 0.250839 21.9969 0.15194C21.8506 0.0530403 21.6765 0 21.498 0C21.3196 0 21.1454 0.0530403 20.9992 0.15194C20.8529 0.250839 20.7416 0.39082 20.6803 0.55293L19.4646 3.75068C19.4585 3.76647 19.4479 3.78024 19.434 3.79033C19.4201 3.80043 19.4035 3.80642 19.3861 3.80758L15.8564 3.93655C15.6747 3.93942 15.4984 3.99723 15.3524 4.10188C15.2063 4.20652 15.0978 4.35276 15.042 4.52007C14.9862 4.68739 14.986 4.8674 15.0413 5.03486C15.0966 5.20232 15.2048 5.34884 15.3505 5.45386L18.1194 7.55914C18.1332 7.56969 18.1436 7.58393 18.1491 7.60012C18.1547 7.6163 18.1553 7.6337 18.1507 7.65018L17.1977 10.9162C17.1483 11.0825 17.1531 11.2595 17.2114 11.4231C17.2697 11.5867 17.3787 11.7289 17.5236 11.8305C17.6684 11.932 17.8421 11.988 18.021 11.9907C18.1999 11.9934 18.3753 11.9427 18.5233 11.8456L21.449 9.94892C21.4634 9.93929 21.4805 9.93414 21.498 9.93414C21.5156 9.93414 21.5327 9.93929 21.5471 9.94892L24.4728 11.8456C24.6188 11.946 24.7936 12 24.9728 12C25.152 12 25.3268 11.946 25.4728 11.8456C25.6177 11.745 25.7268 11.6034 25.7851 11.4404C25.8434 11.2774 25.848 11.1009 25.7984 10.9352L24.8375 7.65777C24.8324 7.64132 24.8327 7.62374 24.8383 7.60745C24.8439 7.59116 24.8546 7.57694 24.8689 7.56673L27.6495 5.44249Z" fill="#E6BC28"/>
<path d="M12.6495 5.44248C12.7952 5.33746 12.9034 5.19094 12.9587 5.02348C13.014 4.85602 13.0138 4.67601 12.958 4.50869C12.9022 4.34138 12.7937 4.19514 12.6476 4.0905C12.5016 3.98585 12.3253 3.92804 12.1436 3.92517L8.61388 3.7962C8.59653 3.79504 8.57989 3.78905 8.56598 3.77895C8.55206 3.76886 8.54146 3.75509 8.53545 3.7393L7.31575 0.55293C7.25447 0.39082 7.14316 0.250839 6.9969 0.151939C6.85064 0.0530403 6.6765 0 6.49804 0C6.31958 0 6.14543 0.0530403 5.99918 0.151939C5.85292 0.250839 5.74161 0.39082 5.68033 0.55293L4.46455 3.75068C4.45854 3.76647 4.44794 3.78024 4.43402 3.79033C4.42011 3.80043 4.40347 3.80642 4.38611 3.80758L0.856436 3.93655C0.674699 3.93942 0.498448 3.99723 0.352396 4.10188C0.206343 4.20652 0.0978141 4.35276 0.0420256 4.52007C-0.013763 4.68739 -0.0140133 4.8674 0.0413097 5.03486C0.0966328 5.20232 0.204755 5.34884 0.350516 5.45386L3.11935 7.55914C3.13321 7.56969 3.14357 7.58393 3.14914 7.60011C3.15472 7.6163 3.15527 7.6337 3.15073 7.65018L2.19771 10.9162C2.14833 11.0825 2.15311 11.2595 2.21142 11.4231C2.26972 11.5867 2.37871 11.7289 2.52356 11.8305C2.66841 11.932 2.84209 11.988 3.02097 11.9907C3.19985 11.9934 3.37525 11.9427 3.5233 11.8456L6.44902 9.94892C6.46343 9.93929 6.48053 9.93414 6.49804 9.93414C6.51555 9.93414 6.53265 9.93929 6.54706 9.94892L9.47277 11.8456C9.61882 11.946 9.79359 12 9.97281 12C10.152 12 10.3268 11.946 10.4728 11.8456C10.6177 11.745 10.7268 11.6034 10.7851 11.4404C10.8434 11.2773 10.848 11.1009 10.7984 10.9352L9.83751 7.65777C9.83242 7.64131 9.8327 7.62374 9.83831 7.60745C9.84393 7.59116 9.8546 7.57694 9.86888 7.56673L12.6495 5.44248Z" fill="#E6BC28"/>
</svg>
