<svg width="70" height="99" viewBox="0 0 70 99" fill="none" xmlns="http://www.w3.org/2000/svg">
<path fill-rule="evenodd" clip-rule="evenodd" d="M35.1743 0C45.3889 0 65.8184 6.80975 69.2233 28.9414C73.4858 51.6748 46.9168 86.2665 38.0107 97.088C36.507 98.9151 33.802 98.9378 32.2626 97.1406C22.8082 86.1024 -6.01798 49.8246 1.12559 25.5365C4.53092 15.3219 18.1499 0 35.1743 0ZM35.1744 45.966C40.8158 45.966 45.389 41.3928 45.389 35.7514C45.389 30.11 40.8158 25.5368 35.1744 25.5368C29.533 25.5368 24.9598 30.11 24.9598 35.7514C24.9598 41.3928 29.533 45.966 35.1744 45.966Z" fill="#55A354" fill-opacity="0.42"/>
</svg>
