<svg width="65" height="65" viewBox="0 0 65 65" fill="none" xmlns="http://www.w3.org/2000/svg">
<mask id="path-1-inside-1_274:20223" fill="white">
<path fill-rule="evenodd" clip-rule="evenodd" d="M32.5 65C50.4493 65 65 50.4493 65 32.5C65 14.5507 50.4493 0 32.5 0C14.5507 0 0 14.5507 0 32.5C0 50.4493 14.5507 65 32.5 65ZM19.2604 29.2603C19.2604 22.4183 24.6938 16.8518 31.3716 16.8518C38.0497 16.8518 43.4831 22.4183 43.4838 29.2603C43.4838 31.045 43.1276 32.7489 42.4246 34.3253C39.3954 41.1145 33.5897 48.2814 31.8827 50.3158C31.7547 50.4679 31.5682 50.5555 31.3719 50.5555C31.1756 50.5555 30.9891 50.4679 30.8612 50.3158C29.1535 48.2811 23.3477 41.1138 20.3196 34.3253C19.6169 32.7489 19.2604 31.045 19.2604 29.2603ZM25.2982 28.7874C25.2982 32.2717 28.1333 35.1066 31.6177 35.1066C35.1024 35.1066 37.9374 32.2717 37.9371 28.7874C37.9371 25.3027 35.102 22.4678 31.6177 22.4678C28.1333 22.4678 25.2982 25.3027 25.2982 28.7874Z"/>
</mask>
<path fill-rule="evenodd" clip-rule="evenodd" d="M32.5 65C50.4493 65 65 50.4493 65 32.5C65 14.5507 50.4493 0 32.5 0C14.5507 0 0 14.5507 0 32.5C0 50.4493 14.5507 65 32.5 65ZM19.2604 29.2603C19.2604 22.4183 24.6938 16.8518 31.3716 16.8518C38.0497 16.8518 43.4831 22.4183 43.4838 29.2603C43.4838 31.045 43.1276 32.7489 42.4246 34.3253C39.3954 41.1145 33.5897 48.2814 31.8827 50.3158C31.7547 50.4679 31.5682 50.5555 31.3719 50.5555C31.1756 50.5555 30.9891 50.4679 30.8612 50.3158C29.1535 48.2811 23.3477 41.1138 20.3196 34.3253C19.6169 32.7489 19.2604 31.045 19.2604 29.2603ZM25.2982 28.7874C25.2982 32.2717 28.1333 35.1066 31.6177 35.1066C35.1024 35.1066 37.9374 32.2717 37.9371 28.7874C37.9371 25.3027 35.102 22.4678 31.6177 22.4678C28.1333 22.4678 25.2982 25.3027 25.2982 28.7874Z" fill="#000"/>
<path d="M43.4838 29.2603H43.6838V29.2603L43.4838 29.2603ZM42.4246 34.3253L42.6072 34.4067L42.6073 34.4067L42.4246 34.3253ZM31.8827 50.3158L32.0357 50.4445L32.0359 50.4444L31.8827 50.3158ZM30.8612 50.3158L30.708 50.4444L30.7081 50.4445L30.8612 50.3158ZM20.3196 34.3253L20.1369 34.4067L20.1369 34.4067L20.3196 34.3253ZM37.9371 28.7874H37.7371V28.7874L37.9371 28.7874ZM64.8 32.5C64.8 50.3388 50.3388 64.8 32.5 64.8V65.2C50.5597 65.2 65.2 50.5597 65.2 32.5H64.8ZM32.5 0.2C50.3388 0.2 64.8 14.6612 64.8 32.5H65.2C65.2 14.4403 50.5597 -0.2 32.5 -0.2V0.2ZM0.2 32.5C0.2 14.6612 14.6612 0.2 32.5 0.2V-0.2C14.4403 -0.2 -0.2 14.4403 -0.2 32.5H0.2ZM32.5 64.8C14.6612 64.8 0.2 50.3388 0.2 32.5H-0.2C-0.2 50.5597 14.4403 65.2 32.5 65.2V64.8ZM31.3716 16.6518C24.5788 16.6518 19.0604 22.3124 19.0604 29.2603H19.4604C19.4604 22.5242 24.8088 17.0518 31.3716 17.0518V16.6518ZM43.6838 29.2603C43.6831 22.3124 38.1647 16.6518 31.3716 16.6518V17.0518C37.9347 17.0518 43.2831 22.5242 43.2838 29.2603L43.6838 29.2603ZM42.6073 34.4067C43.3221 32.8039 43.6838 31.0721 43.6838 29.2603H43.2838C43.2838 31.0179 42.9331 32.694 42.2419 34.2438L42.6073 34.4067ZM32.0359 50.4444C33.7432 48.4095 39.5656 41.2239 42.6072 34.4067L42.242 34.2438C39.2253 41.005 33.4361 48.1533 31.7295 50.1873L32.0359 50.4444ZM31.3719 50.7555C31.6282 50.7555 31.8704 50.6411 32.0357 50.4445L31.7296 50.1871C31.6391 50.2947 31.5082 50.3555 31.3719 50.3555V50.7555ZM30.7081 50.4445C30.8735 50.6411 31.1157 50.7555 31.3719 50.7555V50.3555C31.2356 50.3555 31.1048 50.2947 31.0142 50.1871L30.7081 50.4445ZM20.1369 34.4067C23.1775 41.2233 28.9999 48.4092 30.708 50.4444L31.0144 50.1872C29.3071 48.153 23.5179 41.0043 20.5022 34.2438L20.1369 34.4067ZM19.0604 29.2603C19.0604 31.0721 19.4224 32.8039 20.1369 34.4067L20.5023 34.2438C19.8114 32.694 19.4604 31.0179 19.4604 29.2603H19.0604ZM31.6177 34.9066C28.2437 34.9066 25.4982 32.1612 25.4982 28.7874H25.0982C25.0982 32.3821 28.0228 35.3066 31.6177 35.3066V34.9066ZM37.7371 28.7874C37.7374 32.1612 34.9919 34.9066 31.6177 34.9066V35.3066C35.2128 35.3066 38.1375 32.3821 38.1371 28.7874L37.7371 28.7874ZM31.6177 22.6678C34.9916 22.6678 37.7371 25.4132 37.7371 28.7874H38.1371C38.1371 25.1923 35.2125 22.2678 31.6177 22.2678V22.6678ZM25.4982 28.7874C25.4982 25.4132 28.2437 22.6678 31.6177 22.6678V22.2678C28.0228 22.2678 25.0982 25.1923 25.0982 28.7874H25.4982Z" fill="black" mask="url(#path-1-inside-1_274:20223)"/>
</svg>
