<svg width="81" height="75" viewBox="0 0 81 75" fill="none" xmlns="http://www.w3.org/2000/svg">
<path d="M75.0034 0.00767918C74.0031 0.0827015 73.0212 0.324618 72.0961 0.72399H72.0836C71.1955 1.08696 66.9732 2.91789 60.554 5.6932L37.551 15.6798C21.045 22.8429 4.81946 29.8968 4.81946 29.8968L5.01265 29.8197C5.01265 29.8197 3.89397 30.1988 2.72544 31.0243C2.00352 31.4978 1.38231 32.1174 0.899401 32.8456C0.326039 33.7129 -0.135144 35.0395 0.0362416 36.4111C0.316691 38.7303 1.77503 40.1211 2.82203 40.8888C3.88151 41.6662 4.89113 42.0291 4.89113 42.0291H4.91605L20.132 47.3132C20.8144 49.5713 24.7687 62.9724 25.7191 66.0593C26.28 67.9031 26.8254 69.0563 27.5078 69.9364C27.8381 70.3861 28.2245 70.7619 28.6888 71.0639C28.9302 71.2086 29.1875 71.3229 29.4553 71.4044L29.2995 71.3658C29.3463 71.3787 29.3837 71.4172 29.418 71.4301C29.5426 71.4654 29.6267 71.4782 29.7857 71.5039C32.1944 72.2556 34.1295 70.7137 34.1295 70.7137L34.2386 70.6238L43.2223 62.1919L58.2793 74.0994L58.622 74.2503C61.76 75.6701 64.9384 74.8799 66.618 73.4858C68.31 72.0821 68.9675 70.2865 68.9675 70.2865L69.0766 69.9974L80.7121 8.55202C81.0424 7.03588 81.1265 5.61611 80.7619 4.23809C80.3859 2.84346 79.5179 1.64398 78.3283 0.874961C77.3293 0.24896 76.1709 -0.053196 75.0034 0.00767918ZM74.6887 6.59261C74.6762 6.79497 74.7136 6.77249 74.6263 7.16116V7.19649L63.0999 68.0027C63.05 68.0894 62.9659 68.2789 62.7353 68.4684C62.4922 68.6676 62.299 68.7929 61.2863 68.3785L42.8702 53.8242L31.7457 64.2766L34.0828 48.8903L64.1718 19.9809C65.412 18.7924 64.9976 18.5418 64.9976 18.5418C65.0848 17.0835 63.1248 18.1146 63.1248 18.1146L25.1832 42.3439L25.1707 42.2797L6.98515 35.9678V35.955L6.93841 35.9453C6.97028 35.9344 7.0015 35.9215 7.03189 35.9068L7.1316 35.8554L7.2282 35.82C7.2282 35.82 23.4662 28.7661 39.9722 21.603C48.2361 18.015 56.5623 14.4014 62.9659 11.6132C69.3695 8.84112 74.1028 6.80782 74.3708 6.69861C74.6263 6.59582 74.5048 6.59582 74.6887 6.59582V6.59261Z" fill="#708236"/>
</svg>
