<svg width="30" height="30" viewBox="0 0 30 30" fill="none" xmlns="http://www.w3.org/2000/svg">
<path fill-rule="evenodd" clip-rule="evenodd" d="M20.5542 8.87775C21.1328 11.3301 19.8963 13.8467 17.5731 14.9455C21.0705 15.9867 23.4613 19.1297 23.4662 22.693V24.043C23.4662 24.2916 23.2594 24.493 23.0043 24.493C22.7492 24.493 22.5425 24.2916 22.5425 24.043V22.693C22.5425 18.7166 19.2341 15.493 15.153 15.493C11.0719 15.493 7.76353 18.7166 7.76353 22.693V24.043C7.76353 24.2916 7.55675 24.493 7.30169 24.493C7.04662 24.493 6.83984 24.2916 6.83984 24.043V22.693C6.84472 19.1297 9.23546 15.9867 12.7329 14.9455C10.4097 13.8467 9.17321 11.3301 9.75176 8.87775C10.3303 6.42544 12.5705 4.6875 15.153 4.6875C17.7355 4.6875 19.9757 6.42544 20.5542 8.87775ZM15.1531 5.59303C12.6024 5.59303 10.5346 7.60775 10.5346 10.093C10.5375 12.5772 12.6036 14.5903 15.1531 14.593C17.7037 14.593 19.7715 12.5783 19.7715 10.093C19.7715 7.60775 17.7037 5.59303 15.1531 5.59303Z" fill="#708236"/>
<circle cx="15" cy="15" r="14" stroke="#708236" stroke-width="2"/>
</svg>
