<svg width="114" height="108" viewBox="0 0 114 108" fill="none" xmlns="http://www.w3.org/2000/svg">
<circle cx="65.8274" cy="59.845" r="47.8743" fill="#708236"/>
<circle cx="53.8586" cy="53.8586" r="52.7586" stroke="#FBFBFB" stroke-width="2.2"/>
<path d="M75.7501 49.0531C75.1849 47.0599 73.3311 45.3838 72.5978 44.7809C72.8587 32.2486 66.1988 26.0603 63.9857 24.3528C65.2089 22.9883 68.0845 19.5391 69.128 16.2342C69.2121 15.9684 69.1309 15.6784 68.9193 15.4912C68.841 15.4212 67.0844 13.9138 63.2088 14.2881C63.2378 14.1424 63.261 14.0038 63.2798 13.8666C63.3204 13.5508 63.1436 13.2465 62.8465 13.1222C62.5783 13.0079 56.2084 10.3674 50.7675 13.4737C50.5283 13.608 50.3878 13.868 50.4066 14.1381C50.4196 14.3281 50.7501 18.7118 54.2851 24.2771C52.1792 25.8702 45.3063 32.0514 45.5701 44.7809C44.8367 45.3838 42.983 47.0613 42.4177 49.0531C42.3916 49.1445 42.3844 49.2403 42.396 49.3346C42.5206 50.3062 44.3946 52.5637 59.0839 52.5637C73.7732 52.5637 75.6472 50.3062 75.7719 49.3346C75.7835 49.2403 75.7762 49.1445 75.7501 49.0531ZM59.0839 51.1349C47.1629 51.1349 44.4483 49.5832 43.9135 49.1345C44.6092 47.2842 46.7165 45.7053 46.7383 45.6882C46.9252 45.5482 47.0339 45.3281 47.0267 45.0938C46.6339 32.4015 53.8329 26.4018 55.3562 25.2801C55.9649 25.5145 57.1824 25.9074 58.5853 25.9074C59.0709 25.9074 59.5767 25.8602 60.084 25.7431C60.4739 25.6531 60.7159 25.2687 60.6231 24.8829C60.5318 24.5 60.1463 24.2528 59.7521 24.3528C58.0447 24.7429 56.2968 24.1156 55.762 23.8985C52.8633 19.4748 52.0893 15.7355 51.9052 14.4882C55.775 12.5406 60.2188 13.7323 61.7348 14.2395C61.2406 16.2913 59.5361 19.2262 59.5173 19.2605C59.3173 19.6005 59.4376 20.0392 59.7854 20.2349C60.1275 20.4307 60.5739 20.3164 60.7753 19.972C60.842 19.8577 62.045 17.7845 62.7711 15.7798C65.3669 15.4083 66.9076 15.9699 67.5685 16.3185C66.1829 20.0106 62.4189 23.9285 62.3798 23.9699C62.2305 24.1228 62.1609 24.3357 62.1856 24.5471C62.2102 24.7586 62.3319 24.9486 62.5146 25.063C62.6059 25.1215 71.5789 30.9798 71.1412 45.0924C71.1339 45.3267 71.2412 45.5467 71.431 45.6868C71.4542 45.7039 73.5572 47.2742 74.2544 49.1331C73.7196 49.5832 71.0049 51.1349 59.0839 51.1349Z" fill="#FBFBFB"/>
<path d="M62.6773 34.2304C63.0005 34.4676 63.4542 34.4061 63.6918 34.0903C63.9339 33.7746 63.8701 33.3288 63.5513 33.0916C62.6773 32.4386 61.2845 31.6913 59.809 31.4027V29.8453C59.809 29.4523 59.4844 29.1309 59.0843 29.1309C58.6843 29.1309 58.3596 29.4523 58.3596 29.8453V31.2941C57.2349 31.3556 56.145 31.7885 55.2798 32.8487C54.4101 33.9203 54.4246 34.8805 54.587 35.4977C55.0682 37.3095 57.3828 38.5669 59.2394 39.307C60.9526 39.9886 61.8483 40.6015 62.1439 41.2974C62.3222 41.716 62.2845 42.2133 62.028 42.8177C61.9091 43.0992 61.4772 43.5035 60.654 43.7164C59.8452 43.925 57.6509 44.1679 54.7652 41.9389C54.4478 41.696 53.9942 41.746 53.7478 42.059C53.5014 42.369 53.5565 42.8177 53.871 43.0634C55.5798 44.3837 57.119 44.9552 58.3596 45.1652V46.6998C58.3596 47.0956 58.6843 47.4142 59.0843 47.4142C59.4844 47.4142 59.809 47.0956 59.809 46.6998V45.2567C60.3177 45.2338 60.7438 45.1695 61.0192 45.0981C62.1541 44.808 63.0324 44.1608 63.3672 43.3678C63.773 42.4047 63.8121 41.5231 63.4817 40.7444C62.899 39.3742 61.283 38.5783 59.7815 37.9811C57.6553 37.1352 56.2392 36.0721 55.9899 35.1377C55.8725 34.6933 56.0102 34.2361 56.4117 33.7417C58.493 31.1712 62.6367 34.1989 62.6773 34.2304Z" fill="#FBFBFB"/>
<path d="M13.3377 67.4809L18.3311 62.9736C20.0174 61.4499 22.6109 61.61 24.1051 63.3312L24.1874 63.426C25.8311 61.1654 27.74 59.012 29.931 57.2924C34.9884 53.3184 41.9822 51.2817 47.7776 54.8903C51.0099 56.9053 54.5976 58.5549 58.3468 59.2406H69.5457C71.9502 59.2406 73.7524 60.6881 74.3134 62.9953L86.2305 52.4851C88.4047 50.5665 91.2498 50.9396 93.0642 53.0728C94.8877 55.2355 94.8267 58.2315 92.6373 60.1688L72.7918 77.7144C69.6235 80.5161 66.0541 81.9744 61.8658 82.1766L41.0018 83.1856C41.6102 84.8041 41.1756 86.6465 39.8964 87.8017L34.9045 92.3106C33.2167 93.8343 30.6247 93.6726 29.1305 91.953L12.9885 73.3672C11.508 71.6632 11.6468 68.9843 13.3377 67.4809ZM73.8438 66.8792C73.0815 68.3235 71.6483 69.3855 69.5472 69.3855H45.1932C44.4812 69.3855 43.9018 68.7946 43.9018 68.0686C43.9018 67.3425 44.4812 66.7517 45.1932 66.7517H69.5472C70.9942 66.7517 71.8922 65.7286 71.8922 64.3122C71.8922 62.9223 71.0262 61.8744 69.5472 61.8744H58.2523L58.0358 61.8526C53.8977 61.1172 50.0036 59.3541 46.4374 57.1323C41.6025 54.1191 35.6791 56.0906 31.506 59.3696C29.347 61.0643 27.5235 63.1881 25.9363 65.4379L39.1478 80.6482L61.7453 79.5552C65.3452 79.3842 68.3885 78.1373 71.1101 75.7305L90.9555 58.1849C92.0366 57.2271 92 55.8356 91.1156 54.7846C90.2511 53.7616 88.9719 53.5392 87.9153 54.469L73.8438 66.8792ZM20.0357 64.9388L15.0484 69.4476C14.4492 69.9934 14.3638 70.9247 14.8654 71.5668L31.0577 90.2147C31.6081 90.8475 32.5794 90.9051 33.1999 90.3453L38.1918 85.8365C38.8123 85.2752 38.8703 84.2864 38.3199 83.6536C32.9407 77.4594 27.5555 71.2543 22.1779 65.0694C21.629 64.4351 20.6547 64.3791 20.0357 64.9388Z" fill="#FBFBFB"/>
</svg>
