<svg width="113" height="113" viewBox="0 0 113 113" fill="none" xmlns="http://www.w3.org/2000/svg">
<path d="M15.5942 78.4454C15.2375 78.0258 15.2872 77.3969 15.7053 77.0385L22.9665 70.8147C23.3633 70.4746 23.955 70.4973 24.3244 70.8669L27.178 73.7207C27.3015 73.8443 27.5018 73.8402 27.6183 73.7099C29.0281 72.1332 37.2471 63.2968 44.8478 62.7373C52.2379 62.1934 54.5113 67.831 62.2886 68.9662C67.1026 69.6689 75.9921 68.9662 75.9921 68.9662C79.7294 70.2116 78.4837 72.7035 78.4837 72.7035C78.4837 72.7035 93.4329 61.492 94.6787 60.2462C95.9245 59.0004 100.908 60.2462 99.6618 65.2293C99.6618 65.2293 79.7294 85.1613 71.009 88.899C66.7375 90.7298 47.7587 90.2675 44.1838 90.1628C43.9396 90.1557 43.7907 90.4278 43.9262 90.631L45.607 93.1519C45.8854 93.5695 45.8112 94.1287 45.4335 94.4592L36.8908 101.934C36.471 102.302 35.8317 102.255 35.4704 101.83L15.5942 78.4454Z" fill="#55A354" fill-opacity="0.42"/>
<path d="M67.0193 18.7631C67.1349 18.4018 66.9365 18.0131 66.5713 17.911C64.362 17.2934 61.7402 17.097 56.0463 18.5101C55.6045 18.6197 55.328 19.0167 55.4181 19.4629C55.7991 21.3504 57.0331 26.114 58.6448 28.5551C58.9537 29.023 58.9425 29.6709 58.5569 30.0779C56.3759 32.3791 50.0061 39.9808 50.7104 49.623C50.7317 49.9137 50.6324 50.2017 50.4191 50.4004C49.6608 51.1069 48.167 52.4738 47.5207 54.2263C47.3891 54.5831 47.5158 54.9734 47.8546 55.1462C52.0037 57.261 70.7142 58.6669 78.8562 55.2291C79.3532 55.0193 79.5554 54.4291 79.3256 53.9411C78.8722 52.978 78.2344 51.8596 76.8468 50.9783C76.532 50.7784 76.3212 50.4433 76.3178 50.0705C76.2705 44.8734 75.5166 35.9807 68.3492 30.7117C67.8076 30.3135 67.7395 29.5017 68.1944 29.0069C70.3349 26.679 71.9089 23.401 72.5687 21.8904C72.7722 21.4245 72.5699 20.8955 72.0996 20.7025C71.146 20.311 69.4833 19.7486 67.8307 19.765C67.3044 19.7702 66.8589 19.2644 67.0193 18.7631Z" fill="#55A354" fill-opacity="0.42"/>
<circle cx="56.0598" cy="56.0598" r="54.9598" stroke="#393939" stroke-width="2.2"/>
<path d="M78.8469 51.059C78.2586 48.9843 76.3291 47.2398 75.5657 46.6122C75.8373 33.5677 68.9053 27.1265 66.6016 25.3493C67.8749 23.929 70.868 20.3388 71.9541 16.8988C72.0416 16.6222 71.9572 16.3203 71.7369 16.1255C71.6554 16.0526 69.827 14.4836 65.793 14.8732C65.8232 14.7215 65.8473 14.5773 65.867 14.4345C65.9092 14.1058 65.7252 13.789 65.4159 13.6596C65.1368 13.5407 58.5065 10.7923 52.8432 14.0255C52.5943 14.1653 52.448 14.436 52.4676 14.7171C52.4812 14.9149 52.8251 19.4777 56.5046 25.2705C54.3126 26.9287 47.1589 33.3625 47.4334 46.6122C46.6701 47.2398 44.7406 48.9858 44.1522 51.059C44.1251 51.1542 44.1175 51.2539 44.1296 51.352C44.2593 52.3633 46.2099 54.7132 61.4996 54.7132C76.7892 54.7132 78.7398 52.3633 78.8696 51.352C78.8816 51.2539 78.8741 51.1542 78.8469 51.059ZM61.4996 53.2259C49.0914 53.2259 46.2658 51.6108 45.7091 51.1438C46.4332 49.2178 48.6267 47.5745 48.6493 47.5566C48.844 47.4109 48.9571 47.1818 48.9496 46.9379C48.5407 33.7268 56.0339 27.482 57.6195 26.3145C58.2531 26.5584 59.5203 26.9674 60.9806 26.9674C61.486 26.9674 62.0125 26.9183 62.5405 26.7964C62.9463 26.7027 63.1983 26.3026 63.1017 25.901C63.0067 25.5025 62.6054 25.2452 62.195 25.3493C60.4179 25.7553 58.5985 25.1024 58.0419 24.8763C55.0247 20.2719 54.2191 16.3798 54.0275 15.0814C58.0554 13.0543 62.6808 14.2947 64.2588 14.8227C63.7444 16.9583 61.9703 20.0131 61.9506 20.0488C61.7425 20.4027 61.8677 20.8593 62.2297 21.0631C62.5858 21.2668 63.0504 21.1478 63.2601 20.7894C63.3295 20.6704 64.5816 18.5125 65.3374 16.4259C68.0393 16.0392 69.643 16.6237 70.3309 16.9866C68.8887 20.8296 64.9709 24.9076 64.9301 24.9507C64.7747 25.1098 64.7023 25.3314 64.728 25.5515C64.7536 25.7716 64.8803 25.9694 65.0704 26.0884C65.1655 26.1494 74.5052 32.2471 74.0496 46.9364C74.042 47.1803 74.1537 47.4094 74.3513 47.5551C74.3754 47.573 76.5644 49.2074 77.2901 51.1423C76.7334 51.6108 73.9078 53.2259 61.4996 53.2259Z" fill="#393939"/>
<path d="M65.239 35.6341C65.5754 35.881 66.0476 35.817 66.295 35.4884C66.5469 35.1597 66.4805 34.6957 66.1487 34.4488C65.239 33.7691 63.7892 32.9913 62.2535 32.6909V31.0698C62.2535 30.6608 61.9155 30.3262 61.4992 30.3262C61.0828 30.3262 60.7449 30.6608 60.7449 31.0698V32.5778C59.5742 32.6418 58.4397 33.0924 57.5391 34.1959C56.6339 35.3114 56.649 36.3108 56.818 36.9533C57.3188 38.8391 59.7281 40.1478 61.6606 40.9182C63.4437 41.6276 64.3761 42.2657 64.6838 42.9899C64.8694 43.4257 64.8301 43.9433 64.5631 44.5724C64.4394 44.8653 63.9899 45.2862 63.133 45.5078C62.2912 45.725 60.0072 45.9778 57.0035 43.6577C56.6732 43.4049 56.201 43.4569 55.9445 43.7826C55.688 44.1054 55.7454 44.5724 56.0727 44.8282C57.8514 46.2024 59.4535 46.7973 60.7449 47.0159V48.6132C60.7449 49.0251 61.0828 49.3568 61.4992 49.3568C61.9155 49.3568 62.2535 49.0251 62.2535 48.6132V47.1111C62.783 47.0873 63.2265 47.0203 63.5131 46.946C64.6944 46.6441 65.6086 45.9704 65.9571 45.1449C66.3795 44.1426 66.4202 43.2249 66.0762 42.4144C65.4698 40.9881 63.7877 40.1597 62.2248 39.5381C60.0117 38.6576 58.5378 37.5511 58.2783 36.5785C58.1561 36.116 58.2994 35.64 58.7173 35.1255C60.8837 32.4499 65.1967 35.6014 65.239 35.6341Z" fill="#393939"/>
<path d="M13.8849 70.2384L19.0824 65.5469C20.8376 63.961 23.5371 64.1277 25.0924 65.9192L25.1781 66.0179C26.8889 63.6648 28.8758 61.4235 31.1564 59.6336C36.4205 55.4972 43.7001 53.3772 49.7324 57.1333C53.0969 59.2307 56.8311 60.9477 60.7336 61.6614H72.3902C74.8929 61.6614 76.7687 63.168 77.3528 65.5696L89.7569 54.6298C92.0199 52.6328 94.9813 53.0212 96.8699 55.2415C98.7679 57.4926 98.7044 60.6111 96.4255 62.6275L75.7689 80.8902C72.4711 83.8064 68.7559 85.3244 64.3964 85.5348L42.6797 86.5851C43.3129 88.2697 42.8606 90.1874 41.5291 91.3898L36.3332 96.0829C34.5764 97.6689 31.8785 97.5006 30.3232 95.7107L13.5215 76.3654C11.9805 74.5917 12.1249 71.8034 13.8849 70.2384ZM76.864 69.6122C76.0705 71.1156 74.5787 72.2209 72.3918 72.2209H47.0424C46.3013 72.2209 45.6982 71.6059 45.6982 70.8502C45.6982 70.0944 46.3013 69.4795 47.0424 69.4795H72.3918C73.8978 69.4795 74.8326 68.4146 74.8326 66.9403C74.8326 65.4935 73.9312 64.4028 72.3918 64.4028H60.6352L60.4098 64.3801C56.1026 63.6147 52.0494 61.7795 48.3374 59.4669C43.305 56.3306 37.1394 58.3827 32.7958 61.7957C30.5486 63.5597 28.6505 65.7703 26.9984 68.112L40.7499 83.944L64.271 82.8063C68.0179 82.6283 71.1856 81.3304 74.0184 78.8252L94.675 60.5625C95.8002 59.5657 95.7621 58.1173 94.8417 57.0233C93.9418 55.9584 92.6103 55.727 91.5105 56.6948L76.864 69.6122ZM20.8567 67.5925L15.6655 72.2856C15.0418 72.8536 14.953 73.823 15.4751 74.4914L32.3292 93.9015C32.9021 94.5601 33.913 94.62 34.5589 94.0374L39.7548 89.3443C40.4007 88.7601 40.461 87.7308 39.8881 87.0722C34.2892 80.6248 28.6838 74.1661 23.0864 67.7284C22.5151 67.0682 21.501 67.0099 20.8567 67.5925Z" fill="#393939"/>
</svg>
