<svg width="16" height="15" viewBox="0 0 16 15" fill="none" xmlns="http://www.w3.org/2000/svg">
<path d="M12.9401 11.6205C13.068 11.6205 13.1959 11.6252 13.3237 11.6144C13.585 11.5927 13.8315 11.5356 14.0631 11.429C14.4893 11.2329 14.8155 10.8839 14.9396 10.4917C15.0378 10.1767 14.9989 9.8215 14.9989 9.49875C14.9989 8.99688 14.9989 8.49654 14.9989 7.99467C14.9989 7.65339 14.9989 7.31211 14.9989 6.97084C14.9989 6.26666 14.4171 5.61036 13.572 5.4652C13.3849 5.43278 13.1996 5.42969 13.0087 5.42969C12.8067 5.42969 12.601 5.44513 12.4083 5.49609C11.945 5.61963 11.5337 5.89605 11.3206 6.26358C11.1853 6.49521 11.126 6.73766 11.126 6.99246C11.126 7.12835 11.126 7.26579 11.126 7.40168C11.126 7.88966 11.126 8.37918 11.126 8.86716C11.126 9.25322 11.126 9.63773 11.126 10.0238C11.126 10.2245 11.1482 10.4284 11.2353 10.6168C11.4095 10.9936 11.7431 11.3179 12.1934 11.4816C12.4305 11.5696 12.677 11.619 12.9401 11.6205C13.1347 11.6221 13.32 11.4769 13.3108 11.3117C13.3015 11.1434 13.1477 11.0044 12.9401 11.0028C12.8883 11.0028 12.8382 10.9998 12.7863 10.9967C12.6974 10.9905 12.8716 11.0121 12.7845 10.9951C12.7604 10.9905 12.7363 10.9874 12.7104 10.9828C12.6622 10.9735 12.614 10.9611 12.5677 10.9488C12.5584 10.9457 12.5028 10.9349 12.4991 10.9272C12.5491 10.9457 12.5566 10.9472 12.5195 10.9333C12.5047 10.9272 12.4898 10.921 12.475 10.9148C12.4324 10.8963 12.3898 10.8762 12.349 10.8546C12.3286 10.8438 12.3082 10.8314 12.2897 10.8206C12.2193 10.782 12.3509 10.8654 12.2879 10.8206C12.2137 10.7681 12.147 10.711 12.084 10.6508C12.0284 10.5982 12.1303 10.7079 12.084 10.6492C12.071 10.6322 12.0562 10.6168 12.0433 10.5998C12.0173 10.5658 11.9932 10.5303 11.971 10.4948C11.9673 10.4886 11.9358 10.4454 11.9395 10.4392C11.945 10.4515 11.9525 10.4639 11.958 10.4747C11.9525 10.4624 11.9469 10.45 11.9395 10.4361C11.9191 10.3913 11.9024 10.345 11.8894 10.2971C11.8839 10.277 11.8802 10.257 11.8746 10.2354C11.8561 10.1659 11.8802 10.2909 11.8746 10.2446C11.8709 10.206 11.8654 10.1674 11.8654 10.1273C11.8654 10.1149 11.8654 10.1041 11.8654 10.0917C11.8654 9.78907 11.8654 9.4864 11.8654 9.18373C11.8654 8.43632 11.8579 7.69045 11.8654 6.94304C11.8654 6.92142 11.8654 6.8998 11.8672 6.87818C11.8691 6.8612 11.8709 6.84266 11.8728 6.82568C11.8802 6.76082 11.8654 6.83185 11.8709 6.83494C11.8579 6.82877 11.9321 6.58632 11.958 6.57706C11.9525 6.58941 11.945 6.60176 11.9395 6.61257C11.9469 6.60022 11.9525 6.58787 11.9599 6.57551C11.971 6.55698 11.9821 6.53845 11.9932 6.52146C12.0173 6.48595 12.0414 6.45197 12.0692 6.418C12.0748 6.41182 12.0785 6.40719 12.084 6.40101C12.1081 6.37476 12.1026 6.37939 12.0692 6.41491C12.0692 6.40565 12.1081 6.3763 12.1155 6.36858C12.1507 6.33615 12.1859 6.30527 12.2249 6.27438C12.2397 6.26358 12.2545 6.25122 12.2693 6.24041C12.2749 6.23578 12.2823 6.23115 12.2879 6.22806C12.3194 6.20798 12.3138 6.21107 12.2693 6.23887C12.2693 6.22343 12.375 6.18019 12.3898 6.17247C12.4324 6.15239 12.475 6.13386 12.5195 6.11533C12.5955 6.0829 12.4398 6.13849 12.5213 6.11533C12.5529 6.10606 12.5825 6.0968 12.614 6.08908C12.6622 6.07672 12.7104 6.06746 12.7585 6.05819C12.766 6.05665 12.7752 6.0551 12.7826 6.0551C12.8234 6.04893 12.816 6.05047 12.7585 6.05665C12.7697 6.04893 12.8197 6.05201 12.8345 6.05047C12.8975 6.04738 12.9605 6.04738 13.0217 6.04738C13.0736 6.04738 13.1255 6.04738 13.1792 6.04738C13.2311 6.04738 13.2811 6.05047 13.333 6.05356C13.4219 6.05974 13.2478 6.03812 13.3349 6.0551C13.3682 6.06128 13.3997 6.06591 13.4331 6.07209C13.4812 6.0829 13.5276 6.09371 13.5739 6.10915C13.5813 6.1107 13.6184 6.11996 13.6202 6.12459C13.6054 6.11996 13.5906 6.11378 13.5776 6.10915C13.5924 6.11533 13.6073 6.11996 13.6221 6.12614C13.6666 6.14312 13.7092 6.1632 13.7499 6.18482C13.7703 6.19563 13.7907 6.20644 13.8111 6.21725C13.8241 6.22497 13.837 6.23269 13.85 6.24041C13.8074 6.21262 13.8018 6.20798 13.8315 6.2296C13.9056 6.28365 13.9723 6.33924 14.0353 6.39947C14.0909 6.45197 13.989 6.34233 14.0353 6.40101C14.0483 6.418 14.0631 6.43344 14.0761 6.45043C14.102 6.4844 14.1261 6.51992 14.1484 6.55544C14.1521 6.56161 14.1836 6.60485 14.1799 6.61103C14.1743 6.59868 14.1669 6.58632 14.1613 6.57551C14.1669 6.58787 14.1724 6.60022 14.1799 6.61412C14.1965 6.65272 14.2114 6.69287 14.2243 6.73148C14.2299 6.75155 14.2355 6.77163 14.241 6.7917C14.2429 6.79788 14.2447 6.8056 14.2447 6.81178C14.2521 6.84575 14.2503 6.83958 14.2429 6.7917C14.267 6.81487 14.254 6.91061 14.254 6.93995C14.2614 7.67346 14.254 8.40543 14.254 9.13895C14.254 9.45397 14.254 9.76745 14.254 10.0825C14.254 10.0887 14.254 10.0964 14.254 10.1025C14.254 10.118 14.254 10.1319 14.254 10.1473C14.254 10.169 14.2521 10.1906 14.2484 10.2106C14.2466 10.2245 14.2447 10.2384 14.2429 10.2523C14.2503 10.2045 14.2521 10.1983 14.2447 10.2323C14.2336 10.2724 14.2243 10.3141 14.2114 10.3543C14.2039 10.3728 14.1836 10.4624 14.1632 10.4701C14.1687 10.4577 14.1762 10.4454 14.1817 10.4346C14.1743 10.4469 14.1687 10.4593 14.1613 10.4716C14.1539 10.484 14.1465 10.4963 14.1391 10.5071C14.1131 10.5488 14.0835 10.589 14.0501 10.6276C14.0446 10.6338 14.0409 10.6384 14.0353 10.6446C14.0112 10.6708 14.0168 10.6662 14.0501 10.6307C14.0501 10.6399 14.0112 10.6693 14.0038 10.677C13.9723 10.7079 13.939 10.7357 13.9037 10.7635C13.8852 10.7774 13.8685 10.7913 13.85 10.8036C13.8444 10.8083 13.837 10.8129 13.8315 10.816C13.8 10.8361 13.8055 10.833 13.85 10.8052C13.85 10.8222 13.7277 10.8731 13.7073 10.8824C13.6906 10.8901 13.5906 10.9442 13.5776 10.938C13.5813 10.9395 13.6517 10.9148 13.598 10.9303C13.5739 10.9364 13.5517 10.9442 13.5276 10.9503C13.4812 10.9627 13.4331 10.9735 13.383 10.9828C13.3775 10.9843 13.3108 10.9967 13.3089 10.9936C13.3664 10.9874 13.3738 10.9874 13.333 10.9905C13.3163 10.992 13.2996 10.9936 13.283 10.9936C13.1681 10.9998 13.0532 10.9967 12.9383 10.9967C12.7437 10.9967 12.5584 11.1387 12.5677 11.3055C12.5769 11.4785 12.7307 11.6205 12.9401 11.6205Z" fill="#FBFBFB"/>
<path d="M1.81417 11.6205C1.94203 11.6205 2.06989 11.6252 2.19776 11.6144C2.45904 11.5927 2.7055 11.5356 2.93714 11.429C3.36335 11.2329 3.68949 10.8839 3.81364 10.4917C3.91186 10.1767 3.87294 9.8215 3.87294 9.49875C3.87294 8.99688 3.87294 8.49654 3.87294 7.99467C3.87294 7.65339 3.87294 7.31211 3.87294 6.97084C3.87294 6.26666 3.29107 5.61036 2.44607 5.4652C2.25891 5.43278 2.0736 5.42969 1.88273 5.42969C1.68075 5.42969 1.47505 5.44513 1.28233 5.49609C0.819063 5.61963 0.407678 5.89605 0.194574 6.26358C0.0592986 6.49521 0 6.73766 0 6.99246C0 7.12835 0 7.26579 0 7.40168C0 7.88966 0 8.37918 0 8.86716C0 9.25322 0 9.63773 0 10.0238C0 10.2245 0.022237 10.4284 0.109332 10.6168C0.283522 10.9936 0.617077 11.3179 1.06738 11.4816C1.30457 11.5696 1.55103 11.619 1.81417 11.6205C2.00874 11.6221 2.19405 11.4769 2.18478 11.3117C2.17552 11.1434 2.02171 11.0044 1.81417 11.0028C1.76228 11.0028 1.71225 10.9998 1.66036 10.9967C1.57141 10.9905 1.7456 11.0121 1.65851 10.9951C1.63442 10.9905 1.61033 10.9874 1.58439 10.9828C1.53621 10.9735 1.48803 10.9611 1.4417 10.9488C1.43243 10.9457 1.37684 10.9349 1.37313 10.9272C1.42317 10.9457 1.43058 10.9472 1.39352 10.9333C1.37869 10.9272 1.36387 10.921 1.34904 10.9148C1.30642 10.8963 1.2638 10.8762 1.22303 10.8546C1.20265 10.8438 1.18227 10.8314 1.16374 10.8206C1.09332 10.782 1.22489 10.8654 1.16188 10.8206C1.08776 10.7681 1.02105 10.711 0.958044 10.6508C0.902451 10.5982 1.00437 10.7079 0.958044 10.6492C0.945072 10.6322 0.930247 10.6168 0.917276 10.5998C0.891333 10.5658 0.867243 10.5303 0.845006 10.4948C0.8413 10.4886 0.809797 10.4454 0.813503 10.4392C0.819063 10.4515 0.826475 10.4639 0.832034 10.4747C0.826475 10.4624 0.820916 10.45 0.813503 10.4361C0.793119 10.3913 0.776442 10.345 0.76347 10.2971C0.757911 10.277 0.754205 10.257 0.748645 10.2354C0.730115 10.1659 0.754205 10.2909 0.748645 10.2446C0.744939 10.206 0.73938 10.1674 0.73938 10.1273C0.73938 10.1149 0.73938 10.1041 0.73938 10.0917C0.73938 9.78907 0.73938 9.4864 0.73938 9.18373C0.73938 8.43632 0.731968 7.69045 0.73938 6.94304C0.73938 6.92142 0.73938 6.8998 0.741233 6.87818C0.743086 6.8612 0.744939 6.84266 0.746792 6.82568C0.754205 6.76082 0.73938 6.83185 0.744939 6.83494C0.731968 6.82877 0.806091 6.58632 0.832034 6.57706C0.826475 6.58941 0.819063 6.60176 0.813503 6.61257C0.820916 6.60022 0.826475 6.58787 0.833887 6.57551C0.845006 6.55698 0.856124 6.53845 0.867243 6.52146C0.891333 6.48595 0.915423 6.45197 0.943219 6.418C0.948778 6.41182 0.952485 6.40719 0.958044 6.40101C0.982134 6.37476 0.976575 6.37939 0.943219 6.41491C0.943219 6.40565 0.982134 6.3763 0.989546 6.36858C1.02475 6.33615 1.05996 6.30527 1.09888 6.27438C1.1137 6.26358 1.12853 6.25122 1.14335 6.24041C1.14891 6.23578 1.15632 6.23115 1.16188 6.22806C1.19339 6.20798 1.18783 6.21107 1.14335 6.23887C1.14335 6.22343 1.24898 6.18019 1.2638 6.17247C1.30642 6.15239 1.34904 6.13386 1.39352 6.11533C1.46949 6.0829 1.31384 6.13849 1.39537 6.11533C1.42687 6.10606 1.45652 6.0968 1.48803 6.08908C1.53621 6.07672 1.58439 6.06746 1.63257 6.05819C1.63998 6.05665 1.64924 6.0551 1.65666 6.0551C1.69742 6.04893 1.69001 6.05047 1.63257 6.05665C1.64368 6.04893 1.69372 6.05201 1.70854 6.05047C1.77155 6.04738 1.83455 6.04738 1.8957 6.04738C1.94759 6.04738 1.99948 6.04738 2.05322 6.04738C2.1051 6.04738 2.15514 6.05047 2.20702 6.05356C2.29597 6.05974 2.12178 6.03812 2.20887 6.0551C2.24223 6.06128 2.27373 6.06591 2.30709 6.07209C2.35527 6.0829 2.4016 6.09371 2.44792 6.10915C2.45533 6.1107 2.4924 6.11996 2.49425 6.12459C2.47942 6.11996 2.4646 6.11378 2.45163 6.10915C2.46645 6.11533 2.48128 6.11996 2.4961 6.12614C2.54058 6.14312 2.5832 6.1632 2.62397 6.18482C2.64435 6.19563 2.66473 6.20644 2.68512 6.21725C2.69809 6.22497 2.71106 6.23269 2.72403 6.24041C2.68141 6.21262 2.67585 6.20798 2.7055 6.2296C2.77962 6.28365 2.84633 6.33924 2.90934 6.39947C2.96493 6.45197 2.86301 6.34233 2.90934 6.40101C2.92231 6.418 2.93714 6.43344 2.95011 6.45043C2.97605 6.4844 3.00014 6.51992 3.02238 6.55544C3.02608 6.56161 3.05759 6.60485 3.05388 6.61103C3.04832 6.59868 3.04091 6.58632 3.03535 6.57551C3.04091 6.58787 3.04647 6.60022 3.05388 6.61412C3.07056 6.65272 3.08538 6.69287 3.09835 6.73148C3.10391 6.75155 3.10947 6.77163 3.11503 6.7917C3.11689 6.79788 3.11874 6.8056 3.11874 6.81178C3.12615 6.84575 3.1243 6.83958 3.11689 6.7917C3.14098 6.81487 3.128 6.91061 3.128 6.93995C3.13542 7.67346 3.128 8.40543 3.128 9.13895C3.128 9.45397 3.128 9.76745 3.128 10.0825C3.128 10.0887 3.128 10.0964 3.128 10.1025C3.128 10.118 3.128 10.1319 3.128 10.1473C3.128 10.169 3.12615 10.1906 3.12244 10.2106C3.12059 10.2245 3.11874 10.2384 3.11689 10.2523C3.1243 10.2045 3.12615 10.1983 3.11874 10.2323C3.10762 10.2724 3.09835 10.3141 3.08538 10.3543C3.07797 10.3728 3.05759 10.4624 3.0372 10.4701C3.04276 10.4577 3.05017 10.4454 3.05573 10.4346C3.04832 10.4469 3.04276 10.4593 3.03535 10.4716C3.02794 10.484 3.02052 10.4963 3.01311 10.5071C2.98717 10.5488 2.95752 10.589 2.92416 10.6276C2.91861 10.6338 2.9149 10.6384 2.90934 10.6446C2.88525 10.6708 2.89081 10.6662 2.92416 10.6307C2.92416 10.6399 2.88525 10.6693 2.87784 10.677C2.84634 10.7079 2.81298 10.7357 2.77777 10.7635C2.75924 10.7774 2.74256 10.7913 2.72403 10.8036C2.71847 10.8083 2.71106 10.8129 2.7055 10.816C2.674 10.8361 2.67956 10.833 2.72403 10.8052C2.72403 10.8222 2.60173 10.8731 2.58134 10.8824C2.56467 10.8901 2.4646 10.9442 2.45163 10.938C2.45533 10.9395 2.52575 10.9148 2.47201 10.9303C2.44792 10.9364 2.42569 10.9442 2.4016 10.9503C2.35527 10.9627 2.30709 10.9735 2.25705 10.9828C2.2515 10.9843 2.18478 10.9967 2.18293 10.9936C2.24038 10.9874 2.24779 10.9874 2.20702 10.9905C2.19034 10.992 2.17367 10.9936 2.15699 10.9936C2.0421 10.9998 1.92721 10.9967 1.81231 10.9967C1.61774 10.9967 1.43243 11.1387 1.4417 11.3055C1.45282 11.4785 1.60662 11.6205 1.81417 11.6205Z" fill="#FBFBFB"/>
<path d="M0.742122 10.0078C0.742122 9.77308 0.742122 9.5399 0.742122 9.30517C0.742122 8.8172 0.742122 8.32767 0.742122 7.83969C0.742122 7.40731 0.742122 6.97492 0.742122 6.54254C0.742122 6.44679 0.742122 6.35105 0.742122 6.25531C0.742122 6.1642 0.743974 6.07154 0.749534 5.98043C0.755093 5.88778 0.762505 5.79358 0.771771 5.70093C0.77733 5.65769 0.781036 5.61599 0.786595 5.57275C0.790302 5.55113 0.792155 5.53106 0.795861 5.50944C0.797714 5.49863 0.799567 5.48782 0.80142 5.47701C0.806979 5.43377 0.790302 5.53878 0.797714 5.49554C0.860719 5.145 0.953373 4.80064 1.08679 4.46554C1.12015 4.38369 1.15351 4.30185 1.19057 4.22155C1.2091 4.18294 1.22578 4.14433 1.24431 4.10573C1.25357 4.0872 1.26284 4.06712 1.2721 4.04859C1.28878 4.01616 1.25913 4.07484 1.25913 4.07484C1.26654 4.06249 1.2721 4.05014 1.27952 4.03624C1.3629 3.87564 1.45556 3.71967 1.55562 3.56525C1.65384 3.41546 1.75946 3.2703 1.8725 3.12823C1.92809 3.05719 1.98739 2.9877 2.04669 2.91821C2.07634 2.88578 2.10414 2.85181 2.13379 2.81938C2.1412 2.81166 2.14861 2.80394 2.15602 2.79467C2.18011 2.76688 2.13564 2.81784 2.13564 2.81629C2.14676 2.79622 2.1727 2.77769 2.18938 2.7607C2.4451 2.49355 2.73048 2.24338 3.03809 2.01638C3.11407 1.96078 3.1919 1.90519 3.27158 1.85114C3.30864 1.82644 3.35126 1.78629 3.39574 1.7693C3.39574 1.7693 3.33644 1.80636 3.36979 1.78629C3.37906 1.78011 3.38832 1.77393 3.39944 1.76775C3.42168 1.75386 3.44577 1.73841 3.46801 1.72452C3.63293 1.62414 3.80156 1.5284 3.97575 1.43883C4.15365 1.34772 4.3371 1.26279 4.52426 1.18558C4.61692 1.14697 4.70957 1.10991 4.80223 1.07594C4.82446 1.06821 4.8467 1.05895 4.87079 1.05123C4.88191 1.0466 4.89303 1.04351 4.90414 1.03887C4.90414 1.03887 4.83373 1.06358 4.87264 1.04968C4.92268 1.0327 4.97271 1.01571 5.02274 0.998724C5.41559 0.870552 5.82142 0.771721 6.23466 0.705319C6.33843 0.688333 6.4422 0.67289 6.54783 0.660536C6.57377 0.657448 6.59786 0.655904 6.6238 0.651271C6.6238 0.651271 6.54597 0.658992 6.5886 0.655904C6.60157 0.654359 6.61454 0.652815 6.62751 0.651271C6.6831 0.645094 6.7387 0.640461 6.79243 0.635828C7.0111 0.617298 7.23162 0.608032 7.45213 0.606488C7.65968 0.604944 7.86722 0.611121 8.07477 0.625019C8.18225 0.63274 8.28787 0.642006 8.3935 0.652815C8.40647 0.654359 8.41944 0.655904 8.43241 0.657448C8.43241 0.657448 8.35458 0.648183 8.3972 0.654359C8.42315 0.657448 8.44724 0.660536 8.47318 0.663625C8.53248 0.671346 8.58992 0.679067 8.64922 0.688333C9.06061 0.748558 9.46643 0.841212 9.85743 0.961663C9.90376 0.975561 9.95009 0.991003 9.99641 1.00645C10.0242 1.01571 10.0502 1.02498 10.0761 1.0327C10.0909 1.03733 10.1725 1.06821 10.1224 1.04814C10.0724 1.02806 10.1447 1.05586 10.1576 1.06049C10.1799 1.06821 10.2021 1.07748 10.2262 1.0852C10.2744 1.10373 10.3226 1.12226 10.3726 1.14079C10.5579 1.21492 10.7395 1.29522 10.9155 1.3817C11.0953 1.46972 11.2695 1.56391 11.44 1.66583C11.4807 1.689 11.5196 1.71371 11.5586 1.73841C11.5789 1.75077 11.5975 1.76312 11.6179 1.77548C11.6271 1.78165 11.6382 1.78783 11.6475 1.79401C11.6345 1.7832 11.5919 1.75849 11.6308 1.7832C11.7105 1.8357 11.7902 1.88975 11.868 1.9438C12.1812 2.16617 12.4703 2.4117 12.7334 2.67577C12.7649 2.70665 12.7946 2.73908 12.8261 2.76996C12.8409 2.78541 12.8613 2.80085 12.8705 2.81784C12.8705 2.81784 12.8261 2.76842 12.8502 2.79622C12.8594 2.80703 12.8705 2.81784 12.8798 2.82865C12.941 2.89659 13.0003 2.96608 13.0596 3.03557C13.1782 3.17919 13.2893 3.32589 13.3913 3.47722C13.4932 3.62547 13.5858 3.77835 13.6729 3.93432C13.6933 3.97138 13.7137 4.00999 13.7341 4.04705C13.7396 4.05631 13.7433 4.06558 13.7489 4.07484C13.7489 4.07484 13.7193 4.01616 13.7359 4.04859C13.7471 4.07021 13.7582 4.09338 13.7693 4.11499C13.8101 4.19838 13.8471 4.28177 13.8823 4.3667C14.0232 4.69872 14.1269 5.04308 14.1936 5.39053C14.1974 5.41215 14.2011 5.43223 14.2048 5.45385C14.2066 5.4662 14.2196 5.53415 14.2103 5.48628C14.2011 5.43841 14.214 5.5079 14.2159 5.51871C14.2196 5.54341 14.2233 5.56812 14.227 5.59283C14.2381 5.6824 14.2474 5.77042 14.2548 5.85998C14.2641 5.98815 14.2696 6.11478 14.2696 6.24295C14.2696 6.3109 14.2696 6.38039 14.2696 6.44834C14.2696 6.81895 14.2696 7.18803 14.2696 7.55864C14.2696 8.0667 14.2696 8.57475 14.2696 9.08281C14.2696 9.52137 14.2696 9.95839 14.2696 10.397C14.2696 10.6255 14.2807 10.8556 14.2622 11.0841C14.2585 11.1274 14.2548 11.1691 14.2492 11.2123C14.2474 11.2262 14.2307 11.2911 14.2455 11.2447C14.2604 11.1984 14.24 11.2725 14.2363 11.288C14.2196 11.3745 14.1974 11.4594 14.1696 11.5443C14.1418 11.6308 14.1084 11.7173 14.0713 11.8007C14.0621 11.8207 14.0547 11.8393 14.0454 11.8578C14.0417 11.8671 14.0343 11.8763 14.0324 11.8871C14.0324 11.8871 14.0621 11.83 14.0454 11.8609C14.0232 11.901 14.0028 11.9427 13.9787 11.9813C13.8897 12.1342 13.7823 12.2794 13.6618 12.4168C13.6544 12.4245 13.647 12.4323 13.6396 12.4415C13.6155 12.4693 13.6618 12.4184 13.66 12.4199C13.6507 12.4369 13.6285 12.4539 13.6136 12.4678C13.5784 12.5048 13.5414 12.5404 13.5024 12.5759C13.4339 12.6392 13.3635 12.6994 13.2893 12.7565C13.2226 12.809 13.1411 12.8878 13.0577 12.9218C13.0559 12.9218 13.1189 12.8847 13.0836 12.9048C13.0744 12.911 13.0633 12.9171 13.054 12.9233C13.0336 12.9357 13.0151 12.9465 12.9947 12.9588C12.9521 12.9835 12.9076 13.0083 12.8631 13.033C12.7779 13.0793 12.6889 13.121 12.5981 13.1596C12.55 13.1797 12.5036 13.1997 12.4536 13.2183C12.4314 13.2275 12.4091 13.2353 12.3869 13.243C12.3498 13.2569 12.4184 13.2322 12.4184 13.2322C12.4036 13.2353 12.3869 13.243 12.3721 13.2476C12.1793 13.3109 11.9774 13.3588 11.7735 13.3928C11.7253 13.4005 11.6716 13.402 11.6234 13.4144C11.6234 13.4144 11.7013 13.4067 11.6586 13.4098C11.6457 13.4113 11.6327 13.4128 11.6197 13.4128C11.5901 13.4159 11.5604 13.4175 11.5308 13.4206C11.4326 13.4283 11.3325 13.4314 11.2324 13.4314C10.7673 13.4329 10.3003 13.4314 9.8352 13.4314C9.68139 13.4314 9.52944 13.4314 9.37563 13.4314C9.18106 13.4314 8.99575 13.5734 9.00502 13.7402C9.01428 13.907 9.16809 14.0491 9.37563 14.0491C9.84446 14.0491 10.3133 14.0491 10.7821 14.0491C10.9582 14.0491 11.1361 14.0522 11.3121 14.0491C11.7643 14.0398 12.2183 13.9657 12.6371 13.8205C13.4802 13.5302 14.1955 12.999 14.605 12.3149C14.8886 11.8408 15.009 11.3358 15.009 10.8093C15.009 10.4834 15.009 10.1576 15.009 9.83176C15.009 9.32525 15.009 8.81874 15.009 8.31378C15.009 7.84124 15.009 7.3687 15.009 6.89771C15.009 6.68152 15.009 6.46378 15.009 6.24759C15.0071 5.5326 14.8626 4.81299 14.568 4.14125C14.2622 3.44325 13.8156 2.80085 13.243 2.23103C12.6945 1.68282 12.0237 1.21337 11.2843 0.852022C10.5282 0.482949 9.6888 0.220429 8.82527 0.0953456C7.91355 -0.0374588 6.98886 -0.0312819 6.08085 0.112332C5.22473 0.248225 4.39455 0.518467 3.64961 0.893716C2.91579 1.26433 2.25238 1.73841 1.71314 2.29434C1.14795 2.87343 0.706913 3.52355 0.412273 4.23081C0.141723 4.87939 0.0101539 5.56812 0.00830078 6.25376C0.00830078 6.52864 0.00830078 6.80197 0.00830078 7.07684C0.00830078 7.58335 0.00830078 8.08986 0.00830078 8.59637C0.00830078 9.00405 0.00830078 9.41327 0.00830078 9.82095C0.00830078 9.88426 0.00830078 9.94912 0.00830078 10.0124C0.00830078 10.1746 0.178784 10.329 0.378917 10.3213C0.571638 10.3089 0.742122 10.1808 0.742122 10.0078Z" fill="#FBFBFB"/>
<path d="M8.99464 13.7388C8.99464 13.7604 8.99464 13.782 8.99279 13.8036C8.99279 13.8114 8.99094 13.8175 8.99094 13.8252C8.98723 13.8592 8.98723 13.853 8.99464 13.8052C9.00205 13.8083 8.97241 13.8978 8.9687 13.9071C8.96499 13.9164 8.9409 14.0028 8.92978 14.0044C8.93534 13.992 8.94276 13.9797 8.94831 13.9689C8.9409 13.9812 8.93534 13.9936 8.92793 14.0059C8.91681 14.0245 8.90569 14.0414 8.89272 14.06C8.87975 14.077 8.86863 14.0939 8.85381 14.1109C8.8501 14.1171 8.84454 14.1217 8.84084 14.1279C8.82231 14.1495 8.82231 14.1495 8.84084 14.1295C8.8464 14.1248 8.8501 14.1187 8.85566 14.114C8.8464 14.1248 8.83528 14.1341 8.82416 14.1449C8.80748 14.1603 8.79266 14.1742 8.77598 14.1897C8.74818 14.2144 8.71668 14.236 8.68703 14.2576C8.62773 14.3009 8.74077 14.2329 8.69444 14.2515C8.67035 14.2623 8.64812 14.2777 8.62403 14.2901C8.58882 14.3071 8.55361 14.3225 8.51655 14.3379C8.44057 14.3704 8.59623 14.3163 8.51469 14.3379C8.49431 14.3426 8.47578 14.3487 8.45725 14.3549C8.41277 14.3657 8.37015 14.3735 8.32383 14.3812C8.25156 14.3951 8.34792 14.3781 8.34792 14.3796C8.34421 14.3874 8.25712 14.3858 8.246 14.3858C8.1904 14.3874 8.13666 14.3858 8.08107 14.3858C7.83832 14.3858 7.59556 14.3858 7.35466 14.3858C7.25274 14.3858 7.15082 14.3858 7.05076 14.3858C7.02852 14.3858 7.00443 14.3858 6.98219 14.3858C6.96922 14.3858 6.9581 14.3858 6.94699 14.3858C6.92104 14.3858 6.89695 14.3827 6.87101 14.3827C6.84321 14.3796 6.85063 14.3812 6.8951 14.3858C6.87657 14.3827 6.85618 14.3796 6.83765 14.3765C6.78947 14.3688 6.745 14.3565 6.69682 14.3441C6.60602 14.3209 6.76353 14.375 6.67829 14.3395C6.6579 14.3302 6.63567 14.3225 6.61528 14.3117C6.57266 14.2916 6.51892 14.27 6.48372 14.2406C6.54116 14.287 6.5041 14.2545 6.49298 14.2453C6.46518 14.2237 6.43739 14.2036 6.41144 14.1804C6.39477 14.1665 6.37994 14.1511 6.36326 14.1356C6.32435 14.1017 6.40959 14.1959 6.35956 14.1326C6.33362 14.0986 6.30767 14.0661 6.28544 14.0306C6.27246 14.0106 6.25764 13.9889 6.24837 13.9658C6.27988 14.0399 6.25023 13.9611 6.24467 13.9503C6.22799 13.9071 6.20205 13.853 6.2039 13.8083C6.20205 13.8747 6.20761 13.833 6.20575 13.816C6.20575 13.7913 6.20205 13.765 6.20205 13.7403C6.20205 13.7295 6.19834 13.6384 6.20946 13.6338C6.20761 13.6477 6.20575 13.66 6.20205 13.6739C6.2039 13.66 6.20761 13.6461 6.21131 13.6322C6.21502 13.6183 6.21872 13.6044 6.22243 13.5921C6.22799 13.572 6.2354 13.5519 6.24281 13.5334C6.24652 13.5241 6.27246 13.4438 6.25764 13.4932C6.24467 13.5396 6.2632 13.484 6.26876 13.4747C6.27988 13.4562 6.29099 13.4392 6.30397 13.4207C6.31138 13.4083 6.35956 13.3342 6.37068 13.3357C6.36141 13.3465 6.35215 13.3558 6.34288 13.3666C6.35215 13.3558 6.36326 13.3465 6.37438 13.3357C6.3855 13.3249 6.39477 13.3157 6.40589 13.3064C6.43924 13.277 6.47445 13.2508 6.51151 13.2245C6.57452 13.1782 6.44295 13.2616 6.51336 13.2245C6.53375 13.2137 6.55413 13.2014 6.57452 13.1921C6.60973 13.1751 6.64493 13.1597 6.682 13.1442C6.75241 13.1134 6.6227 13.1566 6.67273 13.1473C6.69126 13.1442 6.71164 13.135 6.73018 13.1303C6.77836 13.118 6.82654 13.1087 6.87472 13.101C6.95996 13.0856 6.78762 13.1056 6.87657 13.101C6.89325 13.0995 6.90992 13.0995 6.9266 13.0979C6.94513 13.0979 6.96552 13.0964 6.98405 13.0964C7.00628 13.0964 7.03037 13.0964 7.05261 13.0964C7.28795 13.0964 7.52144 13.0964 7.75678 13.0964C7.87723 13.0964 7.99768 13.0964 8.11999 13.0964C8.15149 13.0964 8.18114 13.0964 8.21264 13.0964C8.22191 13.0964 8.23117 13.0964 8.24044 13.0964C8.26638 13.0964 8.29047 13.0979 8.31641 13.0995C8.35903 13.1025 8.35533 13.1025 8.30715 13.0979C8.32568 13.101 8.34606 13.1041 8.36459 13.1072C8.41277 13.1164 8.49246 13.1226 8.53137 13.1489C8.48134 13.1164 8.49802 13.135 8.52211 13.1458C8.55546 13.1597 8.59067 13.1736 8.62217 13.1906C8.64256 13.2014 8.66294 13.2122 8.68147 13.223C8.7593 13.2678 8.65553 13.1983 8.70741 13.24C8.74818 13.2724 8.78895 13.3064 8.82786 13.3404C8.89272 13.396 8.78895 13.2879 8.83898 13.3527C8.85381 13.3728 8.87049 13.3913 8.88531 13.4129C8.90014 13.433 8.91311 13.4546 8.92608 13.4763C8.93905 13.4963 8.98167 13.5411 8.93534 13.4901C8.96499 13.5226 8.97426 13.589 8.98538 13.6291C8.98908 13.6461 9.02058 13.7172 8.99094 13.6446C9.0002 13.6677 8.99464 13.7094 8.99464 13.7388C8.99649 13.9009 9.16327 14.0553 9.36526 14.0476C9.56354 14.0399 9.73773 13.9117 9.73587 13.7388C9.72846 13.2709 9.40788 12.8107 8.89087 12.6084C8.67406 12.5235 8.45169 12.4771 8.21079 12.4756C8.13111 12.4756 8.05142 12.4756 7.96989 12.4756C7.69563 12.4756 7.41952 12.4756 7.14527 12.4756C6.82654 12.4756 6.52448 12.5034 6.23911 12.6346C5.80363 12.8338 5.52752 13.2045 5.47008 13.6106C5.40337 14.08 5.68874 14.5387 6.15572 14.7981C6.45407 14.9634 6.79318 15.0004 7.13971 15.0004C7.41211 15.0004 7.68451 15.0004 7.95692 15.0004C8.29974 15.0004 8.62217 14.9865 8.93534 14.8506C9.42641 14.636 9.73032 14.1959 9.73587 13.7372C9.73773 13.5751 9.56354 13.4207 9.36526 13.4284C9.16327 13.4376 8.99649 13.5658 8.99464 13.7388Z" fill="#FBFBFB"/>
</svg>
