<svg width="23" height="23" viewBox="0 0 23 23" fill="none" xmlns="http://www.w3.org/2000/svg">
<path d="M19.8288 17.807C20.0248 17.807 20.2207 17.8141 20.4166 17.7976C20.817 17.7644 21.1947 17.6769 21.5496 17.5136C22.2027 17.2131 22.7025 16.6783 22.8928 16.0772C23.0433 15.5945 22.9836 15.0502 22.9836 14.5557C22.9836 13.7866 22.9836 13.0199 22.9836 12.2508C22.9836 11.7279 22.9836 11.2049 22.9836 10.6819C22.9836 9.60288 22.092 8.59718 20.7971 8.37474C20.5103 8.32504 20.2264 8.32031 19.9339 8.32031C19.6244 8.32031 19.3092 8.34398 19.0138 8.42207C18.3039 8.61137 17.6735 9.03495 17.347 9.59814C17.1397 9.9531 17.0488 10.3246 17.0488 10.7151C17.0488 10.9233 17.0488 11.1339 17.0488 11.3421C17.0488 12.0899 17.0488 12.8401 17.0488 13.5878C17.0488 14.1794 17.0488 14.7686 17.0488 15.3602C17.0488 15.6678 17.0829 15.9802 17.2164 16.2689C17.4833 16.8463 17.9944 17.3432 18.6845 17.5941C19.0479 17.7289 19.4256 17.8047 19.8288 17.807C20.127 17.8094 20.4109 17.587 20.3967 17.3338C20.3825 17.0758 20.1469 16.8629 19.8288 16.8605C19.7493 16.8605 19.6726 16.8558 19.5931 16.851C19.4568 16.8416 19.7238 16.8747 19.5903 16.8487C19.5534 16.8416 19.5165 16.8368 19.4767 16.8297C19.4029 16.8155 19.329 16.7966 19.2581 16.7777C19.2439 16.7729 19.1587 16.7564 19.153 16.7445C19.2297 16.7729 19.241 16.7753 19.1842 16.754C19.1615 16.7445 19.1388 16.7351 19.1161 16.7256C19.0508 16.6972 18.9855 16.6664 18.923 16.6333C18.8917 16.6168 18.8605 16.5978 18.8321 16.5813C18.7242 16.5221 18.9258 16.6499 18.8293 16.5813C18.7157 16.5008 18.6135 16.4132 18.5169 16.321C18.4317 16.2405 18.5879 16.4085 18.5169 16.3186C18.497 16.2926 18.4743 16.2689 18.4544 16.2429C18.4147 16.1908 18.3778 16.1364 18.3437 16.082C18.338 16.0725 18.2897 16.0062 18.2954 15.9968C18.3039 16.0157 18.3153 16.0346 18.3238 16.0512C18.3153 16.0323 18.3068 16.0133 18.2954 15.992C18.2642 15.9234 18.2386 15.8524 18.2188 15.7791C18.2102 15.7483 18.2046 15.7175 18.196 15.6844C18.1676 15.5779 18.2046 15.7696 18.196 15.6986C18.1904 15.6395 18.1818 15.5803 18.1818 15.5188C18.1818 15.4998 18.1818 15.4833 18.1818 15.4643C18.1818 15.0005 18.1818 14.5367 18.1818 14.0729C18.1818 12.9276 18.1705 11.7847 18.1818 10.6393C18.1818 10.6062 18.1818 10.5731 18.1847 10.54C18.1875 10.5139 18.1904 10.4855 18.1932 10.4595C18.2046 10.3601 18.1818 10.469 18.1904 10.4737C18.1705 10.4642 18.2841 10.0927 18.3238 10.0785C18.3153 10.0974 18.3039 10.1164 18.2954 10.1329C18.3068 10.114 18.3153 10.0951 18.3267 10.0761C18.3437 10.0478 18.3607 10.0194 18.3778 9.99333C18.4147 9.9389 18.4516 9.88684 18.4942 9.83478C18.5027 9.82531 18.5084 9.81822 18.5169 9.80875C18.5538 9.76852 18.5453 9.77562 18.4942 9.83005C18.4942 9.81585 18.5538 9.77089 18.5652 9.75906C18.6191 9.70936 18.6731 9.66204 18.7327 9.61471C18.7554 9.59814 18.7782 9.57921 18.8009 9.56265C18.8094 9.55555 18.8208 9.54845 18.8293 9.54372C18.8775 9.51296 18.869 9.51769 18.8009 9.56028C18.8009 9.53662 18.9627 9.47036 18.9855 9.45853C19.0508 9.42777 19.1161 9.39937 19.1842 9.37097C19.3007 9.32128 19.0621 9.40647 19.1871 9.37097C19.2353 9.35678 19.2808 9.34258 19.329 9.33075C19.4029 9.31182 19.4767 9.29762 19.5505 9.28342C19.5619 9.28105 19.5761 9.27869 19.5875 9.27869C19.6499 9.26922 19.6386 9.27159 19.5505 9.28105C19.5676 9.26922 19.6442 9.27395 19.667 9.27159C19.7635 9.26685 19.8601 9.26685 19.9538 9.26685C20.0333 9.26685 20.1128 9.26685 20.1951 9.26685C20.2746 9.26685 20.3513 9.27159 20.4308 9.27632C20.5671 9.28579 20.3002 9.25266 20.4337 9.27869C20.4848 9.28815 20.533 9.29525 20.5842 9.30472C20.658 9.32128 20.729 9.33785 20.8 9.36151C20.8113 9.36388 20.8681 9.37807 20.871 9.38517C20.8482 9.37807 20.8255 9.36861 20.8057 9.36151C20.8284 9.37097 20.8511 9.37807 20.8738 9.38754C20.942 9.41357 21.0073 9.44433 21.0697 9.47746C21.101 9.49402 21.1322 9.51059 21.1634 9.52715C21.1833 9.53899 21.2032 9.55082 21.2231 9.56265C21.1578 9.52005 21.1492 9.51296 21.1947 9.54608C21.3083 9.62891 21.4105 9.7141 21.507 9.80638C21.5922 9.88684 21.436 9.71883 21.507 9.80875C21.5269 9.83478 21.5496 9.85844 21.5695 9.88447C21.6093 9.93653 21.6462 9.99096 21.6803 10.0454C21.6859 10.0549 21.7342 10.1211 21.7285 10.1306C21.72 10.1116 21.7087 10.0927 21.7001 10.0761C21.7087 10.0951 21.7172 10.114 21.7285 10.1353C21.7541 10.1945 21.7768 10.256 21.7967 10.3152C21.8052 10.3459 21.8137 10.3767 21.8222 10.4074C21.8251 10.4169 21.8279 10.4287 21.8279 10.4382C21.8393 10.4903 21.8364 10.4808 21.8251 10.4074C21.862 10.4429 21.8421 10.5896 21.8421 10.6346C21.8535 11.7586 21.8421 12.8803 21.8421 14.0043C21.8421 14.487 21.8421 14.9674 21.8421 15.4501C21.8421 15.4596 21.8421 15.4714 21.8421 15.4809C21.8421 15.5046 21.8421 15.5259 21.8421 15.5495C21.8421 15.5827 21.8393 15.6158 21.8336 15.6466C21.8308 15.6678 21.8279 15.6891 21.8251 15.7104C21.8364 15.6371 21.8393 15.6276 21.8279 15.6797C21.8109 15.7412 21.7967 15.8051 21.7768 15.8666C21.7654 15.895 21.7342 16.0323 21.703 16.0441C21.7115 16.0252 21.7229 16.0062 21.7314 15.9897C21.72 16.0086 21.7115 16.0275 21.7001 16.0465C21.6888 16.0654 21.6774 16.0843 21.6661 16.1009C21.6263 16.1648 21.5809 16.2263 21.5298 16.2855C21.5212 16.2949 21.5156 16.302 21.507 16.3115C21.4701 16.3517 21.4786 16.3446 21.5298 16.2902C21.5298 16.3044 21.4701 16.3494 21.4588 16.3612C21.4105 16.4085 21.3594 16.4511 21.3054 16.4937C21.277 16.515 21.2515 16.5363 21.2231 16.5552C21.2146 16.5623 21.2032 16.5694 21.1947 16.5742C21.1464 16.6049 21.1549 16.6002 21.2231 16.5576C21.2231 16.5836 21.0357 16.6617 21.0044 16.6759C20.9789 16.6877 20.8255 16.7706 20.8057 16.7611C20.8113 16.7635 20.9192 16.7256 20.8369 16.7493C20.8 16.7587 20.7659 16.7706 20.729 16.78C20.658 16.799 20.5842 16.8155 20.5075 16.8297C20.499 16.8321 20.3967 16.851 20.3939 16.8463C20.4819 16.8368 20.4933 16.8368 20.4308 16.8416C20.4053 16.8439 20.3797 16.8463 20.3542 16.8463C20.1781 16.8558 20.002 16.851 19.826 16.851C19.5278 16.851 19.2439 17.0687 19.2581 17.3243C19.2723 17.5893 19.5079 17.807 19.8288 17.807Z" fill="#162C17"/>
<path d="M2.77999 17.807C2.97593 17.807 3.17186 17.8141 3.36779 17.7976C3.76818 17.7644 4.14585 17.6769 4.5008 17.5136C5.15392 17.2131 5.65369 16.6783 5.84395 16.0772C5.99445 15.5945 5.93482 15.0502 5.93482 14.5557C5.93482 13.7866 5.93482 13.0199 5.93482 12.2508C5.93482 11.7279 5.93482 11.2049 5.93482 10.6819C5.93482 9.60288 5.04317 8.59718 3.7483 8.37474C3.4615 8.32504 3.17754 8.32031 2.88506 8.32031C2.57554 8.32031 2.26034 8.34398 1.96502 8.42207C1.25511 8.61137 0.624717 9.03495 0.298161 9.59814C0.090868 9.9531 0 10.3246 0 10.7151C0 10.9233 0 11.1339 0 11.3421C0 12.0899 0 12.8401 0 13.5878C0 14.1794 0 14.7686 0 15.3602C0 15.6678 0.0340755 15.9802 0.167538 16.2689C0.434463 16.8463 0.945595 17.3432 1.63562 17.5941C1.9991 17.7289 2.37677 17.8047 2.77999 17.807C3.07815 17.8094 3.36212 17.587 3.34792 17.3338C3.33372 17.0758 3.09803 16.8629 2.77999 16.8605C2.70048 16.8605 2.62381 16.8558 2.5443 16.851C2.408 16.8416 2.67493 16.8747 2.54146 16.8487C2.50455 16.8416 2.46763 16.8368 2.42788 16.8297C2.35405 16.8155 2.28022 16.7966 2.20923 16.7777C2.19503 16.7729 2.10984 16.7564 2.10416 16.7445C2.18083 16.7729 2.19219 16.7753 2.1354 16.754C2.11268 16.7445 2.08996 16.7351 2.06725 16.7256C2.00194 16.6972 1.93662 16.6664 1.87415 16.6333C1.84292 16.6168 1.81168 16.5978 1.78328 16.5813C1.67538 16.5221 1.87699 16.6499 1.78044 16.5813C1.66686 16.5008 1.56463 16.4132 1.46809 16.321C1.3829 16.2405 1.53908 16.4085 1.46809 16.3186C1.44821 16.2926 1.42549 16.2689 1.40561 16.2429C1.36586 16.1908 1.32894 16.1364 1.29487 16.082C1.28919 16.0725 1.24092 16.0062 1.2466 15.9968C1.25511 16.0157 1.26647 16.0346 1.27499 16.0512C1.26647 16.0323 1.25795 16.0133 1.2466 15.992C1.21536 15.9234 1.1898 15.8524 1.16993 15.7791C1.16141 15.7483 1.15573 15.7175 1.14721 15.6844C1.11881 15.5779 1.15573 15.7696 1.14721 15.6986C1.14153 15.6395 1.13301 15.5803 1.13301 15.5188C1.13301 15.4998 1.13301 15.4833 1.13301 15.4643C1.13301 15.0005 1.13301 14.5367 1.13301 14.0729C1.13301 12.9276 1.12165 11.7847 1.13301 10.6393C1.13301 10.6062 1.13301 10.5731 1.13585 10.54C1.13869 10.5139 1.14153 10.4855 1.14437 10.4595C1.15573 10.3601 1.13301 10.469 1.14153 10.4737C1.12165 10.4642 1.23524 10.0927 1.27499 10.0785C1.26647 10.0974 1.25511 10.1164 1.2466 10.1329C1.25795 10.114 1.26647 10.0951 1.27783 10.0761C1.29487 10.0478 1.31191 10.0194 1.32894 9.99333C1.36586 9.9389 1.40277 9.88684 1.44537 9.83478C1.45389 9.82531 1.45957 9.81822 1.46809 9.80875C1.505 9.76852 1.49648 9.77562 1.44537 9.83005C1.44537 9.81585 1.505 9.77089 1.51636 9.75906C1.57031 9.70936 1.62427 9.66204 1.6839 9.61471C1.70661 9.59814 1.72933 9.57921 1.75205 9.56265C1.76057 9.55555 1.77193 9.54845 1.78044 9.54372C1.82872 9.51296 1.8202 9.51769 1.75205 9.56028C1.75205 9.53662 1.91391 9.47036 1.93662 9.45853C2.00194 9.42777 2.06725 9.39937 2.1354 9.37097C2.25182 9.32128 2.01329 9.40647 2.13824 9.37097C2.18651 9.35678 2.23194 9.34258 2.28022 9.33075C2.35405 9.31182 2.42788 9.29762 2.50171 9.28342C2.51307 9.28105 2.52727 9.27869 2.53862 9.27869C2.6011 9.26922 2.58974 9.27159 2.50171 9.28105C2.51875 9.26922 2.59542 9.27395 2.61813 9.27159C2.71468 9.26685 2.81123 9.26685 2.90494 9.26685C2.98445 9.26685 3.06395 9.26685 3.1463 9.26685C3.22581 9.26685 3.30248 9.27159 3.38199 9.27632C3.51829 9.28579 3.25137 9.25266 3.38483 9.27869C3.43595 9.28815 3.48422 9.29525 3.53533 9.30472C3.60916 9.32128 3.68015 9.33785 3.75114 9.36151C3.7625 9.36388 3.8193 9.37807 3.82213 9.38517C3.79942 9.37807 3.7767 9.36861 3.75682 9.36151C3.77954 9.37097 3.80226 9.37807 3.82497 9.38754C3.89313 9.41357 3.95844 9.44433 4.02091 9.47746C4.05214 9.49402 4.08338 9.51059 4.11462 9.52715C4.13449 9.53899 4.15437 9.55082 4.17425 9.56265C4.10894 9.52005 4.10042 9.51296 4.14585 9.54608C4.25944 9.62891 4.36166 9.7141 4.45821 9.80638C4.5434 9.88684 4.38722 9.71883 4.45821 9.80875C4.47809 9.83478 4.50081 9.85844 4.52068 9.88447C4.56044 9.93653 4.59735 9.99096 4.63143 10.0454C4.63711 10.0549 4.68538 10.1211 4.6797 10.1306C4.67118 10.1116 4.65982 10.0927 4.65131 10.0761C4.65982 10.0951 4.66834 10.114 4.6797 10.1353C4.70526 10.1945 4.72798 10.256 4.74785 10.3152C4.75637 10.3459 4.76489 10.3767 4.77341 10.4074C4.77625 10.4169 4.77909 10.4287 4.77909 10.4382C4.79045 10.4903 4.78761 10.4808 4.77625 10.4074C4.81316 10.4429 4.79329 10.5896 4.79329 10.6346C4.80465 11.7586 4.79329 12.8803 4.79329 14.0043C4.79329 14.487 4.79329 14.9674 4.79329 15.4501C4.79329 15.4596 4.79329 15.4714 4.79329 15.4809C4.79329 15.5046 4.79329 15.5259 4.79329 15.5495C4.79329 15.5827 4.79045 15.6158 4.78477 15.6466C4.78193 15.6678 4.77909 15.6891 4.77625 15.7104C4.78761 15.6371 4.79045 15.6276 4.77909 15.6797C4.76205 15.7412 4.74785 15.8051 4.72797 15.8666C4.71662 15.895 4.68538 16.0323 4.65414 16.0441C4.66266 16.0252 4.67402 16.0062 4.68254 15.9897C4.67118 16.0086 4.66266 16.0275 4.65131 16.0465C4.63995 16.0654 4.62859 16.0843 4.61723 16.1009C4.57748 16.1648 4.53204 16.2263 4.48093 16.2855C4.47241 16.2949 4.46673 16.302 4.45821 16.3115C4.4213 16.3517 4.42981 16.3446 4.48093 16.2902C4.48093 16.3044 4.4213 16.3494 4.40994 16.3612C4.36166 16.4085 4.31055 16.4511 4.2566 16.4937C4.2282 16.515 4.20264 16.5363 4.17425 16.5552C4.16573 16.5623 4.15437 16.5694 4.14585 16.5742C4.09758 16.6049 4.1061 16.6002 4.17425 16.5576C4.17425 16.5836 3.98683 16.6617 3.9556 16.6759C3.93004 16.6877 3.7767 16.7706 3.75682 16.7611C3.7625 16.7635 3.87041 16.7256 3.78806 16.7493C3.75114 16.7587 3.71707 16.7706 3.68015 16.78C3.60916 16.799 3.53533 16.8155 3.45866 16.8297C3.45014 16.8321 3.34792 16.851 3.34508 16.8463C3.43311 16.8368 3.44446 16.8368 3.38199 16.8416C3.35644 16.8439 3.33088 16.8463 3.30532 16.8463C3.12927 16.8558 2.95321 16.851 2.77715 16.851C2.47899 16.851 2.19503 17.0687 2.20923 17.3243C2.22627 17.5893 2.46195 17.807 2.77999 17.807Z" fill="#162C17"/>
<path d="M1.13816 15.3357C1.13816 14.9761 1.13816 14.6187 1.13816 14.2591C1.13816 13.5113 1.13816 12.7611 1.13816 12.0134C1.13816 11.3508 1.13816 10.6882 1.13816 10.0256C1.13816 9.87893 1.13816 9.73221 1.13816 9.5855C1.13816 9.44588 1.141 9.3039 1.14952 9.16429C1.15804 9.02231 1.1694 8.87796 1.1836 8.73598C1.19212 8.66972 1.19779 8.60583 1.20631 8.53957C1.21199 8.50644 1.21483 8.47568 1.22051 8.44255C1.22335 8.42598 1.22619 8.40942 1.22903 8.39286C1.23755 8.3266 1.21199 8.48751 1.22335 8.42125C1.3199 7.88409 1.46188 7.35639 1.66633 6.84289C1.71745 6.71748 1.76856 6.59206 1.82535 6.46901C1.85375 6.40985 1.8793 6.35069 1.9077 6.29153C1.9219 6.26313 1.9361 6.23237 1.95029 6.20398C1.97585 6.15428 1.93042 6.2442 1.93042 6.2442C1.94178 6.22527 1.9503 6.20634 1.96165 6.18505C2.08944 5.93894 2.23142 5.69994 2.38476 5.46331C2.53526 5.23377 2.69712 5.01133 2.87033 4.79363C2.95552 4.68478 3.04639 4.57829 3.13726 4.4718C3.18269 4.42211 3.22529 4.37005 3.27072 4.32036C3.28208 4.30853 3.29344 4.29669 3.3048 4.2825C3.34171 4.2399 3.27356 4.31799 3.27356 4.31562C3.2906 4.28486 3.33035 4.25647 3.35591 4.23044C3.74778 3.82106 4.18508 3.43771 4.65646 3.08985C4.77288 3.00466 4.89214 2.91947 5.01425 2.83665C5.07104 2.79879 5.13635 2.73727 5.2045 2.71124C5.2045 2.71124 5.11364 2.76803 5.16475 2.73727C5.17895 2.7278 5.19315 2.71833 5.21018 2.70887C5.24426 2.68757 5.28117 2.66391 5.31525 2.64261C5.56798 2.4888 5.82638 2.34208 6.09331 2.20483C6.36591 2.06522 6.64703 1.93507 6.93383 1.81675C7.07582 1.75759 7.2178 1.7008 7.35978 1.64874C7.39385 1.63691 7.42793 1.62271 7.46484 1.61088C7.48188 1.60378 7.49892 1.59905 7.51596 1.59195C7.51596 1.59195 7.40805 1.62981 7.46768 1.60851C7.54435 1.58248 7.62102 1.55645 7.69769 1.53042C8.29969 1.33402 8.92157 1.18257 9.55481 1.08082C9.71383 1.05479 9.87284 1.03112 10.0347 1.01219C10.0745 1.00746 10.1114 1.00509 10.1511 0.997994C10.1511 0.997994 10.0319 1.00983 10.0972 1.00509C10.1171 1.00273 10.1369 1.00036 10.1568 0.997994C10.242 0.988528 10.3272 0.981429 10.4095 0.97433C10.7446 0.945934 11.0825 0.931736 11.4204 0.929369C11.7385 0.927003 12.0565 0.936468 12.3746 0.957766C12.5393 0.969597 12.7011 0.983796 12.863 1.00036C12.8828 1.00273 12.9027 1.00509 12.9226 1.00746C12.9226 1.00746 12.8033 0.993261 12.8686 1.00273C12.9084 1.00746 12.9453 1.01219 12.9851 1.01692C13.0759 1.02876 13.164 1.04059 13.2548 1.05479C13.8852 1.14707 14.5071 1.28906 15.1063 1.47363C15.1773 1.49493 15.2483 1.51859 15.3192 1.54226C15.3618 1.55645 15.4016 1.57065 15.4413 1.58248C15.4641 1.58958 15.589 1.63691 15.5123 1.60615C15.4357 1.57538 15.5464 1.61798 15.5663 1.62508C15.6004 1.63691 15.6344 1.65111 15.6714 1.66294C15.7452 1.69134 15.819 1.71973 15.8957 1.74813C16.1796 1.86171 16.4579 1.98476 16.7277 2.11728C17.0031 2.25216 17.2701 2.39651 17.5313 2.55269C17.5938 2.58818 17.6534 2.62605 17.713 2.66391C17.7443 2.68284 17.7727 2.70177 17.8039 2.7207C17.8181 2.73017 17.8351 2.73963 17.8493 2.7491C17.8295 2.73253 17.7642 2.69467 17.8238 2.73253C17.9459 2.81299 18.068 2.89581 18.1873 2.97863C18.6672 3.31939 19.1101 3.69564 19.5134 4.10029C19.5616 4.14761 19.6071 4.19731 19.6553 4.24463C19.6781 4.2683 19.7093 4.29196 19.7235 4.31799C19.7235 4.31799 19.6553 4.24227 19.6923 4.28486C19.7065 4.30143 19.7235 4.31799 19.7377 4.33456C19.8314 4.43867 19.9223 4.54516 20.0131 4.65165C20.1949 4.87172 20.3653 5.09652 20.5214 5.32842C20.6776 5.55559 20.8196 5.78986 20.9531 6.02887C20.9843 6.08566 21.0155 6.14482 21.0468 6.20161C21.0553 6.21581 21.061 6.23001 21.0695 6.2442C21.0695 6.2442 21.024 6.15428 21.0496 6.20398C21.0666 6.23711 21.0837 6.2726 21.1007 6.30573C21.1632 6.43351 21.22 6.5613 21.2739 6.69145C21.4897 7.20021 21.6488 7.72791 21.751 8.26034C21.7567 8.29347 21.7623 8.32423 21.768 8.35736C21.7709 8.37629 21.7907 8.48041 21.7765 8.40705C21.7623 8.3337 21.7822 8.44018 21.7851 8.45675C21.7907 8.49461 21.7964 8.53247 21.8021 8.57033C21.8191 8.70758 21.8333 8.84246 21.8447 8.97971C21.8589 9.17612 21.8674 9.37016 21.8674 9.56657C21.8674 9.67069 21.8674 9.77717 21.8674 9.88129C21.8674 10.4492 21.8674 11.0148 21.8674 11.5827C21.8674 12.3612 21.8674 13.1398 21.8674 13.9183C21.8674 14.5903 21.8674 15.26 21.8674 15.9321C21.8674 16.2823 21.8845 16.6349 21.8561 16.9851C21.8504 17.0514 21.8447 17.1152 21.8362 17.1815C21.8333 17.2028 21.8078 17.3022 21.8305 17.2312C21.8532 17.1602 21.822 17.2738 21.8163 17.2975C21.7907 17.43 21.7567 17.5601 21.7141 17.6903C21.6715 17.8228 21.6204 17.9553 21.5636 18.0831C21.5494 18.1138 21.538 18.1422 21.5238 18.1706C21.5181 18.1848 21.5068 18.199 21.5039 18.2156C21.5039 18.2156 21.5494 18.128 21.5238 18.1754C21.4897 18.2369 21.4585 18.3008 21.4216 18.3599C21.2853 18.5942 21.1206 18.8167 20.936 19.0273C20.9247 19.0391 20.9133 19.0509 20.9019 19.0651C20.865 19.1077 20.936 19.0296 20.9332 19.032C20.919 19.058 20.8849 19.0841 20.8622 19.1053C20.8082 19.1621 20.7514 19.2166 20.6918 19.271C20.5867 19.368 20.4788 19.4603 20.3653 19.5479C20.263 19.6283 20.1381 19.749 20.0103 19.8011C20.0075 19.8011 20.104 19.7443 20.0501 19.775C20.0359 19.7845 20.0188 19.794 20.0046 19.8034C19.9734 19.8224 19.945 19.8389 19.9138 19.8579C19.8484 19.8957 19.7803 19.9336 19.7121 19.9714C19.5815 20.0424 19.4452 20.1063 19.3061 20.1655C19.2322 20.1962 19.1613 20.227 19.0846 20.2554C19.0505 20.2696 19.0164 20.2814 18.9824 20.2933C18.9256 20.3146 19.0306 20.2767 19.0306 20.2767C19.0079 20.2814 18.9824 20.2933 18.9596 20.3004C18.6643 20.3974 18.3548 20.4707 18.0424 20.5228C17.9686 20.5346 17.8863 20.537 17.8124 20.5559C17.8124 20.5559 17.9317 20.5441 17.8664 20.5488C17.8465 20.5512 17.8266 20.5536 17.8068 20.5536C17.7613 20.5583 17.7159 20.5607 17.6705 20.5654C17.5199 20.5772 17.3666 20.582 17.2133 20.582C16.5005 20.5843 15.7849 20.582 15.0722 20.582C14.8365 20.582 14.6037 20.582 14.368 20.582C14.0698 20.582 13.7858 20.7997 13.8 21.0552C13.8142 21.3108 14.0499 21.5285 14.368 21.5285C15.0864 21.5285 15.8048 21.5285 16.5232 21.5285C16.793 21.5285 17.0656 21.5332 17.3354 21.5285C18.0282 21.5143 18.724 21.4007 19.3657 21.1783C20.6577 20.7334 21.7538 19.9194 22.3814 18.8711C22.8158 18.1446 23.0004 17.3708 23.0004 16.5639C23.0004 16.0646 23.0004 15.5653 23.0004 15.066C23.0004 14.2898 23.0004 13.5137 23.0004 12.7399C23.0004 12.0157 23.0004 11.2916 23.0004 10.5699C23.0004 10.2386 23.0004 9.90496 23.0004 9.57367C22.9976 8.47804 22.7761 7.37532 22.3246 6.34596C21.8561 5.27636 21.1717 4.29196 20.2943 3.41878C19.4537 2.57872 18.4258 1.85935 17.2928 1.30562C16.1342 0.740061 14.8479 0.33778 13.5246 0.146106C12.1275 -0.0574011 10.7105 -0.0479357 9.31912 0.172135C8.00721 0.380375 6.73506 0.794487 5.59353 1.36951C4.46904 1.93744 3.45246 2.66391 2.62613 3.5158C1.76004 4.40318 1.08421 5.39942 0.63271 6.48321C0.218125 7.47708 0.0165115 8.53247 0.0136719 9.58313C0.0136719 10.0043 0.0136719 10.4232 0.0136719 10.8444C0.0136719 11.6206 0.0136719 12.3967 0.0136719 13.1729C0.0136719 13.7976 0.0136719 14.4247 0.0136719 15.0494C0.0136719 15.1464 0.0136719 15.2458 0.0136719 15.3428C0.0136719 15.5913 0.274917 15.8279 0.581597 15.8161C0.876917 15.7972 1.13816 15.6008 1.13816 15.3357Z" fill="#162C17"/>
<path d="M13.7832 21.049C13.7832 21.0821 13.7832 21.1152 13.7803 21.1483C13.7803 21.1602 13.7775 21.1696 13.7775 21.1815C13.7718 21.2335 13.7718 21.2241 13.7832 21.1507C13.7945 21.1554 13.7491 21.2927 13.7434 21.3069C13.7377 21.3211 13.7008 21.4536 13.6838 21.456C13.6923 21.437 13.7036 21.4181 13.7122 21.4015C13.7008 21.4205 13.6923 21.4394 13.6809 21.4583C13.6639 21.4867 13.6469 21.5128 13.627 21.5412C13.6071 21.5672 13.5901 21.5932 13.5673 21.6193C13.5617 21.6287 13.5531 21.6358 13.5475 21.6453C13.5191 21.6784 13.5191 21.6784 13.5475 21.6476C13.556 21.6405 13.5617 21.6311 13.5702 21.624C13.556 21.6405 13.5389 21.6547 13.5219 21.6713C13.4964 21.695 13.4736 21.7163 13.4481 21.7399C13.4055 21.7778 13.3572 21.8109 13.3118 21.8441C13.2209 21.9103 13.3941 21.8062 13.3231 21.8346C13.2862 21.8512 13.2521 21.8748 13.2152 21.8937C13.1613 21.9198 13.1073 21.9434 13.0505 21.9671C12.9341 22.0168 13.1726 21.934 13.0477 21.9671C13.0165 21.9742 12.9881 21.9837 12.9597 21.9931C12.8915 22.0097 12.8262 22.0215 12.7552 22.0334C12.6445 22.0547 12.7921 22.0286 12.7921 22.031C12.7864 22.0428 12.653 22.0405 12.6359 22.0405C12.5508 22.0428 12.4684 22.0405 12.3832 22.0405C12.0112 22.0405 11.6392 22.0405 11.2701 22.0405C11.1139 22.0405 10.9577 22.0405 10.8044 22.0405C10.7703 22.0405 10.7334 22.0405 10.6993 22.0405C10.6794 22.0405 10.6624 22.0405 10.6454 22.0405C10.6056 22.0405 10.5687 22.0357 10.5289 22.0357C10.4864 22.031 10.4977 22.0334 10.5659 22.0405C10.5375 22.0357 10.5062 22.031 10.4778 22.0263C10.404 22.0144 10.3358 21.9955 10.262 21.9766C10.1229 21.9411 10.3642 22.0239 10.2336 21.9695C10.2024 21.9553 10.1683 21.9434 10.1371 21.9269C10.0718 21.8961 9.98942 21.863 9.93546 21.818C10.0235 21.889 9.9667 21.8393 9.94966 21.8251C9.90707 21.792 9.86447 21.7612 9.82472 21.7257C9.79916 21.7044 9.77644 21.6808 9.75089 21.6571C9.69125 21.6051 9.82188 21.7494 9.74521 21.6524C9.70545 21.6003 9.6657 21.5506 9.63162 21.4962C9.61175 21.4654 9.58903 21.4323 9.57483 21.3968C9.6231 21.5104 9.57767 21.3897 9.56915 21.3732C9.54359 21.3069 9.50384 21.2241 9.50668 21.1554C9.50384 21.2572 9.51236 21.1933 9.50952 21.1673C9.50952 21.1294 9.50384 21.0892 9.50384 21.0513C9.50384 21.0348 9.49816 20.8951 9.5152 20.888C9.51236 20.9093 9.50952 20.9283 9.50384 20.9496C9.50668 20.9283 9.51236 20.907 9.51804 20.8857C9.52372 20.8644 9.5294 20.8431 9.53508 20.8242C9.54359 20.7934 9.55495 20.7626 9.56631 20.7342C9.57199 20.72 9.61175 20.597 9.58903 20.6727C9.56915 20.7437 9.59755 20.6585 9.60607 20.6443C9.6231 20.6159 9.64014 20.5899 9.66002 20.5615C9.67138 20.5426 9.74521 20.429 9.76225 20.4313C9.74805 20.4479 9.73385 20.4621 9.71965 20.4787C9.73385 20.4621 9.75089 20.4479 9.76792 20.4313C9.78496 20.4148 9.79916 20.4006 9.8162 20.3864C9.86731 20.3414 9.92126 20.3012 9.97806 20.261C10.0746 20.19 9.87299 20.3178 9.9809 20.261C10.0121 20.2444 10.0434 20.2255 10.0746 20.2113C10.1286 20.1852 10.1825 20.1616 10.2393 20.1379C10.3472 20.0906 10.1484 20.1568 10.2251 20.1426C10.2535 20.1379 10.2847 20.1237 10.3131 20.1166C10.387 20.0977 10.4608 20.0835 10.5346 20.0717C10.6652 20.048 10.4012 20.0788 10.5375 20.0717C10.563 20.0693 10.5886 20.0693 10.6141 20.0669C10.6425 20.0669 10.6738 20.0646 10.7022 20.0646C10.7362 20.0646 10.7732 20.0646 10.8072 20.0646C11.1679 20.0646 11.5257 20.0646 11.8863 20.0646C12.0709 20.0646 12.2554 20.0646 12.4428 20.0646C12.4911 20.0646 12.5366 20.0646 12.5848 20.0646C12.599 20.0646 12.6132 20.0646 12.6274 20.0646C12.6672 20.0646 12.7041 20.0669 12.7439 20.0693C12.8092 20.074 12.8035 20.074 12.7297 20.0669C12.758 20.0717 12.7893 20.0764 12.8177 20.0811C12.8915 20.0953 13.0136 20.1048 13.0732 20.145C12.9966 20.0953 13.0221 20.1237 13.059 20.1403C13.1102 20.1616 13.1641 20.1829 13.2124 20.2089C13.2436 20.2255 13.2749 20.242 13.3033 20.2586C13.4225 20.3272 13.2635 20.2207 13.343 20.2846C13.4055 20.3343 13.468 20.3864 13.5276 20.4384C13.627 20.5236 13.468 20.358 13.5446 20.4574C13.5673 20.4881 13.5929 20.5165 13.6156 20.5497C13.6383 20.5804 13.6582 20.6136 13.6781 20.6467C13.698 20.6774 13.7633 20.7461 13.6923 20.668C13.7377 20.7177 13.7519 20.8194 13.769 20.8809C13.7746 20.907 13.8229 21.0158 13.7775 20.9046C13.7917 20.9401 13.7832 21.004 13.7832 21.049C13.786 21.2974 14.0416 21.5341 14.3511 21.5222C14.6549 21.5104 14.9218 21.314 14.919 21.049C14.9076 20.332 14.4164 19.6268 13.6241 19.3168C13.2919 19.1866 12.9511 19.1156 12.582 19.1133C12.4599 19.1133 12.3378 19.1133 12.2128 19.1133C11.7926 19.1133 11.3695 19.1133 10.9492 19.1133C10.4608 19.1133 9.99793 19.1559 9.56063 19.357C8.89332 19.6623 8.47022 20.2302 8.38219 20.8526C8.27996 21.5719 8.71726 22.2747 9.43285 22.6723C9.89003 22.9255 10.4097 22.9823 10.9407 22.9823C11.3581 22.9823 11.7755 22.9823 12.193 22.9823C12.7183 22.9823 13.2124 22.961 13.6923 22.7527C14.4448 22.4238 14.9105 21.7494 14.919 21.0466C14.9218 20.7981 14.6549 20.5615 14.3511 20.5733C14.0416 20.5875 13.786 20.7839 13.7832 21.049Z" fill="#162C17"/>
</svg>
