<svg width="27" height="22" viewBox="0 0 27 22" fill="none" xmlns="http://www.w3.org/2000/svg">
<path d="M22.4506 4.88672L19.8401 9.28672L23.4948 12.0367L26.6274 8.18672M24.539 6.53672L17.7517 15.8867" stroke="#162C17" stroke-width="0.7" stroke-linecap="round" stroke-linejoin="round"/>
<path d="M11.6659 13.4595C13.9241 12.9056 15.616 10.7309 15.616 8.13532C15.616 7.74036 15.5615 7.34764 15.4815 6.95844C17.5691 6.51351 19.0938 5.74473 19.0938 4.61206C19.0938 3.11741 16.5042 2.42391 14.7266 2.12376C14.377 0.886343 12.7657 0 10.7349 0C8.7633 0 7.16156 0.859435 6.77057 2.0597C4.83795 2.34255 1.98499 3.029 1.98499 4.61206C1.98499 5.74473 3.50996 6.51351 5.59761 6.95844C5.51816 7.34572 5.46371 7.73844 5.46371 8.13532C5.46371 10.7309 7.15501 12.9056 9.41256 13.4595C0.116344 14.0143 0 21.393 0 21.4711V22H21.0797V21.4711C21.0797 21.393 20.9636 14.0143 11.6659 13.4595ZM2.96811 4.61206C2.96811 4.34683 3.97891 3.48675 7.23327 3.06232L7.63169 3.01043L7.66442 2.57991C7.71947 1.84508 8.96593 1.05836 10.7346 1.05836C12.5205 1.05836 13.7902 1.87615 13.8131 2.6097L13.8274 3.05431L14.2368 3.11549C17.1356 3.55082 18.111 4.32568 18.111 4.61206C18.111 5.13771 15.5348 6.36904 10.5391 6.36904C5.54405 6.36904 2.96811 5.13771 2.96811 4.61206ZM6.44683 8.13532C6.44683 7.83454 6.47569 7.53471 6.53193 7.24001C8.98319 7.62889 12.0971 7.62825 14.5475 7.24001C14.6043 7.53663 14.6332 7.83582 14.6332 8.13532C14.6332 10.565 12.7967 12.5414 10.5391 12.5414C8.28274 12.5417 6.44683 10.565 6.44683 8.13532ZM1.0227 20.942C1.23158 19.3022 2.52773 14.4813 10.5391 14.4813C18.5148 14.4813 19.8356 19.3003 20.054 20.942H1.0227Z" fill="#162C17"/>
</svg>
