<svg width="9" height="23" viewBox="0 0 9 23" fill="none" xmlns="http://www.w3.org/2000/svg">
<path d="M8.56118 14.2581C9.15769 13.0193 9.13475 11.7805 8.56118 11.0793C9.20357 9.74695 9.1118 8.36789 8.40058 7.71342V2.10366C8.40058 1.94004 8.26293 1.82317 8.12527 1.82317C7.98762 1.82317 7.84996 1.96341 7.84996 2.10366V7.38618C7.45994 7.26931 7.04697 7.31606 6.634 7.47968C6.634 7.4563 6.634 7.40955 6.634 7.38618C6.634 5.72663 5.85395 4.41768 4.82153 4.20732V0.280488C4.82153 0.11687 4.68388 0 4.54622 0C4.40857 0 4.20208 0.11687 4.20208 0.280488V4.23069C3.16966 4.44106 2.38961 5.75 2.38961 7.40955C2.38961 7.43293 2.38961 7.47968 2.38961 7.50305C1.97665 7.33943 1.54074 7.29268 1.17366 7.40955V2.12703C1.17366 1.96341 1.036 1.84654 0.898344 1.84654C0.760688 1.84654 0.60009 1.96341 0.60009 2.12703V7.73679C-0.134074 8.39126 -0.202902 9.74695 0.439491 11.1026C-0.134074 11.8039 -0.157017 13.0661 0.439491 14.2815C0.187122 14.6087 0.0265241 15.0295 0.00358148 15.5671C-0.0193611 16.2683 0.187123 17.063 0.60009 17.7876C1.26543 18.9797 2.32079 19.7043 3.21555 19.7043C3.49086 19.7043 3.76617 19.6341 3.9956 19.4939C4.06443 19.4472 4.1562 19.4004 4.22502 19.3303V22.7195C4.22502 22.8831 4.36268 23 4.50034 23C4.63799 23 4.77565 22.8598 4.77565 22.7195V19.3069C4.84448 19.377 4.9133 19.4238 5.00507 19.4705C6.03749 20.0783 7.52876 19.3303 8.40058 17.7642C8.81355 17.0396 9.02003 16.2449 8.99709 15.5437C8.97415 15.0295 8.81355 14.5854 8.56118 14.2581ZM7.8729 8.04065C8.5153 8.41463 8.60707 9.55996 8.12527 10.6819C7.1158 10.1443 5.67041 10.8689 4.79859 12.3648V10.7988C4.86742 10.378 5.02802 9.93394 5.25744 9.51321C5.94572 8.32114 7.13874 7.61992 7.8729 8.04065ZM8.10233 13.8841C7.09285 13.3465 5.64747 14.0711 4.77565 15.5671V14.001C4.84448 13.5803 5.00507 13.1362 5.2345 12.7154C5.92278 11.4766 7.13874 10.7988 7.84996 11.2195C8.5153 11.6169 8.60707 12.7622 8.10233 13.8841ZM4.20208 18.1616C4.1562 18.4187 4.01854 18.7693 3.69734 18.9563C2.98612 19.377 1.77016 18.6992 1.08188 17.4604C0.737745 16.8293 0.554205 16.1514 0.577148 15.5671C0.60009 15.0295 0.806573 14.6087 1.12777 14.4217C1.26543 14.3283 1.44897 14.3049 1.60957 14.3049C2.29784 14.3049 3.19261 14.936 3.74323 15.9177C3.97266 16.315 4.13325 16.7591 4.20208 17.2033V18.1616ZM4.20208 15.5671C3.33026 14.0711 1.88488 13.3465 0.875402 13.8841C0.393606 12.7622 0.485377 11.6169 1.12777 11.2429C1.83899 10.8222 3.05495 11.5 3.74323 12.7388C3.97266 13.1362 4.13325 13.5803 4.20208 14.0244V15.5671ZM4.20208 12.3882C3.33026 10.8923 1.88488 10.1677 0.875402 10.7053C0.393606 9.58333 0.485377 8.43801 1.12777 8.06402C1.83899 7.64329 3.05495 8.32114 3.74323 9.55996C3.97266 9.95732 4.13325 10.4014 4.20208 10.8455V12.3882ZM4.7527 9.2561C4.66093 9.41972 4.56916 9.60671 4.50034 9.77033C4.43151 9.58333 4.33974 9.41972 4.24797 9.2561C3.90383 8.64838 3.46792 8.15752 2.98612 7.83029C2.96318 7.69004 2.96318 7.5498 2.96318 7.40955C2.96318 5.98374 3.6744 4.79167 4.50034 4.79167C5.32627 4.79167 6.03749 5.98374 6.03749 7.40955C6.03749 7.5498 6.03749 7.69004 6.01455 7.83029C5.53275 8.15752 5.09684 8.64838 4.7527 9.2561ZM7.91879 17.4604C7.23051 18.6992 6.01455 19.377 5.30333 18.9563C4.98213 18.7693 4.84448 18.4187 4.79859 18.1616V17.2033C4.86742 16.7825 5.02802 16.3384 5.25744 15.9177C5.94572 14.6789 7.16168 14.001 7.8729 14.4217C8.21704 14.6087 8.40058 15.0295 8.42353 15.5671C8.44647 16.1748 8.26293 16.8293 7.91879 17.4604Z" fill="#FBFBFB"/>
</svg>
