<svg width="16" height="39" viewBox="0 0 16 39" fill="none" xmlns="http://www.w3.org/2000/svg">
<path d="M15.2199 24.1768C16.2803 22.0762 16.2395 19.9756 15.2199 18.7866C16.3619 16.5274 16.1988 14.189 14.9344 13.0793V3.56707C14.9344 3.28963 14.6896 3.09146 14.4449 3.09146C14.2002 3.09146 13.9555 3.32927 13.9555 3.56707V12.5244C13.2621 12.3262 12.5279 12.4055 11.7938 12.6829C11.7938 12.6433 11.7938 12.564 11.7938 12.5244C11.7938 9.71037 10.407 7.49085 8.57161 7.13415V0.47561C8.57161 0.198171 8.32689 0 8.08217 0C7.83745 0 7.47037 0.198171 7.47037 0.47561V7.17378C5.63496 7.53049 4.2482 9.75 4.2482 12.564C4.2482 12.6037 4.2482 12.6829 4.2482 12.7226C3.51404 12.4451 2.73909 12.3659 2.0865 12.564V3.60671C2.0865 3.32927 1.84178 3.1311 1.59706 3.1311C1.35233 3.1311 1.06683 3.32927 1.06683 3.60671V13.1189C-0.238354 14.2287 -0.360715 16.5274 0.781318 18.8262C-0.238354 20.0152 -0.279141 22.1555 0.781318 24.2165C0.332662 24.7713 0.047154 25.4848 0.00636707 26.3963C-0.0344198 27.5854 0.332662 28.9329 1.06683 30.1616C2.24965 32.1829 4.12584 33.4116 5.71653 33.4116C6.20597 33.4116 6.69542 33.2927 7.10328 33.0549C7.22565 32.9756 7.38879 32.8963 7.51115 32.7774V38.5244C7.51115 38.8018 7.75588 39 8.0006 39C8.24532 39 8.49004 38.7622 8.49004 38.5244V32.7378C8.6124 32.8567 8.73476 32.936 8.89791 33.0152C10.7333 34.0457 13.3845 32.7774 14.9344 30.122C15.6685 28.8933 16.0356 27.5457 15.9948 26.3567C15.954 25.4848 15.6685 24.7317 15.2199 24.1768ZM13.9963 13.6341C15.1383 14.2683 15.3015 16.2104 14.4449 18.1128C12.6503 17.2012 10.0807 18.4299 8.53083 20.9665V18.311C8.65319 17.5976 8.93869 16.8445 9.34656 16.1311C10.5702 14.1098 12.6911 12.9207 13.9963 13.6341ZM14.4041 23.5427C12.6095 22.6311 10.0399 23.8598 8.49004 26.3963V23.7409C8.6124 23.0274 8.89791 22.2744 9.30578 21.561C10.5294 19.4604 12.6911 18.311 13.9555 19.0244C15.1383 19.6982 15.3014 21.6402 14.4041 23.5427ZM7.47037 30.7957C7.38879 31.2317 7.14407 31.8262 6.57306 32.1433C5.30866 32.8567 3.14696 31.7073 1.92335 29.6067C1.31155 28.5366 0.985253 27.3872 1.02604 26.3963C1.06683 25.4848 1.43391 24.7713 2.00492 24.4543C2.24965 24.2957 2.57594 24.2561 2.86145 24.2561C4.08506 24.2561 5.67574 25.3262 6.65463 26.9909C7.0625 27.6646 7.34801 28.4177 7.47037 29.1707V30.7957ZM7.47037 26.3963C5.92047 23.8598 3.35089 22.6311 1.55627 23.5427C0.699745 21.6402 0.862891 19.6982 2.00492 19.064C3.26932 18.3506 5.43102 19.5 6.65463 21.6006C7.0625 22.2744 7.34801 23.0274 7.47037 23.7805V26.3963ZM7.47037 21.0061C5.92047 18.4695 3.35089 17.2409 1.55627 18.1524C0.699745 16.25 0.862891 14.3079 2.00492 13.6738C3.26932 12.9604 5.43102 14.1098 6.65463 16.2104C7.0625 16.8841 7.34801 17.6372 7.47037 18.3902V21.0061ZM8.44925 15.6951C8.2861 15.9726 8.12296 16.2896 8.0006 16.5671C7.87824 16.25 7.71509 15.9726 7.55194 15.6951C6.94014 14.6646 6.16519 13.8323 5.30866 13.2774C5.26788 13.0396 5.26788 12.8018 5.26788 12.564C5.26788 10.1463 6.53227 8.125 8.0006 8.125C9.46892 8.125 10.7333 10.1463 10.7333 12.564C10.7333 12.8018 10.7333 13.0396 10.6925 13.2774C9.83601 13.8323 9.06106 14.6646 8.44925 15.6951ZM14.0778 29.6067C12.8542 31.7073 10.6925 32.8567 9.42814 32.1433C8.85712 31.8262 8.6124 31.2317 8.53083 30.7957V29.1707C8.65319 28.4573 8.93869 27.7043 9.34656 26.9909C10.5702 24.8902 12.7319 23.7409 13.9963 24.4543C14.6081 24.7713 14.9344 25.4848 14.9752 26.3963C15.0159 27.4268 14.6896 28.5366 14.0778 29.6067Z" fill="#162C17"/>
</svg>
