<svg width="21" height="16" viewBox="0 0 21 16" fill="none" xmlns="http://www.w3.org/2000/svg">
<path d="M17.1439 3.55469L15.1504 6.75469L17.9413 8.75469L20.3334 5.95469M18.7387 4.75469L13.5557 11.5547" stroke="#FBFBFB" stroke-width="0.7" stroke-linecap="round" stroke-linejoin="round"/>
<path d="M8.90854 9.7887C10.6329 9.38591 11.9249 7.80431 11.9249 5.9166C11.9249 5.62935 11.8834 5.34374 11.8222 5.06069C13.4164 4.7371 14.5807 4.17799 14.5807 3.35422C14.5807 2.26721 12.6032 1.76284 11.2458 1.54455C10.9788 0.644613 9.74836 0 8.19756 0C6.69197 0 5.46882 0.625044 5.17025 1.49796C3.69443 1.70367 1.51581 2.20291 1.51581 3.35422C1.51581 4.17799 2.68033 4.7371 4.27454 5.06069C4.21387 5.34234 4.17229 5.62796 4.17229 5.9166C4.17229 7.80431 5.46383 9.38591 7.18777 9.7887C0.0888443 10.1922 0 15.5585 0 15.6154V16H16.0972V15.6154C16.0972 15.5585 16.0086 10.1922 8.90854 9.7887ZM2.26656 3.35422C2.26656 3.16133 3.03844 2.53582 5.52359 2.22714L5.82784 2.1894L5.85283 1.8763C5.89487 1.34188 6.84671 0.769715 8.19733 0.769715C9.56113 0.769715 10.5307 1.36447 10.5482 1.89796L10.5591 2.22132L10.8718 2.26581C13.0854 2.58241 13.8302 3.14595 13.8302 3.35422C13.8302 3.73652 11.8629 4.63203 8.04804 4.63203C4.23364 4.63203 2.26656 3.73652 2.26656 3.35422ZM4.92303 5.9166C4.92303 5.69784 4.94507 5.47979 4.98802 5.26546C6.85989 5.54828 9.23779 5.54782 11.109 5.26546C11.1524 5.48119 11.1744 5.69878 11.1744 5.9166C11.1744 7.68363 9.77199 9.12103 8.04804 9.12103C6.325 9.12126 4.92303 7.68363 4.92303 5.9166ZM0.780969 15.2305C0.94048 14.038 1.93027 10.5319 8.04804 10.5319C14.1386 10.5319 15.1472 14.0366 15.314 15.2305H0.780969Z" fill="#FBFBFB"/>
</svg>
