<svg width="18" height="11" viewBox="0 0 18 11" fill="none" xmlns="http://www.w3.org/2000/svg">
<path d="M17.9794 5.88821L15.7923 0.193292C15.764 0.11946 15.7092 0.0599118 15.6394 0.0271958C15.5696 -0.0055201 15.4903 -0.00884808 15.4182 0.0179132L13.0342 0.902781C12.9968 0.916706 12.9624 0.938341 12.9332 0.966388C12.9039 0.994435 12.8805 1.02832 12.8642 1.066C12.8479 1.10368 12.8391 1.14439 12.8384 1.18568C12.8376 1.22697 12.8449 1.26799 12.8599 1.30628L13.0165 1.70916L12.0264 2.04643C11.6581 1.89864 10.3616 1.37771 9.99626 1.20693C9.41255 0.934361 8.87996 1.15144 8.26137 1.56199C7.82544 1.21552 7.41698 1.21307 6.8646 1.53776C6.48038 1.76251 5.88159 2.13749 5.60466 2.31164L5.1374 2.03845L5.35197 1.57425C5.38537 1.50205 5.39023 1.41916 5.36548 1.34329C5.34074 1.26743 5.28836 1.20462 5.21956 1.1683L3.07652 0.0338568C3.04187 0.0155035 3.00407 0.00442612 2.96529 0.00125996C2.92651 -0.0019062 2.88751 0.00290104 2.85052 0.0154061C2.81354 0.0279112 2.77929 0.0478681 2.74976 0.0741321C2.72022 0.100396 2.69598 0.132451 2.67841 0.168457L0.0320402 5.5908C-0.00333174 5.66305 -0.00969539 5.74689 0.0143401 5.82399C0.0383756 5.90109 0.0908556 5.96519 0.16031 6.00227L2.413 7.20478C2.45492 7.22697 2.50131 7.23852 2.54837 7.23851C2.58039 7.23848 2.61221 7.2332 2.64265 7.22287C2.68006 7.2097 2.71457 7.18892 2.74415 7.16176C2.77374 7.13459 2.7978 7.10159 2.81495 7.06466L2.98667 6.69305L3.25858 6.88622C3.20578 6.9956 3.15949 7.10823 3.11996 7.22348C3.11053 7.25411 3.10574 7.28607 3.10578 7.31823C3.10578 8.09026 3.87155 8.51706 4.19429 8.6627C4.24697 8.83349 4.33466 8.99043 4.45134 9.12275C4.56801 9.25506 4.71091 9.35961 4.87022 9.42921C4.93739 9.44975 5.00708 9.46008 5.0771 9.45988C5.18493 9.45857 5.29147 9.43534 5.39068 9.3915C5.49254 9.62142 5.66024 9.81318 5.87095 9.94063C6.05948 10.0449 6.27684 10.0788 6.48659 10.0366C6.61601 10.2808 6.8149 10.4776 7.05612 10.6001C7.14487 10.6383 7.23994 10.658 7.336 10.6584C7.43582 10.6582 7.53459 10.6374 7.62653 10.5971C7.87974 10.4811 8.09761 10.2955 8.25665 10.0605C8.40442 10.1816 8.63022 10.3671 8.88115 10.5744C9.07386 10.7257 9.31014 10.8051 9.55175 10.7997C9.75395 10.7994 9.95337 10.7508 10.1346 10.6578C10.2685 10.5914 10.3876 10.4968 10.4842 10.3801C10.5809 10.2633 10.6531 10.1269 10.6961 9.97957C10.8012 9.97828 10.9057 9.96439 11.0076 9.93818C11.1944 9.89088 11.3691 9.80265 11.5202 9.67942C11.6713 9.5562 11.7953 9.40084 11.8837 9.22379C11.9401 9.2326 11.9971 9.23721 12.0542 9.23758C12.3353 9.23587 12.6094 9.14587 12.8402 8.97943C13.0711 8.813 13.2479 8.57794 13.3475 8.30519C13.3605 8.30519 13.3729 8.30765 13.3856 8.30765C13.6925 8.31705 13.991 8.20264 14.2182 7.98847C14.3705 7.84344 14.4744 7.65185 14.5147 7.44147C14.5549 7.23109 14.5296 7.01287 14.4422 6.81846L14.9175 6.60015L15.091 7.04657C15.1199 7.12112 15.176 7.18089 15.247 7.21301C15.318 7.24512 15.3984 7.24701 15.4708 7.21827L17.8106 6.28925C17.847 6.27471 17.8803 6.25284 17.9085 6.22489C17.9368 6.19694 17.9594 6.16348 17.975 6.12642C17.9907 6.08937 17.9992 6.04946 17.9999 6.00899C18.0007 5.96853 17.9937 5.92831 17.9794 5.89066V5.88821ZM2.4133 6.51522L0.692007 5.5954L3.07179 0.72035L4.69436 1.57885L2.4133 6.51522ZM3.69924 7.36514C3.78788 7.13666 3.90184 6.91965 4.03883 6.7185C4.09405 6.67369 4.16083 6.64686 4.23074 6.6414C4.30066 6.63594 4.37056 6.6521 4.43162 6.68784C4.4558 6.69533 4.47816 6.70809 4.49721 6.72527C4.51626 6.74244 4.53156 6.76364 4.54208 6.78744C4.5526 6.81124 4.5581 6.83709 4.55821 6.86327C4.55833 6.88945 4.55305 6.91536 4.54275 6.93926C4.43044 7.31547 4.31606 7.72233 4.23892 8.00196C4.01194 7.87042 3.72791 7.65212 3.69924 7.36514ZM5.03986 8.84053C4.92726 8.80588 4.81702 8.62222 4.75229 8.46187C4.97207 8.07631 5.21233 7.70372 5.47196 7.34582C5.53104 7.26444 5.61637 7.20782 5.71236 7.18632C5.80836 7.16482 5.9086 7.17986 5.99479 7.2287C6.11301 7.31363 6.04681 7.48257 5.97085 7.60981C5.96849 7.61349 5.96878 7.61778 5.96671 7.62146C5.96228 7.63035 5.95548 7.63802 5.95164 7.64691C5.89962 7.76955 5.56033 8.33524 5.32064 8.72402C5.24468 8.78841 5.12853 8.86812 5.03986 8.84053ZM6.43782 9.42032C6.39163 9.43746 6.34254 9.44459 6.29358 9.44126C6.24463 9.43794 6.19685 9.42424 6.15321 9.40101C6.0134 9.29918 5.91148 9.1507 5.86445 8.98034C6.03853 8.69642 6.41388 8.0783 6.49073 7.89894C6.52454 7.85935 6.57046 7.83304 6.62077 7.82443C6.67775 7.81444 6.73612 7.81695 6.79212 7.83179C6.84811 7.84663 6.90049 7.87347 6.94588 7.91059C7.00553 7.95128 7.05008 8.01181 7.07221 8.08223C7.09433 8.15266 7.09272 8.22879 7.06764 8.29814L6.43782 9.42032ZM7.39866 10.0299C7.24438 10.097 7.07858 9.86337 6.98489 9.70056L7.58279 8.8531C7.6457 8.85125 7.70832 8.86257 7.76692 8.88638C7.82552 8.91019 7.87889 8.946 7.92385 8.99169C7.95295 9.05021 7.97054 9.11414 7.97562 9.17978C7.98069 9.24541 7.97314 9.31144 7.95341 9.37402C7.85349 9.65656 7.65572 9.89037 7.39866 10.0299ZM13.7997 7.55462C13.7132 7.62074 13.6132 7.66541 13.5075 7.68518C13.4017 7.70495 13.293 7.69931 13.1897 7.66868C13.1876 7.66868 13.1861 7.66684 13.1841 7.66653H13.1811C13.153 7.65781 13.1261 7.64534 13.101 7.62943C12.9269 7.50893 12.0158 6.59985 11.4823 6.055C11.4257 6.00186 11.3515 5.97349 11.2752 5.97581C11.199 5.97814 11.1265 6.01099 11.073 6.06749C11.0196 6.12399 10.9892 6.19975 10.9884 6.27892C10.9876 6.35809 11.0163 6.43452 11.0685 6.49223C11.305 6.73414 12.5019 7.95137 12.7739 8.13963C12.7286 8.24096 12.6643 8.33189 12.5847 8.40708C12.5052 8.48227 12.4119 8.54019 12.3104 8.57746C12.2254 8.6162 12.1327 8.63309 12.0401 8.62668C11.9475 8.62028 11.8577 8.59077 11.7784 8.54067C11.396 8.18776 10.358 7.11157 10.3477 7.09961C10.2919 7.04376 10.2173 7.01286 10.1398 7.01356C10.0623 7.01426 9.98816 7.0465 9.93336 7.10335C9.87856 7.1602 9.84748 7.2371 9.84681 7.31749C9.84614 7.39788 9.87593 7.47533 9.92976 7.53316C9.97173 7.57639 10.9305 8.57071 11.3484 8.96256C11.2969 9.05638 11.2275 9.13839 11.1446 9.20363C11.0616 9.26887 10.9668 9.31599 10.8658 9.34214C10.7952 9.36685 10.7204 9.37592 10.6462 9.36873C10.572 9.36155 10.5001 9.33828 10.4352 9.30044L9.38447 8.2126L8.96656 8.64614L10.0164 9.73521C10.05 9.76846 10.0867 9.79814 10.126 9.82382C10.1038 9.88651 10.0699 9.94401 10.0261 9.99296C9.98229 10.0419 9.92956 10.0813 9.87095 10.109C9.77524 10.1627 9.66773 10.1897 9.55894 10.1874C9.45015 10.1851 9.3438 10.1535 9.25029 10.0958C8.93937 9.83792 8.66658 9.61502 8.5321 9.50556C8.5724 9.35847 8.58162 9.20408 8.55913 9.05295C8.53663 8.90183 8.48296 8.75752 8.40176 8.62989C8.31406 8.51574 8.20378 8.42243 8.07835 8.35627C7.95293 8.2901 7.81528 8.25261 7.67471 8.24632C7.68837 8.08264 7.65923 7.91816 7.59037 7.7702C7.5215 7.62225 7.41546 7.4963 7.28339 7.40561C7.09566 7.26597 6.86808 7.19599 6.63732 7.20693C6.59999 7.01105 6.49045 6.83801 6.33202 6.72463C6.15074 6.6063 5.93768 6.55137 5.7241 6.56793C5.51052 6.58449 5.30768 6.67165 5.14538 6.81662C5.13736 6.67099 5.09087 6.53045 5.01101 6.4104C4.93115 6.29034 4.82099 6.1954 4.69259 6.13595C4.50797 6.03371 4.29524 5.99989 4.08957 6.04009C3.88391 6.08028 3.69762 6.19209 3.56152 6.35701L3.24498 6.13227L4.88145 2.59096L5.46516 2.93221C5.51092 2.95897 5.56273 2.97259 5.61525 2.97167C5.66776 2.97076 5.7191 2.95534 5.76396 2.927C5.77313 2.92117 6.66244 2.35886 7.15542 2.0685C7.4025 1.92378 7.55914 1.87565 7.71697 1.93329C7.28129 2.27616 6.98824 2.77867 6.8977 3.33816C6.77195 3.7 6.78959 4.09879 6.94676 4.44716C7.02927 4.56836 7.13527 4.67035 7.25798 4.74659C7.38069 4.82283 7.51739 4.87164 7.65934 4.8899C7.77622 4.91554 7.89712 4.91422 8.01346 4.88603C8.1298 4.85784 8.23875 4.80348 8.3326 4.72678C8.59998 4.52353 8.78621 4.2256 8.85602 3.88944L9.16694 3.67849C10.0617 4.19598 10.9941 4.63988 11.9558 5.0061C12.2306 5.2799 13.4799 6.52687 13.7858 6.88284L13.7879 6.88499C13.836 6.925 13.875 6.97549 13.9021 7.03288C13.9293 7.09027 13.944 7.15316 13.9451 7.21708C13.9462 7.28101 13.9338 7.34441 13.9087 7.4028C13.8835 7.46118 13.8463 7.51312 13.7997 7.55493V7.55462ZM14.0811 6.31347C13.5742 5.76587 12.3669 4.56581 12.3104 4.5094C12.274 4.47354 12.2295 4.44772 12.181 4.43428C11.3082 4.19697 9.31561 3.06651 9.29551 3.05455C9.24855 3.02784 9.19547 3.01488 9.14196 3.01704C9.08844 3.0192 9.0365 3.0364 8.99168 3.06681L8.42275 3.45283C8.38534 3.47827 8.35399 3.51218 8.33106 3.55202C8.30812 3.59185 8.2942 3.63656 8.29034 3.68279C8.27884 3.79029 8.24627 3.89421 8.19463 3.98817C8.14299 4.08213 8.07337 4.16414 7.99006 4.22916C7.96184 4.25479 7.92847 4.27359 7.89238 4.28419C7.8563 4.2948 7.81839 4.29695 7.7814 4.29048C7.60909 4.24572 7.50092 4.21291 7.45422 4.13197C7.41787 4.07064 7.37176 3.90232 7.47166 3.48809C7.66672 2.67896 7.92592 2.50695 8.44225 2.16784L8.56934 2.08352C9.21246 1.65427 9.49057 1.6417 9.75391 1.76496C10.1937 1.97039 11.8423 2.62837 11.9114 2.65657C11.975 2.68161 12.0448 2.68335 12.1095 2.66148L13.2373 2.27791L14.6952 6.03017L14.0811 6.31347ZM15.5293 6.5376L13.5222 1.3725L15.3478 0.694901L17.3185 5.82658L15.5293 6.5376Z" fill="#FBFBFB"/>
</svg>
