<svg width="24" height="28" viewBox="0 0 24 28" fill="none" xmlns="http://www.w3.org/2000/svg">
<path d="M23.7705 21.3267C22.2809 18.2467 21.4078 14.6067 20.9455 9.98667L20.8427 8.82C20.5346 5.6 18.1204 2.84667 14.7818 1.86667C14.4222 0.746667 13.2922 0 12.0081 0C10.724 0 9.59402 0.793333 9.23447 1.86667C5.8958 2.84667 3.48169 5.6 3.17351 8.82L3.07078 9.98667C2.65987 14.6067 1.73531 18.2 0.245757 21.3267C0.0403006 21.7467 -0.0624273 22.26 0.0403008 22.7267C0.194393 24.1267 1.52986 25.1533 3.12214 25.1533H7.53945C8.20719 26.8333 9.95356 28 11.9568 28C13.96 28 15.7577 26.8333 16.3741 25.1533H20.7914C22.3837 25.1533 23.7191 24.1267 23.8732 22.7267C24.0787 22.2133 24.0273 21.7467 23.7705 21.3267ZM12.0595 26.6C10.8781 26.6 9.85083 26.04 9.28583 25.1533H14.7818C14.2681 25.9933 13.2409 26.6 12.0595 26.6ZM20.9455 23.7067H3.17351C2.40305 23.7067 1.68395 23.1933 1.63259 22.54C1.58122 22.3067 1.63259 22.0733 1.73531 21.84C3.27624 18.5733 4.20079 14.84 4.66306 10.08L4.76579 8.91333C5.02261 6.16 7.1799 3.78 10.159 3.08C10.4672 2.98667 10.6727 2.75333 10.724 2.47333C10.7754 1.82 11.3918 1.35333 12.0595 1.35333C12.7272 1.35333 13.3436 1.82 13.395 2.47333C13.4463 2.75333 13.6518 2.98667 13.96 3.08C16.9391 3.82667 19.0964 6.16 19.3532 8.91333L19.4559 10.08C19.9182 14.84 20.8427 18.62 22.3837 21.84C22.4864 22.0733 22.5378 22.3067 22.4864 22.54C22.3837 23.1933 21.7159 23.7067 20.9455 23.7067Z" fill="#1780df"/>
</svg>
