<svg width="17" height="23" viewBox="0 0 17 23" fill="none" xmlns="http://www.w3.org/2000/svg">
<path d="M0.5 0C0.2382 2.46377e-05 2.5e-05 0.234755 0 0.492754V22.1739C0 22.417 0.224575 22.6659 0.5 22.6667H16.5C16.7618 22.6666 17 22.4319 17 22.1739V3.94203C17 3.81342 16.9444 3.68599 16.8516 3.59555L13.3516 0.146286C13.2598 0.0548262 13.1305 0.000985507 13 0H0.5ZM1 0.985507H12.5V3.94203C12.5033 4.17074 12.6962 4.43429 13 4.43478H16V21.6812H1V0.985507ZM13.5 1.68613L15.2891 3.44928H13.5V1.68613ZM3.5 5.17391C3.22385 5.17391 3 5.39452 3 5.66667C3 5.93881 3.22385 6.15942 3.5 6.15942H13.5C13.7762 6.15942 14 5.93881 14 5.66667C14 5.39452 13.7762 5.17391 13.5 5.17391H3.5ZM3.5 9.6087C3.22385 9.6087 3 9.8293 3 10.1014C3 10.3736 3.22385 10.5942 3.5 10.5942H13.5C13.7762 10.5942 14 10.3736 14 10.1014C14 9.8293 13.7762 9.6087 13.5 9.6087H3.5ZM3.5 14.0435C3.22385 14.0435 3 14.2641 3 14.5362C3 14.8084 3.22385 15.029 3.5 15.029H13.5C13.7762 15.029 14 14.8084 14 14.5362C14 14.2641 13.7762 14.0435 13.5 14.0435H3.5ZM3.5 18.4783C3.22385 18.4783 3 18.6989 3 18.971C3 19.2432 3.22385 19.4638 3.5 19.4638H7.25C7.52615 19.4638 7.75 19.2432 7.75 18.971C7.75 18.6989 7.52615 18.4783 7.25 18.4783H3.5Z" fill="#162C17"/>
</svg>
