<svg width="12" height="15" viewBox="0 0 12 15" fill="none" xmlns="http://www.w3.org/2000/svg">
<path d="M0.326087 0C0.155348 1.63043e-05 1.63043e-05 0.155353 0 0.326087V14.6739C0 14.8348 0.146462 14.9995 0.326087 15H10.7609C10.9316 15 11.0869 14.8447 11.087 14.6739V2.6087C11.087 2.52359 11.0507 2.43926 10.9902 2.37941L8.70755 0.0968071C8.6477 0.0362821 8.56337 0.000652174 8.47826 0H0.326087ZM0.652174 0.652174H8.15217V2.6087C8.15429 2.76005 8.28011 2.93446 8.47826 2.93478H10.4348V14.3478H0.652174V0.652174ZM8.80435 1.11582L9.97114 2.28261H8.80435V1.11582ZM2.28261 3.42391C2.10251 3.42391 1.95652 3.5699 1.95652 3.75C1.95652 3.9301 2.10251 4.07609 2.28261 4.07609H8.80435C8.98445 4.07609 9.13043 3.9301 9.13043 3.75C9.13043 3.5699 8.98445 3.42391 8.80435 3.42391H2.28261ZM2.28261 6.3587C2.10251 6.3587 1.95652 6.50468 1.95652 6.68478C1.95652 6.86488 2.10251 7.01087 2.28261 7.01087H8.80435C8.98445 7.01087 9.13043 6.86488 9.13043 6.68478C9.13043 6.50468 8.98445 6.3587 8.80435 6.3587H2.28261ZM2.28261 9.29348C2.10251 9.29348 1.95652 9.43947 1.95652 9.61957C1.95652 9.79966 2.10251 9.94565 2.28261 9.94565H8.80435C8.98445 9.94565 9.13043 9.79966 9.13043 9.61957C9.13043 9.43947 8.98445 9.29348 8.80435 9.29348H2.28261ZM2.28261 12.2283C2.10251 12.2283 1.95652 12.3743 1.95652 12.5543C1.95652 12.7344 2.10251 12.8804 2.28261 12.8804H4.72826C4.90836 12.8804 5.05435 12.7344 5.05435 12.5543C5.05435 12.3743 4.90836 12.2283 4.72826 12.2283H2.28261Z" fill="#FBFBFB"/>
</svg>
