<svg width="23" height="26" viewBox="0 0 23 26" fill="none" xmlns="http://www.w3.org/2000/svg">
<path d="M22.9821 23.7516C22.6085 22.4751 21.3835 21.4017 20.8988 21.0155C21.0712 12.9893 16.67 9.02606 15.2074 7.93254C16.0158 7.05863 17.9161 4.84961 18.6058 2.73302C18.6613 2.56281 18.6077 2.37705 18.4678 2.25717C18.4161 2.21233 17.2552 1.24692 14.694 1.48667C14.7131 1.39333 14.7285 1.30457 14.7409 1.21672C14.7677 1.01449 14.6509 0.819572 14.4545 0.739959C14.2773 0.666752 10.0677 -1.02433 6.47199 0.96507C6.31395 1.05109 6.22104 1.21763 6.23349 1.39059C6.24211 1.51229 6.4605 4.31978 8.79664 7.88404C7.40492 8.90436 2.86289 12.863 3.03722 21.0155C2.55255 21.4017 1.32749 22.476 0.953939 23.7516C0.936698 23.8102 0.931909 23.8715 0.939572 23.9319C1.02195 24.5542 2.26042 26 11.968 26C21.6756 26 22.9141 24.5542 22.9965 23.9319C23.0041 23.8715 22.9993 23.8102 22.9821 23.7516ZM11.968 25.0849C4.08987 25.0849 2.29586 24.0911 1.94242 23.8038C2.40218 22.6188 3.79486 21.6076 3.80923 21.5966C3.93279 21.5069 4.00462 21.366 3.99983 21.2159C3.74026 13.0872 8.4978 9.24477 9.50448 8.52643C9.90676 8.6765 10.7113 8.92815 11.6385 8.92815C11.9594 8.92815 12.2937 8.89795 12.6289 8.82292C12.8866 8.76527 13.0465 8.51911 12.9852 8.27203C12.9249 8.02679 12.6701 7.86848 12.4096 7.93254C11.2812 8.18235 10.1261 7.78063 9.77267 7.64154C7.85701 4.80843 7.34553 2.41365 7.22389 1.61478C9.78129 0.367519 12.718 1.1307 13.7199 1.45556C13.3933 2.76962 12.2669 4.64921 12.2544 4.67117C12.1222 4.88896 12.2017 5.16989 12.4316 5.29526C12.6576 5.42062 12.9527 5.34742 13.0858 5.12688C13.1299 5.05368 13.9249 3.72589 14.4047 2.44202C16.1202 2.2041 17.1384 2.56373 17.5751 2.78701C16.6595 5.15159 14.172 7.66076 14.1461 7.68729C14.0475 7.78521 14.0015 7.92156 14.0178 8.05699C14.034 8.19242 14.1145 8.31413 14.2352 8.38733C14.2955 8.42485 20.2255 12.1767 19.9362 21.215C19.9314 21.3651 20.0023 21.506 20.1278 21.5957C20.1431 21.6067 21.5329 22.6124 21.9936 23.8029C21.6402 24.0911 19.8462 25.0849 11.968 25.0849Z" fill="#162C17"/>
<path d="M14.3426 14.263C14.5562 14.4149 14.856 14.3756 15.0131 14.1733C15.173 13.9711 15.1309 13.6856 14.9201 13.5337C14.3426 13.1155 13.4221 12.6369 12.447 12.4521V11.4546C12.447 11.203 12.2325 10.9971 11.9681 10.9971C11.7038 10.9971 11.4892 11.203 11.4892 11.4546V12.3825C10.7459 12.4219 10.0256 12.6991 9.45382 13.3781C8.87912 14.0644 8.8887 14.6794 8.99598 15.0747C9.31398 16.235 10.8436 17.0403 12.0706 17.5143C13.2028 17.9508 13.7947 18.3434 13.9901 18.789C14.1079 19.0571 14.083 19.3756 13.9135 19.7627C13.8349 19.943 13.5495 20.2019 13.0054 20.3383C12.471 20.4719 11.0208 20.6274 9.11379 19.1999C8.90403 19.0443 8.60422 19.0764 8.44139 19.2768C8.27856 19.4753 8.31496 19.7627 8.52281 19.9201C9.65209 20.7656 10.6693 21.1317 11.4892 21.2662V22.249C11.4892 22.5024 11.7038 22.7065 11.9681 22.7065C12.2325 22.7065 12.447 22.5024 12.447 22.249V21.3247C12.7832 21.3101 13.0648 21.2689 13.2468 21.2232C13.9968 21.0374 14.5772 20.6229 14.7985 20.115C15.0667 19.4982 15.0926 18.9336 14.8742 18.4349C14.4891 17.5573 13.4211 17.0476 12.4288 16.6651C11.0237 16.1234 10.0879 15.4426 9.92315 14.8441C9.84557 14.5595 9.93656 14.2667 10.2019 13.9501C11.5773 12.3038 14.3158 14.2429 14.3426 14.263Z" fill="#162C17"/>
</svg>
