<svg width="14" height="17" viewBox="0 0 14 17" fill="none" xmlns="http://www.w3.org/2000/svg">
<path d="M13.9886 15.0709C13.7516 14.2609 12.9743 13.5798 12.6668 13.3348C12.7762 8.24196 9.9835 5.72721 9.05545 5.03335C9.5684 4.47884 10.7742 3.07717 11.2118 1.73415C11.247 1.62615 11.213 1.50828 11.1243 1.43222C11.0914 1.40377 10.3548 0.791193 8.72969 0.94332C8.74184 0.884095 8.75157 0.827773 8.75947 0.772032C8.77648 0.64371 8.70234 0.520034 8.57775 0.469518C8.46531 0.423067 5.7942 -0.649955 3.51267 0.612356C3.41239 0.666936 3.35344 0.772612 3.36134 0.882353C3.36681 0.959578 3.50538 2.74098 4.9877 5.00257C4.10463 5.64999 1.22263 8.16183 1.33324 13.3348C1.02571 13.5798 0.248387 14.2615 0.0113604 15.0709C0.000420695 15.108 -0.00261803 15.1469 0.00224406 15.1853C0.0545115 15.5801 0.840346 16.4975 7 16.4975C13.1597 16.4975 13.9455 15.5801 13.9978 15.1853C14.0026 15.1469 13.9996 15.108 13.9886 15.0709ZM7 15.9169C2.00117 15.9169 0.862833 15.2863 0.638569 15.104C0.930295 14.352 1.81398 13.7104 1.8231 13.7035C1.9015 13.6466 1.94708 13.5571 1.94404 13.4619C1.77934 8.30409 4.79808 5.86598 5.43684 5.41018C5.6921 5.50541 6.20262 5.66508 6.79093 5.66508C6.99453 5.66508 7.20664 5.64592 7.41935 5.59831C7.58284 5.56173 7.68434 5.40554 7.64544 5.24876C7.60715 5.09315 7.44549 4.9927 7.28018 5.03335C6.56424 5.19186 5.83128 4.93696 5.60701 4.8487C4.39149 3.05104 4.06695 1.53151 3.98976 1.02461C5.61248 0.233198 7.47588 0.717451 8.11159 0.923578C7.90435 1.75738 7.18962 2.95001 7.18172 2.96395C7.09785 3.10214 7.14829 3.2804 7.29416 3.35994C7.43759 3.43949 7.62478 3.39304 7.70926 3.2531C7.73721 3.20665 8.24166 2.36415 8.54614 1.54951C9.63464 1.39854 10.2807 1.62673 10.5578 1.76841C9.97681 3.26878 8.39846 4.8609 8.38205 4.87774C8.31945 4.93986 8.29028 5.02638 8.30061 5.11231C8.31094 5.19825 8.36199 5.27547 8.43857 5.32192C8.47686 5.34573 12.2395 7.72635 12.056 13.4613C12.0529 13.5566 12.0979 13.646 12.1775 13.7029C12.1872 13.7098 13.0691 14.348 13.3614 15.1034C13.1372 15.2863 11.9988 15.9169 7 15.9169Z" fill="#FBFBFB"/>
<path d="M8.50676 9.04984C8.64229 9.14623 8.83252 9.12126 8.93219 8.99294C9.03368 8.86462 9.00694 8.68346 8.87324 8.58707C8.50676 8.32172 7.9227 8.01805 7.304 7.90076V7.26786C7.304 7.10818 7.16786 6.97754 7.00012 6.97754C6.83238 6.97754 6.69624 7.10818 6.69624 7.26786V7.85663C6.22462 7.8816 5.76758 8.05753 5.40475 8.48836C5.04009 8.92384 5.04617 9.31403 5.11424 9.56487C5.31601 10.3011 6.28661 10.8121 7.06515 11.1129C7.78352 11.3898 8.15912 11.6389 8.2831 11.9217C8.35785 12.0918 8.34205 12.2939 8.23448 12.5395C8.18464 12.6539 8.00353 12.8182 7.65832 12.9047C7.31919 12.9895 6.39904 13.0882 5.18899 12.1824C5.05589 12.0837 4.86566 12.104 4.76234 12.2312C4.65902 12.3572 4.68212 12.5395 4.814 12.6394C5.53055 13.1759 6.17599 13.4081 6.69624 13.4935V14.1171C6.69624 14.2779 6.83238 14.4074 7.00012 14.4074C7.16786 14.4074 7.304 14.2779 7.304 14.1171V13.5306C7.51732 13.5213 7.696 13.4952 7.81148 13.4662C8.28735 13.3483 8.65566 13.0853 8.79605 12.763C8.96622 12.3717 8.98263 12.0134 8.84406 11.697C8.59974 11.1401 7.92209 10.8167 7.29245 10.574C6.40087 10.2303 5.80708 9.79829 5.70255 9.41855C5.65332 9.23797 5.71106 9.05216 5.87941 8.85126C6.75215 7.80669 8.48974 9.03707 8.50676 9.04984Z" fill="#FBFBFB"/>
</svg>
