<svg width="19" height="16" viewBox="0 0 19 16" fill="none" xmlns="http://www.w3.org/2000/svg">
<path d="M17.0411 1.4423C17.0411 2.07115 17.0411 2.69999 17.0411 3.32883C17.0411 3.4173 17.0411 3.50768 17.0411 3.59614C17.2223 3.40383 17.4036 3.21153 17.5849 3.01922C17.4326 3.01922 17.2804 3.01922 17.1263 3.01922C16.713 3.01922 16.2997 3.01922 15.8864 3.01922C15.2755 3.01922 14.6647 3.01922 14.0538 3.01922C13.3051 3.01922 12.5583 3.01922 11.8097 3.01922C10.9958 3.01922 10.1837 3.01922 9.36981 3.01922C8.54323 3.01922 7.71665 3.01922 6.89006 3.01922C6.12149 3.01922 5.35472 3.01922 4.58614 3.01922C3.9372 3.01922 3.28826 3.01922 2.63932 3.01922C2.17165 3.01922 1.70217 3.01922 1.2345 3.01922C1.01335 3.01922 0.792202 3.01537 0.571055 3.01922C0.561991 3.01922 0.552928 3.01922 0.542052 3.01922C0.72332 3.21153 0.904588 3.40383 1.08586 3.59614C1.08586 2.95384 1.08586 2.31345 1.08586 1.67115C1.08586 1.55961 1.08042 1.44615 1.09129 1.33653C1.08404 1.38846 1.07861 1.43846 1.07135 1.49038C1.08223 1.41346 1.10036 1.33846 1.12755 1.26538C1.10942 1.31153 1.09129 1.35769 1.07317 1.40384C1.09129 1.35769 1.11305 1.31153 1.13842 1.26923C1.20187 1.16538 1.10761 1.30192 1.10942 1.30384C1.1058 1.29807 1.15836 1.24615 1.16561 1.23846C1.18193 1.22115 1.20187 1.20577 1.21818 1.18846C1.25444 1.14807 1.09129 1.275 1.18374 1.21923C1.22906 1.1923 1.27256 1.16346 1.31969 1.1423C1.27619 1.16153 1.23268 1.18076 1.18918 1.2C1.25806 1.17115 1.32694 1.15192 1.40126 1.14038C1.35232 1.14807 1.30519 1.15384 1.25625 1.16153C1.41939 1.1423 1.58616 1.15577 1.7493 1.15577C2.11908 1.15577 2.49068 1.15577 2.86047 1.15577C3.41515 1.15577 3.96983 1.15577 4.52451 1.15577C5.20064 1.15577 5.87677 1.15577 6.5529 1.15577C7.29429 1.15577 8.03568 1.15577 8.77706 1.15577C9.52933 1.15577 10.2798 1.15577 11.032 1.15577C11.7317 1.15577 12.4314 1.15577 13.1329 1.15577C13.7202 1.15577 14.3094 1.15577 14.8967 1.15577C15.3172 1.15577 15.7378 1.15577 16.1583 1.15577C16.3541 1.15577 16.548 1.15577 16.7438 1.15577C16.7837 1.15577 16.8236 1.15769 16.8634 1.16153C16.8145 1.15384 16.7674 1.14807 16.7184 1.14038C16.7909 1.15192 16.8616 1.17115 16.9305 1.2C16.887 1.18076 16.8435 1.16153 16.8 1.1423C16.8435 1.16153 16.887 1.18461 16.9269 1.21153C17.0248 1.27884 16.8961 1.17884 16.8943 1.18076C16.8997 1.17692 16.9486 1.23269 16.9559 1.24038C16.9722 1.25769 16.9867 1.27884 17.003 1.29615C17.0411 1.33461 16.9214 1.16153 16.974 1.25961C16.9994 1.30769 17.0266 1.35384 17.0465 1.40384C17.0284 1.35769 17.0103 1.31153 16.9921 1.26538C17.0193 1.33846 17.0375 1.41153 17.0483 1.49038C17.0411 1.43846 17.0356 1.38846 17.0284 1.33653C17.0393 1.37115 17.0411 1.40769 17.0411 1.4423C17.0447 1.74422 17.2876 2.03269 17.5849 2.01922C17.8749 2.00576 18.1341 1.76538 18.1287 1.4423C18.1178 0.646152 17.5106 0.00769228 16.7601 0C16.684 0 16.606 0 16.5299 0C16.1094 0 15.6888 0 15.2701 0C14.5813 0 13.8925 0 13.2036 0C12.3444 0 11.4852 0 10.6242 0C9.7106 0 8.797 0 7.88341 0C7.01151 0 6.13961 0 5.26953 0C4.54808 0 3.82844 0 3.107 0C2.64295 0 2.18072 0 1.71667 0C1.61335 0 1.50821 0 1.40489 0C0.917277 0 0.482233 0.242307 0.212144 0.674998C-0.034381 1.06923 0.0018726 1.53653 0.0018726 1.98461C0.0018726 2.43268 0.0018726 2.88076 0.0018726 3.32883C0.0018726 3.4173 0.0018726 3.50768 0.0018726 3.59614C0.0018726 3.90768 0.25021 4.17306 0.545677 4.17306C0.697942 4.17306 0.850208 4.17306 1.00429 4.17306C1.41758 4.17306 1.83087 4.17306 2.24416 4.17306C2.85503 4.17306 3.46591 4.17306 4.07678 4.17306C4.82542 4.17306 5.57224 4.17306 6.32088 4.17306C7.13477 4.17306 7.94686 4.17306 8.76075 4.17306C9.58733 4.17306 10.4139 4.17306 11.2405 4.17306C12.0091 4.17306 12.7758 4.17306 13.5444 4.17306C14.1934 4.17306 14.8423 4.17306 15.4912 4.17306C15.9589 4.17306 16.4284 4.17306 16.8961 4.17306C17.1172 4.17306 17.3384 4.17499 17.5595 4.17306C17.5686 4.17306 17.5776 4.17306 17.5885 4.17306C17.8822 4.17306 18.1323 3.9096 18.1323 3.59614C18.1323 2.9673 18.1323 2.33845 18.1323 1.70961C18.1323 1.62115 18.1323 1.53076 18.1323 1.4423C18.1323 1.14038 17.8822 0.85192 17.5885 0.865382C17.2894 0.878843 17.0411 1.11923 17.0411 1.4423Z" fill="#FBFBFB"/>
<path d="M16.2072 3.59532C16.2072 3.97225 16.2072 4.34917 16.2072 4.72417C16.2072 5.62032 16.2072 6.51647 16.2072 7.41454C16.2072 8.49531 16.2072 9.578 16.2072 10.6588C16.2072 11.5953 16.2072 12.5318 16.2072 13.4664C16.2072 13.9088 16.2108 14.353 16.2072 14.7953C16.2072 14.8261 16.2054 14.8568 16.2018 14.8876C16.209 14.8357 16.2144 14.7857 16.2217 14.7337C16.2144 14.7857 16.2036 14.8337 16.1854 14.8818C16.2036 14.8357 16.2217 14.7895 16.2398 14.7434C16.2253 14.778 16.209 14.8107 16.1909 14.8434C16.1818 14.8626 16.1401 14.9164 16.1999 14.8357C16.2616 14.7511 16.2108 14.8164 16.1963 14.8337C16.1945 14.8357 16.1619 14.8684 16.1619 14.8664C16.1564 14.8607 16.2815 14.7818 16.2163 14.8203C16.1818 14.8414 16.1492 14.8607 16.1129 14.878C16.1564 14.8587 16.1999 14.8395 16.2434 14.8203C16.1981 14.8376 16.1528 14.8511 16.1039 14.8587C16.1528 14.8511 16.1999 14.8453 16.2489 14.8376C16.1039 14.8549 15.9552 14.8434 15.8102 14.8434C15.4676 14.8434 15.125 14.8434 14.7806 14.8434C14.2694 14.8434 13.7583 14.8434 13.2489 14.8434C12.6235 14.8434 12 14.8434 11.3746 14.8434C10.6894 14.8434 10.0042 14.8434 9.319 14.8434C8.62656 14.8434 7.93592 14.8434 7.24348 14.8434C6.59998 14.8434 5.95466 14.8434 5.31116 14.8434C4.76736 14.8434 4.22355 14.8434 3.68156 14.8434C3.29365 14.8434 2.90392 14.8434 2.51601 14.8434C2.33655 14.8434 2.15528 14.8453 1.97583 14.8434C1.94501 14.8434 1.9142 14.8414 1.88338 14.8376C1.93232 14.8453 1.97945 14.8511 2.02839 14.8587C1.97945 14.8511 1.93414 14.8395 1.88882 14.8203C1.93232 14.8395 1.97583 14.8587 2.01933 14.878C1.9867 14.8626 1.95589 14.8453 1.92507 14.8261C1.90694 14.8164 1.85619 14.7722 1.93232 14.8357C2.01208 14.9011 1.95045 14.8472 1.93414 14.8318C1.93232 14.8299 1.90151 14.7953 1.90332 14.7953C1.90876 14.7895 1.98308 14.9222 1.94682 14.853C1.92688 14.8164 1.90876 14.7818 1.89244 14.7434C1.91057 14.7895 1.9287 14.8357 1.94682 14.8818C1.93051 14.8337 1.91782 14.7857 1.91057 14.7337C1.91782 14.7857 1.92326 14.8357 1.93051 14.8876C1.91782 14.7684 1.92507 14.6453 1.92507 14.5261C1.92507 14.2568 1.92507 13.9857 1.92507 13.7164C1.92507 12.8261 1.92507 11.9357 1.92507 11.0453C1.92507 9.96453 1.92507 8.88377 1.92507 7.80108C1.92507 6.85877 1.92507 5.91839 1.92507 4.97609C1.92507 4.52224 1.93595 4.06648 1.92507 3.61263C1.92507 3.60686 1.92507 3.59917 1.92507 3.5934C1.7438 3.78571 1.56254 3.97801 1.38127 4.17032C1.51722 4.17032 1.65498 4.17032 1.79093 4.17032C2.16435 4.17032 2.53776 4.17032 2.91117 4.17032C3.46223 4.17032 4.01328 4.17032 4.56252 4.17032C5.23684 4.17032 5.91116 4.17032 6.58548 4.17032C7.32143 4.17032 8.05737 4.17032 8.79332 4.17032C9.53652 4.17032 10.2797 4.17032 11.0211 4.17032C11.7136 4.17032 12.406 4.17032 13.0984 4.17032C13.6858 4.17032 14.2731 4.17032 14.8622 4.17032C15.2827 4.17032 15.7033 4.17032 16.1256 4.17032C16.325 4.17032 16.5262 4.17224 16.7256 4.17032C16.7347 4.17032 16.7419 4.17032 16.751 4.17032C17.0356 4.17032 17.3075 3.90494 17.2948 3.5934C17.2821 3.27994 17.0555 3.01648 16.751 3.01648C16.615 3.01648 16.4773 3.01648 16.3413 3.01648C15.9679 3.01648 15.5945 3.01648 15.2211 3.01648C14.67 3.01648 14.119 3.01648 13.5697 3.01648C12.8954 3.01648 12.2211 3.01648 11.5468 3.01648C10.8108 3.01648 10.0749 3.01648 9.33894 3.01648C8.59574 3.01648 7.85254 3.01648 7.11115 3.01648C6.41871 3.01648 5.72627 3.01648 5.03382 3.01648C4.44651 3.01648 3.8592 3.01648 3.27008 3.01648C2.84954 3.01648 2.429 3.01648 2.00664 3.01648C1.80725 3.01648 1.60604 3.01456 1.40664 3.01648C1.39758 3.01648 1.39033 3.01648 1.38127 3.01648C1.08761 3.01648 0.837463 3.27994 0.837463 3.5934C0.837463 3.87609 0.837463 4.15878 0.837463 4.44147C0.837463 5.1434 0.837463 5.84724 0.837463 6.54916C0.837463 7.46262 0.837463 8.37415 0.837463 9.28761C0.837463 10.1915 0.837463 11.0934 0.837463 11.9972C0.837463 12.6818 0.837463 13.3645 0.837463 14.0491C0.837463 14.2434 0.837463 14.4376 0.837463 14.6318C0.837463 14.803 0.833837 14.9722 0.88278 15.1395C1.03142 15.6722 1.4864 15.9991 1.99939 15.9991C2.10453 15.9991 2.20966 15.9991 2.3148 15.9991C2.78247 15.9991 3.25014 15.9991 3.71963 15.9991C4.43564 15.9991 5.14983 15.9991 5.86584 15.9991C6.71961 15.9991 7.57158 15.9991 8.42535 15.9991C9.3045 15.9991 10.1855 15.9991 11.0646 15.9991C11.8622 15.9991 12.6616 15.9991 13.4592 15.9991C14.0592 15.9991 14.6592 15.9991 15.2592 15.9991C15.5528 15.9991 15.8483 15.9991 16.1419 15.9991C16.6531 15.9991 17.1534 15.6453 17.2658 15.0934C17.2984 14.9299 17.2984 14.7799 17.2984 14.6184C17.2984 14.1164 17.2984 13.6145 17.2984 13.1126C17.2984 12.2895 17.2984 11.4645 17.2984 10.6415C17.2984 9.70492 17.2984 8.76838 17.2984 7.83185C17.2984 7.00108 17.2984 6.16839 17.2984 5.33763C17.2984 4.82609 17.2984 4.31648 17.2984 3.80494C17.2984 3.73571 17.2984 3.66455 17.2984 3.59532C17.2984 3.2934 17.0483 3.00494 16.7546 3.0184C16.4555 3.03186 16.2072 3.27225 16.2072 3.59532Z" fill="#FBFBFB"/>
<path d="M11.3346 6.91701C10.8126 6.91701 10.2924 6.91701 9.7703 6.91701C8.95279 6.91701 8.13708 6.91701 7.31956 6.91701C7.11473 6.91701 6.90264 6.93432 6.69781 6.91124C6.74675 6.91894 6.79388 6.92471 6.84282 6.9324C6.77032 6.92278 6.70143 6.90355 6.63436 6.87471C6.67787 6.89394 6.72137 6.91317 6.76488 6.9324C6.71775 6.91125 6.67424 6.88432 6.62893 6.8574C6.53104 6.79971 6.72137 6.94778 6.6543 6.88048C6.63799 6.86317 6.61986 6.84778 6.60355 6.83048C6.58724 6.81317 6.57273 6.79394 6.55642 6.77663C6.49479 6.70355 6.63074 6.89394 6.58542 6.81317C6.55642 6.76317 6.53104 6.71317 6.50929 6.65932C6.52742 6.70548 6.54554 6.75163 6.56367 6.79778C6.53648 6.72663 6.52017 6.65163 6.50929 6.57663C6.51654 6.62855 6.52198 6.67855 6.52923 6.73048C6.52198 6.65932 6.52198 6.59009 6.52923 6.52086C6.52198 6.57278 6.51654 6.62278 6.50929 6.67471C6.51835 6.59778 6.53648 6.52471 6.56367 6.45355C6.54554 6.49971 6.52742 6.54586 6.50929 6.59202C6.52923 6.54202 6.55461 6.49586 6.57998 6.44779C6.63436 6.34394 6.49479 6.54586 6.55823 6.47471C6.57455 6.4574 6.58905 6.43817 6.60536 6.42086C6.62168 6.40355 6.6398 6.38817 6.65612 6.37086C6.725 6.30548 6.54554 6.44971 6.62168 6.40163C6.66881 6.37086 6.71594 6.34394 6.76669 6.32086C6.72319 6.34009 6.67968 6.35932 6.63618 6.37855C6.70325 6.34971 6.77394 6.3324 6.84464 6.32086C6.79569 6.32856 6.74856 6.33432 6.69962 6.34202C6.87183 6.32279 7.04947 6.33625 7.22349 6.33625C7.58965 6.33625 7.954 6.33625 8.32016 6.33625C9.14855 6.33625 9.97876 6.33625 10.8072 6.33625C11.0138 6.33625 11.2295 6.31894 11.4343 6.34202C11.3854 6.33432 11.3383 6.32856 11.2893 6.32086C11.3618 6.33048 11.4307 6.34971 11.4978 6.37855C11.4543 6.35932 11.4108 6.34009 11.3673 6.32086C11.4144 6.34202 11.4579 6.36894 11.5032 6.39586C11.6011 6.45355 11.4108 6.30548 11.4778 6.37279C11.4942 6.39009 11.5123 6.40548 11.5286 6.42279C11.5449 6.44009 11.5594 6.45932 11.5757 6.47663C11.6374 6.54971 11.5014 6.35932 11.5467 6.44009C11.5757 6.49009 11.6011 6.54009 11.6229 6.59394C11.6047 6.54778 11.5866 6.50163 11.5685 6.45548C11.5957 6.52663 11.612 6.60163 11.6229 6.67663C11.6156 6.62471 11.6102 6.57471 11.6029 6.52279C11.6102 6.59394 11.6102 6.66317 11.6029 6.7324C11.6102 6.68048 11.6156 6.63048 11.6229 6.57855C11.6138 6.65548 11.5957 6.72855 11.5685 6.79971C11.5866 6.75355 11.6047 6.7074 11.6229 6.66125C11.6029 6.71125 11.5775 6.7574 11.5522 6.80548C11.4978 6.90932 11.6374 6.7074 11.5739 6.77855C11.5576 6.79586 11.5431 6.81509 11.5268 6.8324C11.5105 6.84971 11.4924 6.86509 11.476 6.8824C11.4072 6.94778 11.5866 6.80355 11.5105 6.85163C11.4633 6.8824 11.4162 6.90932 11.3655 6.9324C11.409 6.91317 11.4525 6.89394 11.496 6.87471C11.4289 6.90355 11.3582 6.92086 11.2875 6.9324C11.3365 6.92471 11.3836 6.91894 11.4325 6.91124C11.3999 6.91509 11.3673 6.91701 11.3346 6.91701C11.0501 6.92086 10.7782 7.17855 10.7908 7.49394C10.8035 7.80355 11.0301 8.07663 11.3346 8.07086C11.9383 8.06124 12.4658 7.64586 12.6434 7.0324C12.8192 6.42663 12.5727 5.7901 12.1014 5.42856C11.7371 5.14971 11.3093 5.17664 10.8887 5.17664C9.83193 5.17664 8.77695 5.17664 7.72016 5.17664C7.41744 5.17664 7.11473 5.17471 6.81019 5.17664C6.3389 5.17856 5.92198 5.42279 5.65733 5.83048C5.35461 6.29586 5.36005 6.97855 5.67183 7.43624C5.94192 7.8324 6.34977 8.06893 6.81382 8.07086C6.91533 8.07086 7.01684 8.07086 7.11654 8.07086C7.58602 8.07086 8.05732 8.07086 8.5268 8.07086C9.44402 8.07086 10.3631 8.07086 11.2803 8.07086C11.2984 8.07086 11.3165 8.07086 11.3328 8.07086C11.6174 8.07086 11.8893 7.80547 11.8766 7.49394C11.864 7.18048 11.6392 6.91701 11.3346 6.91701Z" fill="#FBFBFB"/>
</svg>
