<svg width="25" height="22" viewBox="0 0 25 22" fill="none" xmlns="http://www.w3.org/2000/svg">
<path d="M23.4315 1.98317C23.4315 2.84783 23.4315 3.71249 23.4315 4.57715C23.4315 4.69878 23.4315 4.82306 23.4315 4.94469C23.6807 4.68027 23.93 4.41585 24.1792 4.15143C23.9699 4.15143 23.7605 4.15143 23.5486 4.15143C22.9804 4.15143 22.4121 4.15143 21.8438 4.15143C21.0039 4.15143 20.1639 4.15143 19.3239 4.15143C18.2946 4.15143 17.2677 4.15143 16.2383 4.15143C15.1192 4.15143 14.0026 4.15143 12.8835 4.15143C11.7469 4.15143 10.6104 4.15143 9.47384 4.15143C8.41704 4.15143 7.36274 4.15143 6.30595 4.15143C5.41366 4.15143 4.52136 4.15143 3.62907 4.15143C2.98602 4.15143 2.34048 4.15143 1.69743 4.15143C1.39335 4.15143 1.08928 4.14614 0.7852 4.15143C0.772738 4.15143 0.760276 4.15143 0.745321 4.15143C0.994565 4.41585 1.24381 4.68027 1.49305 4.94469C1.49305 4.06152 1.49305 3.181 1.49305 2.29783C1.49305 2.14446 1.48557 1.98845 1.50053 1.83773C1.49056 1.90913 1.48308 1.97788 1.47311 2.04927C1.48807 1.9435 1.51299 1.84038 1.55038 1.7399C1.52545 1.80336 1.50053 1.86682 1.47561 1.93028C1.50053 1.86682 1.53044 1.80336 1.56533 1.74519C1.65257 1.6024 1.52296 1.79014 1.52545 1.79278C1.52047 1.78485 1.59275 1.71346 1.60272 1.70288C1.62515 1.67908 1.65257 1.65793 1.675 1.63413C1.72485 1.5786 1.50053 1.75312 1.62764 1.67644C1.68995 1.63942 1.74977 1.59975 1.81458 1.57067C1.75476 1.59711 1.69494 1.62355 1.63512 1.64999C1.72983 1.61033 1.82455 1.58389 1.92674 1.56802C1.85944 1.5786 1.79464 1.58653 1.72734 1.59711C1.95166 1.57067 2.18096 1.58918 2.40528 1.58918C2.91374 1.58918 3.42469 1.58918 3.93315 1.58918C4.69583 1.58918 5.45852 1.58918 6.22121 1.58918C7.15089 1.58918 8.08056 1.58918 9.01024 1.58918C10.0296 1.58918 11.0491 1.58918 12.0685 1.58918C13.1028 1.58918 14.1347 1.58918 15.1691 1.58918C16.1311 1.58918 17.0932 1.58918 18.0578 1.58918C18.8653 1.58918 19.6754 1.58918 20.4829 1.58918C21.0612 1.58918 21.6394 1.58918 22.2177 1.58918C22.4869 1.58918 22.7535 1.58918 23.0227 1.58918C23.0776 1.58918 23.1324 1.59182 23.1872 1.59711C23.1199 1.58653 23.0551 1.5786 22.9878 1.56802C23.0875 1.58389 23.1847 1.61033 23.2794 1.64999C23.2196 1.62355 23.1598 1.59711 23.1 1.57067C23.1598 1.59711 23.2196 1.62884 23.2745 1.66586C23.4091 1.75841 23.2321 1.62091 23.2296 1.62355C23.2371 1.61826 23.3044 1.69495 23.3143 1.70552C23.3368 1.72932 23.3567 1.75841 23.3791 1.7822C23.4315 1.83509 23.267 1.59711 23.3393 1.73196C23.3742 1.79807 23.4115 1.86153 23.439 1.93028C23.414 1.86682 23.3891 1.80336 23.3642 1.7399C23.4016 1.84038 23.4265 1.94086 23.4415 2.04927C23.4315 1.97788 23.424 1.90913 23.414 1.83773C23.429 1.88533 23.4315 1.93557 23.4315 1.98317C23.4365 2.39831 23.7705 2.79494 24.1792 2.77643C24.578 2.75792 24.9344 2.4274 24.9269 1.98317C24.912 0.888458 24.077 0.0105769 23.0452 0C22.9405 0 22.8333 0 22.7286 0C22.1504 0 21.5721 0 20.9964 0C20.0492 0 19.1021 0 18.155 0C16.9736 0 15.7922 0 14.6083 0C13.3521 0 12.0959 0 10.8397 0C9.64083 0 8.44197 0 7.2456 0C6.25361 0 5.26411 0 4.27212 0C3.63406 0 2.99848 0 2.36042 0C2.21835 0 2.07379 0 1.93172 0C1.26126 0 0.663071 0.333172 0.291698 0.928122C-0.0472739 1.47019 0.00257483 2.11273 0.00257483 2.72884C0.00257483 3.34494 0.00257483 3.96104 0.00257483 4.57715C0.00257483 4.69878 0.00257483 4.82306 0.00257483 4.94469C0.00257483 5.37306 0.344039 5.73796 0.750306 5.73796C0.959671 5.73796 1.16904 5.73796 1.38089 5.73796C1.94917 5.73796 2.51744 5.73796 3.08572 5.73796C3.92567 5.73796 4.76562 5.73796 5.60557 5.73796C6.63495 5.73796 7.66183 5.73796 8.69121 5.73796C9.81032 5.73796 10.9269 5.73796 12.046 5.73796C13.1826 5.73796 14.3191 5.73796 15.4557 5.73796C16.5125 5.73796 17.5668 5.73796 18.6236 5.73796C19.5159 5.73796 20.4082 5.73796 21.3005 5.73796C21.9435 5.73796 22.589 5.73796 23.2321 5.73796C23.5362 5.73796 23.8402 5.7406 24.1443 5.73796C24.1568 5.73796 24.1692 5.73796 24.1842 5.73796C24.588 5.73796 24.9319 5.3757 24.9319 4.94469C24.9319 4.08003 24.9319 3.21537 24.9319 2.35071C24.9319 2.22908 24.9319 2.1048 24.9319 1.98317C24.9319 1.56802 24.588 1.17139 24.1842 1.1899C23.773 1.20841 23.4315 1.53894 23.4315 1.98317Z" fill="#162C17"/>
<path d="M22.2851 4.94455C22.2851 5.46281 22.2851 5.98108 22.2851 6.49671C22.2851 7.72891 22.2851 8.96112 22.2851 10.196C22.2851 11.682 22.2851 13.1707 22.2851 14.6568C22.2851 15.9445 22.2851 17.2322 22.2851 18.5173C22.2851 19.1255 22.2901 19.7363 22.2851 20.3445C22.2851 20.3868 22.2826 20.4291 22.2776 20.4714C22.2876 20.4 22.295 20.3313 22.305 20.2599C22.295 20.3313 22.2801 20.3974 22.2552 20.4635C22.2801 20.4 22.305 20.3366 22.3299 20.2731C22.31 20.3207 22.2876 20.3656 22.2626 20.4106C22.2502 20.437 22.1929 20.5111 22.2751 20.4C22.3598 20.2837 22.2901 20.3736 22.2701 20.3974C22.2676 20.4 22.2228 20.445 22.2228 20.4423C22.2153 20.4344 22.3873 20.326 22.2975 20.3789C22.2502 20.408 22.2053 20.4344 22.1555 20.4582C22.2153 20.4318 22.2751 20.4053 22.3349 20.3789C22.2726 20.4027 22.2103 20.4212 22.143 20.4318C22.2103 20.4212 22.2751 20.4132 22.3424 20.4027C22.143 20.4265 21.9386 20.4106 21.7392 20.4106C21.2682 20.4106 20.7971 20.4106 20.3235 20.4106C19.6207 20.4106 18.9178 20.4106 18.2174 20.4106C17.3575 20.4106 16.5001 20.4106 15.6402 20.4106C14.6981 20.4106 13.756 20.4106 12.8138 20.4106C11.8617 20.4106 10.9121 20.4106 9.95997 20.4106C9.07515 20.4106 8.18785 20.4106 7.30303 20.4106C6.5553 20.4106 5.80757 20.4106 5.06233 20.4106C4.52895 20.4106 3.99307 20.4106 3.45969 20.4106C3.21294 20.4106 2.9637 20.4132 2.71695 20.4106C2.67457 20.4106 2.6322 20.408 2.58983 20.4027C2.65713 20.4132 2.72193 20.4212 2.78923 20.4318C2.72193 20.4212 2.65962 20.4053 2.59731 20.3789C2.65713 20.4053 2.71695 20.4318 2.77676 20.4582C2.7319 20.437 2.68953 20.4132 2.64716 20.3868C2.62223 20.3736 2.55244 20.3128 2.65713 20.4C2.76679 20.4899 2.68205 20.4159 2.65962 20.3947C2.65713 20.3921 2.61476 20.3445 2.61725 20.3445C2.62472 20.3366 2.72692 20.519 2.67707 20.4238C2.64965 20.3736 2.62472 20.326 2.60229 20.2731C2.62722 20.3366 2.65214 20.4 2.67707 20.4635C2.65463 20.3974 2.63719 20.3313 2.62722 20.2599C2.63719 20.3313 2.64466 20.4 2.65463 20.4714C2.63719 20.3075 2.64716 20.1382 2.64716 19.9743C2.64716 19.6041 2.64716 19.2313 2.64716 18.8611C2.64716 17.6368 2.64716 16.4125 2.64716 15.1883C2.64716 13.7022 2.64716 12.2162 2.64716 10.7275C2.64716 9.43179 2.64716 8.13877 2.64716 6.8431C2.64716 6.21906 2.66211 5.59238 2.64716 4.96834C2.64716 4.96041 2.64716 4.94984 2.64716 4.9419C2.39791 5.20632 2.14867 5.47075 1.89943 5.73517C2.08636 5.73517 2.27578 5.73517 2.46272 5.73517C2.97616 5.73517 3.4896 5.73517 4.00304 5.73517C4.76074 5.73517 5.51845 5.73517 6.27365 5.73517C7.20084 5.73517 8.12803 5.73517 9.05521 5.73517C10.0671 5.73517 11.0791 5.73517 12.091 5.73517C13.1129 5.73517 14.1348 5.73517 15.1542 5.73517C16.1063 5.73517 17.0584 5.73517 18.0105 5.73517C18.8181 5.73517 19.6256 5.73517 20.4357 5.73517C21.0139 5.73517 21.5922 5.73517 22.1729 5.73517C22.4471 5.73517 22.7237 5.73781 22.9979 5.73517C23.0104 5.73517 23.0203 5.73517 23.0328 5.73517C23.4241 5.73517 23.798 5.37027 23.7805 4.9419C23.7631 4.51089 23.4515 4.14864 23.0328 4.14864C22.8459 4.14864 22.6564 4.14864 22.4695 4.14864C21.9561 4.14864 21.4426 4.14864 20.9292 4.14864C20.1715 4.14864 19.4138 4.14864 18.6586 4.14864C17.7314 4.14864 16.8042 4.14864 15.877 4.14864C14.8651 4.14864 13.8532 4.14864 12.8412 4.14864C11.8193 4.14864 10.7974 4.14864 9.77802 4.14864C8.82591 4.14864 7.8738 4.14864 6.92169 4.14864C6.11414 4.14864 5.30659 4.14864 4.49655 4.14864C3.9183 4.14864 3.34005 4.14864 2.75932 4.14864C2.48515 4.14864 2.20849 4.14599 1.93432 4.14864C1.92186 4.14864 1.91189 4.14864 1.89943 4.14864C1.49565 4.14864 1.15169 4.51089 1.15169 4.9419C1.15169 5.3306 1.15169 5.7193 1.15169 6.108C1.15169 7.07315 1.15169 8.04093 1.15169 9.00607C1.15169 10.2621 1.15169 11.5154 1.15169 12.7714C1.15169 14.0142 1.15169 15.2544 1.15169 16.4972C1.15169 17.4385 1.15169 18.3772 1.15169 19.3185C1.15169 19.5856 1.15169 19.8527 1.15169 20.1197C1.15169 20.3551 1.14671 20.5878 1.21401 20.8178C1.41839 21.5503 2.04399 21.9998 2.74935 21.9998C2.89391 21.9998 3.03847 21.9998 3.18303 21.9998C3.82608 21.9998 4.46913 21.9998 5.11467 21.9998C6.09918 21.9998 7.0812 21.9998 8.06572 21.9998C9.23965 21.9998 10.4111 21.9998 11.585 21.9998C12.7939 21.9998 14.0052 21.9998 15.214 21.9998C16.3107 21.9998 17.4099 21.9998 18.5065 21.9998C19.3315 21.9998 20.1565 21.9998 20.9815 21.9998C21.3853 21.9998 21.7916 21.9998 22.1953 21.9998C22.8982 21.9998 23.5861 21.5132 23.7407 20.7543C23.7855 20.5296 23.7855 20.3233 23.7855 20.1012C23.7855 19.4111 23.7855 18.7209 23.7855 18.0308C23.7855 16.8991 23.7855 15.7647 23.7855 14.633C23.7855 13.3452 23.7855 12.0575 23.7855 10.7698C23.7855 9.62746 23.7855 8.48252 23.7855 7.34021C23.7855 6.63685 23.7855 5.93613 23.7855 5.23277C23.7855 5.13758 23.7855 5.03974 23.7855 4.94455C23.7855 4.5294 23.4416 4.13277 23.0378 4.15128C22.6265 4.16979 22.2851 4.50032 22.2851 4.94455Z" fill="#162C17"/>
<path d="M15.5852 9.50943C14.8674 9.50943 14.1521 9.50943 13.4342 9.50943C12.3101 9.50943 11.1885 9.50943 10.0645 9.50943C9.78281 9.50943 9.49119 9.53323 9.20955 9.5015C9.27684 9.51207 9.34165 9.52001 9.40894 9.53058C9.30925 9.51736 9.21453 9.49092 9.12231 9.45126C9.18213 9.4777 9.24195 9.50414 9.30177 9.53058C9.23696 9.5015 9.17715 9.46448 9.11484 9.42746C8.98024 9.34813 9.24195 9.55174 9.14973 9.45919C9.1273 9.43539 9.10237 9.41424 9.07994 9.39044C9.05751 9.36664 9.03757 9.3402 9.01514 9.3164C8.9304 9.21592 9.11733 9.4777 9.05502 9.36664C9.01514 9.29789 8.98024 9.22914 8.95033 9.1551C8.97526 9.21857 9.00018 9.28203 9.02511 9.34549C8.98772 9.24765 8.96529 9.14453 8.95033 9.0414C8.9603 9.1128 8.96778 9.18155 8.97775 9.25294C8.96778 9.1551 8.96778 9.05991 8.97775 8.96472C8.96778 9.03611 8.9603 9.10486 8.95033 9.17626C8.9628 9.07049 8.98772 8.97001 9.02511 8.87217C9.00018 8.93563 8.97526 8.9991 8.95033 9.06256C8.97775 8.99381 9.01265 8.93035 9.04754 8.86424C9.12231 8.72145 8.9304 8.9991 9.01763 8.90126C9.04006 8.87746 9.06 8.85102 9.08243 8.82722C9.10487 8.80342 9.12979 8.78227 9.15222 8.75847C9.24693 8.66857 9.00018 8.86688 9.10487 8.80078C9.16967 8.75847 9.23447 8.72145 9.30426 8.68972C9.24444 8.71616 9.18462 8.74261 9.1248 8.76905C9.21703 8.72938 9.31423 8.70559 9.41144 8.68972C9.34414 8.7003 9.27934 8.70823 9.21204 8.71881C9.44882 8.69237 9.69308 8.71087 9.93235 8.71087C10.4358 8.71087 10.9368 8.71087 11.4403 8.71087C12.5793 8.71087 13.7209 8.71087 14.8599 8.71087C15.144 8.71087 15.4406 8.68708 15.7223 8.71881C15.655 8.70823 15.5902 8.7003 15.5229 8.68972C15.6226 8.70294 15.7173 8.72938 15.8095 8.76905C15.7497 8.74261 15.6899 8.71616 15.6301 8.68972C15.6949 8.71881 15.7547 8.75583 15.817 8.79285C15.9516 8.87217 15.6899 8.66857 15.7821 8.76111C15.8045 8.78491 15.8295 8.80607 15.8519 8.82986C15.8743 8.85366 15.8943 8.88011 15.9167 8.9039C16.0014 9.00438 15.8145 8.74261 15.8768 8.85366C15.9167 8.92241 15.9516 8.99116 15.9815 9.0652C15.9566 9.00174 15.9317 8.93828 15.9067 8.87482C15.9441 8.97265 15.9665 9.07578 15.9815 9.1789C15.9715 9.10751 15.9641 9.03876 15.9541 8.96736C15.9641 9.0652 15.9641 9.16039 15.9541 9.25558C15.9641 9.18419 15.9715 9.11544 15.9815 9.04405C15.969 9.14982 15.9441 9.2503 15.9067 9.34813C15.9317 9.28467 15.9566 9.22121 15.9815 9.15775C15.9541 9.2265 15.9192 9.28996 15.8843 9.35606C15.8095 9.49885 16.0014 9.22121 15.9142 9.31905C15.8918 9.34284 15.8718 9.36929 15.8494 9.39308C15.827 9.41688 15.802 9.43804 15.7796 9.46183C15.6849 9.55174 15.9317 9.35342 15.827 9.41953C15.7622 9.46183 15.6974 9.49885 15.6276 9.53058C15.6874 9.50414 15.7472 9.4777 15.807 9.45126C15.7148 9.49092 15.6176 9.51472 15.5204 9.53058C15.5877 9.52001 15.6525 9.51207 15.7198 9.5015C15.6749 9.50679 15.6301 9.50943 15.5852 9.50943C15.1939 9.51472 14.82 9.86904 14.8375 10.3027C14.8549 10.7284 15.1665 11.1039 15.5852 11.096C16.4152 11.0827 17.1405 10.5116 17.3847 9.66808C17.6265 8.83515 17.2875 7.95992 16.6395 7.4628C16.1385 7.07939 15.5503 7.11641 14.9721 7.11641C13.519 7.11641 12.0684 7.11641 10.6153 7.11641C10.199 7.11641 9.78281 7.11377 9.36408 7.11641C8.71605 7.11905 8.14278 7.45487 7.77889 8.01544C7.36265 8.65535 7.37013 9.59405 7.79883 10.2234C8.1702 10.7681 8.731 11.0933 9.36906 11.096C9.50864 11.096 9.64822 11.096 9.7853 11.096C10.4308 11.096 11.0789 11.096 11.7244 11.096C12.9856 11.096 14.2493 11.096 15.5104 11.096C15.5354 11.096 15.5603 11.096 15.5827 11.096C15.974 11.096 16.3479 10.7311 16.3304 10.3027C16.313 9.87169 16.0039 9.50943 15.5852 9.50943Z" fill="#162C17"/>
</svg>
