<svg width="16" height="16" viewBox="0 0 16 16" fill="none" xmlns="http://www.w3.org/2000/svg">
<path d="M10.6382 8.0076V0.869387C10.6385 0.848537 10.6346 0.827848 10.6267 0.808536C10.6188 0.789225 10.6072 0.771681 10.5924 0.756937C10.5777 0.742193 10.5602 0.730547 10.5408 0.722685C10.5215 0.714822 10.5008 0.710902 10.48 0.711155H0.869333C0.848485 0.710902 0.827797 0.714822 0.808487 0.722685C0.789176 0.730547 0.771633 0.742193 0.756891 0.756937C0.742148 0.771681 0.730502 0.789225 0.72264 0.808536C0.714778 0.827848 0.710859 0.848537 0.711111 0.869387V13.2968C0.710859 13.3177 0.714779 13.3384 0.722641 13.3577C0.730504 13.377 0.742149 13.3945 0.756892 13.4093C0.771635 13.424 0.789178 13.4356 0.808488 13.4435C0.827799 13.4514 0.848486 13.4553 0.869333 13.455H7.89689C7.96506 13.6996 8.0549 13.9376 8.16533 14.1662H0.869333C0.638787 14.1661 0.417693 14.0745 0.25467 13.9115C0.0916475 13.7485 4.28933e-05 13.5274 0 13.2968V0.869387C3.9122e-05 0.638823 0.0916416 0.417714 0.254664 0.254681C0.417687 0.0916483 0.638782 3.95959e-05 0.869332 0H10.48C10.7105 3.91246e-05 10.9316 0.0916475 11.0947 0.254681C11.2577 0.417714 11.3493 0.638823 11.3493 0.869387V7.80492C11.107 7.85216 10.8691 7.91996 10.6382 8.0076ZM9.24809 2.27974H4.1302V2.91971H9.24809V2.27974ZM9.24809 4.52146H4.1302V5.16143H9.24809V4.52146ZM9.24809 6.76318H4.1302V7.40315H9.24809V6.76318ZM9.07377 9.005H4.12977V9.64504H8.53155C8.69165 9.41503 8.8732 9.20072 9.07377 9.005ZM4.12977 11.887H7.73333C7.74826 11.6715 7.77976 11.4575 7.82755 11.2469H4.12977V11.887ZM2.92526 1.72956H1.77355V2.88134H2.92526V1.72956ZM2.92526 3.97129H1.77355V5.12308H2.92526V3.97129ZM2.92526 6.21302H1.77355V7.36481H2.92526V6.21302ZM2.92526 8.45475H1.77355V9.60653H2.92526V8.45475ZM1.77355 11.8483H2.92526V10.6965H1.77355V11.8483ZM10.8187 11.9035C10.7857 11.8704 10.7465 11.8441 10.7034 11.8262C10.6602 11.8082 10.6139 11.7989 10.5672 11.7989C10.5205 11.7989 10.4742 11.808 10.431 11.8259C10.3878 11.8438 10.3485 11.87 10.3155 11.903C10.2824 11.9361 10.2562 11.9753 10.2383 12.0185C10.2205 12.0617 10.2113 12.108 10.2113 12.1548C10.2114 12.2015 10.2206 12.2478 10.2386 12.291C10.2565 12.3341 10.2828 12.3733 10.3159 12.4063L11.7337 13.8241C11.7667 13.8571 11.8059 13.8833 11.8491 13.9012C11.8922 13.9191 11.9384 13.9283 11.9851 13.9283C12.0318 13.9283 12.0781 13.9191 12.1212 13.9012C12.1643 13.8833 12.2035 13.8571 12.2365 13.8241L15.8958 10.1645C15.9623 10.0978 15.9995 10.0074 15.9995 9.91325C15.9994 9.81907 15.9619 9.72878 15.8953 9.66218C15.8287 9.59559 15.7385 9.55814 15.6443 9.55805C15.5501 9.55796 15.4597 9.59523 15.393 9.6617L11.9851 13.0699L10.8187 11.9035ZM15.5681 11.4976C15.4788 11.5155 15.3993 11.5656 15.3446 11.6384C15.2899 11.7112 15.264 11.8015 15.2716 11.8922C15.3455 12.5843 15.1825 13.2809 14.8092 13.8683C14.4359 14.4557 13.8744 14.899 13.2164 15.1259C12.5585 15.3527 11.8431 15.3497 11.1871 15.1172C10.5311 14.8847 9.97343 14.4366 9.60515 13.8461C9.23686 13.2555 9.07978 12.5575 9.15958 11.8661C9.23939 11.1747 9.55136 10.5309 10.0445 10.0398C10.5376 9.5487 11.1828 9.23942 11.8744 9.16253C12.5661 9.08564 13.2634 9.24567 13.8524 9.61646C14.0601 9.74728 14.3134 9.75874 14.441 9.60944C14.4709 9.56683 14.4916 9.51839 14.5016 9.46727C14.5117 9.41615 14.5109 9.36349 14.4992 9.31271C14.4876 9.26192 14.4655 9.21415 14.4342 9.17249C14.4029 9.13082 14.3632 9.0962 14.3177 9.07086C13.6021 8.59306 12.745 8.37351 11.8879 8.44844C11.0307 8.52337 10.2247 8.88829 9.60288 9.483C8.98103 10.0777 8.58049 10.8667 8.46737 11.7197C8.35424 12.5727 8.53528 13.4387 8.98061 14.175C9.42595 14.9113 10.109 15.4737 10.917 15.7695C11.7249 16.0653 12.6096 16.0767 13.425 15.802C14.2404 15.5273 14.9378 14.9827 15.402 14.2583C15.8663 13.5338 16.0698 12.6727 15.9788 11.8171C15.9753 11.7681 15.9616 11.7204 15.9385 11.6771C15.9154 11.6338 15.8835 11.5958 15.8447 11.5657C15.806 11.5355 15.7613 11.5139 15.7136 11.5022C15.666 11.4904 15.6164 11.4889 15.5681 11.4976H15.5681Z" fill="#FBFBFB"/>
</svg>
