<svg width="24" height="24" viewBox="0 0 24 24" fill="none" xmlns="http://www.w3.org/2000/svg">
<path d="M15.9573 12.0114V1.30408C15.9577 1.27281 15.9518 1.24177 15.94 1.2128C15.9282 1.18384 15.9108 1.15752 15.8887 1.13541C15.8666 1.11329 15.8402 1.09582 15.8113 1.08403C15.7823 1.07223 15.7513 1.06635 15.72 1.06673H1.304C1.27273 1.06635 1.2417 1.07223 1.21273 1.08403C1.18376 1.09582 1.15745 1.11329 1.13534 1.13541C1.11322 1.15752 1.09575 1.18384 1.08396 1.2128C1.07217 1.24177 1.06629 1.27281 1.06667 1.30408V19.9452C1.06629 19.9765 1.07217 20.0075 1.08396 20.0365C1.09576 20.0655 1.11322 20.0918 1.13534 20.1139C1.15745 20.136 1.18377 20.1535 1.21273 20.1653C1.2417 20.177 1.27273 20.1829 1.304 20.1825H11.8453C11.9476 20.5494 12.0824 20.9064 12.248 21.2493H1.304C0.95818 21.2492 0.62654 21.1118 0.382006 20.8673C0.137471 20.6227 6.43399e-05 20.2911 0 19.9452V1.30408C5.86831e-05 0.958235 0.137462 0.626572 0.381997 0.382022C0.626531 0.137472 0.958173 5.93939e-05 1.304 0H15.72C16.0658 5.86869e-05 16.3975 0.137471 16.642 0.382021C16.8865 0.626571 17.0239 0.958235 17.024 1.30408V11.7074C16.6605 11.7782 16.3036 11.8799 15.9573 12.0114ZM13.8721 3.41961H6.1953V4.37956H13.8721V3.41961ZM13.8721 6.78219H6.1953V7.74214H13.8721V6.78219ZM13.8721 10.1448H6.1953V11.1047H13.8721V10.1448ZM13.6107 13.5075H6.19465V14.4676H12.7973C13.0375 14.1225 13.3098 13.8011 13.6107 13.5075ZM6.19465 17.8304H11.6C11.6224 17.5073 11.6696 17.1863 11.7413 16.8704H6.19465V17.8304ZM4.38788 2.59433H2.66033V4.32201H4.38788V2.59433ZM4.38788 5.95694H2.66033V7.68462H4.38788V5.95694ZM4.38788 9.31953H2.66033V11.0472H4.38788V9.31953ZM4.38788 12.6821H2.66033V14.4098H4.38788V12.6821ZM2.66033 17.7724H4.38788V16.0447H2.66033V17.7724ZM16.2281 17.8553C16.1786 17.8056 16.1198 17.7662 16.0551 17.7392C15.9903 17.7123 15.9209 17.6984 15.8508 17.6983C15.7807 17.6983 15.7112 17.712 15.6464 17.7388C15.5817 17.7656 15.5228 17.805 15.4732 17.8545C15.4236 17.9041 15.3843 17.963 15.3575 18.0278C15.3307 18.0926 15.3169 18.162 15.317 18.2322C15.3171 18.3023 15.331 18.3717 15.3579 18.4364C15.3848 18.5012 15.4242 18.56 15.4739 18.6095L17.6006 20.7362C17.6501 20.7857 17.7089 20.825 17.7736 20.8518C17.8383 20.8786 17.9077 20.8924 17.9777 20.8924C18.0477 20.8924 18.1171 20.8786 18.1818 20.8518C18.2465 20.825 18.3053 20.7857 18.3548 20.7362L23.8437 15.2468C23.9434 15.1467 23.9993 15.0111 23.9992 14.8699C23.9991 14.7286 23.9429 14.5932 23.843 14.4933C23.7431 14.3934 23.6077 14.3372 23.4664 14.3371C23.3252 14.3369 23.1896 14.3929 23.0895 14.4926L17.9777 19.6048L16.2281 17.8553ZM23.3521 17.2464C23.2182 17.2732 23.0989 17.3484 23.0169 17.4576C22.9349 17.5667 22.8959 17.7023 22.9075 17.8384C23.0183 18.8764 22.7738 19.9214 22.2138 20.8024C21.6538 21.6835 20.8115 22.3485 19.8246 22.6888C18.8377 23.0291 17.7646 23.0245 16.7807 22.6758C15.7967 22.3271 14.9601 21.6549 14.4077 20.7691C13.8553 19.8833 13.6197 18.8363 13.7394 17.7992C13.8591 16.7621 14.327 15.7963 15.0667 15.0597C15.8064 14.323 16.7741 13.8591 17.8117 13.7438C18.8492 13.6285 19.8951 13.8685 20.7785 14.4247C21.0901 14.6209 21.4702 14.6381 21.6615 14.4142C21.7064 14.3502 21.7374 14.2776 21.7525 14.2009C21.7675 14.1242 21.7663 14.0452 21.7489 13.9691C21.7314 13.8929 21.6982 13.8212 21.6513 13.7587C21.6044 13.6962 21.5448 13.6443 21.4766 13.6063C20.4032 12.8896 19.1175 12.5603 17.8318 12.6727C16.5461 12.785 15.3371 13.3324 14.4043 14.2245C13.4715 15.1166 12.8707 16.3 12.7011 17.5795C12.5314 18.859 12.8029 20.1581 13.4709 21.2625C14.1389 22.3669 15.1634 23.2105 16.3754 23.6542C17.5874 24.0979 18.9144 24.1151 20.1375 23.703C21.3606 23.2909 22.4067 22.4741 23.1031 21.3874C23.7995 20.3008 24.1046 19.0091 23.9682 17.7256C23.963 17.6522 23.9424 17.5806 23.9078 17.5157C23.8731 17.4507 23.8252 17.3937 23.7671 17.3485C23.7089 17.3033 23.6419 17.2709 23.5704 17.2533C23.4989 17.2357 23.4245 17.2333 23.3521 17.2464H23.3521Z" fill="#162C17"/>
</svg>
