<svg width="38" height="29" viewBox="0 0 38 29" fill="none" xmlns="http://www.w3.org/2000/svg">
<path d="M5.86382 28.3286C5.8444 28.3286 5.78149 28.3248 5.76164 28.3235C5.52858 28.3037 5.29931 28.169 5.18531 27.9646C5.07089 27.7607 5.04429 27.512 5.14942 27.303C5.90351 25.8075 6.28562 24.2115 6.28562 22.5572C6.28562 22.5572 6.28562 22.5572 6.28562 22.5564C2.28549 20.1088 0 16.6187 0 12.9348C0 5.8026 8.5234 0 19 0C29.4762 0 38 5.8026 38 12.9348C38 20.067 29.4762 25.8696 19 25.8696C17.2127 25.8696 15.4394 25.7002 13.7243 25.3663C11.5381 27.2794 8.76111 28.3286 5.86382 28.3286ZM19 1.40727C9.29944 1.40727 1.40727 6.57865 1.40727 12.9348C1.40727 16.2045 3.56313 19.3403 7.32344 21.5376C7.52949 21.6575 7.66038 21.8749 7.67136 22.113L7.6798 22.2498C7.6874 22.352 7.69373 22.4538 7.69373 22.5572C7.69373 24.0456 7.4214 25.4921 6.88222 26.8715C9.17067 26.6498 11.3257 25.6817 13.0374 24.0903C13.205 23.9345 13.4368 23.8703 13.661 23.9172C15.39 24.2786 17.1866 24.4623 19 24.4623C28.701 24.4623 36.5927 19.2909 36.5927 12.9348C36.5927 6.57865 28.701 1.40727 19 1.40727Z" fill="#708236"/>
</svg>
