<svg width="26" height="27" viewBox="0 0 26 27" fill="none" xmlns="http://www.w3.org/2000/svg">
<circle cx="12.7998" cy="12.7998" r="12.0498" stroke="#708236" stroke-width="1.5"/>
<circle cx="12.8004" cy="7.413" r="3.96573" stroke="#708236" stroke-width="1.5"/>
<mask id="path-3-inside-1_274_20814" fill="#708236" stroke="#708236">
<path fill-rule="evenodd" clip-rule="evenodd" d="M2.70519 20.667C4.88139 17.3075 8.59614 15.0163 12.8997 14.8295C17.2036 14.6427 21.1032 16.6036 23.5623 19.7623C21.3861 23.1218 17.6714 25.413 13.3678 25.5998C9.0639 25.7866 5.1643 23.8257 2.70519 20.667Z"/>
</mask>
<path d="M2.70519 20.667L1.44625 19.8515L0.866313 20.7467L1.52159 21.5884L2.70519 20.667ZM23.5623 19.7623L24.8213 20.5779L25.4012 19.6826L24.7459 18.8409L23.5623 19.7623ZM3.96413 21.4825C5.88771 18.513 9.16672 16.493 12.9648 16.3281L12.8346 13.3309C8.02556 13.5397 3.87507 16.102 1.44625 19.8515L3.96413 21.4825ZM12.9648 16.3281C16.7631 16.1632 20.2051 17.8918 22.3787 20.6838L24.7459 18.8409C22.0013 15.3155 17.6441 13.1222 12.8346 13.3309L12.9648 16.3281ZM22.3034 18.9468C20.3798 21.9163 17.1008 23.9363 13.3028 24.1012L13.4329 27.0984C18.2419 26.8896 22.3924 24.3273 24.8213 20.5779L22.3034 18.9468ZM13.3028 24.1012C9.50441 24.2661 6.06244 22.5376 3.8888 19.7455L1.52159 21.5884C4.26616 25.1138 8.62339 27.3072 13.4329 27.0984L13.3028 24.1012Z" fill="#708236" mask="url(#path-3-inside-1_274_20814)"/>
</svg>
