<svg width="16" height="16" viewBox="0 0 16 16" fill="none" xmlns="http://www.w3.org/2000/svg">
<circle cx="7.84335" cy="7.84335" r="7.34335" stroke="#FBFBFB"/>
<circle cx="7.84376" cy="4.542" r="2.38966" stroke="#FBFBFB"/>
<mask id="path-3-inside-1_274_8876" fill="white">
<path fill-rule="evenodd" clip-rule="evenodd" d="M1.65736 12.661C2.99095 10.6029 5.26694 9.19939 7.90361 9.08493C10.5406 8.97046 12.9299 10.1718 14.4368 12.1069C13.1032 14.165 10.8272 15.5685 8.19056 15.683C5.55357 15.7975 3.16425 14.5961 1.65736 12.661Z"/>
</mask>
<path d="M1.65736 12.661L0.818142 12.1172L0.431327 12.7141L0.868353 13.2754L1.65736 12.661ZM14.4368 12.1069L15.276 12.6507L15.6629 12.0538L15.2258 11.4926L14.4368 12.1069ZM2.49657 13.2048C3.66174 11.4066 5.64727 10.1838 7.94698 10.084L7.86024 8.08587C4.8866 8.21496 2.32016 9.79918 0.818142 12.1172L2.49657 13.2048ZM7.94698 10.084C10.247 9.98415 12.3312 11.0306 13.6478 12.7213L15.2258 11.4926C13.5286 9.31298 10.8342 7.95677 7.86024 8.08587L7.94698 10.084ZM13.5976 11.5631C12.4324 13.3613 10.4469 14.5841 8.14719 14.6839L8.23393 16.682C11.2076 16.553 13.774 14.9687 15.276 12.6507L13.5976 11.5631ZM8.14719 14.6839C5.8472 14.7838 3.76294 13.7374 2.44636 12.0466L0.868353 13.2754C2.56556 15.4549 5.25993 16.8111 8.23393 16.682L8.14719 14.6839Z" fill="#FBFBFB" mask="url(#path-3-inside-1_274_8876)"/>
</svg>
